<svg width="24" height="24" viewBox="0 0 24 24" fill="none" xmlns="http://www.w3.org/2000/svg">
<g clip-path="url(#clip0_606_9873)">
<path fill-rule="evenodd" clip-rule="evenodd" d="M21.3113 2.68875C20.9272 2.30492 20.3657 2.15863 19.8431 2.30625H19.8291L1.83469 7.76625C1.23493 7.93873 0.804617 8.46454 0.754171 9.08657C0.703725 9.7086 1.04368 10.2969 1.60781 10.5638L9.63469 14.3653L13.4362 22.3922C13.6813 22.917 14.2089 23.2518 14.7881 23.25C14.8313 23.25 14.8744 23.2481 14.9175 23.2444C15.5375 23.1942 16.0609 22.7639 16.23 22.1653L21.6863 4.17094C21.6863 4.16625 21.6863 4.16156 21.6863 4.15688C21.8358 3.63569 21.6924 3.07438 21.3113 2.68875ZM14.7966 21.7359L14.7919 21.7491L11.1019 13.9594L15.5306 9.52969C15.8108 9.23481 15.8048 8.77038 15.5172 8.48278C15.2296 8.19517 14.7652 8.18923 14.4703 8.46937L10.0406 12.8981L2.25 9.20813H2.26312L20.25 3.75L14.7966 21.7359Z" fill="#0D141C"/>
</g>
<defs>
<clipPath id="clip0_606_9873">
<rect width="24" height="24" fill="white"/>
</clipPath>
</defs>
</svg>
