<svg width="24" height="24" viewBox="0 0 24 24" fill="none" xmlns="http://www.w3.org/2000/svg">
<g clip-path="url(#clip0_606_9940)">
<path fill-rule="evenodd" clip-rule="evenodd" d="M21.6187 4.64344C21.3828 4.09823 20.8441 3.74659 20.25 3.75H3.75C3.15687 3.75117 2.62014 4.10173 2.38066 4.64436C2.14118 5.18699 2.24393 5.81978 2.64281 6.25875L2.65031 6.26719L9 13.0472V20.25C8.99987 20.8032 9.30418 21.3115 9.7918 21.5726C10.2794 21.8338 10.8712 21.8054 11.3316 21.4988L14.3316 19.4981C14.7492 19.2199 15.0001 18.7512 15 18.2494V13.0472L21.3506 6.26719L21.3581 6.25875C21.7615 5.8215 21.8641 5.18536 21.6187 4.64344ZM13.9069 12.0262C13.6463 12.3024 13.5008 12.6675 13.5 13.0472V18.2494L10.5 20.25V13.0472C10.5009 12.6661 10.356 12.2992 10.095 12.0216L3.75 5.25H20.25L13.9069 12.0262Z" fill="#121417"/>
</g>
<defs>
<clipPath id="clip0_606_9940">
<rect width="24" height="24" fill="white"/>
</clipPath>
</defs>
</svg>
