<svg width="434" height="325" viewBox="0 0 434 325" fill="none" xmlns="http://www.w3.org/2000/svg">
<path d="M67.169 292.384C149.843 335.571 283.874 335.571 366.549 292.384C449.223 249.197 449.213 179.172 366.549 135.985C283.884 92.7977 149.843 92.7977 67.169 135.985C-15.5053 179.172 -15.4954 249.217 67.169 292.384Z" fill="#F5F5F5"/>
<path d="M368.078 258.985C363.456 260.88 358.274 260.88 353.652 258.985C349.706 257.081 349.706 254.051 353.652 252.078C358.272 250.174 363.458 250.174 368.078 252.078C372.064 254.002 372.064 257.11 368.078 258.985Z" fill="#E0E0E0"/>
<path d="M51.6088 253.499C56.3117 255.433 61.5879 255.433 66.2907 253.499C70.346 251.526 70.346 248.427 66.2907 246.493C61.5858 244.57 56.3138 244.57 51.6088 246.493C47.5536 248.427 47.5536 251.565 51.6088 253.499Z" fill="#E0E0E0"/>
<path d="M300.52 231.456C302.986 231.772 305.838 230.924 307.071 229.286C308.522 227.362 307.88 224.352 308.581 222.744C309.281 221.136 311.541 221.392 312.597 220.031C313.652 218.669 312.014 215.413 312.597 213.686C313.179 211.959 314.856 210.312 315.616 209.128C316.376 207.944 315.616 206.168 313.021 207.066C310.426 207.963 309.074 211.071 306.558 210.549C304.042 210.026 301.891 211.535 301.852 214.032C301.923 215.008 301.732 215.985 301.299 216.863C300.825 217.633 299.563 218.067 298.99 219.261L300.52 231.456Z" fill="#318CFF"/>
<path opacity="0.2" d="M300.52 231.456C302.986 231.772 305.838 230.924 307.071 229.286C308.522 227.362 307.88 224.352 308.581 222.744C309.281 221.136 311.541 221.392 312.597 220.031C313.652 218.669 312.014 215.413 312.597 213.686C313.179 211.959 314.856 210.312 315.616 209.128C316.376 207.944 315.616 206.168 313.021 207.066C310.426 207.963 309.074 211.071 306.558 210.549C304.042 210.026 301.891 211.535 301.852 214.032C301.923 215.008 301.732 215.985 301.299 216.863C300.825 217.633 299.563 218.067 298.99 219.261L300.52 231.456Z" fill="black"/>
<path d="M314.462 207.776C310.841 209.749 301.013 221.037 300.204 227.036" stroke="white" stroke-width="0.5" stroke-miterlimit="10" stroke-linecap="round"/>
<path d="M76.5811 201.323L120.666 175.867V67.1044L76.5811 92.5608V201.323Z" fill="#37474F"/>
<path d="M76.5813 92.5608L28.4805 64.7955V173.548L76.5813 201.323V92.5608Z" fill="#455A64"/>
<path d="M120.666 67.1044L72.5754 39.3391L28.4805 64.7956L76.5813 92.5609L120.666 67.1044Z" fill="#37474F"/>
<path d="M46.4873 183.967V165.447L58.9491 172.611V191.121L46.4873 183.967Z" fill="#E0E0E0"/>
<path d="M51.9238 168.575L53.1375 169.276V187.786L51.9238 187.085V168.575Z" fill="#263238"/>
<path d="M71.5397 170.627V160.307L63.291 155.541V165.862L71.5397 170.627Z" fill="#E0E0E0"/>
<path d="M63.291 165.862L65.3532 164.678V156.735L63.291 155.541V165.862Z" fill="#263238"/>
<path d="M71.5397 168.249L65.3532 164.678L63.291 165.862L71.5397 170.627V168.249Z" fill="#37474F"/>
<path d="M71.5397 190.4V180.08L63.291 175.324V185.645L71.5397 190.4Z" fill="#E0E0E0"/>
<path d="M63.291 185.645L65.3532 184.451V176.508L63.291 175.324V185.645Z" fill="#263238"/>
<path d="M71.5397 188.023L65.3532 184.451L63.291 185.645L71.5397 190.4V188.023Z" fill="#37474F"/>
<path d="M71.5397 151.269V140.948L63.291 136.192V146.513L71.5397 151.269Z" fill="#E0E0E0"/>
<path d="M63.291 146.513L65.3532 145.319V137.376L63.291 136.192V146.513Z" fill="#263238"/>
<path d="M71.5397 148.891L65.3532 145.319L63.291 146.513L71.5397 151.269V148.891Z" fill="#37474F"/>
<path d="M71.5397 131.91V121.589L63.291 116.833V127.154L71.5397 131.91Z" fill="#E0E0E0"/>
<path d="M63.291 127.154L65.3532 125.96V118.017L63.291 116.833V127.154Z" fill="#263238"/>
<path d="M71.5397 129.532L65.3532 125.96L63.291 127.154L71.5397 131.91V129.532Z" fill="#37474F"/>
<path d="M71.5397 112.561V102.23L63.291 97.4745V107.795L71.5397 112.561Z" fill="#E0E0E0"/>
<path d="M63.291 107.795L65.3532 106.601V98.6684L63.291 97.4745V107.795Z" fill="#263238"/>
<path d="M71.5397 110.173L65.3532 106.601L63.291 107.795L71.5397 112.561V110.173Z" fill="#37474F"/>
<path d="M41.7809 153.449V143.128L33.5322 138.363V148.683L41.7809 153.449Z" fill="#E0E0E0"/>
<path d="M33.5322 148.683L35.5944 147.499V139.557L33.5322 138.363V148.683Z" fill="#263238"/>
<path d="M41.7809 151.071L35.5944 147.499L33.5322 148.683L41.7809 153.449V151.071Z" fill="#37474F"/>
<path d="M41.7809 173.222V162.902L33.5322 158.146V168.457L41.7809 173.222Z" fill="#E0E0E0"/>
<path d="M33.5322 168.457L35.5944 167.273V159.33L33.5322 158.146V168.457Z" fill="#263238"/>
<path d="M41.7809 170.844L35.5944 167.273L33.5322 168.457L41.7809 173.222V170.844Z" fill="#37474F"/>
<path d="M41.7809 133.923V123.602L33.5322 118.846V129.167L41.7809 133.923Z" fill="#E0E0E0"/>
<path d="M33.5322 129.167L35.5944 127.973V120.03L33.5322 118.846V129.167Z" fill="#263238"/>
<path d="M41.7809 131.545L35.5944 127.973L33.5322 129.167L41.7809 133.923V131.545Z" fill="#37474F"/>
<path d="M41.7809 114.406V104.085L33.5322 99.3196V109.64L41.7809 114.406Z" fill="#E0E0E0"/>
<path d="M33.5322 109.64L35.5944 108.456V100.514L33.5322 99.3196V109.64Z" fill="#263238"/>
<path d="M41.7809 112.028L35.5944 108.456L33.5322 109.64L41.7809 114.406V112.028Z" fill="#37474F"/>
<path d="M41.7809 94.8796V84.5588L33.5322 79.803V90.1237L41.7809 94.8796Z" fill="#FAFAFA"/>
<path d="M33.5322 90.1237L35.5944 88.9299V80.9871L33.5322 79.803V90.1237Z" fill="#263238"/>
<path d="M41.7809 92.5017L35.5944 88.9299L33.5322 90.1238L41.7809 94.8796V92.5017Z" fill="#37474F"/>
<path d="M46.4873 86.7592L51.2925 89.5317V158.945L46.4873 156.182V86.7592Z" fill="#FAFAFA"/>
<path d="M46.4873 86.7592L48.5199 87.9333V155.038L46.4873 156.182V86.7592Z" fill="#263238"/>
<path d="M48.5199 155.038L51.2925 156.577V158.945L46.4873 156.182L48.5199 155.038Z" fill="#37474F"/>
<path d="M54.1338 91.1302L58.9488 93.8929V163.316L54.1338 160.543V91.1302Z" fill="#FAFAFA"/>
<path d="M54.1338 91.1302L56.1664 92.3043V159.399L54.1338 160.543V91.1302Z" fill="#263238"/>
<path d="M56.1664 159.399L58.9488 160.938V163.316L54.1338 160.543L56.1664 159.399Z" fill="#37474F"/>
<path d="M81.6826 170.627V160.307L89.9214 155.541V165.862L81.6826 170.627Z" fill="#E0E0E0"/>
<path d="M89.9215 165.862L87.8594 164.678L87.8692 156.735L89.9215 155.541V165.862Z" fill="#455A64"/>
<path d="M81.6826 168.249L87.8593 164.678L89.9214 165.862L81.6826 170.627V168.249Z" fill="#263238"/>
<path d="M94.499 163.257V152.936L102.748 148.18V158.501L94.499 163.257Z" fill="#E0E0E0"/>
<path d="M102.748 158.501L100.686 157.307V149.364L102.748 148.18V158.501Z" fill="#455A64"/>
<path d="M94.499 160.879L100.686 157.307L102.748 158.501L94.499 163.257V160.879Z" fill="#263238"/>
<path d="M107.316 155.896V145.575L115.565 140.81V151.13L107.316 155.896Z" fill="#E0E0E0"/>
<path d="M115.565 151.13L113.503 149.946V142.004L115.565 140.81V151.13Z" fill="#455A64"/>
<path d="M107.316 153.508L113.503 149.946L115.565 151.13L107.316 155.896V153.508Z" fill="#263238"/>
<path d="M81.6826 190.4V180.08L89.9214 175.324V185.645L81.6826 190.4Z" fill="#E0E0E0"/>
<path d="M89.9215 185.645L87.8594 184.451L87.8692 176.508L89.9215 175.324V185.645Z" fill="#455A64"/>
<path d="M81.6826 188.023L87.8593 184.451L89.9214 185.645L81.6826 190.4V188.023Z" fill="#263238"/>
<path d="M94.499 183.04V172.709L102.748 167.953V178.274L94.499 183.04Z" fill="#E0E0E0"/>
<path d="M102.748 178.274L100.686 177.08V169.147L102.748 167.953V178.274Z" fill="#455A64"/>
<path d="M94.499 180.652L100.686 177.08L102.748 178.274L94.499 183.04V180.652Z" fill="#263238"/>
<path d="M107.316 175.669V165.349L115.565 160.583V170.904L107.316 175.669Z" fill="#E0E0E0"/>
<path d="M115.565 170.904L113.503 169.72V161.777L115.565 160.583V170.904Z" fill="#455A64"/>
<path d="M107.316 173.291L113.503 169.72L115.565 170.904L107.316 175.669V173.291Z" fill="#263238"/>
<path d="M81.6826 151.269V140.948L89.9214 136.192V146.513L81.6826 151.269Z" fill="#E0E0E0"/>
<path d="M89.9215 146.513L87.8594 145.319L87.8692 137.376L89.9215 136.192V146.513Z" fill="#455A64"/>
<path d="M81.6826 148.891L87.8593 145.319L89.9214 146.513L81.6826 151.269V148.891Z" fill="#263238"/>
<path d="M94.499 143.819V133.498L102.748 128.743V139.063L94.499 143.819Z" fill="#E0E0E0"/>
<path d="M102.748 139.063L100.686 137.869V129.927L102.748 128.743V139.063Z" fill="#455A64"/>
<path d="M94.499 141.441L100.686 137.869L102.748 139.063L94.499 143.819V141.441Z" fill="#263238"/>
<path d="M107.316 136.37V126.049L115.565 121.293V131.614L107.316 136.37Z" fill="#E0E0E0"/>
<path d="M115.565 131.614L113.503 130.42V122.477L115.565 121.293V131.614Z" fill="#455A64"/>
<path d="M107.316 133.992L113.503 130.42L115.565 131.614L107.316 136.37V133.992Z" fill="#263238"/>
<path d="M81.6826 131.91V121.589L89.9214 116.833V127.154L81.6826 131.91Z" fill="#E0E0E0"/>
<path d="M89.9215 127.154L87.8594 125.96L87.8692 118.017L89.9215 116.833V127.154Z" fill="#455A64"/>
<path d="M81.6826 129.532L87.8593 125.96L89.9214 127.154L81.6826 131.91V129.532Z" fill="#263238"/>
<path d="M94.499 124.381V114.061L102.748 109.295V119.626L94.499 124.381Z" fill="#E0E0E0"/>
<path d="M102.748 119.626L100.686 118.432V110.489L102.748 109.295V119.626Z" fill="#455A64"/>
<path d="M94.499 122.004L100.686 118.432L102.748 119.626L94.499 124.381V122.004Z" fill="#263238"/>
<path d="M107.316 116.853V106.532L115.565 101.767V112.087L107.316 116.853Z" fill="#E0E0E0"/>
<path d="M115.565 112.087L113.503 110.903V102.96L115.565 101.767V112.087Z" fill="#455A64"/>
<path d="M107.316 114.475L113.503 110.903L115.565 112.087L107.316 116.853V114.475Z" fill="#263238"/>
<path d="M81.6826 112.561V102.23L89.9214 97.4745V107.795L81.6826 112.561Z" fill="#E0E0E0"/>
<path d="M89.9215 107.795L87.8594 106.601L87.8692 98.6684L89.9215 97.4745V107.795Z" fill="#455A64"/>
<path d="M81.6826 110.173L87.8593 106.601L89.9214 107.795L81.6826 112.561V110.173Z" fill="#263238"/>
<path d="M94.499 104.944V94.623L102.748 89.8573V100.178L94.499 104.944Z" fill="#E0E0E0"/>
<path d="M102.748 100.178L100.686 98.994V91.0512L102.748 89.8573V100.178Z" fill="#455A64"/>
<path d="M94.499 102.566L100.686 98.994L102.748 100.178L94.499 104.944V102.566Z" fill="#263238"/>
<path d="M107.316 97.3265V87.0058L115.565 82.25V92.5707L107.316 97.3265Z" fill="#E0E0E0"/>
<path d="M115.565 92.5707L113.503 91.3768V83.434L115.565 82.25V92.5707Z" fill="#455A64"/>
<path d="M107.316 94.9486L113.503 91.3768L115.565 92.5707L107.316 97.3265V94.9486Z" fill="#263238"/>
<path d="M36.502 64.7955L72.5751 43.9666L112.644 67.1044L76.5811 87.9333L36.502 64.7955Z" fill="#F0F0F0"/>
<path d="M72.5752 43.9666V48.5942L108.639 69.4231L112.644 67.1044L72.5752 43.9666Z" fill="#455A64"/>
<path d="M72.5751 43.9666L36.502 64.7955L40.5079 67.1044L72.5751 48.5942V43.9666Z" fill="#263238"/>
<path d="M354.757 201.323L310.672 175.867V67.1044L354.767 92.5608L354.757 201.323Z" fill="#455A64"/>
<path d="M354.767 92.5608L402.858 64.7955V173.548L354.757 201.323L354.767 92.5608Z" fill="#37474F"/>
<path d="M310.672 67.1044L358.773 39.3391L402.858 64.7956L354.767 92.5609L310.672 67.1044Z" fill="#37474F"/>
<path d="M384.861 183.967V165.447L372.39 172.611L372.4 191.121L384.861 183.967Z" fill="#E0E0E0"/>
<path d="M379.415 168.575L378.211 169.276V187.786L379.415 187.085V168.575Z" fill="#263238"/>
<path d="M359.799 170.627V160.307L368.048 155.541V165.862L359.799 170.627Z" fill="#E0E0E0"/>
<path d="M368.048 165.862L365.985 164.678V156.735L368.048 155.541V165.862Z" fill="#263238"/>
<path d="M359.799 168.249L365.985 164.678L368.048 165.862L359.799 170.627V168.249Z" fill="#455A64"/>
<path d="M359.799 190.4V180.08L368.048 175.324V185.645L359.799 190.4Z" fill="#E0E0E0"/>
<path d="M368.048 185.645L365.985 184.451V176.508L368.048 175.324V185.645Z" fill="#263238"/>
<path d="M359.799 188.023L365.985 184.451L368.048 185.645L359.799 190.4V188.023Z" fill="#455A64"/>
<path d="M359.799 151.269V140.948L368.048 136.192V146.513L359.799 151.269Z" fill="#E0E0E0"/>
<path d="M368.048 146.513L365.985 145.319V137.376L368.048 136.192V146.513Z" fill="#263238"/>
<path d="M359.799 148.891L365.985 145.319L368.048 146.513L359.799 151.269V148.891Z" fill="#455A64"/>
<path d="M359.799 131.91V121.589L368.048 116.833V127.154L359.799 131.91Z" fill="#E0E0E0"/>
<path d="M368.048 127.154L365.985 125.96V118.017L368.048 116.833V127.154Z" fill="#263238"/>
<path d="M359.799 129.532L365.985 125.96L368.048 127.154L359.799 131.91V129.532Z" fill="#455A64"/>
<path d="M359.799 112.561V102.23L368.048 97.4745V107.795L359.799 112.561Z" fill="#E0E0E0"/>
<path d="M368.048 107.795L365.985 106.601V98.6684L368.048 97.4745V107.795Z" fill="#263238"/>
<path d="M359.799 110.173L365.985 106.601L368.048 107.795L359.799 112.561V110.173Z" fill="#455A64"/>
<path d="M389.567 153.449V143.128L397.806 138.363V148.683L389.567 153.449Z" fill="#E0E0E0"/>
<path d="M397.806 148.683L395.754 147.499V139.557L397.806 138.363V148.683Z" fill="#263238"/>
<path d="M389.567 151.071L395.754 147.499L397.806 148.683L389.567 153.449V151.071Z" fill="#455A64"/>
<path d="M389.567 173.222V162.902L397.806 158.146V168.457L389.567 173.222Z" fill="#E0E0E0"/>
<path d="M397.806 168.457L395.754 167.273V159.33L397.806 158.146V168.457Z" fill="#263238"/>
<path d="M389.567 170.844L395.754 167.273L397.806 168.457L389.567 173.222V170.844Z" fill="#455A64"/>
<path d="M389.567 133.923V123.602L397.806 118.846V129.167L389.567 133.923Z" fill="#E0E0E0"/>
<path d="M397.806 129.167L395.754 127.973V120.03L397.806 118.846V129.167Z" fill="#263238"/>
<path d="M389.567 131.545L395.754 127.973L397.806 129.167L389.567 133.923V131.545Z" fill="#455A64"/>
<path d="M389.567 114.406V104.085L397.806 99.3196V109.64L389.567 114.406Z" fill="#E0E0E0"/>
<path d="M397.806 109.64L395.754 108.456V100.514L397.806 99.3196V109.64Z" fill="#263238"/>
<path d="M389.567 112.028L395.754 108.456L397.806 109.64L389.567 114.406V112.028Z" fill="#455A64"/>
<path d="M389.567 94.8796V84.5588L397.806 79.803V90.1237L389.567 94.8796Z" fill="#FAFAFA"/>
<path d="M397.806 90.1237L395.754 88.9299V80.9871L397.806 79.803V90.1237Z" fill="#263238"/>
<path d="M389.567 92.5017L395.754 88.9299L397.806 90.1238L389.567 94.8796V92.5017Z" fill="#455A64"/>
<path d="M384.861 86.7592L380.046 89.5317V158.945L384.861 156.182V86.7592Z" fill="#FAFAFA"/>
<path d="M384.861 86.7592L382.818 87.9333V155.038L384.861 156.182V86.7592Z" fill="#263238"/>
<path d="M382.818 155.038L380.046 156.577V158.945L384.861 156.182L382.818 155.038Z" fill="#455A64"/>
<path d="M377.205 91.1302L372.399 93.8929V163.316L377.205 160.543V91.1302Z" fill="#FAFAFA"/>
<path d="M377.204 91.1302L375.172 92.3043V159.399L377.204 160.543V91.1302Z" fill="#263238"/>
<path d="M375.172 159.399L372.399 160.938V163.316L377.205 160.543L375.172 159.399Z" fill="#455A64"/>
<path d="M349.666 170.627V160.307L341.417 155.541V165.862L349.666 170.627Z" fill="#E0E0E0"/>
<path d="M341.417 165.862L343.479 164.678V156.735L341.417 155.541V165.862Z" fill="#37474F"/>
<path d="M349.666 168.249L343.479 164.678L341.417 165.862L349.666 170.627V168.249Z" fill="#263238"/>
<path d="M336.839 163.257V152.936L328.601 148.18V158.501L336.839 163.257Z" fill="#E0E0E0"/>
<path d="M328.601 158.501L330.653 157.307V149.364L328.601 148.18V158.501Z" fill="#37474F"/>
<path d="M336.839 160.879L330.653 157.307L328.601 158.501L336.839 163.257V160.879Z" fill="#263238"/>
<path d="M324.022 155.896V145.575L315.773 140.81V151.13L324.022 155.896Z" fill="#E0E0E0"/>
<path d="M315.773 151.13L317.836 149.946V142.004L315.773 140.81V151.13Z" fill="#37474F"/>
<path d="M324.022 153.508L317.836 149.946L315.773 151.13L324.022 155.896V153.508Z" fill="#263238"/>
<path d="M349.666 190.4V180.08L341.417 175.324V185.645L349.666 190.4Z" fill="#E0E0E0"/>
<path d="M341.417 185.645L343.479 184.451V176.508L341.417 175.324V185.645Z" fill="#37474F"/>
<path d="M349.666 188.023L343.479 184.451L341.417 185.645L349.666 190.4V188.023Z" fill="#263238"/>
<path d="M336.839 183.04V172.709L328.601 167.953V178.274L336.839 183.04Z" fill="#E0E0E0"/>
<path d="M328.601 178.274L330.653 177.08V169.147L328.601 167.953V178.274Z" fill="#37474F"/>
<path d="M336.839 180.652L330.653 177.08L328.601 178.274L336.839 183.04V180.652Z" fill="#263238"/>
<path d="M324.022 175.669V165.349L315.773 160.583V170.904L324.022 175.669Z" fill="#E0E0E0"/>
<path d="M315.773 170.904L317.836 169.72V161.777L315.773 160.583V170.904Z" fill="#37474F"/>
<path d="M324.022 173.291L317.836 169.72L315.773 170.904L324.022 175.669V173.291Z" fill="#263238"/>
<path d="M349.666 151.269V140.948L341.417 136.192V146.513L349.666 151.269Z" fill="#E0E0E0"/>
<path d="M341.417 146.513L343.479 145.319V137.376L341.417 136.192V146.513Z" fill="#37474F"/>
<path d="M349.666 148.891L343.479 145.319L341.417 146.513L349.666 151.269V148.891Z" fill="#263238"/>
<path d="M336.839 143.819V133.498L328.601 128.743V139.063L336.839 143.819Z" fill="#E0E0E0"/>
<path d="M328.601 139.063L330.653 137.869V129.927L328.601 128.743V139.063Z" fill="#37474F"/>
<path d="M336.839 141.441L330.653 137.869L328.601 139.063L336.839 143.819V141.441Z" fill="#263238"/>
<path d="M324.022 136.37V126.049L315.773 121.293V131.614L324.022 136.37Z" fill="#E0E0E0"/>
<path d="M315.773 131.614L317.836 130.42V122.477L315.773 121.293V131.614Z" fill="#37474F"/>
<path d="M324.022 133.992L317.836 130.42L315.773 131.614L324.022 136.37V133.992Z" fill="#263238"/>
<path d="M349.666 131.91V121.589L341.417 116.833V127.154L349.666 131.91Z" fill="#E0E0E0"/>
<path d="M341.417 127.154L343.479 125.96V118.017L341.417 116.833V127.154Z" fill="#37474F"/>
<path d="M349.666 129.532L343.479 125.96L341.417 127.154L349.666 131.91V129.532Z" fill="#263238"/>
<path d="M336.839 124.381V114.061L328.601 109.295V119.626L336.839 124.381Z" fill="#E0E0E0"/>
<path d="M328.601 119.626L330.653 118.432V110.489L328.601 109.295V119.626Z" fill="#37474F"/>
<path d="M336.839 122.004L330.653 118.432L328.601 119.626L336.839 124.381V122.004Z" fill="#263238"/>
<path d="M324.022 116.853V106.532L315.773 101.767V112.087L324.022 116.853Z" fill="#E0E0E0"/>
<path d="M315.773 112.087L317.836 110.903V102.96L315.773 101.767V112.087Z" fill="#37474F"/>
<path d="M324.022 114.475L317.836 110.903L315.773 112.087L324.022 116.853V114.475Z" fill="#263238"/>
<path d="M349.666 112.561V102.23L341.417 97.4745V107.795L349.666 112.561Z" fill="#E0E0E0"/>
<path d="M341.417 107.795L343.479 106.601V98.6684L341.417 97.4745V107.795Z" fill="#37474F"/>
<path d="M349.666 110.173L343.479 106.601L341.417 107.795L349.666 112.561V110.173Z" fill="#263238"/>
<path d="M336.839 104.944V94.623L328.601 89.8573V100.178L336.839 104.944Z" fill="#E0E0E0"/>
<path d="M328.601 100.178L330.653 98.994V91.0512L328.601 89.8573V100.178Z" fill="#37474F"/>
<path d="M336.839 102.566L330.653 98.994L328.601 100.178L336.839 104.944V102.566Z" fill="#263238"/>
<path d="M324.022 97.3265V87.0058L315.773 82.25V92.5707L324.022 97.3265Z" fill="#E0E0E0"/>
<path d="M315.773 92.5707L317.836 91.3768V83.434L315.773 82.25V92.5707Z" fill="#37474F"/>
<path d="M324.022 94.9486L317.836 91.3768L315.773 92.5707L324.022 97.3265V94.9486Z" fill="#263238"/>
<path d="M394.846 64.7955L358.772 43.9666L318.693 67.1044L354.767 87.9333L394.846 64.7955Z" fill="#F0F0F0"/>
<path d="M358.772 43.9666V48.5942L322.699 69.4231L318.693 67.1044L358.772 43.9666Z" fill="#263238"/>
<path d="M358.773 43.9666L394.847 64.7955L390.831 67.1044L358.773 48.5942V43.9666Z" fill="#455A64"/>
<path d="M289.37 302.961C284.354 305.023 278.727 305.023 273.711 302.961C269.389 300.899 269.389 297.564 273.711 295.502C278.727 293.44 284.354 293.44 289.37 295.502C293.701 297.564 293.701 300.899 289.37 302.961Z" fill="#E0E0E0"/>
<path d="M127.425 296.163C132.444 298.226 138.074 298.226 143.093 296.163C147.415 294.101 147.415 290.766 143.093 288.704C138.074 286.641 132.444 286.641 127.425 288.704C123.123 290.766 123.123 294.101 127.425 296.163Z" fill="#E0E0E0"/>
<path d="M218.999 294.959L314.924 239.577C315.568 239.235 316.107 238.724 316.483 238.099C316.859 237.474 317.057 236.759 317.057 236.03C317.057 235.3 316.859 234.585 316.483 233.96C316.107 233.335 315.568 232.824 314.924 232.483L218.989 177.1C218.327 176.764 217.595 176.59 216.853 176.59C216.111 176.59 215.379 176.764 214.717 177.1L118.791 232.443C118.147 232.785 117.608 233.296 117.233 233.921C116.857 234.546 116.658 235.261 116.658 235.99C116.658 236.719 116.857 237.435 117.233 238.06C117.608 238.685 118.147 239.195 118.791 239.537L214.727 294.92C215.386 295.262 216.116 295.443 216.858 295.45C217.6 295.457 218.334 295.289 218.999 294.959Z" fill="#318CFF"/>
<path d="M218.999 294.959L314.924 239.577C315.568 239.235 316.107 238.724 316.483 238.099C316.859 237.474 317.057 236.759 317.057 236.03C317.057 235.3 316.859 234.585 316.483 233.96C316.107 233.335 315.568 232.824 314.924 232.483L218.989 177.1C218.327 176.764 217.595 176.59 216.853 176.59C216.111 176.59 215.379 176.764 214.717 177.1L118.791 232.443C118.147 232.785 117.608 233.296 117.233 233.921C116.857 234.546 116.658 235.261 116.658 235.99C116.658 236.719 116.857 237.435 117.233 238.06C117.608 238.685 118.147 239.195 118.791 239.537L214.727 294.92C215.386 295.262 216.116 295.443 216.858 295.45C217.6 295.457 218.334 295.289 218.999 294.959Z" fill="#318CFF"/>
<path d="M218.999 294.959L314.924 239.577C315.568 239.235 316.107 238.724 316.483 238.099C316.859 237.474 317.057 236.759 317.057 236.03C317.057 235.3 316.859 234.585 316.483 233.96C316.107 233.335 315.568 232.824 314.924 232.483L218.989 177.1C218.327 176.764 217.595 176.59 216.853 176.59C216.111 176.59 215.379 176.764 214.717 177.1L118.791 232.443C118.147 232.785 117.608 233.296 117.233 233.921C116.857 234.546 116.658 235.261 116.658 235.99C116.658 236.719 116.857 237.435 117.233 238.06C117.608 238.685 118.147 239.195 118.791 239.537L214.727 294.92C215.386 295.262 216.116 295.443 216.858 295.45C217.6 295.457 218.334 295.289 218.999 294.959Z" fill="#318CFF"/>
<path opacity="0.2" d="M218.999 294.959L314.924 239.577C315.568 239.235 316.107 238.724 316.483 238.099C316.859 237.474 317.057 236.759 317.057 236.03C317.057 235.3 316.859 234.585 316.483 233.96C316.107 233.335 315.568 232.824 314.924 232.483L218.989 177.1C218.327 176.764 217.595 176.59 216.853 176.59C216.111 176.59 215.379 176.764 214.717 177.1L118.791 232.443C118.147 232.785 117.608 233.296 117.233 233.921C116.857 234.546 116.658 235.261 116.658 235.99C116.658 236.719 116.857 237.435 117.233 238.06C117.608 238.685 118.147 239.195 118.791 239.537L214.727 294.92C215.386 295.262 216.116 295.443 216.858 295.45C217.6 295.457 218.334 295.289 218.999 294.959Z" fill="black"/>
<path d="M118.792 234.949L214.727 290.332C215.389 290.667 216.121 290.842 216.864 290.842C217.606 290.842 218.338 290.667 219 290.332L314.925 234.949C315.183 234.862 315.407 234.696 315.565 234.475C315.724 234.253 315.809 233.988 315.809 233.716C315.809 233.444 315.724 233.178 315.565 232.957C315.407 232.736 315.183 232.57 314.925 232.483L218.99 177.1C218.328 176.764 217.596 176.59 216.854 176.59C216.111 176.59 215.38 176.764 214.718 177.1L118.792 232.443C118.519 232.52 118.279 232.685 118.108 232.911C117.937 233.137 117.845 233.413 117.845 233.696C117.845 233.98 117.937 234.255 118.108 234.482C118.279 234.708 118.519 234.872 118.792 234.949Z" fill="#318CFF"/>
<path d="M232.892 270.736L301.022 231.397V67.1044L232.892 106.443V270.736Z" fill="#37474F"/>
<path d="M216.858 282.31V115.699L132.694 67.1044V233.716L216.858 282.31Z" fill="#455A64"/>
<path d="M216.858 212.887L132.694 164.293V159.665L124.672 164.293L216.858 217.515V212.887Z" fill="#318CFF"/>
<path opacity="0.5" d="M216.858 212.887L132.694 164.293V159.665L124.672 164.293L216.858 217.515V212.887Z" fill="white"/>
<path d="M124.672 164.293L216.858 217.515V222.142L124.672 168.92V164.293Z" fill="#318CFF"/>
<path d="M216.858 212.887L232.892 203.632L236.898 205.951L216.858 217.515V212.887Z" fill="#318CFF"/>
<path opacity="0.5" d="M216.858 212.887L232.892 203.632L236.898 205.951L216.858 217.515V212.887Z" fill="white"/>
<path d="M216.858 222.142L236.898 210.578V205.951L216.858 217.515V222.142Z" fill="#318CFF"/>
<path opacity="0.2" d="M216.858 222.142L236.898 210.578V205.951L216.858 217.515V222.142Z" fill="black"/>
<path d="M216.858 115.699L232.892 106.443V203.632L216.858 212.887V115.699Z" fill="#263238"/>
<path d="M216.858 222.142L232.892 212.887V273.055L216.858 282.31V222.142Z" fill="#263238"/>
<path d="M208.846 199.004V175.867L192.812 166.612V189.749L208.846 199.004Z" fill="#318CFF"/>
<path opacity="0.5" d="M208.846 199.004V175.867L192.812 166.612V189.749L208.846 199.004Z" fill="white"/>
<path d="M192.812 189.749L196.818 187.44V168.92L192.812 166.612V189.749Z" fill="#263238"/>
<path d="M208.846 194.377L196.818 187.44L192.812 189.749L208.846 199.004V194.377Z" fill="#263238"/>
<path d="M184.791 185.122V161.984L164.751 150.41V173.548L184.791 185.122Z" fill="#318CFF"/>
<path opacity="0.5" d="M184.791 185.122V161.984L164.751 150.41V173.548L184.791 185.122Z" fill="white"/>
<path d="M168.757 171.239L168.767 152.729L164.751 150.41V173.548L168.757 171.239Z" fill="#263238"/>
<path d="M184.791 180.494V185.122L164.751 173.548L168.757 171.239L184.791 180.494Z" fill="#263238"/>
<path d="M242.906 248.753V225.615L262.946 214.051V237.189L242.906 248.753Z" fill="#318CFF"/>
<path d="M258.94 234.87V216.36L262.946 214.051V237.189L258.94 234.87Z" fill="#263238"/>
<path d="M242.906 244.125V248.753L262.946 237.189L258.94 234.87L242.906 244.125Z" fill="#263238"/>
<path d="M242.906 210.193V187.056L262.946 175.482V198.62L242.906 210.193Z" fill="#318CFF"/>
<path d="M258.94 196.311V177.791L262.946 175.482V198.62L258.94 196.311Z" fill="#263238"/>
<path d="M242.906 205.566V210.193L262.946 198.62L258.94 196.311L242.906 205.566Z" fill="#263238"/>
<path d="M242.906 171.624V148.486L262.946 136.912V160.05L242.906 171.624Z" fill="#318CFF"/>
<path d="M258.94 157.741V139.231L262.946 136.912V160.05L258.94 157.741Z" fill="#263238"/>
<path d="M242.906 166.996V171.624L262.946 160.05L258.94 157.741L242.906 166.996Z" fill="#263238"/>
<path d="M242.906 133.054V109.917L262.946 98.3428V121.49L242.906 133.054Z" fill="#318CFF"/>
<path d="M258.94 119.172V100.662L262.946 98.3428V121.49L258.94 119.172Z" fill="#263238"/>
<path d="M242.906 128.427V133.054L262.946 121.49L258.94 119.172L242.906 128.427Z" fill="#263238"/>
<path d="M271.402 232.305V209.167L291.452 197.603L291.442 220.741L271.402 232.305Z" fill="#318CFF"/>
<path d="M287.436 218.422V199.912L291.451 197.603L291.441 220.741L287.436 218.422Z" fill="#263238"/>
<path d="M271.402 227.687V232.305L291.442 220.741L287.436 218.422L271.402 227.687Z" fill="#263238"/>
<path d="M271.402 193.745V170.598L291.452 159.034L291.442 182.171L271.402 193.745Z" fill="#318CFF"/>
<path d="M287.436 179.863V161.343L291.451 159.034L291.441 182.171L287.436 179.863Z" fill="#263238"/>
<path d="M271.402 189.118V193.745L291.442 182.172L287.436 179.863L271.402 189.118Z" fill="#263238"/>
<path d="M271.402 155.176V132.038L291.452 120.464L291.442 143.612L271.402 155.176Z" fill="#318CFF"/>
<path d="M287.436 141.293V122.783L291.451 120.464L291.441 143.612L287.436 141.293Z" fill="#263238"/>
<path d="M271.402 150.548V155.176L291.442 143.612L287.436 141.293L271.402 150.548Z" fill="#263238"/>
<path d="M271.402 116.606V93.4686L291.452 81.9047L291.442 105.042L271.402 116.606Z" fill="#318CFF"/>
<path d="M287.436 102.724V84.2135L291.451 81.9047L291.441 105.042L287.436 102.724Z" fill="#263238"/>
<path d="M271.402 111.979V116.606L291.442 105.042L287.436 102.724L271.402 111.979Z" fill="#263238"/>
<path d="M156.74 168.92V145.783L140.706 136.527V159.665L156.74 168.92Z" fill="#318CFF"/>
<path opacity="0.5" d="M156.74 168.92V145.783L140.706 136.527V159.665L156.74 168.92Z" fill="white"/>
<path d="M144.712 157.356L140.706 159.665V136.527L144.712 138.846V157.356Z" fill="#263238"/>
<path d="M156.74 164.293L144.712 157.356L140.706 159.665L156.74 168.92V164.293Z" fill="#263238"/>
<path d="M164.751 213.114C164.751 206.582 169.24 203.869 174.776 207.066C180.311 210.262 184.791 218.146 184.791 224.688V263.8L164.751 252.226V213.114Z" fill="#263238"/>
<path d="M184.791 224.688C184.791 218.146 180.312 210.253 174.776 207.066C173.367 206.173 171.728 205.71 170.06 205.734C169.144 207.262 168.695 209.025 168.767 210.805V249.917L184.791 259.172V224.688Z" fill="#455A64"/>
<path d="M184.791 224.688C184.791 218.146 180.312 210.253 174.776 207.066C173.367 206.173 171.728 205.71 170.06 205.734C169.144 207.262 168.695 209.025 168.767 210.805V249.917L184.791 259.172V224.688Z" fill="#318CFF"/>
<path opacity="0.5" d="M184.791 224.688C184.791 218.146 180.312 210.253 174.776 207.066C173.367 206.173 171.728 205.71 170.06 205.734C169.144 207.262 168.695 209.025 168.767 210.805V249.917L184.791 259.172V224.688Z" fill="white"/>
<path d="M177.667 209.246C177.052 208.666 176.392 208.135 175.694 207.658V218.057L168.787 214.051V216.449L175.694 220.465V250.45L177.667 251.585V221.59L184.791 225.704V224.717C184.791 224.244 184.791 223.731 184.722 223.287L177.667 219.222V209.246Z" fill="#455A64"/>
<path d="M216.859 115.699V101.816L128.679 50.9129V64.7955L216.859 115.699Z" fill="#318CFF"/>
<path opacity="0.5" d="M216.859 115.699V101.816L128.679 50.9129V64.7955L216.859 115.699Z" fill="white"/>
<path d="M216.858 115.699V101.816L305.038 50.9129V64.7955L216.858 115.699Z" fill="#318CFF"/>
<path opacity="0.2" d="M216.858 115.699V101.816L305.038 50.9129V64.7955L216.858 115.699Z" fill="black"/>
<path d="M140.706 90.8539C140.706 85.4074 144.298 83.0591 148.718 85.6146C153.138 88.1701 156.74 94.6625 156.74 100.109V136.527L140.706 127.272V90.8539Z" fill="#263238"/>
<path d="M148.718 85.6047C147.764 85.0332 146.689 84.6951 145.58 84.618C144.97 85.842 144.671 87.1977 144.712 88.5648V124.983L156.739 131.89V100.099C156.739 94.6526 153.148 88.1602 148.718 85.6047Z" fill="#318CFF"/>
<path opacity="0.5" d="M148.718 85.6047C147.764 85.0332 146.689 84.6951 145.58 84.618C144.97 85.842 144.671 87.1977 144.712 88.5648V124.983L156.739 131.89V100.099C156.739 94.6526 153.148 88.1602 148.718 85.6047Z" fill="white"/>
<path d="M140.706 127.272L144.712 124.954L156.74 131.89V136.527L140.706 127.272Z" fill="#263238"/>
<path d="M164.751 106.71C164.751 100.168 169.24 97.4647 174.776 100.662C180.311 103.858 184.791 111.742 184.791 118.284V152.729L164.751 141.155V106.71Z" fill="#263238"/>
<path d="M184.791 118.284C184.791 111.742 180.312 103.849 174.776 100.662C173.367 99.7686 171.728 99.3057 170.06 99.3295C169.144 100.858 168.695 102.621 168.767 104.401V138.836L184.791 148.101V118.284Z" fill="#318CFF"/>
<path opacity="0.5" d="M184.791 118.284C184.791 111.742 180.312 103.849 174.776 100.662C173.367 99.7686 171.728 99.3057 170.06 99.3295C169.144 100.858 168.695 102.621 168.767 104.401V138.836L184.791 148.101V118.284Z" fill="white"/>
<path d="M168.767 138.836L164.751 141.155L184.791 152.729V148.101L168.767 138.836Z" fill="#263238"/>
<path d="M192.812 120.948C192.812 115.501 196.394 113.153 200.824 115.708C205.255 118.264 208.846 124.756 208.846 130.203V166.621L192.812 157.366V120.948Z" fill="#263238"/>
<path d="M200.824 115.699C199.87 115.128 198.795 114.79 197.687 114.712C197.075 115.935 196.776 117.291 196.818 118.659V155.077L208.846 161.984V130.193C208.846 124.746 205.254 118.254 200.824 115.699Z" fill="#318CFF"/>
<path opacity="0.5" d="M200.824 115.699C199.87 115.128 198.795 114.79 197.687 114.712C197.075 115.935 196.776 117.291 196.818 118.659V155.077L208.846 161.984V130.193C208.846 124.746 205.254 118.254 200.824 115.699Z" fill="white"/>
<path d="M196.818 155.038L192.812 157.356L208.846 166.611V161.984L196.818 155.038Z" fill="#263238"/>
<path d="M192.812 227.342C192.812 221.895 196.394 219.547 200.824 222.103C205.255 224.658 208.846 231.151 208.846 236.597V277.683L192.812 268.427V227.342Z" fill="#263238"/>
<path d="M200.825 222.103C199.871 221.532 198.796 221.194 197.687 221.116C197.077 222.34 196.779 223.696 196.819 225.063V266.138L208.847 273.045V236.538C208.847 231.15 205.255 224.658 200.825 222.103Z" fill="#318CFF"/>
<path opacity="0.5" d="M200.825 222.103C199.871 221.532 198.796 221.194 197.687 221.116C197.077 222.34 196.779 223.696 196.819 225.063V266.138L208.847 273.045V236.538C208.847 231.15 205.255 224.658 200.825 222.103Z" fill="white"/>
<path d="M192.812 268.427V254.545L208.846 263.8V277.682L192.812 268.427Z" fill="#37474F"/>
<path d="M192.812 254.545L196.818 252.226L208.836 259.172L208.846 263.8L192.812 254.545Z" fill="#263238"/>
<path d="M140.706 197.258C140.706 191.811 144.298 189.463 148.718 192.019C153.138 194.574 156.74 201.067 156.74 206.513V247.599L140.706 238.363V197.258Z" fill="#263238"/>
<path d="M148.718 191.989C147.762 191.422 146.688 191.084 145.58 191.002C144.97 192.226 144.671 193.582 144.712 194.949V236.035L156.739 242.941V206.434C156.739 201.057 153.148 194.564 148.718 191.989Z" fill="#318CFF"/>
<path opacity="0.5" d="M148.718 191.989C147.762 191.422 146.688 191.084 145.58 191.002C144.97 192.226 144.671 193.582 144.712 194.949V236.035L156.739 242.941V206.434C156.739 201.057 153.148 194.564 148.718 191.989Z" fill="white"/>
<path d="M156.74 247.599V233.716L140.706 224.461V238.343L156.74 247.599Z" fill="#37474F"/>
<path d="M140.706 224.461L144.712 222.142L156.74 229.088V233.716L140.706 224.461Z" fill="#263238"/>
<path d="M164.751 252.226V247.599L184.791 259.172V263.8L164.751 252.226Z" fill="#37474F"/>
<path d="M164.751 247.599L168.767 245.29L184.791 254.545V259.172L164.751 247.599Z" fill="#263238"/>
<path d="M216.859 101.816L305.039 50.9129L216.859 0L128.679 50.9129L216.859 101.816Z" fill="#318CFF"/>
<path opacity="0.7" d="M216.859 101.816L305.039 50.9129L216.859 0L128.679 50.9129L216.859 101.816Z" fill="white"/>
<path d="M216.858 92.5608L289.005 50.9129L216.858 9.2551L144.712 50.9129L216.858 92.5608Z" fill="#318CFF"/>
<path d="M216.858 9.2551V23.1476L156.74 57.8493L144.712 50.9129L216.858 9.2551Z" fill="#318CFF"/>
<path opacity="0.2" d="M216.858 9.2551V23.1476L156.74 57.8493L144.712 50.9129L216.858 9.2551Z" fill="black"/>
<path d="M216.858 9.2551L289.005 50.9129L276.977 57.8493L216.858 23.1476V9.2551Z" fill="#318CFF"/>
<path opacity="0.5" d="M216.858 9.2551L289.005 50.9129L276.977 57.8493L216.858 23.1476V9.2551Z" fill="white"/>
<path d="M204.831 20.8289L184.791 32.4027L212.852 48.5942L232.892 37.0303L204.831 20.8289Z" fill="#455A64"/>
<path d="M184.791 32.4027V46.2854L212.852 62.4768V48.5942L184.791 32.4027Z" fill="#37474F"/>
<path d="M232.892 37.0303V50.9129L212.853 62.4769V48.5942L232.892 37.0303Z" fill="#263238"/>
<path d="M198.249 28.5941C194.608 30.6958 194.608 34.0998 198.249 36.2015C200.29 37.238 202.546 37.7782 204.835 37.7782C207.124 37.7782 209.381 37.238 211.421 36.2015C215.052 34.0998 215.052 30.6958 211.421 28.5941C209.381 27.5576 207.124 27.0174 204.835 27.0174C202.546 27.0174 200.29 27.5576 198.249 28.5941Z" fill="#37474F"/>
<path d="M201.752 30.7648C200.045 31.6627 200.045 33.1329 201.752 34.0308C202.718 34.4793 203.77 34.7117 204.835 34.7117C205.9 34.7117 206.953 34.4793 207.919 34.0308C209.616 33.1329 209.616 31.6627 207.919 30.7648C206.953 30.3163 205.9 30.0839 204.835 30.0839C203.77 30.0839 202.718 30.3163 201.752 30.7648Z" fill="#263238"/>
<path d="M219.049 49.6401L223.055 51.9489V61.2139" stroke="#455A64" stroke-width="2" stroke-linecap="round" stroke-linejoin="round"/>
<path d="M224.87 46.2854L228.876 48.5942V57.8493" stroke="#455A64" stroke-width="2" stroke-linecap="round" stroke-linejoin="round"/>
<path d="M100.942 185.753V217.643C100.961 217.87 101.041 218.087 101.173 218.273C101.305 218.459 101.484 218.606 101.692 218.699C102.261 218.986 102.89 219.135 103.527 219.135C104.165 219.135 104.794 218.986 105.363 218.699C105.571 218.606 105.75 218.459 105.882 218.273C106.014 218.087 106.094 217.87 106.113 217.643V185.773L100.942 185.753Z" fill="#37474F"/>
<path d="M115.98 195.028C115.98 198.33 114.668 201.498 112.333 203.833C109.998 206.168 106.831 207.48 103.528 207.48C100.226 207.48 97.0585 206.168 94.7233 203.833C92.3881 201.498 91.0762 198.33 91.0762 195.028C91.0762 182.3 96.6509 168.388 103.528 168.388C110.405 168.388 115.98 182.122 115.98 195.028Z" fill="#318CFF"/>
<path d="M115.98 195.028C115.98 194.702 115.98 194.377 115.98 194.041V193.716C115.884 195.072 115.354 196.362 114.47 197.396C112.112 200.356 106.912 203.573 101.545 201.343C92.5264 197.564 92.2797 186.898 94.2827 178.067C92.1795 183.478 91.0989 189.232 91.0957 195.038C91.0957 198.34 92.4076 201.508 94.7428 203.843C97.078 206.178 100.245 207.49 103.548 207.49C106.85 207.49 110.017 206.178 112.353 203.843C114.688 201.508 116 198.34 116 195.038L115.98 195.028Z" fill="#318CFF"/>
<path opacity="0.1" d="M115.98 195.028C115.98 194.702 115.98 194.377 115.98 194.041V193.716C115.884 195.072 115.354 196.362 114.47 197.396C112.112 200.356 106.912 203.573 101.545 201.343C92.5264 197.564 92.2797 186.898 94.2827 178.067C92.1795 183.478 91.0989 189.232 91.0957 195.038C91.0957 198.34 92.4076 201.508 94.7428 203.843C97.078 206.178 100.245 207.49 103.548 207.49C106.85 207.49 110.017 206.178 112.353 203.843C114.688 201.508 116 198.34 116 195.038L115.98 195.028Z" fill="black"/>
<path d="M9.8623 129.828V161.708C9.88276 161.941 9.96606 162.164 10.1033 162.353C10.2406 162.543 10.4267 162.691 10.6418 162.783C11.2092 163.07 11.8362 163.22 12.4721 163.22C13.108 163.22 13.7349 163.07 14.3024 162.783C14.511 162.69 14.6913 162.543 14.8247 162.358C14.9582 162.172 15.0401 161.955 15.0621 161.727V129.828H9.8623Z" fill="#37474F"/>
<path d="M24.899 139.132C24.9458 140.796 24.6585 142.453 24.0541 144.004C23.4496 145.555 22.5403 146.969 21.3799 148.163C20.2194 149.356 18.8314 150.305 17.298 150.953C15.7645 151.601 14.1167 151.935 12.452 151.935C10.7872 151.935 9.13943 151.601 7.60596 150.953C6.07248 150.305 4.68449 149.356 3.52404 148.163C2.36359 146.969 1.45426 145.555 0.849815 144.004C0.245368 142.453 -0.0419224 140.796 0.00493373 139.132C0.00493373 126.404 5.5797 112.492 12.447 112.492C19.3143 112.492 24.899 126.197 24.899 139.132Z" fill="#318CFF"/>
<path d="M423.855 129.828V161.708C423.833 161.935 423.751 162.153 423.617 162.338C423.484 162.524 423.304 162.67 423.095 162.763C422.528 163.05 421.901 163.2 421.265 163.2C420.629 163.2 420.002 163.05 419.435 162.763C419.226 162.67 419.046 162.524 418.912 162.338C418.779 162.153 418.697 161.935 418.675 161.708V129.828H423.855Z" fill="#37474F"/>
<path d="M408.817 139.132C408.771 140.796 409.058 142.453 409.662 144.004C410.267 145.555 411.176 146.969 412.337 148.163C413.497 149.356 414.885 150.305 416.418 150.953C417.952 151.601 419.6 151.935 421.264 151.935C422.929 151.935 424.577 151.601 426.11 150.953C427.644 150.305 429.032 149.356 430.192 148.163C431.353 146.969 432.262 145.555 432.867 144.004C433.471 142.453 433.758 140.796 433.711 139.132C433.711 126.404 428.137 112.492 421.269 112.492C414.402 112.492 408.817 126.197 408.817 139.132Z" fill="#318CFF"/>
<path d="M354.994 220.109H363.647V210.568C363.647 210 363.535 209.437 363.317 208.912C363.1 208.387 362.78 207.91 362.378 207.509C361.976 207.107 361.498 206.789 360.973 206.573C360.447 206.356 359.884 206.245 359.316 206.247C358.17 206.247 357.07 206.702 356.26 207.512C355.449 208.323 354.994 209.422 354.994 210.568V220.109Z" fill="#318CFF"/>
<g opacity="0.5">
<path d="M354.994 220.109H363.647V210.568C363.647 210 363.535 209.437 363.317 208.912C363.1 208.387 362.78 207.91 362.378 207.509C361.976 207.107 361.498 206.789 360.973 206.573C360.447 206.356 359.884 206.245 359.316 206.247C358.17 206.247 357.07 206.702 356.26 207.512C355.449 208.323 354.994 209.422 354.994 210.568V220.109Z" fill="black"/>
</g>
<path d="M356.149 223.287C356.731 220.386 357.826 217.189 357.767 215.748L356.919 215.798C356.415 215.832 355.937 216.036 355.565 216.376C355.192 216.717 354.946 217.174 354.866 217.672C354.56 219.557 354.097 222.438 353.88 223.593C353.686 225.067 353.355 226.52 352.893 227.934C352.813 228.138 352.662 228.306 352.469 228.408C352.048 228.656 351.668 228.969 351.344 229.335C351.028 229.611 350.781 229.67 350.811 229.769C350.859 229.879 350.947 229.966 351.057 230.014C351.166 230.061 351.29 230.066 351.403 230.026C351.656 229.948 351.898 229.838 352.123 229.7C351.922 230.134 351.648 230.531 351.314 230.874C350.564 231.664 350.495 232.177 351.886 232.295C352.755 232.364 353.485 231.881 354.284 230.026C354.589 229.344 354.846 228.642 355.054 227.924C355.587 226.079 355.922 224.431 356.149 223.287Z" fill="#FFA8A7"/>
<path d="M368.956 248.23C369.282 248.052 369.499 248.477 369.795 248.812C370.051 249.06 370.253 249.359 370.387 249.69C370.376 249.956 370.309 250.217 370.19 250.455C370.071 250.694 369.903 250.904 369.696 251.072C369.202 251.375 368.847 251.86 368.709 252.423C368.672 252.771 368.537 253.1 368.321 253.374C368.104 253.648 367.815 253.856 367.486 253.973C367.103 254.132 366.692 254.215 366.277 254.215C365.862 254.215 365.451 254.132 365.068 253.973C364.605 253.677 365.068 253.341 365.68 252.414C366.529 251.2 367.19 250.332 367.19 249.197L368.956 248.23Z" fill="#263238"/>
<path d="M368.275 247.184L368.966 248.171C369.113 248.382 369.172 248.643 369.13 248.898C369.087 249.152 368.947 249.38 368.739 249.532C368.528 249.661 368.279 249.71 368.035 249.672C367.791 249.634 367.569 249.511 367.407 249.325L366.321 248.131L368.275 247.184Z" fill="#FFA8A7"/>
<path d="M354.994 228.654C355.095 231.268 355.587 233.853 356.454 236.321C356.976 237.738 357.637 239.1 358.428 240.386C358.714 240.879 366.874 248.822 366.874 248.822C367.264 248.79 367.632 248.63 367.923 248.368C368.213 248.106 368.41 247.756 368.482 247.372C368.482 247.372 365.137 241.688 364.407 240.524C363.453 239.391 362.347 238.395 361.121 237.564L361.358 227.362L354.994 228.654Z" fill="#37474F"/>
<path d="M357.842 252.473L356.12 252.081L355.549 254.592L357.271 254.984L357.842 252.473Z" fill="#FFA8A7"/>
<path d="M356.455 227.233L363.796 227.52C364.296 228.605 364.51 229.801 364.418 230.993C364.171 234.574 360.777 240.978 360.777 240.978C360.935 242.427 360.862 243.893 360.56 245.319C359.788 247.931 358.879 250.5 357.836 253.015C357.503 253.066 357.163 253.044 356.839 252.95C356.516 252.856 356.216 252.693 355.962 252.473C355.962 252.473 357.067 242.655 357.363 240.139C357.688 237.416 358.517 232.443 358.517 232.443C357.968 231.9 357.472 231.306 357.037 230.667C356.267 229.692 355.872 228.474 355.922 227.233" fill="#37474F"/>
<path d="M366.598 225.299C366.349 222.77 365.94 220.259 365.374 217.781C365.307 217.373 365.108 216.998 364.806 216.714C364.505 216.431 364.119 216.254 363.707 216.212C361.309 217.505 361.329 219.222 363.371 221.294C363.371 221.294 364.22 224.629 364.486 226.227C364.765 227.687 364.898 229.171 364.881 230.657C364.869 230.875 364.774 231.08 364.615 231.229C364.287 231.592 364.015 232.001 363.806 232.443C363.589 232.798 363.362 232.927 363.421 233.015C363.498 233.107 363.607 233.167 363.726 233.181C363.845 233.196 363.965 233.165 364.062 233.094C364.281 232.946 364.48 232.77 364.654 232.571C364.586 233.042 364.443 233.498 364.23 233.923C363.737 234.91 363.815 235.413 365.217 235.127C366.065 234.949 366.628 234.268 366.854 232.256C366.955 231.513 367.001 230.765 366.993 230.016C366.835 228.131 366.716 226.464 366.598 225.299Z" fill="#FFA8A7"/>
<path d="M355.735 253.746L355.784 253.499C355.606 253.499 354.797 254.821 354.057 255.383C353.317 255.946 352.488 256.37 352.084 256.627C351.679 256.883 352.311 257.752 353.544 257.821C354.27 257.863 354.993 257.695 355.626 257.337C355.971 257.012 356.218 256.469 356.494 256.232C356.771 255.995 357.323 255.798 357.481 255.492C357.583 255.194 357.617 254.877 357.58 254.565C357.58 254.239 357.58 253.884 357.451 253.894V254.081C357.124 254.244 356.761 254.322 356.396 254.308C356.129 254.298 355.587 254.229 355.735 253.746Z" fill="#263238"/>
<path d="M357.579 238.472C357.579 238.472 358.319 233.252 358.517 232.443C357.927 232.12 357.378 231.729 356.879 231.279C357.221 231.766 357.593 232.23 357.994 232.67L357.579 238.472Z" fill="#263238"/>
<path d="M362.01 238.294C361.655 239.214 361.243 240.11 360.776 240.978C360.776 240.978 360.865 242.655 360.855 242.951L361.319 243.356C361.33 242.597 361.261 241.84 361.112 241.096C361.513 240.198 361.814 239.258 362.01 238.294Z" fill="#263238"/>
<path d="M361.122 215.788C361.991 215.886 362.853 216.028 363.707 216.212C361.32 217.889 363.372 221.294 363.372 221.294L362.099 224.816C362.954 225.937 363.648 227.173 364.161 228.486C363.49 229.256 359.504 231.585 354.955 228.654C354.955 228.654 355.222 226.089 355.597 224.155C354.946 221.017 354.758 219.912 354.955 219.172C355.488 217.1 356.712 215.778 358.113 215.699L361.122 215.788Z" fill="#F5F5F5"/>
<path d="M356.454 207.993C356.001 208.259 355.468 209.414 355.468 211.821C355.517 213.864 356.178 214.367 356.514 214.515C357.04 214.625 357.584 214.608 358.102 214.466V215.669C358.102 215.669 357.244 216.656 357.303 217.238C357.362 217.82 358.546 217.929 359.345 217.386C359.931 216.932 360.434 216.381 360.835 215.758V212.946C360.835 212.946 361.21 213.301 361.822 212.759C362.072 212.58 362.242 212.311 362.295 212.008C362.349 211.705 362.282 211.394 362.108 211.141C362.004 211.043 361.878 210.972 361.741 210.933C361.604 210.894 361.459 210.888 361.319 210.916C361.18 210.944 361.048 211.005 360.937 211.094C360.825 211.183 360.736 211.297 360.677 211.427C359.862 211.394 359.068 211.157 358.369 210.736C357.857 210.461 357.416 210.07 357.084 209.593C356.751 209.117 356.536 208.568 356.454 207.993Z" fill="#FFA8A7"/>
<path d="M357.767 211.308C357.767 211.376 357.794 211.442 357.842 211.49C357.891 211.538 357.956 211.565 358.024 211.565C358.092 211.565 358.157 211.538 358.205 211.49C358.253 211.442 358.28 211.376 358.28 211.308C358.283 211.273 358.279 211.238 358.268 211.205C358.257 211.171 358.239 211.141 358.217 211.114C358.194 211.087 358.166 211.066 358.134 211.05C358.103 211.034 358.069 211.025 358.034 211.022C357.997 211.022 357.961 211.03 357.927 211.044C357.893 211.059 357.863 211.08 357.838 211.107C357.813 211.134 357.794 211.166 357.782 211.2C357.77 211.235 357.765 211.272 357.767 211.308Z" fill="#263238"/>
<path d="M357.698 213.045L357.106 213.232C357.117 213.272 357.135 213.31 357.16 213.343C357.185 213.375 357.217 213.403 357.252 213.423C357.288 213.443 357.328 213.456 357.369 213.461C357.41 213.465 357.452 213.461 357.491 213.449C357.572 213.422 357.638 213.365 357.677 213.289C357.716 213.214 357.723 213.126 357.698 213.045Z" fill="#F28F8F"/>
<path d="M355.666 210.519L356.179 210.164C356.158 210.129 356.13 210.099 356.097 210.075C356.064 210.052 356.026 210.035 355.986 210.027C355.946 210.019 355.905 210.019 355.865 210.027C355.826 210.035 355.788 210.051 355.755 210.075C355.719 210.098 355.689 210.128 355.665 210.163C355.641 210.197 355.625 210.237 355.616 210.278C355.608 210.32 355.608 210.362 355.617 210.404C355.625 210.445 355.642 210.484 355.666 210.519Z" fill="#263238"/>
<path d="M355.784 211.121C355.781 211.156 355.786 211.191 355.797 211.224C355.807 211.258 355.825 211.289 355.848 211.315C355.871 211.342 355.899 211.364 355.93 211.379C355.961 211.395 355.996 211.404 356.031 211.407C356.1 211.407 356.166 211.38 356.216 211.332C356.265 211.285 356.295 211.219 356.297 211.15C356.297 211.117 356.29 211.083 356.278 211.052C356.265 211.021 356.246 210.993 356.222 210.969C356.198 210.945 356.17 210.926 356.139 210.913C356.108 210.9 356.074 210.894 356.041 210.894C356.007 210.894 355.973 210.9 355.942 210.913C355.911 210.926 355.883 210.945 355.859 210.969C355.835 210.993 355.816 211.021 355.804 211.052C355.791 211.083 355.784 211.117 355.784 211.15V211.121Z" fill="#263238"/>
<path d="M356.997 210.973L356.958 212.522L356.139 212.275L356.997 210.973Z" fill="#F28F8F"/>
<path d="M358.122 214.466C358.783 214.387 360.095 213.992 360.342 213.479C360.258 213.749 360.093 213.987 359.868 214.16C359.321 214.482 358.734 214.731 358.122 214.9V214.466Z" fill="#F28F8F"/>
<path d="M362.779 222.941L360.983 225.378L362.088 224.816L362.779 222.941Z" fill="#E0E0E0"/>
<path d="M276.622 265.25C277.065 262.797 277.191 260.296 276.997 257.811C276.992 257.752 276.969 257.697 276.931 257.652C276.893 257.608 276.841 257.577 276.784 257.564C276.727 257.551 276.667 257.556 276.613 257.579C276.559 257.602 276.514 257.642 276.484 257.692L274.58 261.225C274.58 261.225 274.353 263.81 274.116 265.576C273.942 267.186 273.612 268.776 273.129 270.322C273.044 270.542 272.883 270.724 272.675 270.835C272.218 271.101 271.802 271.434 271.442 271.822C271.107 272.127 270.83 272.187 270.87 272.295C270.92 272.415 271.015 272.512 271.134 272.565C271.253 272.618 271.388 272.624 271.511 272.581C271.785 272.497 272.047 272.378 272.291 272.226C272.074 272.696 271.78 273.126 271.422 273.499C270.603 274.357 270.534 274.91 272.034 275.038C272.972 275.117 273.771 274.594 274.639 272.571C274.972 271.832 275.252 271.071 275.478 270.292C276.06 268.279 276.376 266.484 276.622 265.25Z" fill="#B16668"/>
<path d="M285.532 293.272C285.532 293.272 285.651 293.272 286.016 293.499C286.43 293.758 286.792 294.092 287.082 294.486C287.121 294.772 287.099 295.063 287.017 295.341C286.936 295.618 286.796 295.875 286.608 296.094C286.237 296.652 286.041 297.308 286.046 297.979C286.014 298.411 285.892 298.831 285.688 299.214C285.484 299.596 285.203 299.932 284.862 300.199C284.25 300.623 283.5 301.057 283.155 300.948C282.809 300.84 282.789 300.416 283.224 298.541C283.586 297.305 283.843 296.041 283.993 294.762L285.532 293.272Z" fill="#263238"/>
<path d="M285.265 292.917L285.67 293.46C285.734 293.543 285.778 293.639 285.8 293.741C285.822 293.844 285.822 293.95 285.798 294.052C285.738 294.417 285.549 294.75 285.265 294.989C285.104 295.11 284.904 295.169 284.703 295.157C284.564 295.146 284.429 295.107 284.307 295.04C284.184 294.974 284.077 294.883 283.993 294.772L283.677 294.348L285.265 292.917Z" fill="#B16668"/>
<path d="M275.448 269.523L280.006 274.081H279.878L278.832 282.33C279.659 282.89 280.364 283.611 280.904 284.451C281.772 285.793 285.226 292.917 285.226 292.917C285.226 292.917 284.821 294.505 283.637 294.348C283.637 294.348 281.802 292.058 279.829 289.552C277.668 286.799 275.28 283.82 275.152 283.277C274.491 280.317 275.448 269.523 275.448 269.523Z" fill="#455A64"/>
<path d="M280.993 284.451C281.862 285.793 285.315 292.917 285.315 292.917C285.315 292.917 284.911 294.505 283.727 294.348C283.727 294.348 281.891 292.058 279.918 289.552L280.993 284.451Z" fill="#37474F"/>
<path d="M280.628 297.998C280.118 297.498 279.544 297.067 278.921 296.716C278.619 296.696 278.316 296.696 278.014 296.716C277.742 296.716 277.47 296.686 277.205 296.627C276.66 296.429 276.132 296.188 275.626 295.907C275.411 295.776 275.178 295.676 274.935 295.611C274.511 295.532 274.175 295.522 274.027 295.995C273.981 296.139 273.965 296.29 273.978 296.439C273.973 296.878 274.072 297.312 274.267 297.705C274.463 298.098 274.749 298.439 275.103 298.699C275.429 298.916 275.863 299.084 276.208 299.281C276.734 299.499 277.239 299.763 277.718 300.07C278.428 300.682 279.089 301.284 280.086 300.889C280.284 300.833 280.465 300.727 280.611 300.583C280.758 300.438 280.866 300.258 280.924 300.06C281.062 299.538 280.569 298.551 280.628 297.998Z" fill="#263238"/>
<path d="M275.497 268.812L285.266 269.799C285.532 272.618 285.288 275.463 284.545 278.196C283.756 281.738 282.878 285.458 282.878 285.458C283.299 286.826 283.33 288.285 282.967 289.671C282.207 292.147 280.796 298.728 280.796 298.728C280.347 297.782 279.558 297.038 278.586 296.647C278.586 296.647 278.941 293.183 279.158 290.677C279.375 288.171 279.503 286.079 279.582 284.53C279.711 282.063 280.066 274.042 280.066 274.042H279.937C279.937 274.042 276.099 272.226 275.468 269.483L275.497 268.812Z" fill="#455A64"/>
<path d="M280.007 274.081C278.903 273.569 277.877 272.905 276.958 272.108L279.336 274.328L278.902 281.757L280.007 274.081Z" fill="#37474F"/>
<path d="M279.079 256.725C277.628 256.725 275.892 257.189 275.201 258.521C274.585 260.213 274.171 261.971 273.968 263.76C273.968 263.76 274.51 264.935 276.543 264.796L279.079 256.725Z" fill="#263238"/>
<path d="M288.502 267.431C288.097 263.257 286.587 260.208 286.41 259.162L285.186 264.323C285.592 265.685 285.921 267.068 286.173 268.467C286.473 270.057 286.619 271.673 286.607 273.292C286.589 273.526 286.488 273.747 286.321 273.913C285.959 274.302 285.659 274.745 285.433 275.226C285.196 275.62 284.95 275.749 285.019 275.847C285.101 275.946 285.219 276.01 285.347 276.027C285.475 276.043 285.604 276.011 285.709 275.936C285.948 275.776 286.167 275.587 286.361 275.374C286.293 275.883 286.147 276.379 285.926 276.844C285.394 277.9 285.482 278.462 286.913 278.146C287.841 277.949 288.452 277.219 288.699 275.028C288.803 274.223 288.852 273.413 288.847 272.601C288.788 270.499 288.62 268.684 288.502 267.431Z" fill="#B16668"/>
<path d="M282.049 256.814C283.766 257.229 286.114 257.801 286.795 259.636C287.36 261.412 287.831 263.217 288.206 265.043C287.831 265.406 287.375 265.673 286.875 265.822C286.375 265.972 285.847 265.999 285.335 265.901L284.94 264.51L285.266 269.828C283.924 271.299 278.359 271.674 275.448 269.523C275.448 269.523 275.951 261.629 275.951 260.159C275.923 259.726 275.983 259.293 276.126 258.883C276.27 258.474 276.494 258.098 276.786 257.778C277.078 257.457 277.431 257.199 277.825 257.018C278.219 256.837 278.646 256.738 279.079 256.725L282.049 256.814Z" fill="#37474F"/>
<path d="M284.94 264.51L284.071 261.787L285.018 265.862L284.94 264.51Z" fill="#263238"/>
<path d="M282.69 249.157C282.845 249.141 283.001 249.158 283.148 249.21C283.295 249.261 283.428 249.344 283.539 249.453C283.904 249.828 283.825 250.519 283.539 252.098L282.414 252.226L282.69 249.157Z" fill="#263238"/>
<path d="M276.138 248.704C275.894 248.704 275.652 248.654 275.428 248.556C275.082 248.358 274.994 248.753 275.181 249.088C275.306 249.334 275.493 249.543 275.723 249.695C275.953 249.847 276.218 249.937 276.493 249.957L276.809 249.078L276.138 248.704Z" fill="#263238"/>
<path d="M282.168 252.226C282.335 252.325 282.572 252.009 282.779 251.792C282.86 251.698 282.963 251.627 283.079 251.584C283.195 251.542 283.32 251.53 283.442 251.55C283.563 251.57 283.678 251.621 283.775 251.698C283.871 251.774 283.946 251.875 283.993 251.989C284.328 252.709 283.549 253.667 283.095 253.963C282.969 254.072 282.811 254.139 282.644 254.153C282.478 254.167 282.311 254.128 282.168 254.042L282.049 256.794C281.845 257.234 281.536 257.618 281.149 257.91C280.761 258.203 280.308 258.396 279.829 258.472C278.211 258.699 278.546 257.367 279.079 256.706V255.719C278.678 255.806 278.264 255.826 277.856 255.778C277.387 255.439 277.025 254.973 276.81 254.436C276.12 253.072 275.968 251.497 276.386 250.026C276.958 247.559 279.612 247.48 281.191 248.477C282.77 249.473 282.168 252.226 282.168 252.226Z" fill="#B16668"/>
<path d="M282.167 252.512C282.246 252.512 282.562 251.979 282.779 251.792C282.996 251.604 282.69 249.157 282.69 249.157C282.771 248.904 282.788 248.635 282.74 248.373C282.691 248.111 282.579 247.866 282.414 247.658C281.841 247.066 280.746 247.164 279.937 247.135C278.948 247.142 277.968 246.947 277.056 246.562C275.911 246.059 275.823 246 275.684 246.503C275.572 246.918 275.558 247.353 275.641 247.774C275.725 248.195 275.906 248.591 276.168 248.931L276.543 249.542C276.971 249.797 277.456 249.939 277.954 249.957C279.011 249.949 280.061 249.79 281.072 249.483C281.378 249.483 281.447 249.74 281.614 250.568C281.782 251.397 281.881 252.502 282.167 252.512Z" fill="#263238"/>
<path d="M282.691 249.345L283.677 248.802C283.646 248.734 283.601 248.673 283.545 248.623C283.489 248.573 283.424 248.535 283.352 248.511C283.281 248.487 283.206 248.477 283.131 248.483C283.057 248.489 282.984 248.511 282.917 248.546C282.784 248.624 282.686 248.751 282.644 248.9C282.602 249.049 282.618 249.208 282.691 249.345Z" fill="#263238"/>
<path d="M279.079 255.729C279.769 255.596 280.446 255.401 281.102 255.147C281.408 254.988 281.659 254.74 281.822 254.436C281.744 254.74 281.606 255.025 281.418 255.275C281.033 255.768 279.079 256.123 279.079 256.123V255.729Z" fill="#9A4A4D"/>
<path d="M279.02 252.177C279.02 252.258 279.052 252.336 279.109 252.393C279.167 252.45 279.244 252.483 279.326 252.483C279.398 252.47 279.465 252.431 279.512 252.374C279.56 252.318 279.586 252.246 279.586 252.172C279.586 252.098 279.56 252.026 279.512 251.969C279.465 251.912 279.398 251.874 279.326 251.861C279.285 251.861 279.244 251.869 279.206 251.885C279.168 251.901 279.134 251.925 279.106 251.954C279.077 251.983 279.055 252.018 279.04 252.057C279.025 252.095 279.018 252.136 279.02 252.177Z" fill="#263238"/>
<path d="M279.355 251.042L279.997 251.397C280.04 251.308 280.048 251.205 280.019 251.11C279.989 251.015 279.925 250.934 279.839 250.884C279.797 250.861 279.751 250.846 279.704 250.842C279.656 250.837 279.608 250.842 279.563 250.857C279.517 250.872 279.475 250.896 279.44 250.928C279.404 250.96 279.375 250.999 279.355 251.042Z" fill="#263238"/>
<path d="M279.217 254.15L278.526 254.407C278.56 254.499 278.628 254.574 278.717 254.617C278.805 254.659 278.907 254.665 279 254.634C279.091 254.596 279.165 254.525 279.205 254.435C279.245 254.345 279.25 254.243 279.217 254.15Z" fill="#9A4A4D"/>
<path d="M276.356 251.289L276.948 250.845C276.921 250.804 276.885 250.77 276.844 250.744C276.803 250.718 276.757 250.701 276.709 250.694C276.661 250.686 276.611 250.689 276.564 250.701C276.517 250.714 276.473 250.736 276.435 250.766C276.357 250.826 276.306 250.914 276.291 251.012C276.277 251.109 276.3 251.208 276.356 251.289Z" fill="#263238"/>
<path d="M276.543 252.088C276.543 252.166 276.574 252.242 276.63 252.297C276.685 252.353 276.761 252.384 276.839 252.384C276.918 252.384 276.993 252.353 277.048 252.297C277.104 252.242 277.135 252.166 277.135 252.088C277.136 252.048 277.13 252.008 277.116 251.97C277.102 251.932 277.08 251.898 277.053 251.869C277.025 251.839 276.992 251.816 276.955 251.799C276.919 251.783 276.879 251.773 276.839 251.772C276.799 251.773 276.759 251.783 276.723 251.799C276.686 251.816 276.653 251.839 276.626 251.869C276.598 251.898 276.577 251.932 276.563 251.97C276.548 252.008 276.542 252.048 276.543 252.088Z" fill="#263238"/>
<path d="M277.955 252.048L278.231 253.834L277.244 253.716L277.955 252.048Z" fill="#9A4A4D"/>
<path d="M136.73 248.812C135.484 248.812 134.29 248.317 133.409 247.437C132.528 246.556 132.033 245.361 132.033 244.116V243.918C132.033 242.871 132.449 241.868 133.189 241.127C133.929 240.387 134.933 239.971 135.98 239.971H137.411C138.457 239.971 139.461 240.387 140.201 241.127C140.942 241.868 141.357 242.871 141.357 243.918V244.116C141.357 245.349 140.872 246.534 140.006 247.412C139.14 248.291 137.963 248.794 136.73 248.812Z" fill="#263238"/>
<path d="M140.214 258.442C139.592 255.295 138.398 251.822 138.457 250.253L139.375 250.312C139.923 250.347 140.443 250.568 140.85 250.937C141.257 251.306 141.526 251.802 141.615 252.345C141.94 254.397 142.443 257.525 142.601 258.807C142.807 260.409 143.16 261.987 143.657 263.524C143.742 263.744 143.908 263.924 144.121 264.027C144.571 264.299 144.983 264.631 145.344 265.014C145.68 265.319 145.956 265.379 145.917 265.487C145.866 265.607 145.772 265.704 145.652 265.757C145.533 265.81 145.398 265.816 145.275 265.773C145.003 265.685 144.741 265.566 144.496 265.418C144.712 265.888 145.006 266.318 145.364 266.691C146.183 267.549 146.252 268.102 144.752 268.23C143.766 268.309 143.016 267.786 142.147 265.763C141.814 265.024 141.534 264.263 141.309 263.484C140.825 261.471 140.46 259.685 140.214 258.442Z" fill="#B16668"/>
<path d="M138.072 250.203C138.941 250.12 139.817 250.259 140.618 250.608C140.942 250.796 141.213 251.063 141.406 251.383C141.6 251.704 141.709 252.069 141.723 252.443C141.91 253.371 142.216 255.808 142.216 255.808C142.216 255.808 141.703 256.933 139.424 256.469L138.072 250.203Z" fill="#263238"/>
<path d="M131.57 286.474C131.57 286.474 131.451 286.474 131.086 286.701C130.672 286.959 130.31 287.294 130.02 287.688C129.982 287.974 130.004 288.265 130.086 288.542C130.167 288.819 130.306 289.076 130.494 289.296C130.865 289.854 131.061 290.51 131.056 291.18C131.088 291.613 131.21 292.033 131.414 292.416C131.618 292.798 131.899 293.133 132.24 293.4C132.852 293.825 133.612 294.259 133.947 294.15C134.283 294.042 134.313 293.618 133.878 291.743C133.516 290.507 133.259 289.243 133.109 287.964L131.57 286.474Z" fill="#263238"/>
<path d="M131.836 286.119L131.432 286.661C131.368 286.745 131.323 286.841 131.301 286.943C131.279 287.045 131.28 287.151 131.303 287.253C131.364 287.619 131.553 287.952 131.836 288.191C131.998 288.312 132.197 288.371 132.399 288.359C132.537 288.348 132.673 288.308 132.795 288.242C132.917 288.176 133.024 288.084 133.109 287.974L133.425 287.549L131.836 286.119Z" fill="#B16668"/>
<path d="M141.427 262.882L139.069 263.77L137.096 267.283H137.224L138.27 275.532C137.443 276.091 136.738 276.813 136.198 277.653C135.329 278.995 131.876 286.119 131.876 286.119C131.876 286.119 132.281 287.707 133.465 287.549C133.465 287.549 135.3 285.26 137.273 282.754C138.956 280.758 140.518 278.662 141.95 276.479C142.858 273.282 141.427 262.882 141.427 262.882Z" fill="#318CFF"/>
<path d="M136.158 277.653C135.289 278.995 131.836 286.119 131.836 286.119C131.836 286.119 132.24 287.707 133.424 287.549C133.424 287.549 135.26 285.26 137.233 282.754L136.158 277.653Z" fill="#318CFF"/>
<path opacity="0.2" d="M136.158 277.653C135.289 278.995 131.836 286.119 131.836 286.119C131.836 286.119 132.24 287.707 133.424 287.549C133.424 287.549 135.26 285.26 137.233 282.754L136.158 277.653Z" fill="black"/>
<path d="M136.444 291.23C137.012 290.801 137.636 290.452 138.299 290.194C138.603 290.201 138.906 290.227 139.207 290.273C139.476 290.302 139.747 290.302 140.016 290.273C140.585 290.15 141.142 289.982 141.684 289.769C141.915 289.665 142.161 289.598 142.414 289.572C142.838 289.572 143.174 289.572 143.262 290.065C143.287 290.216 143.287 290.369 143.262 290.519C143.215 290.957 143.064 291.376 142.822 291.744C142.58 292.111 142.254 292.415 141.871 292.631C141.526 292.799 141.072 292.917 140.707 293.055C140.155 293.202 139.616 293.396 139.099 293.637C138.319 294.14 137.579 294.624 136.652 294.131C136.462 294.051 136.296 293.924 136.169 293.762C136.043 293.599 135.961 293.407 135.931 293.203C135.803 292.631 136.434 291.753 136.444 291.23Z" fill="#263238"/>
<path d="M141.14 262.448L132.004 263.03C131.352 265.112 131.362 266.977 132.083 271.022C132.602 273.627 133.315 276.19 134.214 278.689C133.798 280.063 133.777 281.527 134.155 282.912C134.905 285.389 136.335 291.654 136.335 291.654C137 291.035 137.772 290.543 138.614 290.204C138.614 290.204 138.17 286.425 137.953 283.918C137.736 281.412 137.608 279.32 137.529 277.771C137.401 275.305 137.046 267.283 137.046 267.283H137.174C137.174 267.283 140.519 266.059 141.121 263.336L141.14 262.448Z" fill="#318CFF"/>
<path opacity="0.2" d="M137.056 267.283C138.158 266.769 139.184 266.105 140.105 265.31L137.736 267.53L138.161 274.959L137.056 267.283Z" fill="black"/>
<path d="M128.866 260.623C129.206 257.842 129.713 255.084 130.386 252.364C130.458 251.962 130.654 251.592 130.945 251.306C131.237 251.02 131.61 250.831 132.014 250.766C134.609 252.167 134.589 254.032 132.379 256.271C132.379 256.271 131.451 259.902 131.165 261.669C130.864 263.259 130.719 264.875 130.731 266.494C130.749 266.728 130.851 266.949 131.017 267.115C131.379 267.504 131.679 267.947 131.905 268.427C132.142 268.822 132.389 268.95 132.32 269.049C132.237 269.148 132.12 269.212 131.992 269.229C131.864 269.245 131.734 269.213 131.629 269.138C131.39 268.977 131.171 268.788 130.978 268.575C131.055 269.083 131.212 269.576 131.441 270.036C131.974 271.092 131.885 271.644 130.455 271.338C129.527 271.141 128.916 270.411 128.669 268.22C128.565 267.415 128.515 266.604 128.521 265.793C128.58 263.701 128.748 261.886 128.866 260.623Z" fill="#B16668"/>
<path d="M134.816 250.302L132.014 250.766C134.609 252.591 132.379 256.271 132.379 256.271L133.76 260.11C133.075 261.032 132.489 262.024 132.014 263.07C132.862 263.81 137.934 265.556 141.427 262.922C141.427 262.922 141.229 261.531 140.815 259.429C141.525 256.015 141.723 254.811 141.515 254.012C140.933 251.762 139.601 250.332 138.082 250.243L134.816 250.302Z" fill="#455A64"/>
<path d="M139.897 241.836C140.391 242.132 141.002 243.376 140.943 245.99C140.894 248.21 140.174 248.763 139.809 248.95C139.237 249.065 138.646 249.048 138.082 248.901V250.203C138.082 250.203 139.009 251.289 138.95 251.9C138.891 252.512 137.608 252.66 136.73 252.058C136.094 251.57 135.547 250.976 135.112 250.302V247.243C135.112 247.243 134.717 247.628 134.036 247.046C133.766 246.852 133.582 246.559 133.525 246.23C133.468 245.902 133.541 245.564 133.731 245.29C133.844 245.189 133.98 245.116 134.127 245.077C134.273 245.037 134.427 245.032 134.576 245.062C134.725 245.091 134.865 245.155 134.985 245.247C135.106 245.34 135.203 245.459 135.27 245.596C136.158 245.559 137.023 245.302 137.786 244.846C138.351 244.547 138.836 244.118 139.203 243.595C139.57 243.072 139.808 242.469 139.897 241.836Z" fill="#B16668"/>
<path d="M138.457 245.438C138.457 245.491 138.441 245.544 138.411 245.589C138.382 245.634 138.34 245.669 138.29 245.691C138.241 245.712 138.186 245.718 138.134 245.709C138.081 245.7 138.031 245.676 137.992 245.639C137.953 245.602 137.925 245.555 137.912 245.503C137.899 245.45 137.902 245.396 137.92 245.345C137.938 245.294 137.97 245.25 138.013 245.217C138.056 245.185 138.107 245.165 138.161 245.161C138.198 245.16 138.236 245.166 138.271 245.179C138.306 245.193 138.339 245.213 138.366 245.238C138.394 245.264 138.416 245.295 138.431 245.329C138.447 245.363 138.456 245.4 138.457 245.438Z" fill="#263238"/>
<path d="M138.536 247.322L139.177 247.52C139.166 247.564 139.145 247.605 139.118 247.641C139.09 247.677 139.055 247.707 139.016 247.729C138.976 247.751 138.932 247.765 138.887 247.77C138.842 247.774 138.796 247.77 138.753 247.756C138.667 247.727 138.596 247.665 138.555 247.584C138.514 247.503 138.507 247.409 138.536 247.322Z" fill="#9A4A4D"/>
<path d="M140.746 244.579L140.184 244.194C140.206 244.155 140.236 244.121 140.272 244.095C140.308 244.068 140.349 244.05 140.393 244.04C140.437 244.031 140.482 244.031 140.526 244.041C140.57 244.05 140.611 244.069 140.647 244.096C140.723 244.148 140.776 244.227 140.794 244.318C140.813 244.408 140.795 244.502 140.746 244.579Z" fill="#263238"/>
<path d="M140.618 245.27C140.626 245.311 140.624 245.354 140.614 245.395C140.603 245.435 140.584 245.473 140.557 245.506C140.53 245.538 140.497 245.564 140.459 245.582C140.421 245.6 140.379 245.609 140.337 245.609C140.295 245.609 140.253 245.6 140.215 245.582C140.177 245.564 140.144 245.538 140.117 245.506C140.09 245.473 140.07 245.435 140.06 245.395C140.049 245.354 140.048 245.311 140.056 245.27C140.053 245.233 140.058 245.196 140.07 245.16C140.082 245.125 140.101 245.093 140.126 245.065C140.151 245.038 140.181 245.015 140.215 245C140.248 244.984 140.285 244.975 140.322 244.974C140.361 244.973 140.4 244.979 140.437 244.994C140.474 245.008 140.507 245.03 140.534 245.058C140.562 245.085 140.584 245.119 140.598 245.155C140.613 245.192 140.619 245.231 140.618 245.27Z" fill="#263238"/>
<path d="M139.296 245.073L139.345 246.75L140.223 246.484L139.296 245.073Z" fill="#9A4A4D"/>
<path d="M138.072 248.871C137.351 248.773 135.891 248.348 135.664 247.776C135.752 248.071 135.931 248.331 136.177 248.516C136.77 248.866 137.407 249.135 138.072 249.315V248.871Z" fill="#9A4A4D"/>
<path d="M133.021 258.067L134.974 260.712L133.761 260.11L133.021 258.067Z" fill="#263238"/>
<path d="M133.651 239.488C134.022 239.698 134.319 240.016 134.503 240.4C134.687 240.784 134.748 241.216 134.679 241.636C134.611 242.056 134.415 242.445 134.118 242.75C133.821 243.055 133.438 243.262 133.02 243.343C132.602 243.424 132.169 243.375 131.78 243.202C131.391 243.029 131.064 242.741 130.844 242.377C130.623 242.013 130.52 241.59 130.547 241.165C130.575 240.74 130.732 240.334 130.997 240.001C131.291 239.594 131.73 239.314 132.223 239.219C132.716 239.123 133.227 239.22 133.651 239.488Z" fill="#263238"/>
<path d="M132.004 250.766C131.599 250.864 130.563 250.766 130.03 252.818C129.498 254.87 129.162 256.844 129.162 256.844C129.521 257.255 129.992 257.553 130.518 257.702C131.043 257.851 131.601 257.844 132.122 257.682C132.122 257.682 132.793 255.63 133.227 254.278C133.661 252.927 133.425 251.259 132.004 250.766Z" fill="#263238"/>
<path d="M63.8242 217.169C63.4114 214.872 63.292 212.531 63.469 210.203C63.4714 210.147 63.4922 210.093 63.5284 210.049C63.5646 210.006 63.6141 209.976 63.6691 209.964C63.7242 209.951 63.7818 209.957 63.8331 209.981C63.8843 210.005 63.9263 210.045 63.9525 210.095L65.7384 213.4C65.7384 213.4 65.9456 215.827 66.1725 217.485C66.3288 218.992 66.6362 220.479 67.0901 221.925C67.1694 222.132 67.3198 222.303 67.5144 222.408C67.9444 222.661 68.3336 222.977 68.6688 223.346C68.9846 223.632 69.2411 223.691 69.2115 223.79C69.1616 223.901 69.0725 223.989 68.9615 224.038C68.8504 224.087 68.7252 224.094 68.6096 224.056C68.3513 223.976 68.103 223.867 67.8696 223.731C68.0782 224.166 68.3546 224.566 68.6886 224.915C69.4582 225.724 69.5273 226.247 68.1163 226.365C67.2283 226.444 66.4883 225.951 65.6693 224.056C65.3602 223.36 65.0965 222.645 64.88 221.915C64.3965 220.011 64.061 218.333 63.8242 217.169Z" fill="#FFA8A7"/>
<path d="M61.5254 209.187C62.8771 209.187 64.4854 209.621 65.1564 210.864C65.733 212.458 66.1204 214.114 66.3108 215.798C66.3108 215.798 65.7977 216.903 63.9033 216.784L61.5254 209.187Z" fill="#318CFF"/>
<path opacity="0.2" d="M61.5254 209.187C62.8771 209.187 64.4854 209.621 65.1564 210.864C65.733 212.458 66.1204 214.114 66.3108 215.798C66.3108 215.798 65.7977 216.903 63.9033 216.784L61.5254 209.187Z" fill="black"/>
<path d="M50.7209 242.497C50.3855 242.33 50.1684 242.754 49.8625 243.099C49.597 243.348 49.3941 243.655 49.2705 243.997C49.2775 244.267 49.3428 244.532 49.4621 244.773C49.5813 245.015 49.7516 245.229 49.9612 245.398C50.2079 245.551 50.4221 245.75 50.5914 245.985C50.7607 246.221 50.8819 246.487 50.9479 246.77C50.9835 247.125 51.1206 247.463 51.3428 247.743C51.5649 248.023 51.8628 248.233 52.201 248.348C52.5884 248.511 53.0043 248.594 53.4244 248.594C53.8445 248.594 54.2604 248.511 54.6479 248.348C55.1215 248.043 54.6479 247.707 54.0263 246.76C53.1679 245.526 52.497 244.638 52.497 243.484L50.7209 242.497Z" fill="#263238"/>
<path d="M51.4116 241.491L50.7012 242.527C50.6255 242.633 50.5716 242.753 50.5425 242.88C50.5134 243.007 50.5097 243.139 50.5318 243.267C50.5538 243.395 50.601 243.518 50.6707 243.628C50.7405 243.738 50.8313 243.834 50.938 243.908C51.153 244.037 51.4062 244.085 51.6534 244.046C51.9006 244.006 52.1259 243.88 52.2898 243.691L53.4047 242.487L51.4116 241.491Z" fill="#FFA8A7"/>
<path d="M64.4558 221.175C64.4558 222.507 64.1204 227.865 63.2027 230.233C62.2851 232.601 61.7622 234.081 61.476 234.574C61.1899 235.068 52.882 243.158 52.882 243.158C52.4862 243.125 52.1122 242.963 51.8166 242.698C51.521 242.433 51.32 242.078 51.2441 241.688C51.2441 241.688 54.6482 235.896 55.3882 234.712C56.36 233.561 57.4855 232.548 58.7331 231.703L58.4963 221.333L64.4558 221.175Z" fill="#37474F"/>
<path d="M62.6305 249.428L64.3818 249.031L63.8017 246.471L62.0504 246.868L62.6305 249.428Z" fill="#FFA8A7"/>
<path d="M64.4559 221.175H56.0297C55.8488 222.407 55.7433 223.65 55.7139 224.895C55.6449 228.546 59.0489 235.176 59.0489 235.176C58.8801 236.652 58.9534 238.145 59.266 239.597C60.0505 242.255 60.976 244.87 62.0386 247.431C62.377 247.481 62.7224 247.458 63.0511 247.362C63.3797 247.267 63.6839 247.102 63.9429 246.878C63.9429 246.878 62.8181 236.883 62.5122 234.318C62.1866 231.545 61.3479 226.483 61.3479 226.483C61.9038 225.928 62.409 225.323 62.8575 224.678C63.6371 223.639 64.1824 222.444 64.4559 221.175Z" fill="#37474F"/>
<path d="M52.6845 219.212C53.0693 215.314 54.4803 212.453 54.6579 211.466L55.8123 216.301C55.4101 217.58 55.0807 218.882 54.8256 220.198C54.5409 221.688 54.4021 223.201 54.4112 224.717C54.4304 224.935 54.5287 225.139 54.6875 225.29C55.0331 225.654 55.3195 226.07 55.536 226.523C55.763 226.888 55.9899 227.016 55.9307 227.095C55.8533 227.189 55.7432 227.251 55.6225 227.267C55.5017 227.284 55.3792 227.254 55.2795 227.184C55.0561 227.03 54.8509 226.851 54.6677 226.651C54.7376 227.129 54.8842 227.592 55.1019 228.023C55.6051 229.009 55.5261 229.542 54.1152 229.246C53.2469 229.059 52.6746 228.378 52.4477 226.286C52.3473 225.531 52.3012 224.769 52.3096 224.007C52.4181 222.103 52.576 220.396 52.6845 219.212Z" fill="#FFA8A7"/>
<path d="M58.7429 209.266C57.1247 209.661 54.9244 210.164 54.2831 211.91C53.7577 213.577 53.3164 215.27 52.9609 216.982C53.3143 217.319 53.7425 217.569 54.2107 217.71C54.6788 217.85 55.1736 217.878 55.6546 217.791L56.0295 216.478V221.175C57.2925 222.556 61.6931 223.198 64.4558 221.175V212.403C64.4826 211.996 64.4263 211.587 64.2903 211.201C64.1543 210.816 63.9415 210.462 63.6647 210.161C63.388 209.86 63.053 209.619 62.6802 209.452C62.3074 209.284 61.9044 209.194 61.4958 209.187L58.7429 209.266Z" fill="#318CFF"/>
<path opacity="0.2" d="M56.0293 216.478L56.8384 213.933L56.0293 217.623V216.478Z" fill="black"/>
<path d="M64.7518 203.365C64.7577 203.866 64.6146 204.357 64.3406 204.777C64.0667 205.196 63.6742 205.524 63.2132 205.72C62.7522 205.916 62.2435 205.97 61.7515 205.876C61.2596 205.782 60.8068 205.544 60.4506 205.192C60.0944 204.84 59.8508 204.39 59.7509 203.899C59.6511 203.408 59.6993 202.899 59.8896 202.435C60.0799 201.972 60.4036 201.576 60.8196 201.297C61.2356 201.018 61.7251 200.869 62.2259 200.869C62.8907 200.869 63.5288 201.131 64.0016 201.598C64.4745 202.066 64.7441 202.701 64.7518 203.365Z" fill="#263238"/>
<path d="M58.131 202.093C57.9872 202.078 57.842 202.095 57.7056 202.143C57.5692 202.191 57.445 202.268 57.3417 202.369C56.9963 202.724 57.0753 203.356 57.3417 204.845L58.3974 204.974L58.131 202.093Z" fill="#263238"/>
<path d="M58.6245 204.974C58.4765 205.063 58.2496 204.767 58.0522 204.559C57.9758 204.474 57.879 204.409 57.7708 204.371C57.6626 204.332 57.5465 204.322 57.4333 204.341C57.3201 204.36 57.2135 204.407 57.1233 204.478C57.0331 204.549 56.9624 204.641 56.9175 204.747C56.6018 205.418 57.3221 206.316 57.7562 206.612C57.8732 206.716 58.0209 206.781 58.1773 206.795C58.3337 206.809 58.4905 206.773 58.6245 206.691L58.7429 209.266C58.9318 209.679 59.2198 210.039 59.5812 210.315C59.9426 210.59 60.3664 210.772 60.8149 210.845C62.3344 211.052 62.0187 209.799 61.5254 209.187V208.25C61.9045 208.331 62.2943 208.351 62.6798 208.309C63.1186 207.987 63.46 207.55 63.6665 207.046C64.3115 205.766 64.4558 204.292 64.071 202.912C63.5283 200.603 61.0419 200.534 59.5619 201.461C58.0818 202.389 58.6245 204.974 58.6245 204.974Z" fill="#FFA8A7"/>
<path d="M58.6238 205.23C58.5547 205.23 58.2489 204.737 58.0515 204.559C57.8542 204.382 58.1305 202.093 58.1305 202.093C58.0577 201.855 58.0439 201.603 58.0903 201.359C58.1368 201.115 58.242 200.886 58.3969 200.692C58.9297 200.129 59.9657 200.228 60.7156 200.198C61.8474 200.141 62.9819 200.167 64.1098 200.277C64.3002 200.272 64.4846 200.343 64.6228 200.474C64.6689 200.551 64.698 200.636 64.7083 200.725C64.7185 200.813 64.7095 200.903 64.682 200.988C64.5772 201.483 64.315 201.931 63.9344 202.266C63.5539 202.6 63.0755 202.802 62.5705 202.843C61.5675 202.839 60.5704 202.69 59.6105 202.398C59.3243 202.398 59.2652 202.635 59.1073 203.385C58.9494 204.135 58.8902 205.23 58.6238 205.23Z" fill="#263238"/>
<path d="M58.141 202.26L57.1543 201.757C57.1847 201.694 57.2274 201.638 57.2798 201.592C57.3323 201.546 57.3934 201.511 57.4596 201.489C57.5258 201.467 57.5957 201.458 57.6653 201.464C57.7349 201.469 57.8027 201.488 57.8647 201.52C57.9988 201.583 58.1029 201.695 58.1546 201.834C58.2063 201.972 58.2014 202.125 58.141 202.26Z" fill="#263238"/>
<path d="M61.5156 208.25C60.8724 208.126 60.2417 207.944 59.631 207.707C59.3402 207.559 59.1023 207.325 58.9502 207.036C59.0228 207.323 59.1538 207.591 59.335 207.825C59.6902 208.289 61.5156 208.624 61.5156 208.624V208.25Z" fill="#F28F8F"/>
<path d="M61.5644 204.915C61.5722 204.956 61.5708 204.998 61.5602 205.039C61.5497 205.08 61.5303 205.118 61.5035 205.15C61.4766 205.182 61.4429 205.209 61.4049 205.226C61.3668 205.244 61.3253 205.254 61.2832 205.254C61.2411 205.254 61.1996 205.244 61.1615 205.226C61.1235 205.209 61.0898 205.182 61.063 205.15C61.0361 205.118 61.0167 205.08 61.0062 205.039C60.9957 204.998 60.9942 204.956 61.002 204.915C60.9942 204.873 60.9957 204.831 61.0062 204.79C61.0167 204.749 61.0361 204.711 61.063 204.679C61.0898 204.647 61.1235 204.621 61.1615 204.603C61.1996 204.585 61.2411 204.576 61.2832 204.576C61.3253 204.576 61.3668 204.585 61.4049 204.603C61.4429 204.621 61.4766 204.647 61.5035 204.679C61.5303 204.711 61.5497 204.749 61.5602 204.79C61.5708 204.831 61.5722 204.873 61.5644 204.915Z" fill="#263238"/>
<path d="M61.2684 203.829L60.6665 204.165C60.6232 204.082 60.6133 203.985 60.639 203.895C60.6648 203.805 60.724 203.729 60.8046 203.681C60.8445 203.659 60.8885 203.646 60.9338 203.641C60.9791 203.637 61.0249 203.642 61.0683 203.656C61.1117 203.669 61.1518 203.692 61.1862 203.722C61.2206 203.752 61.2485 203.788 61.2684 203.829Z" fill="#263238"/>
<path d="M61.3969 206.789L62.0382 207.026C62.0238 207.07 62.0008 207.11 61.9705 207.145C61.9402 207.18 61.9033 207.208 61.8619 207.228C61.8206 207.248 61.7756 207.26 61.7296 207.263C61.6836 207.265 61.6376 207.259 61.5942 207.243C61.5511 207.227 61.5116 207.202 61.4782 207.17C61.4448 207.138 61.4181 207.1 61.3997 207.058C61.3813 207.016 61.3716 206.97 61.3711 206.924C61.3706 206.878 61.3794 206.832 61.3969 206.789Z" fill="#F28F8F"/>
<path d="M64.0711 204.096L63.5186 203.671C63.5441 203.633 63.5773 203.601 63.6159 203.576C63.6545 203.551 63.6979 203.534 63.7432 203.527C63.7885 203.52 63.8349 203.522 63.8794 203.533C63.9239 203.544 63.9657 203.564 64.002 203.592C64.0727 203.654 64.1187 203.738 64.1314 203.831C64.1441 203.924 64.1227 204.018 64.0711 204.096Z" fill="#263238"/>
<path d="M63.9228 204.816C63.9306 204.857 63.9292 204.9 63.9186 204.94C63.9081 204.981 63.8887 205.019 63.8619 205.051C63.835 205.084 63.8013 205.11 63.7633 205.128C63.7252 205.146 63.6837 205.155 63.6416 205.155C63.5995 205.155 63.558 205.146 63.5199 205.128C63.4819 205.11 63.4482 205.084 63.4214 205.051C63.3945 205.019 63.3751 204.981 63.3646 204.94C63.3541 204.9 63.3526 204.857 63.3604 204.816C63.3526 204.775 63.3541 204.732 63.3646 204.691C63.3751 204.651 63.3945 204.613 63.4214 204.58C63.4482 204.548 63.4819 204.522 63.5199 204.504C63.558 204.486 63.5995 204.477 63.6416 204.477C63.6837 204.477 63.7252 204.486 63.7633 204.504C63.8013 204.522 63.835 204.548 63.8619 204.58C63.8887 204.613 63.9081 204.651 63.9186 204.691C63.9292 204.732 63.9306 204.775 63.9228 204.816Z" fill="#263238"/>
<path d="M62.5809 204.806L62.3145 206.474L63.2419 206.365L62.5809 204.806Z" fill="#F28F8F"/>
<path d="M64.1789 248.171L64.1197 247.914C64.3072 247.914 65.1064 249.256 65.876 249.828C66.6456 250.401 67.4745 250.815 67.8494 251.101C68.2243 251.387 67.6225 252.246 66.3595 252.315C65.6227 252.358 64.8892 252.187 64.248 251.822C63.8928 251.496 63.6362 250.943 63.36 250.697C63.0837 250.45 62.5213 250.253 62.3733 249.947C62.2536 249.633 62.2163 249.293 62.2648 248.96C62.2648 248.635 62.2648 248.269 62.393 248.279V248.467C62.7228 248.634 63.0892 248.715 63.4586 248.704C63.7744 248.733 64.3269 248.664 64.1789 248.171Z" fill="#263238"/>
<path d="M62.2943 232.621C62.2943 232.621 61.5444 227.312 61.3076 226.483C61.908 226.16 62.465 225.763 62.9652 225.299C62.6181 225.797 62.239 226.272 61.8306 226.72L62.2943 232.621Z" fill="#263238"/>
<path d="M57.7852 232.443C58.1479 233.38 58.5698 234.293 59.0481 235.176C59.0481 235.176 58.9494 236.883 58.9692 237.228L58.4956 237.633C58.484 236.862 58.5535 236.091 58.7028 235.334C58.2936 234.406 57.986 233.437 57.7852 232.443Z" fill="#263238"/>
</svg>
