<svg width="282" height="278" viewBox="0 0 282 278" fill="none" xmlns="http://www.w3.org/2000/svg">
<path d="M240.379 141.499C295.622 172.726 295.91 223.321 241.019 254.573C186.128 285.825 96.8659 285.793 41.6231 254.573C-13.6196 223.353 -13.9139 172.751 40.9833 141.499C95.8805 110.247 185.149 110.273 240.379 141.499Z" fill="#F0F0F0"/>
<path d="M59.7042 4.55046C56.7162 6.27639 54.1313 9.74741 52.89 13.3527C52.1002 13.4412 51.3399 13.7031 50.6634 14.1198L50.1835 14.4138C47.4846 16.3933 45.6517 19.3347 45.0649 22.6279C44.9197 23.4741 44.9197 24.3387 45.0649 25.1848C45.0719 25.2662 45.0566 25.3479 45.0205 25.4211C44.9844 25.4944 44.929 25.5563 44.8601 25.6003L41.7634 27.371C41.0561 27.8323 40.4675 28.4534 40.0451 29.1841C39.6227 29.9148 39.3785 30.7346 39.332 31.5772C39.332 33.1241 40.4325 33.7505 41.7826 32.9707L71.9313 15.5772C72.641 15.1186 73.2315 14.4981 73.6542 13.7668C74.077 13.0356 74.3197 12.2144 74.3626 11.3711C74.3626 9.82412 73.2621 9.20407 71.9185 9.98393L66.979 12.8285C66.8254 12.918 66.7231 12.8285 66.7806 12.6112C67.2334 11.1761 67.4199 9.67052 67.3309 8.16851C67.0046 4.09022 63.9846 2.41543 60.2928 4.25002C60.0816 4.33952 59.8897 4.44179 59.7042 4.55046Z" fill="#E6E6E6"/>
<path d="M36.139 0.71507C33.9234 2.14634 32.2641 4.29129 31.4363 6.79416C30.8921 6.85377 30.3677 7.03276 29.9007 7.31833C29.7861 7.38259 29.675 7.45301 29.568 7.52928C27.7001 8.89202 26.4323 10.9238 26.0298 13.1993C25.9305 13.781 25.9305 14.3754 26.0298 14.9571C26.0351 15.0134 26.0248 15.07 25.9999 15.1208C25.9751 15.1715 25.9367 15.2144 25.889 15.2448L23.7584 16.4721C23.2705 16.7904 22.8646 17.219 22.5733 17.7232C22.2821 18.2274 22.1138 18.793 22.082 19.3742C22.082 20.4417 22.8434 20.87 23.7712 20.3331L44.5784 8.32831C45.0662 8.01002 45.4722 7.58143 45.7634 7.07725C46.0547 6.57306 46.223 6.00745 46.2547 5.4262C46.2547 4.35869 45.4933 3.9304 44.5656 4.46736L41.1873 6.4298C41.0785 6.49372 41.0081 6.4298 41.0465 6.28277C41.3591 5.29168 41.4871 4.25169 41.424 3.21446C41.2001 0.401847 39.1142 -0.755162 36.5485 0.510516L36.139 0.71507Z" fill="#E6E6E6"/>
<path d="M49.678 213.375L58.5524 218.68C59.2286 219.087 60.0028 219.301 60.7918 219.301C61.5809 219.301 62.3551 219.087 63.0312 218.68L135.185 175.513C135.41 175.375 135.595 175.182 135.724 174.952C135.853 174.722 135.921 174.463 135.921 174.199C135.921 173.936 135.853 173.676 135.724 173.446C135.595 173.216 135.41 173.023 135.185 172.886L126.285 167.58C125.608 167.174 124.834 166.959 124.045 166.959C123.256 166.959 122.482 167.174 121.806 167.58L49.678 210.767C49.4573 210.905 49.2753 211.098 49.1493 211.326C49.0232 211.554 48.957 211.81 48.957 212.071C48.957 212.331 49.0232 212.587 49.1493 212.815C49.2753 213.043 49.4573 213.236 49.678 213.375Z" fill="#E0E0E0"/>
<path d="M217.625 200.385C232.533 208.989 232.617 222.931 217.805 231.529C202.993 240.126 178.897 240.133 163.989 231.529C149.081 222.925 148.998 208.989 163.81 200.385C178.622 191.781 202.717 191.788 217.625 200.385Z" fill="#E0E0E0"/>
<path d="M40.6646 166.327C39.0202 164.755 37.1327 163.035 37.0176 160.759C37.024 159.742 37.3411 158.75 37.9264 157.918C38.5118 157.085 39.3376 156.451 40.2935 156.099C41.2576 155.774 42.2773 155.646 43.2918 155.723C44.3064 155.8 45.2952 156.08 46.1991 156.547C47.9993 157.497 49.6035 158.779 50.9274 160.325C54.9107 164.747 57.7942 170.045 59.3439 175.79C60.8936 181.534 61.0658 187.562 59.8466 193.386C59.6803 194.153 59.4243 195.003 58.7333 195.367C57.6328 195.949 56.3788 194.926 55.6238 193.935C53.9866 191.763 52.7495 189.317 51.9704 186.712C51.3305 184.507 51.612 182.078 50.7803 180C48.7456 174.905 44.5803 170.067 40.6646 166.327Z" fill="#318CFF"/>
<path d="M40.6646 166.327C39.0202 164.755 37.1327 163.035 37.0176 160.759C37.024 159.742 37.3411 158.75 37.9264 157.918C38.5118 157.085 39.3376 156.451 40.2935 156.099C41.2576 155.774 42.2773 155.646 43.2918 155.723C44.3064 155.8 45.2952 156.08 46.1991 156.547C47.9993 157.497 49.6035 158.779 50.9274 160.325C54.9107 164.747 57.7942 170.045 59.3439 175.79C60.8936 181.534 61.0658 187.562 59.8466 193.386C59.6803 194.153 59.4243 195.003 58.7333 195.367C57.6328 195.949 56.3788 194.926 55.6238 193.935C53.9866 191.763 52.7495 189.317 51.9704 186.712C51.3305 184.507 51.612 182.078 50.7803 180C48.7456 174.905 44.5803 170.067 40.6646 166.327Z" fill="#318CFF"/>
<path d="M57.7741 192.395C57.7164 192.395 57.6593 192.384 57.6061 192.361C57.5529 192.339 57.5047 192.306 57.4642 192.265C57.4237 192.224 57.3918 192.176 57.3703 192.122C57.3488 192.069 57.3382 192.012 57.339 191.954C57.2852 185.575 55.8116 179.289 53.0251 173.549C50.2386 167.81 46.2089 162.762 41.2282 158.771C41.1802 158.735 41.1401 158.69 41.1102 158.637C41.0803 158.585 41.0611 158.528 41.054 158.468C41.0468 158.408 41.0517 158.348 41.0685 158.29C41.0852 158.233 41.1134 158.179 41.1514 158.132C41.1887 158.085 41.2349 158.047 41.2873 158.018C41.3397 157.989 41.3972 157.971 41.4567 157.964C41.5161 157.958 41.5763 157.963 41.6337 157.98C41.6911 157.996 41.7446 158.024 41.7912 158.062C46.8773 162.135 50.9918 167.289 53.836 173.149C56.6802 179.009 58.1828 185.429 58.2348 191.941C58.2366 192.002 58.2259 192.062 58.2033 192.118C58.1807 192.175 58.1467 192.226 58.1035 192.268C58.0603 192.311 58.0087 192.344 57.952 192.366C57.8953 192.388 57.8348 192.398 57.7741 192.395Z" fill="white"/>
<path d="M52.3796 209.833C49.6091 210.722 46.1349 210.14 44.5289 207.711C42.6094 204.86 43.8187 200.462 41.2914 198.122C39.8774 196.844 37.7979 196.703 35.9232 196.32C34.0485 195.936 31.9691 194.894 31.6876 193.002C31.3165 190.496 34.4004 188.412 33.9718 185.913C33.5431 183.414 30.1328 182.679 29.1283 180.39C28.2133 178.306 29.8321 175.781 31.9819 175.001C34.1317 174.222 36.5183 174.758 38.6553 175.551C40.7923 176.344 42.8718 177.392 45.1367 177.673C47.4017 177.955 50.217 177.501 51.9445 179.118C54.2607 181.279 52.9362 185.402 54.7214 188.01C55.9242 189.761 58.1828 190.369 59.9104 191.596C60.9842 192.375 61.8557 193.399 62.4524 194.584C63.049 195.768 63.3533 197.078 63.3398 198.404C63.2823 201.274 61.7723 203.351 59.5969 205.001C57.2935 206.79 55.2652 208.913 52.3796 209.833Z" fill="#318CFF"/>
<path opacity="0.3" d="M52.3796 209.833C49.6091 210.722 46.1349 210.14 44.5289 207.711C42.6094 204.86 43.8187 200.462 41.2914 198.122C39.8774 196.844 37.7979 196.703 35.9232 196.32C34.0485 195.936 31.9691 194.894 31.6876 193.002C31.3165 190.496 34.4004 188.412 33.9718 185.913C33.5431 183.414 30.1328 182.679 29.1283 180.39C28.2133 178.306 29.8321 175.781 31.9819 175.001C34.1317 174.222 36.5183 174.758 38.6553 175.551C40.7923 176.344 42.8718 177.392 45.1367 177.673C47.4017 177.955 50.217 177.501 51.9445 179.118C54.2607 181.279 52.9362 185.402 54.7214 188.01C55.9242 189.761 58.1828 190.369 59.9104 191.596C60.9842 192.375 61.8557 193.399 62.4524 194.584C63.049 195.768 63.3533 197.078 63.3398 198.404C63.2823 201.274 61.7723 203.351 59.5969 205.001C57.2935 206.79 55.2652 208.913 52.3796 209.833Z" fill="black"/>
<path d="M51.1324 190.202L51.1004 190.158C50.6845 189.557 50.2558 188.962 49.8207 188.393C45.7204 183.318 40.1593 179.623 33.889 177.808C33.8317 177.785 33.7704 177.775 33.7089 177.777C33.6474 177.78 33.5871 177.795 33.5318 177.822C33.4766 177.849 33.4277 177.888 33.3881 177.935C33.3486 177.982 33.3194 178.037 33.3024 178.096C33.2854 178.155 33.2809 178.217 33.2893 178.278C33.2976 178.339 33.3187 178.397 33.351 178.45C33.3834 178.502 33.4263 178.547 33.4771 178.582C33.5278 178.617 33.5853 178.64 33.6459 178.652C39.7426 180.416 45.1499 184.008 49.1361 188.943C49.2577 189.097 49.3664 189.269 49.488 189.423C44.5229 187.601 39.4555 188.636 36.7554 190.81C36.7069 190.846 36.6664 190.892 36.6366 190.944C36.6067 190.997 36.5882 191.055 36.5822 191.115C36.5762 191.175 36.5828 191.236 36.6016 191.294C36.6204 191.351 36.651 191.404 36.6914 191.449C36.7271 191.498 36.7725 191.539 36.825 191.569C36.8774 191.6 36.9356 191.619 36.9958 191.625C37.056 191.632 37.117 191.626 37.1747 191.608C37.2325 191.589 37.2858 191.559 37.3313 191.519C40.0057 189.365 45.5275 188.406 50.5309 190.829C53.6434 195.418 55.4643 200.759 55.8031 206.292C55.8096 206.403 55.8583 206.507 55.9392 206.583C56.0201 206.659 56.1271 206.701 56.2382 206.701C56.2959 206.699 56.3526 206.685 56.4048 206.66C56.4571 206.636 56.504 206.601 56.5427 206.558C56.5814 206.515 56.6112 206.465 56.6303 206.411C56.6494 206.356 56.6575 206.298 56.6541 206.241C56.2991 200.494 54.3908 194.951 51.1324 190.202Z" fill="white"/>
<path d="M220.795 180.339C222.133 179.061 223.662 177.667 223.751 175.826C223.748 175.001 223.492 174.196 223.017 173.521C222.542 172.845 221.872 172.332 221.096 172.048C220.314 171.782 219.486 171.678 218.663 171.74C217.839 171.803 217.037 172.032 216.304 172.413C214.84 173.179 213.537 174.218 212.465 175.474C209.227 179.064 206.883 183.366 205.625 188.032C204.366 192.697 204.228 197.593 205.222 202.322C205.252 202.639 205.348 202.947 205.505 203.224C205.661 203.502 205.874 203.743 206.131 203.933C207.026 204.406 208.05 203.575 208.651 202.77C209.982 201.006 210.986 199.019 211.614 196.901C212.151 195.118 211.908 193.143 212.58 191.462C214.237 187.307 217.615 183.375 220.795 180.339Z" fill="#318CFF"/>
<path d="M206.904 201.491C206.999 201.491 207.09 201.453 207.157 201.386C207.225 201.319 207.262 201.228 207.262 201.133C207.306 195.957 208.502 190.855 210.764 186.198C213.026 181.541 216.297 177.446 220.34 174.209C220.401 174.146 220.437 174.064 220.441 173.977C220.445 173.891 220.418 173.805 220.364 173.737C220.31 173.669 220.233 173.623 220.147 173.608C220.062 173.592 219.974 173.608 219.899 173.653C215.773 176.958 212.436 181.14 210.128 185.894C207.821 190.648 206.602 195.856 206.559 201.14C206.56 201.231 206.597 201.319 206.661 201.384C206.725 201.45 206.812 201.488 206.904 201.491Z" fill="white"/>
<path d="M211.288 215.637C213.54 216.36 216.362 215.887 217.686 213.918C219.215 211.604 218.262 208.037 220.309 206.164C221.461 205.122 223.144 205.013 224.667 204.7C226.189 204.387 227.866 203.549 228.103 202.015C228.403 199.976 225.902 198.289 226.253 196.262C226.605 194.236 229.363 193.641 230.182 191.788C230.924 190.094 229.606 188.042 227.866 187.415C226.125 186.789 224.187 187.217 222.453 187.856C220.719 188.496 219.03 189.352 217.193 189.576C215.357 189.8 213.073 189.435 211.672 190.752C209.791 192.504 210.866 195.866 209.413 197.969C208.441 199.388 206.611 199.887 205.21 200.871C204.337 201.503 203.628 202.335 203.144 203.297C202.66 204.259 202.414 205.324 202.426 206.4C202.471 208.727 203.706 210.408 205.459 211.751C207.308 213.17 208.978 214.896 211.288 215.637Z" fill="#318CFF"/>
<path opacity="0.3" d="M211.288 215.637C213.54 216.36 216.362 215.887 217.686 213.918C219.215 211.604 218.262 208.037 220.309 206.164C221.461 205.122 223.144 205.013 224.667 204.7C226.189 204.387 227.866 203.549 228.103 202.015C228.403 199.976 225.902 198.289 226.253 196.262C226.605 194.236 229.363 193.641 230.182 191.788C230.924 190.094 229.606 188.042 227.866 187.415C226.125 186.789 224.187 187.217 222.453 187.856C220.719 188.496 219.03 189.352 217.193 189.576C215.357 189.8 213.073 189.435 211.672 190.752C209.791 192.504 210.866 195.866 209.413 197.969C208.441 199.388 206.611 199.887 205.21 200.871C204.337 201.503 203.628 202.335 203.144 203.297C202.66 204.259 202.414 205.324 202.426 206.4C202.471 208.727 203.706 210.408 205.459 211.751C207.308 213.17 208.978 214.896 211.288 215.637Z" fill="black"/>
<path d="M212.304 199.714V199.676C212.643 199.19 212.989 198.711 213.36 198.25C216.691 194.129 221.213 191.133 226.31 189.672C226.401 189.646 226.498 189.657 226.581 189.703C226.663 189.748 226.725 189.824 226.751 189.915C226.764 189.96 226.768 190.007 226.762 190.054C226.756 190.101 226.741 190.146 226.718 190.187C226.695 190.228 226.664 190.264 226.627 190.293C226.59 190.322 226.547 190.343 226.502 190.356C221.558 191.781 217.173 194.691 213.942 198.691C213.84 198.819 213.75 198.953 213.654 199.081C217.679 197.598 221.786 198.442 223.981 200.206C224.04 200.253 224.082 200.316 224.103 200.387C224.124 200.459 224.122 200.535 224.097 200.606C224.073 200.676 224.027 200.737 223.966 200.78C223.905 200.823 223.832 200.846 223.757 200.846C223.675 200.846 223.595 200.816 223.533 200.762C221.364 199.017 216.885 198.244 212.822 200.206C210.286 203.932 208.799 208.27 208.516 212.767C208.51 212.858 208.469 212.942 208.403 213.004C208.336 213.066 208.249 213.1 208.158 213.1C208.111 213.097 208.065 213.085 208.023 213.065C207.981 213.045 207.943 213.016 207.912 212.981C207.881 212.946 207.857 212.905 207.843 212.861C207.828 212.816 207.822 212.769 207.825 212.722C208.111 208.061 209.659 203.565 212.304 199.714Z" fill="white"/>
<path d="M160.836 42.1118C161.13 41.9392 161.367 42.1118 161.367 42.4186V46.0047C161.357 46.1882 161.303 46.3666 161.211 46.5255C161.119 46.6844 160.99 46.8192 160.836 46.9188C160.541 47.0914 160.305 46.9188 160.305 46.6184V43.0323C160.315 42.848 160.368 42.6686 160.46 42.5087C160.553 42.3488 160.681 42.2128 160.836 42.1118Z" fill="#318CFF"/>
<path d="M154.01 48.926C154.07 48.885 154.141 48.8632 154.214 48.8632C154.287 48.8632 154.359 48.885 154.419 48.926L156.435 50.5113C156.627 50.6647 156.595 51.0674 156.371 51.4126C156.287 51.5512 156.17 51.6675 156.032 51.7514C155.972 51.7932 155.9 51.8156 155.827 51.8156C155.754 51.8156 155.682 51.7932 155.622 51.7514L153.607 50.1661C153.415 50.0127 153.44 49.61 153.671 49.2648C153.755 49.1268 153.872 49.0107 154.01 48.926Z" fill="#318CFF"/>
<path d="M151.641 53.5541C151.716 53.5209 151.797 53.5077 151.878 53.5157L154.591 53.7522C154.847 53.7522 154.936 54.0974 154.789 54.4746C154.699 54.7076 154.538 54.9066 154.329 55.0435C154.249 55.0948 154.155 55.1194 154.06 55.1138L151.347 54.8837C151.098 54.8837 151.008 54.5385 151.155 54.1613C151.241 53.9084 151.413 53.6936 151.641 53.5541Z" fill="#318CFF"/>
<path d="M154.375 62.4648C154.56 62.3562 154.739 62.3626 154.835 62.5032C154.898 62.6626 154.913 62.8367 154.879 63.0045C154.845 63.1724 154.763 63.3268 154.643 63.4492L151.943 66.8052C151.871 66.8974 151.782 66.9754 151.681 67.0353C151.495 67.144 151.316 67.1376 151.214 66.997C151.153 66.8373 151.138 66.6636 151.172 66.4961C151.206 66.3286 151.287 66.1742 151.406 66.0509L154.106 62.695C154.181 62.6025 154.272 62.5245 154.375 62.4648Z" fill="#318CFF"/>
<path d="M153.472 60.1316C153.728 59.991 153.952 60.0677 153.996 60.3362C154.008 60.5187 153.975 60.7013 153.9 60.8683C153.825 61.0353 153.711 61.1817 153.568 61.295L150.49 63.6922L150.401 63.7561C150.145 63.9031 149.921 63.8264 149.876 63.5515C149.863 63.3688 149.895 63.1856 149.97 63.0184C150.045 62.8511 150.16 62.7049 150.305 62.5927L153.376 60.1956L153.472 60.1316Z" fill="#318CFF"/>
<path d="M167.715 41.025C167.765 40.9905 167.822 40.9674 167.882 40.9575C167.941 40.9475 168.003 40.9509 168.061 40.9675C168.285 41.057 168.317 41.4213 168.131 41.7921L166.129 45.6978C166.038 45.8847 165.896 46.0421 165.719 46.1516C165.669 46.1846 165.612 46.2068 165.552 46.2167C165.493 46.2266 165.432 46.224 165.374 46.2092C165.15 46.1197 165.118 45.7489 165.31 45.3782L167.306 41.4789C167.395 41.2907 167.537 41.1329 167.715 41.025Z" fill="#318CFF"/>
<path d="M164.501 40.731C164.559 40.6985 164.622 40.6769 164.687 40.6671C164.962 40.6224 165.103 40.8908 165.007 41.268L163.945 45.2504C163.872 45.5353 163.693 45.7819 163.446 45.9408C163.391 45.975 163.33 45.9989 163.267 46.0111C162.991 46.0558 162.844 45.7873 162.947 45.4102L164.002 41.4278C164.077 41.1419 164.255 40.8937 164.501 40.731Z" fill="#318CFF"/>
<g opacity="0.2">
<path d="M160.836 42.1118C161.13 41.9392 161.367 42.1118 161.367 42.4186V46.0047C161.357 46.1882 161.303 46.3666 161.211 46.5255C161.119 46.6844 160.99 46.8192 160.836 46.9188C160.541 47.0914 160.305 46.9188 160.305 46.6184V43.0323C160.315 42.848 160.368 42.6686 160.46 42.5087C160.553 42.3488 160.681 42.2128 160.836 42.1118Z" fill="black"/>
<path d="M154.01 48.926C154.07 48.885 154.141 48.8632 154.214 48.8632C154.287 48.8632 154.359 48.885 154.419 48.926L156.435 50.5113C156.627 50.6647 156.595 51.0674 156.371 51.4126C156.287 51.5512 156.17 51.6675 156.032 51.7514C155.972 51.7932 155.9 51.8156 155.827 51.8156C155.754 51.8156 155.682 51.7932 155.622 51.7514L153.607 50.1661C153.415 50.0127 153.44 49.61 153.671 49.2648C153.755 49.1268 153.872 49.0107 154.01 48.926Z" fill="black"/>
<path d="M151.641 53.5539C151.716 53.5208 151.797 53.5076 151.878 53.5156L154.591 53.7521C154.847 53.7521 154.936 54.0973 154.789 54.4744C154.699 54.7075 154.538 54.9065 154.329 55.0433C154.249 55.0946 154.155 55.1193 154.06 55.1137L151.347 54.8835C151.098 54.8835 151.008 54.5384 151.155 54.1612C151.241 53.9083 151.413 53.6934 151.641 53.5539Z" fill="black"/>
<path d="M154.375 62.4648C154.56 62.3562 154.739 62.3626 154.835 62.5032C154.898 62.6626 154.913 62.8367 154.879 63.0045C154.845 63.1724 154.763 63.3268 154.643 63.4492L151.943 66.8052C151.871 66.8974 151.782 66.9754 151.681 67.0353C151.495 67.144 151.316 67.1376 151.214 66.997C151.153 66.8373 151.138 66.6636 151.172 66.4961C151.206 66.3286 151.287 66.1742 151.406 66.0509L154.106 62.695C154.181 62.6025 154.272 62.5245 154.375 62.4648Z" fill="black"/>
<path d="M153.472 60.1316C153.728 59.991 153.952 60.0677 153.996 60.3362C154.008 60.5187 153.975 60.7013 153.9 60.8683C153.825 61.0353 153.711 61.1817 153.568 61.295L150.49 63.6922L150.401 63.7561C150.145 63.9031 149.921 63.8264 149.876 63.5515C149.863 63.3688 149.895 63.1856 149.97 63.0184C150.045 62.8511 150.16 62.7049 150.305 62.5927L153.376 60.1956L153.472 60.1316Z" fill="black"/>
<path d="M167.715 41.025C167.765 40.9905 167.822 40.9674 167.882 40.9575C167.941 40.9475 168.003 40.9509 168.061 40.9675C168.285 41.057 168.317 41.4213 168.131 41.7921L166.129 45.6978C166.038 45.8847 165.896 46.0421 165.719 46.1516C165.669 46.1846 165.612 46.2068 165.552 46.2167C165.493 46.2266 165.432 46.224 165.374 46.2092C165.15 46.1197 165.118 45.7489 165.31 45.3782L167.306 41.4789C167.395 41.2907 167.537 41.1329 167.715 41.025Z" fill="black"/>
<path d="M164.501 40.731C164.559 40.6985 164.622 40.6769 164.687 40.6671C164.962 40.6224 165.103 40.8908 165.007 41.268L163.945 45.2504C163.872 45.5353 163.693 45.7819 163.446 45.9408C163.391 45.975 163.33 45.9989 163.267 46.0111C162.991 46.0558 162.844 45.7873 162.947 45.4102L164.002 41.4278C164.077 41.1419 164.255 40.8937 164.501 40.731Z" fill="black"/>
</g>
<path d="M162.525 220.751C163.324 221.539 164.279 222.15 165.33 222.546C166.38 222.941 167.502 223.112 168.622 223.046C170.855 222.893 173.039 222.327 175.065 221.378C177.132 220.509 179.717 218.079 181.95 218.124C184.131 218.108 186.308 217.956 188.47 217.67C188.548 214.628 188.237 211.588 187.542 208.625L177.132 208.344C174.323 212.288 168.859 215.567 164.726 216.795C164.086 216.987 163.51 217.349 163.059 217.842C162.609 218.335 162.3 218.94 162.166 219.594C162.163 219.618 162.163 219.641 162.166 219.665C162.241 220.04 162.361 220.405 162.525 220.751Z" fill="#455A64"/>
<path d="M181.952 218.124C179.719 218.079 177.134 220.508 175.067 221.378C173.041 222.327 170.856 222.892 168.624 223.046C167.503 223.111 166.382 222.941 165.331 222.545C164.281 222.15 163.325 221.539 162.526 220.751C162.363 220.405 162.242 220.04 162.168 219.665C162.165 219.641 162.165 219.618 162.168 219.594C162.069 220.062 162.069 220.546 162.168 221.013C162.242 221.389 162.363 221.754 162.526 222.1C163.324 222.889 164.28 223.501 165.33 223.897C166.381 224.292 167.503 224.462 168.624 224.395C170.856 224.243 173.041 223.68 175.067 222.733C177.134 221.864 179.719 219.434 181.952 219.479C184.091 219.495 186.228 219.367 188.35 219.096C188.401 218.623 188.433 218.143 188.452 217.67C186.297 217.955 184.126 218.107 181.952 218.124Z" fill="#37474F"/>
<path d="M209.304 221.41C209.312 222.496 209.207 223.58 208.99 224.644C208.661 226.523 207.629 228.207 206.105 229.355C204.716 230.18 203.132 230.621 201.517 230.634C200.104 230.785 198.675 230.632 197.326 230.186C196.295 229.806 195.427 229.081 194.869 228.134C194.869 228.134 194.869 228.173 194.869 228.192C195.064 228.884 195.423 229.519 195.915 230.043C196.407 230.567 197.018 230.965 197.697 231.203C199.048 231.65 200.48 231.8 201.894 231.644C203.505 231.643 205.087 231.213 206.476 230.397C208.005 229.25 209.037 227.562 209.361 225.68C209.578 224.617 209.683 223.536 209.675 222.452C209.678 221.713 209.83 220.983 210.122 220.305C210.413 219.626 210.837 219.013 211.37 218.501C211.63 218.255 211.876 217.995 212.106 217.721C212.272 217.528 212.398 217.303 212.476 217.061C212.554 216.818 212.582 216.562 212.56 216.309C212.56 216.11 212.522 215.912 212.496 215.72C212.119 216.181 211.217 217.267 210.986 217.485C210.46 217.995 210.04 218.605 209.751 219.279C209.462 219.952 209.31 220.677 209.304 221.41Z" fill="#37474F"/>
<path d="M201.345 210.127C201.681 212.355 201.391 214.633 200.507 216.705C199.632 218.745 198.494 220.662 197.122 222.407C196.448 223.232 195.852 224.118 195.343 225.053C194.85 225.991 194.675 227.063 194.844 228.109C195.402 229.056 196.27 229.781 197.301 230.161C198.65 230.607 200.079 230.76 201.492 230.608C203.107 230.596 204.69 230.154 206.079 229.33C207.604 228.182 208.636 226.498 208.965 224.619C209.181 223.554 209.287 222.47 209.279 221.384C209.282 220.647 209.434 219.917 209.724 219.239C210.014 218.56 210.437 217.947 210.968 217.434C211.198 217.217 212.1 216.155 212.478 215.67C212.273 214.057 211.744 212.502 210.923 211.099L201.345 210.127Z" fill="#455A64"/>
<path d="M173.416 114.882L174.203 169.894L176.762 208.401C183.161 212.556 187.831 209.162 187.831 209.162C190.269 190.918 190.595 179.7 189.271 172.087L190.487 142.401L194.108 173.244L200.25 211.029C206.834 215.401 211.486 211.029 211.486 211.029C211.486 197.042 212.701 181.407 208.926 171.32C211.582 140.157 207.154 115.457 207.154 115.457L173.416 114.882Z" fill="#37474F"/>
<path d="M189.116 131.086L190.46 142.426L189.89 156.33L187.42 133.471C181.662 131.176 180.945 127.948 180.945 127.948C183.354 129.677 186.168 130.758 189.116 131.086Z" fill="#263238"/>
<path d="M178.285 51.2976L176.819 50.5305H176.787H176.73C176.609 50.4753 176.477 50.4499 176.344 50.4566C176.212 50.4633 176.083 50.5018 175.968 50.5689L162.858 58.131C162.601 58.2793 162.388 58.4927 162.239 58.7497C162.091 59.0067 162.013 59.2982 162.014 59.5948V65.936C162.012 66.0684 162.043 66.1993 162.103 66.3173C162.163 66.4354 162.251 66.537 162.359 66.6136C162.409 66.6475 162.463 66.6754 162.519 66.6967L163.94 67.451L163.869 66.294L176.365 59.0898C176.623 58.9418 176.837 58.7287 176.987 58.4717C177.136 58.2148 177.215 57.9231 177.216 57.626V52.103L178.285 51.2976Z" fill="#455A64"/>
<path d="M177.868 59.8376L164.758 67.3997C164.629 67.4748 164.483 67.5148 164.334 67.5155C164.184 67.5162 164.038 67.4778 163.908 67.4039C163.778 67.3301 163.67 67.2236 163.595 67.0949C163.52 66.9663 163.48 66.8201 163.479 66.671V60.3234C163.48 60.0272 163.559 59.7365 163.707 59.4798C163.855 59.2231 164.067 59.0094 164.323 58.8596L177.472 51.2975C177.601 51.22 177.748 51.1784 177.899 51.1769C178.049 51.1755 178.197 51.2142 178.328 51.2892C178.458 51.3642 178.566 51.4726 178.641 51.6033C178.715 51.734 178.753 51.8822 178.751 52.0326V58.3738C178.748 58.6744 178.665 58.9687 178.51 59.2262C178.355 59.4836 178.133 59.6948 177.868 59.8376Z" fill="#455A64"/>
<path d="M164.33 60.3234C164.331 60.1758 164.371 60.0309 164.445 59.9032C164.519 59.7754 164.625 59.6691 164.752 59.5947L177.869 52.0326V58.3738C177.869 58.5225 177.83 58.6687 177.756 58.7976C177.682 58.9266 177.575 59.034 177.447 59.1089L164.336 66.6646L164.33 60.3234Z" fill="#318CFF"/>
<path d="M172.168 69.7009C172.344 69.2851 172.64 68.9312 173.019 68.6846C174.131 67.9886 174.98 66.9429 175.431 65.7121C175.799 64.3978 176.001 63.0429 176.033 61.6786C176.069 60.3064 176.555 58.984 177.415 57.9135C175.086 56.9738 174.139 59.0897 173.294 62.4776L165.495 66.9522L165.603 67.2079C165.717 67.4569 165.775 67.7272 165.775 68.0006C165.775 68.274 165.717 68.5443 165.603 68.7932L163.332 73.4021C164.432 74.1877 165.715 74.6794 167.059 74.8304C168.403 74.9815 169.763 74.7868 171.01 74.2651C171.304 72.7218 171.69 71.1977 172.168 69.7009Z" fill="#FFA8A7"/>
<path d="M170.594 79.0338C171.003 77.3781 171.496 75.1984 171.816 73.2807C170.373 73.7838 168.834 73.952 167.317 73.7726C165.799 73.5932 164.342 73.0708 163.057 72.2451C162.132 73.8086 161.303 75.4267 160.574 77.0905C161.977 78.1735 163.613 78.9133 165.353 79.2508C167.093 79.5882 168.888 79.5139 170.594 79.0338Z" fill="#E0E0E0"/>
<path d="M169.87 81.7952C169.87 81.7952 170.19 80.6574 170.593 79.0337C168.886 79.5113 167.09 79.5825 165.35 79.2417C163.61 78.9009 161.974 78.1576 160.574 77.0713C158.368 82.1773 157.004 87.6065 156.536 93.148C156.326 94.7664 156.406 96.4094 156.773 97.9997C156.965 98.7948 157.325 99.5394 157.829 100.183C158.334 100.827 158.971 101.356 159.697 101.733C161.764 102.679 164.24 101.861 166.095 100.576C169.621 98.1595 171.854 94.305 173.933 90.5847L179.608 70.3402C176.249 70.711 173.498 72.5967 169.87 81.7952Z" fill="#F0F0F0"/>
<path opacity="0.1" d="M169.871 81.7953C168.54 86.5 166.461 94.011 166.461 94.011C171.196 89.204 169.871 81.7953 169.871 81.7953Z" fill="black"/>
<path opacity="0.1" d="M178.79 73.3318C177.061 74.5091 175.613 76.0521 174.548 77.8512C172.692 81.0473 172.148 84.7676 171.643 88.4113C171.284 90.9682 170.928 93.5251 170.574 96.082C171.804 94.3174 172.932 92.4841 173.953 90.591L178.79 73.3318Z" fill="black"/>
<path d="M185.682 69.7201L179.629 70.3593C174.67 74.7253 172.111 83.8855 173.18 94.0109C173.808 100.953 173.887 107.934 173.416 114.888C186.853 124.694 205.043 117.573 207.174 115.444L205.452 103.011C205.346 101.615 205.578 100.214 206.131 98.9266C207.41 95.9797 209.663 90.1883 209.97 85.7009C210.161 81.7028 209.327 77.7221 207.545 74.1372L198.747 70.3018L185.682 69.7201Z" fill="#F0F0F0"/>
<path opacity="0.1" d="M206.131 98.901C207.25 96.3057 209.138 91.5051 209.778 87.3309C208.53 88.0852 207.218 88.8267 206.694 90.0668C205.035 94.0745 204.601 98.4828 205.446 102.736C205.379 101.423 205.613 100.111 206.131 98.901Z" fill="black"/>
<path d="M184.006 78.5352C178.938 90.1756 179.022 102.187 179.022 102.187L181.51 107.537L185.42 102.423C185.117 94.5817 185.273 86.7292 185.887 78.9059L184.006 78.5352Z" fill="#318CFF"/>
<path d="M183.788 74.1373C183.681 75.6067 183.754 77.0835 184.005 78.5352C184.588 78.8229 185.239 78.9424 185.886 78.8804C187.077 77.8279 188.095 76.5965 188.906 75.2304L185.886 74.1373H183.788Z" fill="#318CFF"/>
<path d="M185.887 74.1372C188.491 75.096 190.807 79.7304 190.807 79.7304C197.653 73.9262 198.722 70.3018 198.722 70.3018C196.962 67.8024 195.043 67.3997 195.043 67.3997L185.887 74.1372Z" fill="#E0E0E0"/>
<path d="M185.884 74.1372C183.895 74.1948 182.135 76.9626 182.135 76.9626C181.815 72.1173 185.884 68.3842 185.884 68.3842V74.1372Z" fill="#E0E0E0"/>
<path d="M195.203 61.9727L185.887 65.2967V68.7421C187.983 68.4455 189.994 67.7162 191.792 66.6007C193.402 65.4687 194.599 63.8443 195.203 61.9727Z" fill="#F28F8F"/>
<path d="M195.203 61.9727C194.599 63.8443 193.402 65.4687 191.792 66.6007C189.994 67.7162 187.983 68.4455 185.887 68.7421V74.1372C185.887 74.1372 195.734 69.7201 195.734 67.6426V61.7809L195.203 61.9727Z" fill="#FFA8A7"/>
<path d="M177.255 48.3251C176.219 48.3633 175.193 48.1149 174.29 47.6073C173.387 47.0997 172.641 46.3526 172.136 45.4485C172.07 45.3193 172.041 45.1739 172.054 45.0292C172.066 44.8844 172.119 44.746 172.206 44.63C172.294 44.5139 172.412 44.4248 172.548 44.3728C172.684 44.3209 172.832 44.3082 172.974 44.3363C173.688 44.4641 174.418 44.4641 175.131 44.3363C174.31 43.2636 173.71 42.0391 173.365 40.7335C173.02 39.428 172.937 38.0671 173.122 36.7294C173.145 36.5801 173.202 36.4384 173.29 36.3154C173.378 36.1925 173.493 36.0918 173.627 36.0216C173.761 35.9513 173.909 35.9134 174.06 35.9109C174.212 35.9084 174.361 35.9413 174.497 36.0071C177.463 37.4708 180.761 38.132 184.063 37.9248C185.822 37.8033 187.556 37.4262 189.316 37.2855C191.076 37.073 192.862 37.3449 194.479 38.0718C195.279 38.4468 195.963 39.0309 196.459 39.7623C196.955 40.4936 197.243 41.3451 197.294 42.2268C197.496 41.943 197.756 41.7059 198.058 41.5316C198.359 41.3574 198.694 41.25 199.041 41.2168C199.403 41.1741 199.77 41.2054 200.12 41.3087C200.47 41.412 200.795 41.5851 201.076 41.8177C200.058 42.3802 199.067 42.9427 198.049 43.4989C199.092 43.1281 200.404 43.9399 200.922 44.918C201.362 45.9368 201.553 47.0455 201.479 48.1525C201.541 49.6193 201.475 51.0887 201.28 52.544C201.089 54.0088 200.515 55.3975 199.617 56.5711C198.828 57.5358 197.774 58.249 196.584 58.6231C194.968 59.0689 193.254 59.0132 191.67 58.4633C190.088 57.9169 188.583 57.1692 187.191 56.2387C183.646 53.9073 180.32 51.2585 177.255 48.3251Z" fill="#263238"/>
<path d="M177.03 45.3973C176.007 51.479 176.671 57.7242 178.949 63.4556C179.474 64.7788 180.165 66.1468 181.4 66.8563C182.634 67.5659 184.304 67.438 185.782 67.2143C188.179 66.955 190.517 66.3073 192.705 65.2966C194.909 64.2595 196.627 62.4111 197.498 60.138C198.281 60.2978 199.095 60.2278 199.839 59.9363C200.584 59.6448 201.228 59.1443 201.695 58.4952C202.616 57.1464 203.092 55.5441 203.058 53.9119C203.058 52.8764 202.866 51.6554 201.932 51.2016C200.997 50.7477 200.012 51.2527 199.276 51.8408C198.056 52.8485 197.165 54.1974 196.717 55.7145C196.032 53.196 194.964 50.7605 194.279 48.2355C194.011 47.2383 193.678 46.158 192.808 45.6019C191.752 44.9243 190.37 45.3142 189.148 45.6019C185.157 46.5641 180.986 46.4937 177.03 45.3973Z" fill="#FFA8A7"/>
<path d="M184.395 53.0553L181.439 58.0285L184.965 58.6869L184.395 53.0553Z" fill="#F28F8F"/>
<path d="M188.349 60.4001L185.668 61.6786C185.898 61.983 186.221 62.2043 186.588 62.3092C186.955 62.4142 187.346 62.397 187.703 62.2603C188.004 62.0676 188.231 61.7794 188.348 61.442C188.465 61.1046 188.466 60.7377 188.349 60.4001Z" fill="#F28F8F"/>
<path opacity="0.3" d="M188.349 60.4001L185.668 61.6786C185.898 61.983 186.221 62.2043 186.588 62.3092C186.955 62.4142 187.346 62.397 187.703 62.2603C188.004 62.0676 188.231 61.7794 188.348 61.442C188.465 61.1046 188.466 60.7377 188.349 60.4001Z" fill="black"/>
<path d="M186.781 62.3626C187.094 62.4265 187.419 62.3976 187.715 62.2795C187.96 62.1397 188.157 61.9312 188.283 61.68C188.41 61.4287 188.459 61.1459 188.426 60.8668C188.045 60.8666 187.675 60.995 187.376 61.2312C187.039 61.5171 186.825 61.9227 186.781 62.3626Z" fill="#F28F8F"/>
<path d="M189.502 53.2536C189.515 53.3858 189.502 53.5194 189.464 53.6467C189.426 53.774 189.363 53.8925 189.279 53.9955C189.195 54.0985 189.091 54.1839 188.974 54.2469C188.857 54.3099 188.729 54.3492 188.596 54.3627C188.464 54.3761 188.33 54.3634 188.203 54.3252C188.075 54.287 187.957 54.2241 187.854 54.1401C187.751 54.0561 187.665 53.9527 187.602 53.8357C187.539 53.7186 187.5 53.5904 187.486 53.4582C187.472 53.3262 187.484 53.1928 187.522 53.0656C187.56 52.9385 187.622 52.82 187.706 52.7172C187.79 52.6143 187.894 52.5291 188.011 52.4665C188.128 52.4039 188.256 52.3651 188.388 52.3523C188.655 52.3254 188.922 52.4051 189.131 52.5739C189.339 52.7427 189.473 52.987 189.502 53.2536Z" fill="#263238"/>
<path d="M181.017 53.7841C181.036 53.9825 180.996 54.1821 180.902 54.3578C180.808 54.5335 180.664 54.6773 180.488 54.7713C180.312 54.8653 180.112 54.9052 179.913 54.886C179.715 54.8667 179.526 54.7892 179.372 54.6632C179.217 54.5372 179.103 54.3683 179.045 54.1778C178.986 53.9873 178.985 53.7837 179.042 53.5927C179.099 53.4016 179.211 53.2317 179.364 53.1042C179.518 52.9768 179.706 52.8975 179.904 52.8764C180.172 52.8496 180.44 52.9301 180.648 53.1003C180.857 53.2704 180.99 53.5164 181.017 53.7841Z" fill="#263238"/>
<path d="M179.627 49.8784L177.554 51.6427C177.43 51.3773 177.389 51.0801 177.438 50.7911C177.487 50.502 177.624 50.2349 177.829 50.0255C178.085 49.8351 178.389 49.7204 178.707 49.6944C179.025 49.6684 179.344 49.7322 179.627 49.8784Z" fill="#263238"/>
<path d="M188.24 48.8876C189.034 49.3287 189.827 49.7697 190.627 50.2044C190.696 49.9186 190.676 49.6186 190.569 49.3444C190.463 49.0703 190.275 48.8351 190.032 48.6703C189.742 48.538 189.421 48.4883 189.105 48.5266C188.789 48.565 188.49 48.6899 188.24 48.8876Z" fill="#263238"/>
<path d="M228.096 95.9798L231.295 94.3945C232.297 93.8995 233.131 93.1216 233.694 92.1572L234.699 90.4377C235.393 89.2592 236.415 88.3085 237.642 87.7018C239.487 86.7964 241.207 85.6578 242.761 84.3138C243.086 84.8324 243.223 85.4472 243.149 86.0549C243.074 86.6625 242.792 87.226 242.351 87.6506C241.691 88.255 240.99 88.8125 240.252 89.319L241.794 89.709C242.908 89.9942 244.083 89.9227 245.154 89.5044L249.556 87.7977C249.682 87.7497 249.819 87.7358 249.952 87.7576C250.085 87.7793 250.211 87.8358 250.315 87.9215C250.42 88.0071 250.5 88.1187 250.547 88.2451C250.595 88.3716 250.608 88.5083 250.586 88.6414C250.18 90.5914 249.442 92.4574 248.404 94.158C247.926 94.9716 247.279 95.673 246.507 96.2146C245.734 96.7562 244.853 97.1252 243.925 97.2966C241.679 97.7185 239.504 98.0509 238.269 98.2235C237.561 98.3291 236.875 98.5448 236.234 98.8628L231.512 101.209L228.096 95.9798Z" fill="#FFA8A7"/>
<path d="M225.035 100.921C224.476 99.6031 224.282 98.1592 224.472 96.7405L218.42 99.6042C217.327 95.2044 216.473 90.7489 215.86 86.2571C215.144 80.1908 215.304 76.1125 207.491 74.1117L206.666 90.0925C206.666 90.0925 207.626 109.589 213.224 111.75C217.857 113.533 221.126 109.129 228.196 104.565C226.792 103.705 225.688 102.432 225.035 100.921Z" fill="#F0F0F0"/>
<path opacity="0.1" d="M214.397 103.6C214.608 102.692 216.099 100.614 218.447 99.6043C218.447 99.6043 218.268 98.8948 218.006 97.7441C216.79 98.345 213.796 100.18 214.397 103.6Z" fill="black"/>
<path d="M229.886 94.1708L224.473 96.7277C224.261 98.2555 224.503 99.8119 225.17 101.203C225.837 102.594 226.898 103.759 228.222 104.552C229.814 103.523 231.463 102.586 233.162 101.746C233.162 101.746 230.283 99.4444 229.886 94.1708Z" fill="#E0E0E0"/>
<path d="M252.049 16.0822C252.049 15.9376 252.011 15.7956 251.938 15.6709C251.865 15.5461 251.76 15.4432 251.633 15.3726L247.935 13.3207H247.903C247.782 13.2517 247.646 13.2155 247.506 13.2155C247.367 13.2155 247.231 13.2517 247.11 13.3207L221.824 27.9079C221.449 28.1264 221.138 28.4389 220.921 28.8145C220.705 29.1902 220.59 29.6158 220.589 30.0494V39.4397L211.836 48.4848C211.055 49.2966 210.972 50.5175 211.58 50.7093L215.067 52.627C215.129 52.6893 215.205 52.7359 215.288 52.7626C215.372 52.7893 215.461 52.7954 215.547 52.7804L220.627 52.1412V59.0321C220.626 59.1746 220.662 59.3149 220.733 59.4385C220.804 59.5621 220.907 59.6646 221.03 59.7352L224.703 61.7744H224.754H224.793C224.912 61.8306 225.043 61.857 225.174 61.8514C225.306 61.8459 225.434 61.8085 225.548 61.7424L250.834 47.1552C251.211 46.9392 251.524 46.6273 251.74 46.2511C251.957 45.8749 252.071 45.4479 252.068 45.0138L252.049 16.0822ZM225.132 30.2859C225.16 30.2585 225.19 30.2329 225.221 30.2092C225.191 30.2225 225.161 30.2374 225.132 30.2539V30.2859Z" fill="#318CFF"/>
<path d="M243.373 25.1721C243.261 25.2286 243.161 25.3069 243.079 25.4022C243.014 25.4797 242.964 25.5686 242.931 25.6643C242.657 26.218 242.421 26.7905 242.228 27.3774C242.016 27.8952 241.818 28.413 241.639 28.9372C241.591 29.0304 241.554 29.1291 241.53 29.2312C241.469 29.3557 241.422 29.4865 241.389 29.6211C241.274 29.9152 241.159 30.2028 241.05 30.4969C241.006 30.58 240.967 30.6567 240.929 30.7398C240.814 30.9831 240.72 31.2354 240.647 31.4941C240.599 31.6048 240.581 31.7263 240.594 31.8463C240.608 31.9663 240.652 32.0807 240.724 32.1781C241 32.4396 241.34 32.6247 241.709 32.715L241.805 32.747L242.112 32.8301L242.644 33.0922L242.746 33.1561C242.778 33.2008 242.816 33.2392 242.848 33.2775C242.883 33.3246 242.911 33.3763 242.931 33.431C242.952 33.5172 242.952 33.6068 242.931 33.693C242.899 33.8209 242.867 33.9551 242.842 34.083C242.816 34.2108 242.682 34.5177 242.605 34.7222L242.49 35.0035L242.093 35.9367C241.959 36.2372 241.863 36.4865 241.767 36.7358C241.674 36.9136 241.593 37.0972 241.524 37.2855L241.389 37.5604C241.281 37.7905 241.166 38.0206 241.057 38.2572L240.961 38.4617L240.602 39.1009L240.468 39.3566L240.052 40.0854L239.943 40.2707L239.534 41.0506L239.406 41.2424L238.446 42.6359L238.062 43.1537L237.954 43.3007L236.783 44.7837L236.335 45.2056C236.25 45.3073 236.148 45.3938 236.034 45.4613C235.962 45.506 235.879 45.5298 235.794 45.5298C235.709 45.5298 235.626 45.506 235.554 45.4613L235.266 45.3143C235.266 45.2695 235.228 45.2631 235.196 45.2567C234.798 44.9077 234.37 44.5954 233.916 44.3235C233.831 44.2694 233.732 44.2408 233.632 44.2408C233.531 44.2408 233.432 44.2694 233.347 44.3235C233.294 44.3549 233.245 44.3913 233.2 44.4321C233.008 44.5915 232.842 44.779 232.707 44.9883C232.656 45.0191 232.618 45.0665 232.598 45.1225C232.246 45.6147 231.856 46.0558 231.491 46.5288C231.127 47.0018 230.82 47.3151 230.493 47.7242C230.308 47.9351 230.128 48.1525 229.956 48.3634C229.783 48.5743 229.565 48.8428 229.38 49.1049C229.305 49.19 229.239 49.2821 229.182 49.3798C229.087 49.4857 229.018 49.6111 228.978 49.7471C228.938 49.883 228.929 50.0261 228.951 50.166C228.952 50.3374 228.967 50.5084 228.996 50.6774C229.009 50.8959 229.054 51.1113 229.13 51.3166C229.149 51.4516 229.188 51.5829 229.246 51.7066C229.264 51.7463 229.286 51.7847 229.31 51.8216C229.303 51.8511 229.303 51.8817 229.31 51.9111C229.329 51.9476 229.353 51.9819 229.38 52.0134C229.394 52.0596 229.418 52.1022 229.45 52.1386C229.482 52.1749 229.521 52.2042 229.565 52.2244C229.625 52.3049 229.704 52.3688 229.796 52.4097L229.956 52.4737H230.065L230.199 52.5248H230.263C230.337 52.5409 230.413 52.5409 230.487 52.5248C230.503 52.5343 230.522 52.5394 230.541 52.5394C230.56 52.5394 230.579 52.5343 230.596 52.5248C230.688 52.5473 230.785 52.5473 230.877 52.5248C230.978 52.547 231.083 52.547 231.184 52.5248C231.286 52.5403 231.39 52.5403 231.491 52.5248H231.677C231.823 52.5104 231.966 52.4804 232.106 52.4353H232.176L232.329 52.3969C232.369 52.3905 232.406 52.3752 232.438 52.3522L232.598 52.2947C232.759 52.248 232.915 52.1881 233.065 52.1157L233.193 52.0518L233.296 51.9942C233.386 51.9443 233.474 51.8888 233.558 51.828C233.662 51.7674 233.762 51.7013 233.859 51.6299C233.974 51.5525 234.085 51.4692 234.191 51.3806C234.285 51.3167 234.381 51.2463 234.479 51.1696L234.594 51.0673L234.652 51.0162L234.812 50.882C234.978 50.739 235.136 50.5876 235.285 50.4281C235.41 50.3273 235.526 50.2161 235.631 50.0957C235.671 50.0673 235.704 50.0301 235.727 49.9871C235.956 49.7898 236.169 49.5762 236.367 49.3478C236.538 49.1978 236.701 49.0377 236.853 48.8684C236.982 48.7544 237.102 48.6304 237.211 48.4976L237.41 48.2931C237.47 48.2485 237.52 48.1919 237.557 48.1269C237.588 48.1095 237.613 48.0826 237.627 48.0502L237.736 47.9479C237.795 47.8826 237.851 47.8143 237.902 47.7433C238.018 47.628 238.127 47.5064 238.229 47.379L238.331 47.2511L238.433 47.1233C238.637 46.9001 238.827 46.6653 239.003 46.4201C239.098 46.3272 239.18 46.2219 239.246 46.1069C239.365 45.9725 239.474 45.8293 239.572 45.6786C239.737 45.4753 239.889 45.2618 240.027 45.0394C240.116 44.9243 240.155 44.8668 240.199 44.8157L240.315 44.6495C240.398 44.5344 240.468 44.4193 240.545 44.2979L240.692 44.0997C240.738 44.0317 240.781 43.9613 240.82 43.8888C240.916 43.77 241 43.6414 241.07 43.5052C241.191 43.3422 241.303 43.1714 241.402 42.9939C241.44 42.9452 241.474 42.894 241.505 42.8404C241.522 42.8163 241.537 42.7906 241.549 42.7637L241.594 42.6806L241.703 42.5272C241.805 42.3674 241.901 42.2076 241.991 42.035L242.119 41.8241L242.522 41.1273C242.579 41.0606 242.624 40.985 242.656 40.9036C242.759 40.7374 242.855 40.5712 242.951 40.3922C242.951 40.3347 243.008 40.2771 243.04 40.2196C243.094 40.1417 243.139 40.0581 243.175 39.9703L243.52 39.3311C243.578 39.2096 243.642 39.0945 243.699 38.9731C243.798 38.8127 243.881 38.6437 243.949 38.4681C244.224 37.9631 244.467 37.4517 244.691 36.9276L244.793 36.691C244.889 36.508 244.97 36.3177 245.036 36.1221C245.299 35.5356 245.532 34.9361 245.734 34.3259L245.791 34.1725C245.925 33.8277 246.038 33.4755 246.131 33.1177C246.271 32.6831 246.387 32.2548 246.495 31.8393C246.534 31.6986 246.572 31.558 246.604 31.411C246.634 31.3704 246.647 31.3204 246.642 31.2704C246.644 31.2363 246.644 31.2021 246.642 31.1681L246.694 30.9763C246.851 30.4564 246.975 29.9269 247.065 29.391V29.3079C247.076 29.2618 247.076 29.2134 247.065 29.1673C247.065 29.1673 247.065 29.1098 247.065 29.0842C247.065 29.0586 247.065 28.9819 247.065 28.9372C247.062 28.8839 247.062 28.8306 247.065 28.7774C247.105 28.5517 247.125 28.3227 247.122 28.0934C247.122 28.0039 247.122 27.908 247.122 27.8121C247.139 27.7471 247.139 27.679 247.122 27.614C247.122 27.582 247.122 27.5436 247.122 27.5053C247.12 27.305 247.086 27.1064 247.02 26.9172C246.969 26.6332 246.879 26.3578 246.751 26.099C246.603 25.6795 246.367 25.2961 246.06 24.9739C245.98 24.8547 245.866 24.7615 245.734 24.7055C245.734 24.7055 245.702 24.6543 245.664 24.6607C245.557 24.5801 245.426 24.5393 245.292 24.5456C244.89 24.5299 244.489 24.5996 244.115 24.7502L243.981 24.8077C243.865 24.8365 243.753 24.8794 243.648 24.9356L243.584 24.9739C243.552 25.0698 243.456 25.1082 243.373 25.1721Z" fill="white"/>
<path opacity="0.1" d="M224.377 61.1225C224.376 61.2625 224.411 61.4004 224.48 61.5226C224.548 61.6448 224.647 61.747 224.767 61.8193L221.095 59.7801C220.971 59.7094 220.868 59.607 220.797 59.4834C220.726 59.3597 220.69 59.2194 220.691 59.0769V52.186L224.383 51.7322L224.377 61.1225Z" fill="black"/>
<path opacity="0.2" d="M221.824 27.9079L247.116 13.3207C247.237 13.2517 247.374 13.2155 247.513 13.2155C247.652 13.2155 247.789 13.2517 247.91 13.3207H247.942L251.64 15.3726C251.515 15.302 251.374 15.2649 251.23 15.2649C251.087 15.2649 250.946 15.302 250.821 15.3726L225.529 29.9599C225.059 30.2288 224.69 30.6442 224.479 31.1424L220.807 29.0266C221.02 28.5561 221.376 28.1646 221.824 27.9079Z" fill="white"/>
<path opacity="0.1" d="M220.613 39.4525V30.0622C220.613 29.7139 220.687 29.3696 220.831 29.0522L224.478 31.1425C224.356 31.4453 224.293 31.7686 224.292 32.095V41.4853L220.613 39.4525Z" fill="white"/>
<path opacity="0.05" d="M211.861 48.4848L220.614 39.4525L224.319 41.5108L215.566 50.5496C214.888 51.2527 214.734 52.2563 215.093 52.6462L211.606 50.7286C210.998 50.5176 211.081 49.2967 211.861 48.4848Z" fill="white"/>
<path d="M131.331 10.5656C130.845 8.72465 127.396 5.21527 123.967 5.28559C123.635 5.29772 123.307 5.36916 123 5.49653L56.3496 46.6694C55.2184 47.3853 54.3272 48.4227 53.7903 49.6482C53.3636 50.6057 53.1455 51.6429 53.1505 52.691V209.264C53.1505 213.253 57.3861 217.057 61.3659 215.228C61.4535 215.195 61.539 215.157 61.6218 215.113L128.279 173.864C129.279 173.214 130.097 172.321 130.656 171.269C131.216 170.217 131.499 169.04 131.478 167.848V11.3263C131.485 11.0651 131.435 10.8054 131.331 10.5656Z" fill="#37474F"/>
<path d="M62.4276 69.2407C62.4187 68.6434 62.5621 68.0537 62.8442 67.527C63.1262 67.0003 63.5377 66.554 64.04 66.2299L125.93 27.9911C126.182 27.8497 126.467 27.7789 126.756 27.7863C127.044 27.7936 127.325 27.8788 127.569 28.0328C127.813 28.1868 128.011 28.4038 128.141 28.6609C128.272 28.918 128.33 29.2056 128.311 29.4933V155.754C128.319 156.351 128.175 156.939 127.893 157.465C127.611 157.99 127.2 158.436 126.698 158.759L64.8077 197.061C64.5562 197.203 64.2712 197.273 63.9827 197.266C63.6942 197.259 63.4131 197.174 63.1691 197.02C62.9251 196.866 62.7274 196.649 62.5969 196.391C62.4663 196.134 62.4078 195.847 62.4276 195.559V69.2407Z" fill="#318CFF"/>
<path d="M53.125 52.691V209.264C53.125 213.253 57.3607 217.056 61.3404 215.228C61.0902 215.314 60.8229 215.336 60.562 215.294C60.3011 215.252 60.0545 215.146 59.844 214.986C59.6336 214.827 59.4656 214.618 59.355 214.378C59.2444 214.138 59.1945 213.875 59.2098 213.611V57.0185C59.2099 55.665 59.5841 54.3378 60.2911 53.1832L53.7904 49.6802C53.3594 50.6259 53.1326 51.6518 53.125 52.691Z" fill="#263238"/>
<path d="M123.974 5.27912C123.642 5.29125 123.314 5.36269 123.008 5.49006L56.3503 46.6693C55.2191 47.3853 54.3279 48.4226 53.791 49.6482L60.3173 53.1895C60.8486 52.2999 61.5831 51.5486 62.4607 50.9969L129.118 9.81766C129.308 9.70267 129.522 9.6306 129.743 9.60647C129.964 9.58234 130.188 9.60674 130.399 9.67795C130.609 9.74917 130.802 9.86548 130.963 10.0188C131.125 10.1721 131.25 10.3587 131.332 10.5656C130.852 8.71818 127.403 5.2088 123.974 5.27912Z" fill="#455A64"/>
<path d="M103.582 35.6682C104.056 35.3742 104.44 35.6043 104.44 36.186C104.428 36.5003 104.346 36.8078 104.198 37.0857C104.051 37.3636 103.842 37.6045 103.589 37.7905L90.5106 45.9918C90.0435 46.2859 89.666 46.0365 89.666 45.4548C89.6765 45.1445 89.7574 44.8405 89.9026 44.5659C90.0478 44.2913 90.2535 44.0532 90.5042 43.8696L103.582 35.6682Z" fill="#263238"/>
<path d="M87.1503 45.9727C87.6174 45.6786 87.9949 45.9151 87.9949 46.4968C87.9846 46.8098 87.9032 47.1162 87.7569 47.3931C87.6106 47.67 87.4032 47.91 87.1503 48.0949C86.6833 48.389 86.2994 48.1525 86.293 47.5644C86.3062 47.2516 86.3902 46.9458 86.5387 46.6701C86.6872 46.3945 86.8963 46.156 87.1503 45.9727Z" fill="#263238"/>
<path d="M95.5203 34.4794C96.4545 33.8913 97.2094 34.3579 97.2094 35.5277C97.1894 36.1523 97.0282 36.7642 96.7379 37.3177C96.4476 37.8712 96.0357 38.3519 95.5331 38.7238C94.5926 39.3055 93.8184 38.8261 93.8184 37.6627C93.8419 37.0379 94.0073 36.4266 94.3022 35.8751C94.597 35.3236 95.0136 34.8463 95.5203 34.4794Z" fill="#263238"/>
<path d="M95.5265 181.879C97.4459 180.684 98.9687 181.637 98.9751 184.015C98.9815 186.392 97.4523 189.314 95.5457 190.509C93.639 191.704 92.065 190.726 92.0586 188.349C92.1104 187.079 92.4493 185.837 93.0499 184.717C93.6505 183.596 94.4972 182.626 95.5265 181.879Z" fill="#263238"/>
<path d="M101.817 93.6977C101.65 93.7938 101.501 93.917 101.375 94.062C101.275 94.1855 101.199 94.3264 101.151 94.4775C100.731 95.353 100.372 96.2565 100.076 97.1815C99.7565 97.9933 99.4365 98.8115 99.187 99.6297C99.1116 99.7774 99.0557 99.9343 99.0207 100.096C98.9262 100.301 98.8532 100.516 98.8031 100.736L98.2849 102.104C98.2273 102.238 98.1633 102.366 98.1057 102.493C97.9329 102.878 97.7917 103.275 97.6834 103.682C97.6111 103.856 97.5832 104.046 97.6022 104.233C97.6212 104.421 97.6865 104.6 97.7922 104.756C98.2111 105.162 98.7263 105.454 99.2894 105.607L99.4429 105.651C99.5965 105.702 99.7501 105.741 99.9036 105.786L100.71 106.195L100.863 106.303C100.92 106.364 100.974 106.428 101.023 106.495C101.078 106.563 101.12 106.641 101.145 106.725C101.178 106.862 101.178 107.004 101.145 107.141L101.011 107.78C100.895 108.125 100.774 108.47 100.652 108.809L100.479 109.257C100.3 109.736 100.115 110.222 99.9292 110.701C99.7437 111.181 99.5773 111.571 99.4301 111.98C99.2907 112.258 99.1668 112.544 99.059 112.836C98.9951 112.983 98.9247 113.13 98.8607 113.271C98.6879 113.635 98.5216 114 98.3552 114.364L98.2017 114.69L97.6642 115.751C97.6002 115.885 97.5299 116.02 97.4595 116.154L96.8196 117.304C96.7685 117.4 96.7109 117.496 96.6533 117.592C96.423 117.982 96.1926 118.378 95.9559 118.768L95.7639 119.069C95.2777 119.804 94.7914 120.539 94.2987 121.274L93.7229 122.086L93.5629 122.31L91.7778 124.643L91.1764 125.327C91.0473 125.484 90.8939 125.62 90.7221 125.73C90.6168 125.804 90.4927 125.848 90.3638 125.856C90.2349 125.864 90.1063 125.836 89.9927 125.774L89.5512 125.531C89.5512 125.467 89.4936 125.455 89.4488 125.448C88.8371 124.898 88.1752 124.405 87.4718 123.978C87.3432 123.895 87.1932 123.85 87.0399 123.85C86.8866 123.85 86.7366 123.895 86.608 123.978C86.5285 124.027 86.4535 124.082 86.3841 124.144C86.095 124.402 85.8412 124.696 85.6291 125.02C85.5577 125.079 85.5044 125.156 85.4755 125.244C84.938 126.017 84.3494 126.708 83.7928 127.449C83.2745 128.056 82.7626 128.683 82.27 129.335C81.9884 129.667 81.7197 130.006 81.4638 130.377C81.1509 130.746 80.8582 131.133 80.5872 131.534C80.4704 131.669 80.3695 131.817 80.2865 131.975C80.1417 132.144 80.0352 132.342 79.9745 132.556C79.9137 132.77 79.9001 132.995 79.9346 133.215C79.9291 133.483 79.9506 133.75 79.9986 134.014C80.0232 134.339 80.0921 134.66 80.2033 134.966C80.2294 135.188 80.2899 135.403 80.3825 135.606C80.4085 135.667 80.4384 135.727 80.472 135.785C80.4751 135.833 80.4859 135.88 80.504 135.925C80.5327 135.985 80.5693 136.041 80.6128 136.091C80.6588 136.235 80.7601 136.355 80.8943 136.424C80.9823 136.548 81.1014 136.648 81.2398 136.712C81.3207 136.751 81.404 136.785 81.4894 136.814L81.6557 136.859C81.7211 136.893 81.7897 136.921 81.8605 136.942H81.9564C82.0686 136.961 82.1834 136.961 82.2956 136.942C82.3196 136.956 82.3473 136.964 82.3755 136.964C82.4038 136.964 82.4314 136.956 82.4555 136.942C82.5962 136.977 82.7435 136.977 82.8842 136.942C83.0386 136.97 83.1969 136.97 83.3513 136.942C83.5105 136.952 83.6702 136.937 83.8247 136.897H84.1063C84.3235 136.867 84.5377 136.818 84.7461 136.75H84.8421C84.9245 136.737 85.0059 136.718 85.0852 136.692C85.1397 136.677 85.1915 136.653 85.2388 136.622C85.4243 136.565 85.4563 136.545 85.4947 136.533C85.7335 136.455 85.9666 136.361 86.1921 136.251L86.3969 136.149L86.544 136.06C86.683 135.98 86.8156 135.891 86.9407 135.791L87.4078 135.484C87.5824 135.363 87.7472 135.229 87.9004 135.082C88.0568 134.983 88.2064 134.874 88.3483 134.755C88.4059 134.711 88.4635 134.653 88.5211 134.602L88.6043 134.513L88.8474 134.302C89.0905 134.078 89.3337 133.848 89.564 133.592C89.7567 133.432 89.9344 133.254 90.0951 133.062C90.1564 133.02 90.2051 132.963 90.2358 132.895C90.569 132.591 90.8831 132.267 91.1764 131.924C91.4344 131.683 91.68 131.429 91.9122 131.163C92.1094 130.985 92.2914 130.79 92.456 130.581L92.7503 130.255C92.8414 130.184 92.9193 130.098 92.9807 130C93.0247 129.969 93.0599 129.927 93.0831 129.878C93.1417 129.824 93.1973 129.766 93.2494 129.706C93.3431 129.608 93.4287 129.504 93.5053 129.392C93.6816 129.209 93.8482 129.017 94.0044 128.817L94.158 128.612L94.3179 128.421C94.6122 128.056 94.9066 127.705 95.1753 127.302C95.3194 127.157 95.4441 126.993 95.5464 126.816C95.7284 126.604 95.8932 126.377 96.0391 126.139C96.2874 125.824 96.5181 125.495 96.7301 125.154C96.8644 124.969 96.9284 124.886 96.986 124.796C97.0436 124.707 97.114 124.624 97.1716 124.534C97.2291 124.445 97.4019 124.176 97.5107 123.991L97.7346 123.678C97.8089 123.568 97.8772 123.455 97.9393 123.339C98.0835 123.151 98.2099 122.949 98.3168 122.738C98.5004 122.478 98.6671 122.207 98.8159 121.926C98.8786 121.854 98.9323 121.775 98.9759 121.69L99.0462 121.568C99.0702 121.525 99.0915 121.48 99.1102 121.434C99.1678 121.357 99.219 121.274 99.2702 121.191C99.4323 120.944 99.5794 120.688 99.7117 120.424L99.91 120.092L100.55 118.992C100.632 118.882 100.699 118.762 100.748 118.634C100.908 118.378 101.055 118.11 101.196 117.835L101.33 117.56C101.409 117.436 101.478 117.306 101.535 117.17L102.06 116.173C102.149 115.981 102.245 115.796 102.335 115.611C102.483 115.357 102.612 115.092 102.719 114.818C103.135 114.019 103.499 113.207 103.839 112.389L103.992 112.018C104.138 111.724 104.264 111.421 104.37 111.11C104.766 110.177 105.125 109.231 105.425 108.285C105.425 108.202 105.483 108.125 105.515 108.048C105.718 107.503 105.887 106.946 106.02 106.38C106.244 105.696 106.417 105.018 106.583 104.347C106.635 104.117 106.692 103.893 106.75 103.67C106.789 103.599 106.809 103.52 106.807 103.44C106.807 103.388 106.839 103.337 106.852 103.286L106.929 102.986C107.171 102.164 107.359 101.327 107.492 100.48V100.352C107.513 100.281 107.513 100.206 107.492 100.135V100C107.492 99.9238 107.492 99.8471 107.524 99.764V99.5211C107.587 99.1667 107.617 98.8071 107.614 98.4472C107.614 98.3001 107.614 98.1467 107.614 97.9997C107.634 97.8963 107.634 97.7899 107.614 97.6865C107.61 97.629 107.61 97.5714 107.614 97.5139C107.607 97.1987 107.553 96.8862 107.454 96.587C107.379 96.1434 107.242 95.7128 107.044 95.3085C106.822 94.651 106.467 94.0462 106.001 93.5315C105.88 93.3468 105.706 93.2022 105.502 93.116C105.502 93.0776 105.457 93.0265 105.393 93.0457C105.234 92.9184 105.034 92.8527 104.83 92.8603C104.218 92.8342 103.608 92.9456 103.045 93.1863L102.84 93.2694C102.665 93.3202 102.496 93.3887 102.335 93.4739L102.239 93.5379C102.124 93.5379 101.97 93.6082 101.817 93.6977Z" fill="white"/>
</svg>
