<svg width="328" height="308" viewBox="0 0 328 308" fill="none" xmlns="http://www.w3.org/2000/svg">
<path d="M48.0392 281.766C112.08 315.974 215.917 315.974 279.964 281.766C344.012 247.559 344.012 192.098 279.964 157.884C215.917 123.67 112.08 123.677 48.0322 157.884C-16.0154 192.091 -16.0084 247.566 48.0392 281.766Z" fill="#F0F0F0"/>
<path d="M282.359 251.379C297.819 251.379 310.352 244.142 310.352 235.216C310.352 226.289 297.819 219.053 282.359 219.053C266.898 219.053 254.365 226.289 254.365 235.216C254.365 244.142 266.898 251.379 282.359 251.379Z" fill="#E0E0E0"/>
<path d="M109.567 254.257C125.027 254.257 137.56 247.021 137.56 238.094C137.56 229.168 125.027 221.932 109.567 221.932C94.1064 221.932 81.5732 229.168 81.5732 238.094C81.5732 247.021 94.1064 254.257 109.567 254.257Z" fill="#E0E0E0"/>
<path d="M16.9992 127.904C17.044 127.046 17.2905 126.211 17.7187 125.467C18.147 124.723 18.7448 124.09 19.4637 123.621L145.846 50.642C146.608 50.2591 147.45 50.0597 148.303 50.0597C149.156 50.0597 149.998 50.2591 150.761 50.642L153.569 52.2499C154.288 52.7184 154.886 53.3497 155.316 54.0926C155.745 54.8354 155.993 55.669 156.04 56.5258V153.419C155.992 154.276 155.743 155.11 155.313 155.854C154.884 156.597 154.287 157.23 153.569 157.702L27.187 230.68C26.4235 231.06 25.5823 231.258 24.7296 231.258C23.8768 231.258 23.0357 231.06 22.2721 230.68L19.4637 229.072C18.7447 228.602 18.1463 227.97 17.717 227.226C17.2877 226.482 17.0394 225.647 16.9922 224.789L16.9992 127.904Z" fill="#318CFF"/>
<path d="M150.81 50.6419L88.3634 19.3273C87.6172 18.8679 86.7856 18.5645 85.9189 18.4354C85.0522 18.3062 84.1684 18.354 83.3206 18.5757C82.4729 18.7975 81.6789 19.1887 80.9865 19.7258C80.2941 20.2628 79.7176 20.9345 79.292 21.7005L17.7158 125.467L20.9807 127.349L154.019 52.5377L150.81 50.6419Z" fill="#318CFF"/>
<path opacity="0.1" d="M150.81 50.6419L88.3634 19.3273C87.6172 18.8679 86.7856 18.5645 85.9189 18.4354C85.0522 18.3062 84.1684 18.354 83.3206 18.5757C82.4729 18.7975 81.6789 19.1887 80.9865 19.7258C80.2941 20.2628 79.7176 20.9345 79.292 21.7005L17.7158 125.467L20.9807 127.349L154.019 52.5377L150.81 50.6419Z" fill="black"/>
<path opacity="0.1" d="M16.9922 127.896V224.789C17.0396 225.647 17.2888 226.481 17.7195 227.224C18.1501 227.967 18.7502 228.598 19.4707 229.065L22.2792 230.68C22.5045 230.8 22.7393 230.901 22.9813 230.982C23.3117 231.094 23.6529 231.172 23.9994 231.214C24.6494 231.299 25.3091 231.276 25.9513 231.144C26.1128 231.144 26.2742 231.066 26.4287 231.017C26.528 230.986 26.6243 230.946 26.7166 230.898C26.5309 230.98 26.33 231.023 26.1268 231.023C25.9236 231.023 25.7227 230.98 25.537 230.898C25.2733 230.724 25.063 230.48 24.9291 230.194C24.7953 229.908 24.7433 229.59 24.7787 229.276V132.383C24.7536 131.943 24.8631 131.506 25.0926 131.129C25.3221 130.753 25.6608 130.456 26.0636 130.277L24.7787 129.532L17.7575 125.488C17.3046 126.214 17.0414 127.042 16.9922 127.896Z" fill="black"/>
<path opacity="0.1" d="M155.486 54.3491L98.5224 145.506L95.714 144.958C93.5647 144.539 91.3405 144.742 89.303 145.545C87.2655 146.347 85.4997 147.715 84.2132 149.487L80.7588 154.247L25.9932 130.256L20.959 127.349L154.025 52.5376C154.633 53.0329 155.131 53.6499 155.486 54.3491Z" fill="black"/>
<path d="M154.018 52.5375C153.677 52.2783 153.318 52.0437 152.943 51.8354L91.6692 21.2088C90.9208 20.7403 90.0847 20.4295 89.2121 20.2954C88.3394 20.1613 87.4486 20.2067 86.5941 20.4288C85.7396 20.651 84.9394 21.0453 84.2426 21.5874C83.5458 22.1296 82.967 22.8083 82.5416 23.582L20.9795 127.349L154.018 52.5375Z" fill="#318CFF"/>
<path opacity="0.2" d="M154.903 156.501C155.589 155.634 155.993 154.578 156.061 153.475L98.4873 145.506L154.903 156.501Z" fill="black"/>
<path opacity="0.2" d="M80.7654 154.247L25.2977 230.715C25.1083 230.525 24.9625 230.296 24.8704 230.044C24.7783 229.792 24.742 229.522 24.7641 229.255V228.202L80.7654 154.247Z" fill="black"/>
<path d="M275.31 2.66586L280.224 5.47435C280.197 5.26015 280.183 5.04439 280.182 4.8284V3.42415C280.182 0.910553 281.945 -0.0864609 284.128 1.14225C285.065 1.72181 285.867 2.49507 286.48 3.41011C286.838 0.243536 289.289 -0.936029 292.336 0.805235C295.594 2.68692 298.234 7.26476 298.234 11.0281V13.1345C298.257 13.9809 298.086 14.8214 297.735 15.5919L301.794 17.93C302.43 18.3456 302.96 18.9055 303.339 19.5643C303.719 20.2232 303.937 20.9622 303.977 21.7215C303.977 23.1257 303.001 23.6804 301.794 22.9853L275.31 7.72114C274.673 7.30517 274.144 6.74512 273.765 6.08638C273.385 5.42765 273.166 4.68878 273.126 3.92968C273.126 2.53246 274.102 1.97076 275.31 2.66586Z" fill="#EBEBEB"/>
<path d="M254.42 16.8838L258.107 18.9902C258.107 18.8287 258.107 18.6672 258.107 18.5057V17.4596C258.107 15.5568 259.441 14.7915 261.084 15.7394C261.79 16.1754 262.396 16.757 262.86 17.4455C263.127 15.0583 265.001 14.1666 267.276 15.4796C268.572 16.3272 269.651 17.468 270.424 18.8098C271.198 20.1515 271.644 21.6565 271.728 23.2029V24.7897C271.745 25.4255 271.618 26.0568 271.356 26.6363L274.417 28.4057C274.897 28.7194 275.296 29.1415 275.582 29.6379C275.869 30.1342 276.035 30.691 276.067 31.2633C276.067 32.3165 275.323 32.7448 274.417 32.2182L254.42 20.7034C253.941 20.3881 253.541 19.9647 253.255 19.4672C252.968 18.9697 252.802 18.412 252.771 17.8387C252.771 16.7855 253.515 16.3643 254.42 16.8838Z" fill="#EBEBEB"/>
<path d="M267.979 126.015C276.566 118.636 284.591 101.827 282.302 96.5819C278.349 96.3783 275.457 97.8808 272.915 102.557C272.915 102.557 265.697 116.599 261.646 120.735C258.183 124.407 253.829 127.121 249.008 128.613C247.955 128.792 246.878 128.77 245.834 128.55C244.044 128.002 243.026 128.472 241.319 128.388C239.964 128.325 239.262 127.883 239.108 128.177C238.964 128.538 238.963 128.94 239.103 129.302C239.244 129.664 239.516 129.96 239.866 130.129C240.511 130.478 241.201 130.735 241.916 130.895C240.51 131.331 239.049 131.568 237.577 131.597C234.066 131.702 232.578 132.861 235.639 136.139C237.149 137.754 241.144 138.737 246.571 137.284C248.881 136.534 251.144 135.646 253.347 134.623C258.6 132.447 263.525 129.55 267.979 126.015Z" fill="#FFA8A7"/>
<path d="M295.53 228.848V227.963C295.179 229.002 293.572 233.446 291.128 235.686C289.183 237.456 286.529 239.506 285.855 241.479C285.181 243.452 289.548 244.224 291.36 243.901C293.466 243.529 296.197 242.335 297.679 240.51C298.725 239.225 299.385 237.701 300.136 236.697C300.888 235.693 302.601 234.556 303.001 233.39C303.226 232.751 302.959 231.347 302.65 230.161C302.341 228.974 302.053 227.872 301.681 227.97V228.672C300.807 229.364 299.72 229.731 298.606 229.711C297.707 229.711 295.523 229.536 295.53 228.848Z" fill="#263238"/>
<path d="M289.367 237.238L291.129 235.672C292.835 234.114 294.134 231.46 294.885 229.669C295.313 228.641 295.532 227.539 295.531 226.425V222.915H301.689V228.63V228.785C301.394 230.069 298.564 233.475 296.957 235.693C295.882 237.182 293.832 239.078 291.389 239.401C289.044 239.724 287.864 238.993 289.367 237.238Z" fill="#FFA8A7"/>
<path d="M271.497 222.788V221.904C271.153 222.943 269.538 227.387 267.095 229.627C265.15 231.396 262.503 233.446 261.829 235.419C261.155 237.392 265.515 238.165 267.334 237.842C269.44 237.47 272.171 236.276 273.653 234.45C274.692 233.166 275.359 231.642 276.103 230.638C276.847 229.634 278.568 228.532 278.975 227.331C279.192 226.692 278.933 225.288 278.624 224.101C278.315 222.915 278.027 221.812 277.655 221.911V222.613C276.778 223.304 275.689 223.672 274.572 223.652C273.681 223.638 271.49 223.49 271.497 222.788Z" fill="#263238"/>
<path d="M265.339 231.165C265.936 230.624 266.547 230.097 267.095 229.599C268.801 228.04 270.107 225.386 270.851 223.596C271.278 222.568 271.498 221.465 271.497 220.352V216.841H277.662V222.557V222.711C277.367 223.996 274.544 227.401 272.936 229.62C271.855 231.108 269.812 233.004 267.368 233.327C265.016 233.65 263.83 232.92 265.339 231.165Z" fill="#FFA8A7"/>
<path d="M300.466 133.106C305.24 143.533 300.29 180.282 300.29 180.282C300.438 181.974 302.397 185.302 303.099 192.759C303.948 201.556 301.765 223.652 301.765 223.652C300.825 224.196 299.766 224.502 298.681 224.545C297.596 224.588 296.517 224.366 295.537 223.898C295.537 223.898 289.667 190.603 288.558 181.855C287.596 174.215 285.749 157.421 285.749 157.421L280.49 181.812C281.258 184.274 281.815 186.797 282.155 189.353C282.653 194.5 277.668 218.47 277.668 218.47C277.668 218.47 275.562 219.25 271.503 218.653C271.503 218.653 269.741 186.847 269.278 180.64C268.498 170.227 271.265 137.726 273.174 131.562L300.466 133.106Z" fill="#318CFF"/>
<path opacity="0.15" d="M285.743 157.435L284.191 147.745C284.191 147.745 277.633 146.383 274.656 143.589C274.656 143.589 277.774 147.472 282.415 148.742L284.156 156.199L281.109 178.786L285.743 157.435Z" fill="black"/>
<path d="M292.041 96.8626C298.163 97.2838 298.591 100.24 300.122 103.477C301.24 105.969 301.346 108.799 300.417 111.368L296.148 123.712C296.148 123.712 298.142 128.542 300.466 133.106C289.759 139.081 276.383 135.915 273.168 131.576C273.027 130.649 273.87 123.417 274.368 118.699C272.479 113.966 271.981 110.975 272.781 107.837C274.256 102.037 279.992 96.3781 282.527 96.6028L292.041 96.8626Z" fill="#F0F0F0"/>
<path d="M295.271 95.1215H272.936V79.2675C272.936 75.9306 274.262 72.7303 276.621 70.3707C278.981 68.0111 282.181 66.6855 285.518 66.6855H287.758C291.095 66.6855 294.295 68.0111 296.655 70.3707C299.014 72.7303 300.34 75.9306 300.34 79.2675V90.0521C300.34 91.3966 299.806 92.686 298.855 93.6367C297.904 94.5874 296.615 95.1215 295.271 95.1215Z" fill="#263238"/>
<path d="M298.515 68.3213L296.689 71.2983C296.879 71.4295 297.093 71.5211 297.318 71.5675C297.544 71.6139 297.776 71.6142 298.002 71.5682C298.228 71.5223 298.442 71.4312 298.631 71.3003C298.821 71.1695 298.982 71.0016 299.105 70.8068C299.346 70.3963 299.419 69.9087 299.309 69.4456C299.199 68.9825 298.915 68.5797 298.515 68.3213Z" fill="#263238"/>
<path d="M301.07 71.0455L297.602 71.5651C297.624 71.7941 297.692 72.0162 297.803 72.2179C297.914 72.4197 298.064 72.5968 298.246 72.7386C298.427 72.8804 298.635 72.984 298.857 73.0429C299.08 73.1019 299.312 73.1151 299.539 73.0817C300.007 73.0038 300.427 72.7488 300.712 72.3698C300.997 71.9907 301.125 71.5165 301.07 71.0455Z" fill="#263238"/>
<path d="M278.14 72.2323C276.693 73.0889 274.903 76.7259 275.078 84.3579C275.233 90.8315 277.325 92.4253 278.378 92.8887C279.432 93.3521 281.461 93.0643 283.434 92.7413V96.624C283.434 96.624 280.709 99.7906 280.878 101.539C281.046 103.287 284.817 103.744 287.373 102.002C289.034 100.81 290.462 99.3229 291.585 97.614V88.2617C291.585 88.2617 292.912 90.0381 295.096 88.5917C297.279 87.1454 297.357 83.5645 296.086 82.2726C294.815 80.9807 292.091 81.395 291.585 83.1714C291.585 83.1714 288.433 83.2837 284.241 80.9807C282.608 80.1047 281.204 78.856 280.144 77.336C279.084 75.816 278.397 74.0675 278.14 72.2323Z" fill="#FFA8A7"/>
<path d="M283.026 82.7359C283.012 82.8475 283.021 82.9607 283.052 83.0686C283.084 83.1765 283.138 83.2767 283.21 83.3628C283.282 83.4489 283.372 83.5192 283.472 83.5691C283.573 83.6191 283.683 83.6476 283.795 83.6529C283.908 83.6583 284.02 83.6403 284.125 83.6002C284.23 83.5601 284.325 83.4986 284.405 83.4197C284.486 83.3408 284.548 83.2462 284.59 83.1418C284.632 83.0374 284.652 82.9255 284.648 82.8132C284.657 82.7047 284.644 82.5956 284.61 82.4921C284.576 82.3887 284.522 82.2931 284.45 82.2108C284.379 82.1285 284.292 82.0611 284.195 82.0127C284.097 81.9642 283.991 81.9356 283.883 81.9285C283.662 81.9228 283.449 82.0045 283.288 82.1558C283.128 82.307 283.033 82.5156 283.026 82.7359Z" fill="#263238"/>
<path d="M282.085 88.2195L280.196 88.8233C280.227 88.9524 280.284 89.0738 280.363 89.1801C280.443 89.2863 280.543 89.3751 280.658 89.4409C280.774 89.5067 280.901 89.5482 281.033 89.5628C281.165 89.5773 281.298 89.5646 281.425 89.5254C281.685 89.4388 281.9 89.2529 282.024 89.0083C282.147 88.7637 282.169 88.4802 282.085 88.2195Z" fill="#F28F8F"/>
<path d="M276.327 80.2574L277.977 79.12C277.908 79.0088 277.817 78.9129 277.71 78.838C277.603 78.7632 277.481 78.7111 277.353 78.6848C277.225 78.6585 277.093 78.6586 276.964 78.6852C276.836 78.7117 276.715 78.7641 276.608 78.8391C276.388 78.9939 276.235 79.2278 276.183 79.4919C276.131 79.7561 276.182 80.0303 276.327 80.2574Z" fill="#263238"/>
<path d="M276.734 82.1461C276.729 82.2531 276.745 82.36 276.782 82.4608C276.818 82.5615 276.874 82.6541 276.946 82.7334C277.018 82.8126 277.105 82.8768 277.201 82.9224C277.298 82.9681 277.403 82.9941 277.51 82.9992C277.617 83.0043 277.724 82.9882 277.825 82.952C277.926 82.9158 278.018 82.86 278.097 82.788C278.177 82.7159 278.241 82.629 278.286 82.5321C278.332 82.4352 278.358 82.3303 278.363 82.2234C278.368 82.1164 278.352 82.0095 278.316 81.9088C278.28 81.808 278.224 81.7154 278.152 81.6362C278.08 81.5569 277.993 81.4927 277.896 81.4471C277.799 81.4015 277.694 81.3754 277.587 81.3703C277.48 81.3652 277.374 81.3813 277.273 81.4175C277.172 81.4538 277.079 81.5095 277 81.5815C276.921 81.6536 276.857 81.7405 276.811 81.8374C276.765 81.9343 276.739 82.0392 276.734 82.1461Z" fill="#263238"/>
<path d="M280.709 81.6827L280.583 86.5765L277.999 85.7831L280.709 81.6827Z" fill="#F28F8F"/>
<path d="M283.434 92.7413C285.54 92.4675 289.795 91.2387 290.455 89.5466C290.189 90.3997 289.67 91.1516 288.966 91.7022C287.688 92.7975 283.441 94.0332 283.441 94.0332L283.434 92.7413Z" fill="#F28F8F"/>
<path d="M289.302 134.265C290.141 134.072 290.933 133.714 291.632 133.211C292.331 132.708 292.922 132.071 293.37 131.336C293.819 130.601 294.116 129.785 294.245 128.933C294.374 128.082 294.331 127.214 294.119 126.38C294.09 126.266 294.055 126.153 294.014 126.043C293.866 125.594 293.571 125.209 293.178 124.948C292.784 124.687 292.315 124.565 291.844 124.603C292.53 124.147 293.12 123.56 293.579 122.876C294.038 122.192 294.358 121.423 294.519 120.615L295.818 112.892C295.976 111.631 295.864 110.35 295.488 109.136L299.792 104.158L300.593 104.712C301.241 106.898 301.179 109.234 300.417 111.382L296.148 123.726C296.148 123.726 298.142 128.556 300.466 133.12C296.982 134.992 293.136 136.096 289.189 136.358C285.242 136.619 281.285 136.032 277.584 134.637C281.479 135.248 285.454 135.122 289.302 134.265Z" fill="#E6E6E6"/>
<path d="M311.433 127.587C305.873 104.867 301.758 97.2909 295.004 97.3962C293.038 99.7554 293.6 106.875 296.696 111.193C296.696 111.193 303.64 125.846 304.749 131.056C305.725 135.634 306.856 141.391 306.757 145.33C306.737 146.026 306.462 146.69 305.985 147.198C304.721 148.602 304.714 149.683 303.879 151.207C303.233 152.393 302.531 152.843 302.727 153.11C302.992 153.4 303.358 153.577 303.75 153.606C304.141 153.634 304.529 153.512 304.834 153.264C305.429 152.834 305.963 152.323 306.42 151.748C306.2 153.203 305.777 154.621 305.164 155.96C303.759 159.176 304.082 160.819 308.428 159.674C311.146 158.972 312.852 156.69 313.259 150.154C313.457 147.746 313.481 145.326 313.329 142.915C312.739 136.694 312.318 131.246 311.433 127.587Z" fill="#FFA8A7"/>
<path d="M154.58 111.902C153.512 112.787 152.291 113.236 150.886 114.605C149.998 115.615 148.878 116.393 147.622 116.873C146 117.512 144.476 117.323 139.983 116.606C134.478 115.722 132.112 114.802 129.739 112.773C126.965 110.407 120.765 103.273 117.76 100.465C114.594 97.5016 110.227 98.6461 110.227 98.6461C111.577 103.04 113.584 107.204 116.181 110.996C118.582 114.416 123.068 117.688 125.105 119.38C128.348 122.083 130.076 123.15 137.216 123.684C142.601 124.091 143.318 124.224 147.748 124.091C149.342 124.042 150.339 124.028 152.944 123.81C154.079 123.743 155.202 123.548 156.293 123.227C157.528 122.941 158.712 122.468 159.803 121.823C161.229 120.898 162.379 119.605 163.131 118.081C163.548 117.246 163.76 116.324 163.749 115.392C163.741 114.454 163.398 113.549 162.78 112.843C162.663 112.694 162.508 112.58 162.331 112.513C161.994 112.452 161.646 112.525 161.362 112.717C159.67 113.587 157.971 114.774 156.209 115.455C154.713 116.031 153.583 116.227 153.688 115.925C153.793 115.623 154.699 115.35 155.626 114.303C156.553 113.257 156.784 111.804 156.188 111.355C155.591 110.905 155.654 111.017 154.58 111.902Z" fill="#B16668"/>
<path d="M108.948 98.6252C110.646 97.8096 112.571 97.6014 114.404 98.0354C117.212 98.8288 119.41 100.647 122.057 103.484C124.704 106.32 129.169 110.926 129.169 110.926C129.169 110.926 126.972 116.494 122.029 118.467L111.665 108.883L108.948 98.6252Z" fill="#455A64"/>
<path d="M93.7199 236.606H100.004V225.85H93.7199V236.606Z" fill="#B16668"/>
<path d="M111.111 228.56L117.388 228.777L117.704 217.396L111.111 217.178V228.56Z" fill="#B16668"/>
<path d="M91.0521 145.555C91.0521 151.551 92.1123 186.446 92.1123 186.446C91.9649 188.174 90.3009 191.242 90.1745 197.463C89.9849 206.478 93.4604 231.235 93.4604 231.235C94.5485 231.773 95.7418 232.064 96.9554 232.089C98.1689 232.113 99.3729 231.869 100.482 231.375C100.482 231.375 103.332 197.814 104.456 188.89C105.439 181.096 107.103 159.934 107.103 159.934L110.066 185.365C109.338 188.64 109.076 192.001 109.286 195.349C109.581 199.478 110.74 225.042 110.74 225.042C111.834 225.661 113.051 226.032 114.304 226.128C115.558 226.223 116.817 226.042 117.993 225.597C117.993 225.597 122.423 189.157 122.5 185.365C122.584 181.047 120.857 136.968 120.857 136.968L91.0521 145.555Z" fill="#37474F"/>
<path d="M95.1802 101.412C93.7951 102.025 92.7059 103.157 92.1471 104.565C91.5038 106.301 91.1918 108.142 91.2273 109.992V122.308L91.0518 145.548C100.067 150.301 111.533 150.617 121.152 143.596C121.152 143.596 120.611 113.679 120.611 108.785C120.611 108.56 120.611 108.335 120.611 108.083C120.26 101.061 113.379 96.294 106.604 98.0352L100.91 99.5027L95.1802 101.412Z" fill="#F0F0F0"/>
<path d="M119.707 80.496C120.803 75.854 117.928 71.2027 113.286 70.1071C108.644 69.0114 103.993 71.8864 102.897 76.5284C101.801 81.1705 104.676 85.8218 109.318 86.9174C113.96 88.013 118.612 85.1381 119.707 80.496Z" fill="#263238"/>
<path d="M96.3809 84.6599C96.3809 84.6599 97.7851 91.2318 98.3468 92.313C98.7141 92.9884 99.3318 93.4926 100.067 93.7173L99.9687 89.0973L96.3809 84.6599Z" fill="#263238"/>
<path d="M98.1363 75.2443C97.6482 75.1868 97.1534 75.2416 96.6897 75.4047C96.2261 75.5678 95.8059 75.8347 95.4612 76.1852C94.3097 77.3647 94.9487 81.0509 96.381 84.6598L99.021 84.9617L98.1363 75.2443Z" fill="#263238"/>
<path d="M99.8076 84.9618C99.2811 85.2778 98.5298 84.2597 97.8768 83.5576C97.2238 82.8554 95.0683 81.9497 94.0362 84.1825C93.0041 86.4152 94.97 89.4694 96.6481 89.996C99.5338 90.9018 99.9691 89.0552 99.9691 89.0552L100.18 99.7836C103.768 104.383 113.731 103.996 109.581 99.1868V96.0202C110.869 96.2275 112.175 96.2957 113.478 96.2239C115.584 95.8939 116.932 94.2158 117.578 91.9198C118.61 88.2267 118.983 85.2497 118.126 77.9897C117.164 70.0347 107.91 69.9504 102.918 73.0749C97.926 76.1993 99.8076 84.9618 99.8076 84.9618Z" fill="#B16668"/>
<path d="M99.8079 85.8745C99.5411 85.8745 98.5371 84.2034 97.8771 83.5996C96.9643 82.7711 98.1369 75.2654 98.1369 75.2654C97.8996 74.6147 97.8569 73.9091 98.014 73.2345C98.1711 72.56 98.5212 71.9458 99.0215 71.4669C100.271 70.0627 101.626 69.2201 105.228 69.0305C107.69 69.0211 110.151 69.1359 112.601 69.3746C116.16 69.6133 117.466 68.7427 119.509 68.1669C121.075 67.7316 121.251 73.3697 117.305 75.2373C117.305 75.2373 116.02 76.0658 112.636 76.4801C109.515 76.7157 106.379 76.6569 103.269 76.3045C102.293 76.1711 102.083 77.119 101.549 79.7169C101.086 81.9707 100.707 85.8323 99.8079 85.8745Z" fill="#263238"/>
<path d="M98.1429 75.8271L94.9482 74.1069C95.051 73.892 95.1963 73.7001 95.3753 73.5428C95.5543 73.3856 95.7633 73.2663 95.9897 73.1922C96.2161 73.118 96.4552 73.0905 96.6926 73.1114C96.9299 73.1322 97.1606 73.201 97.3706 73.3135C97.7981 73.5526 98.1169 73.9473 98.2608 74.4155C98.4047 74.8837 98.3624 75.3893 98.1429 75.8271Z" fill="#263238"/>
<path d="M109.567 96.0413C109.567 96.0413 104.835 95.0864 103.178 94.2088C102.204 93.6981 101.404 92.9085 100.882 91.9409C101.136 92.9102 101.58 93.8194 102.188 94.616C103.395 96.1607 109.567 97.3051 109.567 97.3051V96.0413Z" fill="#9A4A4D"/>
<path d="M109.335 83.7682C109.335 83.8927 109.311 84.0159 109.263 84.1309C109.215 84.2459 109.146 84.3504 109.058 84.4384C108.97 84.5264 108.865 84.5963 108.75 84.6439C108.635 84.6915 108.512 84.7161 108.387 84.7161C108.263 84.7161 108.14 84.6915 108.025 84.6439C107.91 84.5963 107.805 84.5264 107.717 84.4384C107.629 84.3504 107.559 84.2459 107.512 84.1309C107.464 84.0159 107.439 83.8927 107.439 83.7682C107.439 83.6437 107.464 83.5205 107.512 83.4055C107.559 83.2905 107.629 83.186 107.717 83.0979C107.805 83.0099 107.91 82.9401 108.025 82.8925C108.14 82.8448 108.263 82.8203 108.387 82.8203C108.512 82.8203 108.635 82.8448 108.75 82.8925C108.865 82.9401 108.97 83.0099 109.058 83.0979C109.146 83.186 109.215 83.2905 109.263 83.4055C109.311 83.5205 109.335 83.6437 109.335 83.7682Z" fill="#263238"/>
<path d="M108.331 80.1943L106.302 81.3177C106.155 81.0392 106.121 80.7143 106.209 80.4117C106.297 80.109 106.499 79.8524 106.772 79.6958C106.907 79.6235 107.055 79.579 107.207 79.565C107.359 79.551 107.512 79.5677 107.658 79.6142C107.803 79.6608 107.938 79.7361 108.053 79.8358C108.169 79.9354 108.264 80.0574 108.331 80.1943Z" fill="#263238"/>
<path d="M109.139 90.34L111.308 91.1474C111.259 91.2917 111.182 91.4248 111.081 91.5387C110.98 91.6526 110.857 91.745 110.719 91.8105C110.582 91.876 110.433 91.9132 110.281 91.9199C110.128 91.9266 109.976 91.9027 109.834 91.8495C109.548 91.7333 109.317 91.5126 109.188 91.2322C109.058 90.9518 109.041 90.6328 109.139 90.34Z" fill="#9A4A4D"/>
<path d="M117.528 80.9596L115.675 79.5554C115.763 79.4305 115.875 79.3246 116.004 79.2442C116.134 79.1638 116.279 79.1105 116.43 79.0876C116.581 79.0646 116.735 79.0724 116.882 79.1106C117.03 79.1488 117.169 79.2165 117.29 79.3096C117.531 79.5033 117.69 79.7813 117.734 80.0876C117.779 80.3938 117.705 80.7055 117.528 80.9596Z" fill="#263238"/>
<path d="M116.945 83.5083C116.938 83.6958 116.876 83.8772 116.767 84.0296C116.658 84.1821 116.506 84.299 116.33 84.3657C116.155 84.4324 115.964 84.446 115.781 84.4047C115.598 84.3634 115.431 84.2691 115.301 84.1336C115.172 83.998 115.085 83.8273 115.051 83.6426C115.018 83.458 115.04 83.2676 115.114 83.0953C115.188 82.923 115.312 82.7764 115.469 82.6737C115.626 82.5711 115.81 82.5171 115.997 82.5183C116.125 82.5201 116.251 82.5473 116.368 82.5982C116.485 82.6491 116.59 82.7228 116.679 82.8149C116.767 82.907 116.836 83.0158 116.882 83.1348C116.927 83.2539 116.949 83.3808 116.945 83.5083Z" fill="#263238"/>
<path d="M112.122 82.6096L112.431 88.3179L115.415 87.2998L112.122 82.6096Z" fill="#9A4A4D"/>
<path d="M100.011 233.51V232.618C100.607 232.878 102.005 238.235 104.497 240.482C106.477 242.286 109.18 244.372 109.868 246.387C110.556 248.402 106.105 249.645 104.251 249.315C102.103 248.935 98.3746 247.419 97.4408 246.015C96.507 244.61 96.0366 242.539 95.3344 241.514C94.6323 240.489 92.8208 239.33 92.4066 238.144C92.1819 237.491 92.4487 236.037 92.7647 234.844C93.0806 233.65 93.3755 232.513 93.7547 232.618V233.32C94.6466 234.026 95.7558 234.401 96.8932 234.38C97.7849 234.387 100.018 234.212 100.011 233.51Z" fill="#263238"/>
<path d="M117.458 226.84C117.781 226.84 118.048 227.31 118.764 228.089C119.841 229.176 121.092 230.075 122.464 230.751C124.817 231.93 129.387 233.742 131.459 234.668C132.751 235.251 132.687 236.817 131.353 237.702C130.019 238.586 126.79 239.232 122.928 238.369C120.821 237.898 118.069 235.946 116.328 236.052C114.587 236.157 111.336 236.129 110.051 235.244C108.766 234.359 109.286 232.471 109.644 230.849C110.044 229.072 110.535 226.313 111.125 226.432V227.043C111.876 228.188 115.773 228.651 117.444 227.809L117.458 226.84Z" fill="#263238"/>
<path d="M107.074 159.927C110.322 158.917 113.309 157.205 115.823 154.914C115.823 154.914 114.138 158.074 109.117 161.016L109.82 183.224L107.074 159.927Z" fill="#263238"/>
<path d="M229.581 26.84C229.475 26.0536 228.836 25.7657 228.078 26.208L145.558 73.8611C145.11 74.1447 144.741 74.5357 144.483 74.9985L141.633 73.3485C141.888 72.8861 142.258 72.4969 142.707 72.2181L225.228 24.5651C225.646 24.2893 226.131 24.1305 226.631 24.1052C227.132 24.0798 227.63 24.1888 228.074 24.4209C228.518 24.653 228.892 24.9998 229.157 25.4251C229.422 25.8505 229.568 26.339 229.581 26.84Z" fill="#FAFAFA"/>
<path d="M145.269 225.491C144.981 225.597 144.682 225.671 144.377 225.709C143.771 225.791 143.153 225.686 142.608 225.407C142.189 225.117 141.844 224.733 141.6 224.285C141.356 223.838 141.221 223.34 141.204 222.83V74.8511C141.2 74.7903 141.2 74.7293 141.204 74.6685C141.218 74.5411 141.239 74.4145 141.267 74.2894C141.351 73.9603 141.479 73.6439 141.646 73.3485L144.497 74.9985C144.225 75.4513 144.072 75.966 144.054 76.494V224.473C144.054 225.175 144.398 225.562 144.89 225.562C144.955 225.569 145.021 225.569 145.087 225.562C145.15 225.544 145.211 225.521 145.269 225.491Z" fill="#E0E0E0"/>
<path d="M144.041 76.5011V224.48C144.041 225.449 144.743 225.843 145.558 225.351L228.078 177.705C228.519 177.416 228.886 177.027 229.15 176.569C229.413 176.112 229.566 175.599 229.595 175.072V27.0928C229.595 26.1238 228.893 25.7306 228.078 26.2151L145.558 73.8682C145.114 74.1556 144.746 74.5441 144.482 75.0019C144.218 75.4597 144.067 75.9735 144.041 76.5011Z" fill="#FAFAFA"/>
<path d="M159.677 95.5357C159.534 95.3311 159.472 95.0812 159.501 94.8336V79.9697C159.489 79.6514 159.549 79.3346 159.677 79.0429C159.795 78.787 159.992 78.5756 160.239 78.439L161.453 77.7369C161.729 77.5825 161.919 77.5614 162.022 77.6737C162.164 77.8941 162.224 78.1578 162.19 78.418V93.2679C162.202 93.5785 162.144 93.8878 162.022 94.1736C161.901 94.4282 161.702 94.6373 161.453 94.7704L160.239 95.4725C159.979 95.62 159.775 95.641 159.677 95.5357Z" fill="#318CFF"/>
<path d="M164.423 92.7904C164.284 92.5843 164.225 92.335 164.255 92.0883V77.1962C164.245 76.8834 164.302 76.5721 164.423 76.2835C164.551 76.0311 164.751 75.8231 164.999 75.6867L166.01 75.1109C166.059 75.0584 166.12 75.0191 166.187 74.9968C166.255 74.9744 166.328 74.9696 166.398 74.983C166.468 74.9963 166.534 75.0273 166.589 75.073C166.644 75.1187 166.686 75.1777 166.712 75.2443L171.269 82.5113V73.1661C171.26 72.8487 171.317 72.5331 171.437 72.2393C171.556 71.9855 171.753 71.7764 171.999 71.6424L173.221 70.9403C173.488 70.7788 173.677 70.7578 173.79 70.8701C173.924 71.0935 173.981 71.3553 173.951 71.6144V86.4713C173.96 86.7811 173.905 87.0895 173.79 87.377C173.666 87.6279 173.467 87.834 173.221 87.9668L172.196 88.5566C172.146 88.6088 172.084 88.6474 172.016 88.6688C171.947 88.6903 171.874 88.6937 171.803 88.679C171.733 88.6642 171.668 88.6316 171.613 88.5844C171.559 88.5372 171.518 88.4768 171.494 88.4091L166.923 81.1843V90.5225C166.933 90.8347 166.878 91.1454 166.761 91.4353C166.639 91.6875 166.44 91.8942 166.193 92.0251L164.971 92.7272C164.725 92.8957 164.536 92.8957 164.423 92.7904Z" fill="#318CFF"/>
<path d="M180.137 83.8383C180.011 83.7228 179.925 83.5704 179.891 83.4029L175.777 70.3014C175.748 70.1793 175.732 70.0546 175.728 69.9292C175.716 69.8121 175.737 69.6939 175.789 69.5883C175.841 69.4827 175.922 69.394 176.023 69.3324L177.975 68.202C178.129 68.1177 178.242 68.0967 178.326 68.1528C178.42 68.2349 178.484 68.3461 178.508 68.4688L181.113 77.7158L183.718 65.4637C183.737 65.2829 183.797 65.1088 183.893 64.9544C183.989 64.8 184.119 64.6693 184.273 64.572L186.225 63.4416C186.414 63.3293 186.512 63.4416 186.512 63.7014C186.51 63.8454 186.494 63.9889 186.463 64.1297L182.37 81.9706C182.319 82.2153 182.234 82.4516 182.117 82.6727C182.02 82.8326 181.882 82.9636 181.717 83.0519L180.53 83.754C180.348 83.8593 180.214 83.8874 180.137 83.8383Z" fill="#318CFF"/>
<path d="M188.436 78.9304C188.297 78.7244 188.235 78.4757 188.261 78.2283V63.3643C188.252 63.0464 188.312 62.7304 188.436 62.4375C188.555 62.1817 188.751 61.9702 188.998 61.8337L190.213 61.1316C190.486 60.9771 190.676 60.956 190.788 61.0684C190.924 61.2914 190.981 61.5535 190.95 61.8126V76.6625C190.96 76.9724 190.905 77.2811 190.788 77.5683C190.661 77.8206 190.46 78.0286 190.213 78.1651L188.998 78.8672C188.738 79.0146 188.563 79.0357 188.436 78.9304Z" fill="#318CFF"/>
<path d="M195.885 74.6405C195.747 74.4344 195.687 74.1851 195.717 73.9384V61.0123L193.049 62.557C192.789 62.7044 192.607 62.7255 192.508 62.6272C192.387 62.4143 192.335 62.1688 192.361 61.9251V60.9983C192.348 60.6872 192.398 60.3767 192.508 60.0855C192.624 59.8457 192.814 59.649 193.049 59.5238L201.081 54.8898C201.341 54.7353 201.524 54.7143 201.629 54.8196C201.758 55.0449 201.812 55.3057 201.783 55.5638V56.4836C201.793 56.7883 201.741 57.0918 201.629 57.3753C201.51 57.6174 201.319 57.8163 201.081 57.944L198.413 59.4817V72.3797C198.426 72.6927 198.368 73.0045 198.245 73.2924C198.121 73.5472 197.919 73.7561 197.669 73.8892L196.461 74.5914C196.187 74.7107 195.998 74.7388 195.885 74.6405Z" fill="#318CFF"/>
<path d="M203.37 70.3085C203.228 70.1038 203.165 69.854 203.195 69.6064V54.7424C203.182 54.4242 203.242 54.1073 203.37 53.8156C203.487 53.5604 203.684 53.3507 203.932 53.2188L210.679 49.315C210.939 49.1676 211.122 49.1465 211.22 49.2448C211.335 49.4599 211.384 49.7042 211.36 49.9469V50.8737C211.371 51.1841 211.324 51.4938 211.22 51.7865C211.104 52.0263 210.914 52.223 210.679 52.3482L205.884 55.1145V59.0745L209.233 57.1367C209.493 56.9892 209.668 56.9611 209.767 57.0664C209.888 57.2793 209.939 57.5249 209.914 57.7686V58.6462C209.927 58.955 209.877 59.2632 209.767 59.552C209.656 59.793 209.468 59.9905 209.233 60.1137L205.884 62.0515V66.0326L210.665 63.2732C210.925 63.1187 211.101 63.1047 211.199 63.21C211.325 63.4365 211.376 63.6969 211.346 63.9543V64.853C211.361 65.1596 211.31 65.4658 211.199 65.7517C211.085 65.9872 210.898 66.1794 210.665 66.2994L203.932 70.1891C203.672 70.4278 203.483 70.4278 203.37 70.3085Z" fill="#318CFF"/>
<path d="M159.817 108.083L213.838 76.9084C214.681 76.4169 215.362 76.8101 215.362 77.7861V79.1903C215.332 79.7178 215.178 80.2308 214.913 80.6881C214.649 81.1453 214.281 81.5342 213.838 81.8233L159.838 113.005C158.996 113.489 158.314 113.096 158.314 112.127V110.723C158.34 110.195 158.489 109.682 158.75 109.223C159.011 108.764 159.377 108.374 159.817 108.083Z" fill="#E0E0E0"/>
<path d="M168.376 118.727L205.259 97.4314C206.101 96.947 206.782 97.3401 206.782 98.3091V99.7133C206.754 100.241 206.601 100.755 206.336 101.212C206.071 101.67 205.702 102.058 205.259 102.346L168.376 123.635C167.534 124.119 166.853 123.726 166.853 122.757V121.353C166.882 120.826 167.036 120.314 167.3 119.858C167.565 119.401 167.934 119.014 168.376 118.727Z" fill="#E6E6E6"/>
<path d="M168.376 128.739L205.259 107.451C206.115 106.938 206.817 107.359 206.817 108.342V109.747C206.789 110.274 206.636 110.788 206.371 111.246C206.106 111.703 205.737 112.092 205.294 112.379L168.411 133.675C167.569 134.159 166.888 133.766 166.888 132.797V131.393C166.909 130.865 167.055 130.349 167.314 129.888C167.573 129.426 167.937 129.033 168.376 128.739Z" fill="#E6E6E6"/>
<path d="M168.376 138.758L205.259 117.47C206.101 116.985 206.782 117.379 206.782 118.348V119.752C206.754 120.28 206.601 120.793 206.336 121.251C206.071 121.708 205.702 122.097 205.259 122.385L168.376 143.673C167.534 144.158 166.853 143.764 166.853 142.795V141.391C166.881 140.863 167.034 140.35 167.299 139.892C167.564 139.435 167.933 139.046 168.376 138.758Z" fill="#E6E6E6"/>
<path d="M159.817 159.492L213.838 128.311C214.681 127.826 215.362 128.219 215.362 129.188V130.593C215.332 131.12 215.178 131.633 214.913 132.09C214.649 132.548 214.281 132.936 213.838 133.226L159.838 164.407C158.996 164.891 158.314 164.498 158.314 163.529V162.125C158.341 161.599 158.49 161.087 158.752 160.629C159.013 160.172 159.378 159.782 159.817 159.492Z" fill="#E0E0E0"/>
<path d="M168.376 170.178L205.259 148.883C206.101 148.398 206.782 148.792 206.782 149.761V151.165C206.754 151.693 206.601 152.206 206.336 152.664C206.071 153.121 205.702 153.51 205.259 153.798L168.376 175.114C167.534 175.599 166.853 175.206 166.853 174.237V172.832C166.878 172.301 167.029 171.783 167.294 171.322C167.559 170.86 167.93 170.468 168.376 170.178Z" fill="#E6E6E6"/>
<path d="M168.376 180.191L205.259 158.895C206.101 158.411 206.782 158.797 206.782 159.773V161.177C206.754 161.705 206.601 162.219 206.336 162.676C206.071 163.134 205.702 163.522 205.259 163.81L168.376 185.105C167.534 185.59 166.853 185.197 166.853 184.228V182.824C166.881 182.296 167.034 181.782 167.299 181.325C167.564 180.867 167.933 180.478 168.376 180.191Z" fill="#E6E6E6"/>
<path d="M168.376 190.21L205.259 168.914C206.101 168.43 206.782 168.823 206.782 169.792V171.196C206.754 171.724 206.601 172.238 206.336 172.695C206.071 173.153 205.702 173.541 205.259 173.829L168.376 195.118C167.534 195.602 166.853 195.209 166.853 194.24V192.836C166.882 192.309 167.036 191.797 167.3 191.341C167.565 190.884 167.934 190.497 168.376 190.21Z" fill="#E6E6E6"/>
<path d="M140.165 127.693C138.985 128.395 137.708 128.697 136.128 129.855C134.723 130.874 134.12 130.881 132.554 131.26C130.862 131.674 117.444 127.707 115.099 125.643C111.448 122.455 104.982 110.954 102.566 108.195C100.579 105.92 97.8199 102.838 95.3695 102.824C91.3183 104.052 92.2381 110.077 95.6223 115.497C98.4308 119.984 104.202 128.943 110.226 132.896C113.147 134.812 127.428 138.19 131.901 138.478C133.256 138.569 135.664 139.18 137.799 139.292C139.892 139.487 141.999 139.126 143.907 138.246C145.448 137.53 146.768 136.412 147.727 135.009C148.251 134.236 148.59 133.351 148.717 132.425C148.833 131.494 148.616 130.552 148.106 129.764C148.008 129.604 147.87 129.471 147.706 129.378C147.379 129.272 147.024 129.297 146.716 129.448C144.925 130.073 143.079 131.014 141.232 131.442C139.673 131.8 138.522 131.842 138.676 131.562C138.831 131.281 139.758 131.126 140.818 130.221C140.948 130.113 141.07 129.995 141.183 129.869V127.061C140.832 127.252 140.492 127.463 140.165 127.693Z" fill="#B16668"/>
<path d="M95.1172 101.419C92.1191 102.88 90.9044 105.113 92.2385 110.091C93.4321 114.556 98.0099 122.167 101.612 125.895C101.612 125.895 107.769 122.975 111.055 119.183C107.805 114.212 106.246 111.291 103.192 107.086C100.137 102.88 96.9427 100.914 95.1172 101.419Z" fill="#455A64"/>
</svg>
