<svg width="371" height="428" viewBox="0 0 371 428" fill="none" xmlns="http://www.w3.org/2000/svg">
<path d="M76.652 402.995C138.14 435.115 237.831 435.115 299.319 402.995C360.807 370.875 360.817 318.79 299.319 286.67C237.821 254.55 138.14 254.54 76.652 286.67C15.1638 318.799 15.1828 370.894 76.652 402.995Z" fill="#FAFAFA"/>
<path d="M220.56 328.592C202.92 337.009 174.321 337.009 156.681 328.592C139.041 320.175 139.031 306.559 156.681 298.142C174.33 289.725 202.92 289.735 220.56 298.142C238.2 306.549 238.172 320.185 220.56 328.592Z" fill="#F0F0F0"/>
<path d="M267.976 364.773C281.099 371.036 302.383 371.036 315.506 364.773C328.629 358.511 328.629 348.376 315.506 342.123C302.383 335.87 281.099 335.87 267.976 342.123C254.853 348.376 254.853 358.52 267.976 364.773Z" fill="#F0F0F0"/>
<path d="M59.8368 365.865C72.7037 371.994 93.5604 371.994 106.427 365.865C119.294 359.735 119.294 349.79 106.427 343.651C93.5604 337.512 72.7037 337.521 59.8368 343.651C46.9698 349.781 46.9698 359.735 59.8368 365.865Z" fill="#F0F0F0"/>
<path d="M324.285 69.6962L327.919 71.1005V63.0824C327.919 56.7248 332.995 55.2066 338.499 58.3379C344.003 61.5072 348.462 69.2407 348.462 75.5888V76.7559C349.236 76.5179 350.054 76.4582 350.855 76.5815C351.655 76.7047 352.417 77.0077 353.083 77.4676C355.171 78.8291 356.908 80.6632 358.154 82.8211C359.4 84.9791 360.121 87.4003 360.257 89.8886V90.42L365.324 93.3426C366.703 94.2363 367.851 95.4429 368.676 96.8642C369.5 98.2856 369.977 99.8814 370.069 101.522C370.069 104.54 367.953 105.754 365.324 104.255L324.285 80.5325C322.907 79.6397 321.759 78.4346 320.935 77.0151C320.111 75.5955 319.633 74.0015 319.54 72.3626C319.559 69.4115 321.675 68.1969 324.285 69.6962Z" fill="#F0F0F0"/>
<path d="M49.2855 69.4589L40.8878 74.3078C40.9367 73.9397 40.962 73.5689 40.9637 73.1976V70.7684C40.9637 66.4415 37.9178 64.686 34.1696 66.8495C32.557 67.839 31.1779 69.1663 30.1273 70.74C29.5106 65.2933 25.2405 63.2627 20.0596 66.2612C14.4421 69.4969 9.89695 77.3727 9.89695 83.8536V87.4879C9.86112 88.9427 10.1564 90.3866 10.7604 91.7105L3.79557 95.7338C2.69471 96.4452 1.77725 97.4063 1.11773 98.5391C0.458217 99.6718 0.0752643 100.944 0 102.253C0 104.653 1.68903 105.631 3.79557 104.426L49.295 78.1603C50.3958 77.4489 51.3133 76.4877 51.9728 75.355C52.6323 74.2223 53.0153 72.95 53.0905 71.6414C53.0526 69.2407 51.3636 68.2633 49.2855 69.4589Z" fill="#F0F0F0"/>
<path d="M242.432 145.921C248.208 145.921 252.889 141.239 252.889 135.464C252.889 129.689 248.208 125.007 242.432 125.007C236.657 125.007 231.976 129.689 231.976 135.464C231.976 141.239 236.657 145.921 242.432 145.921Z" fill="#318CFF"/>
<path d="M176.826 169.776C185.295 169.776 192.16 162.911 192.16 154.442C192.16 145.973 185.295 139.108 176.826 139.108C168.358 139.108 161.492 145.973 161.492 154.442C161.492 162.911 168.358 169.776 176.826 169.776Z" fill="#318CFF"/>
<path d="M152.38 140.485C161.759 131.106 161.759 115.899 152.38 106.52C143.001 97.1414 127.795 97.1414 118.416 106.52C109.037 115.899 109.037 131.106 118.416 140.485C127.795 149.864 143.001 149.864 152.38 140.485Z" fill="#318CFF"/>
<path d="M161.824 101.674C170.644 101.674 177.794 94.5239 177.794 85.704C177.794 76.8841 170.644 69.7341 161.824 69.7341C153.004 69.7341 145.854 76.8841 145.854 85.704C145.854 94.5239 153.004 101.674 161.824 101.674Z" fill="#318CFF"/>
<path d="M210.028 92.6024C221.934 92.6024 231.586 82.9502 231.586 71.0436C231.586 59.137 221.934 49.4847 210.028 49.4847C198.121 49.4847 188.469 59.137 188.469 71.0436C188.469 82.9502 198.121 92.6024 210.028 92.6024Z" fill="#318CFF"/>
<path d="M214.45 179.151L210.578 185.347C209.604 186.91 208.061 188.033 206.274 188.477C204.486 188.922 202.597 188.653 201.004 187.729L197.208 185.528C196.068 184.745 195.121 183.713 194.44 182.509C193.76 181.305 193.363 179.962 193.28 178.582L192.891 163.466C192.852 163.079 192.712 162.709 192.486 162.393C192.259 162.076 191.954 161.825 191.6 161.663C190.635 161.176 189.569 160.923 188.488 160.923C187.407 160.923 186.341 161.176 185.376 161.663C185.02 161.822 184.713 162.072 184.486 162.389C184.259 162.706 184.121 163.078 184.085 163.466L183.269 194.912C183.203 197.531 182.13 199.068 180.868 198.347L178.591 197.028C177.482 196.391 176.51 195.541 175.732 194.526C174.953 193.512 174.383 192.353 174.055 191.116L171.503 181.628C171.341 181.019 170.943 180.499 170.398 180.183C169.852 179.867 169.204 179.781 168.595 179.943C167.986 180.106 167.466 180.503 167.15 181.049C166.834 181.594 166.748 182.243 166.91 182.852L169.463 192.341C169.952 194.178 170.8 195.9 171.958 197.408C173.116 198.916 174.561 200.18 176.209 201.127L179.606 203.092C181.504 204.173 182.947 207.172 182.88 209.791L180.29 310.07C180.29 311.275 181.087 312.489 182.681 313.41C184.474 314.318 186.455 314.791 188.464 314.791C190.474 314.791 192.455 314.318 194.248 313.41C195.842 312.461 196.649 311.275 196.639 310.06L193.641 193.622C193.574 191.003 194.665 189.541 196.079 190.357L198.632 191.838C201.289 193.377 204.441 193.823 207.421 193.081C210.401 192.339 212.976 190.467 214.602 187.862L218.473 181.666C218.807 181.132 218.914 180.488 218.773 179.875C218.631 179.262 218.252 178.73 217.719 178.397C217.185 178.063 216.541 177.955 215.928 178.097C215.315 178.238 214.783 178.617 214.45 179.151Z" fill="#37474F"/>
<path d="M281.247 75.2462C285.791 55.6582 273.595 36.0955 254.007 31.5516C234.419 27.0077 214.856 39.2034 210.312 58.7914C205.768 78.3795 217.964 97.9422 237.552 102.486C257.14 107.03 276.703 94.8343 281.247 75.2462Z" fill="#318CFF"/>
<path opacity="0.2" d="M282.201 66.7641V67.0867C282.208 72.7201 280.907 78.2783 278.402 83.3239C275.897 88.3696 272.255 92.765 267.763 96.1645C263.271 99.564 258.051 101.875 252.515 102.915C246.978 103.955 241.276 103.696 235.856 102.159C230.436 100.622 225.447 97.8476 221.282 94.0553C217.116 90.263 213.887 85.5557 211.849 80.3039C209.811 75.0521 209.019 69.399 209.537 63.7894C210.054 58.1798 211.866 52.7667 214.829 47.976C213.205 56.6102 214.876 65.5398 219.514 73.0017C224.152 80.4637 231.418 85.9157 239.88 88.2813C248.341 90.6469 257.382 89.7541 265.217 85.7793C273.052 81.8044 279.112 75.0365 282.201 66.8115V66.7641Z" fill="black"/>
<path d="M211.679 79.7544C213.382 84.321 215.985 88.4992 219.333 92.0411C222.681 95.5831 226.706 98.4168 231.17 100.374C235.633 102.332 240.444 103.373 245.318 103.437C250.191 103.5 255.028 102.584 259.541 100.744C258.524 95.7215 256.314 91.0173 253.097 87.0284C249.88 83.0394 245.751 79.8827 241.058 77.8247C236.366 75.7667 231.246 74.8676 226.133 75.2035C221.02 75.5394 216.062 77.1002 211.679 79.7544Z" fill="#318CFF"/>
<path opacity="0.1" d="M211.679 79.7544C213.382 84.321 215.985 88.4992 219.333 92.0411C222.681 95.5831 226.706 98.4168 231.17 100.374C235.633 102.332 240.444 103.373 245.318 103.437C250.191 103.5 255.028 102.584 259.541 100.744C258.524 95.7215 256.314 91.0173 253.097 87.0284C249.88 83.0394 245.751 79.8827 241.058 77.8247C236.366 75.7667 231.246 74.8676 226.133 75.2035C221.02 75.5394 216.062 77.1002 211.679 79.7544Z" fill="black"/>
<path d="M247.442 52.0278C250.811 52.0278 251.238 52.0278 252.538 52.1037C253.338 52.1158 254.13 52.2634 254.881 52.5402C255.424 52.751 255.917 53.0724 256.329 53.4841C256.74 53.8958 257.062 54.3887 257.273 54.9314C257.545 55.68 257.689 56.4691 257.7 57.2657C257.766 58.5941 257.776 58.9927 257.776 62.3612C257.776 65.7298 257.776 66.1568 257.7 67.4568C257.689 68.2534 257.545 69.0425 257.273 69.7911C257.062 70.3338 256.74 70.8267 256.329 71.2384C255.917 71.65 255.424 71.9715 254.881 72.1823C254.13 72.4591 253.338 72.6067 252.538 72.6188C251.209 72.6757 250.811 72.6947 247.442 72.6947C244.074 72.6947 243.647 72.6947 242.356 72.6188C241.556 72.6078 240.763 72.4601 240.012 72.1823C239.467 71.9751 238.973 71.6549 238.561 71.2428C238.148 70.8307 237.828 70.3359 237.621 69.7911C237.344 69.0434 237.197 68.254 237.185 67.4568C237.128 66.1284 237.118 65.7298 237.118 62.3612C237.118 58.9927 237.118 58.5657 237.185 57.2657C237.197 56.4685 237.344 55.6791 237.621 54.9314C237.828 54.3866 238.148 53.8918 238.561 53.4797C238.973 53.0675 239.467 52.7474 240.012 52.5402C240.763 52.2624 241.556 52.1147 242.356 52.1037C243.685 52.0468 244.083 52.0278 247.442 52.0278ZM247.442 49.7599C244.026 49.7599 243.647 49.76 242.252 49.8359C241.204 49.8546 240.167 50.0536 239.187 50.4242C238.35 50.7474 237.591 51.2419 236.957 51.8759C236.323 52.51 235.828 53.2695 235.505 54.1059C235.14 55.0844 234.941 56.1171 234.917 57.1613C234.86 58.5087 234.841 58.9357 234.841 62.3612C234.841 65.7867 234.841 66.2138 234.917 67.5612C234.941 68.6054 235.14 69.6381 235.505 70.6166C235.828 71.453 236.323 72.2125 236.957 72.8466C237.591 73.4806 238.35 73.9751 239.187 74.2983C240.167 74.6689 241.204 74.8679 242.252 74.8866C243.599 74.9436 244.026 74.9625 247.442 74.9625C250.858 74.9625 251.295 74.9625 252.642 74.8866C253.687 74.8682 254.721 74.6691 255.697 74.2983C256.541 73.9842 257.306 73.4886 257.937 72.8465C258.574 72.2147 259.068 71.4545 259.389 70.6166C259.755 69.6387 259.951 68.6052 259.968 67.5612C260.034 66.2138 260.043 65.7867 260.043 62.3612C260.043 58.9357 260.043 58.5087 259.968 57.1613C259.951 56.1172 259.755 55.0838 259.389 54.1059C259.065 53.2781 258.57 52.528 257.937 51.9044C257.306 51.2624 256.541 50.7668 255.697 50.4526C254.721 50.0818 253.687 49.8828 252.642 49.8643C251.295 49.8074 250.868 49.7884 247.442 49.7884" fill="white"/>
<path d="M247.442 55.8898C246.161 55.8898 244.909 56.2698 243.845 56.9817C242.78 57.6937 241.951 58.7055 241.461 59.8891C240.972 61.0727 240.845 62.3749 241.096 63.6307C241.348 64.8866 241.966 66.0396 242.873 66.9439C243.78 67.8482 244.935 68.4631 246.191 68.7106C247.448 68.9582 248.75 68.8273 249.932 68.3346C251.114 67.8419 252.123 67.0095 252.832 65.9427C253.541 64.876 253.917 63.623 253.914 62.3422C253.914 60.6259 253.232 58.9799 252.018 57.7662C250.804 56.5526 249.158 55.8708 247.442 55.8708M247.442 66.5458C246.611 66.5458 245.798 66.2993 245.107 65.8374C244.415 65.3755 243.877 64.719 243.559 63.9509C243.24 63.1828 243.157 62.3376 243.319 61.5222C243.481 60.7067 243.882 59.9577 244.47 59.3698C245.058 58.782 245.807 58.3816 246.622 58.2194C247.437 58.0572 248.283 58.1405 249.051 58.4586C249.819 58.7768 250.475 59.3156 250.937 60.0068C251.399 60.6981 251.646 61.5108 251.646 62.3422C251.646 63.4571 251.203 64.5263 250.415 65.3146C249.626 66.103 248.557 66.5458 247.442 66.5458Z" fill="white"/>
<path d="M255.689 55.6336C255.691 55.9343 255.603 56.2287 255.438 56.4796C255.272 56.7306 255.035 56.9266 254.758 57.043C254.481 57.1594 254.175 57.1908 253.88 57.1333C253.585 57.0758 253.314 56.9319 253.1 56.72C252.887 56.508 252.742 56.2375 252.682 55.9428C252.623 55.648 252.652 55.3423 252.767 55.0643C252.882 54.7863 253.076 54.5486 253.326 54.3814C253.576 54.2141 253.87 54.1249 254.171 54.1248C254.572 54.1248 254.956 54.2835 255.241 54.5662C255.525 54.8488 255.686 55.2326 255.689 55.6336Z" fill="white"/>
<path d="M296.381 128.448C299.387 113.539 289.739 99.017 274.83 96.011C259.922 93.005 245.4 102.654 242.394 117.562C239.388 132.47 249.037 146.992 263.945 149.998C278.853 153.004 293.375 143.356 296.381 128.448Z" fill="#318CFF"/>
<path d="M296.946 122.825V123.071C296.934 127.319 295.938 131.506 294.038 135.305C292.137 139.104 289.383 142.411 285.991 144.968C282.598 147.524 278.66 149.261 274.485 150.042C270.31 150.822 266.01 150.626 261.924 149.467C257.837 148.309 254.074 146.22 250.929 143.364C247.784 140.509 245.344 136.964 243.798 133.008C242.252 129.051 241.642 124.791 242.018 120.56C242.393 116.329 243.743 112.242 245.962 108.62C245.579 110.452 245.385 112.318 245.383 114.19C245.385 120.457 247.607 126.522 251.655 131.307C255.704 136.092 261.317 139.287 267.497 140.327C273.678 141.367 280.028 140.183 285.419 136.986C290.81 133.789 294.894 128.785 296.946 122.863V122.825Z" fill="#318CFF"/>
<path opacity="0.1" d="M296.946 122.825V123.071C296.934 127.319 295.938 131.506 294.038 135.305C292.137 139.104 289.383 142.411 285.991 144.968C282.598 147.524 278.66 149.261 274.485 150.042C270.31 150.822 266.01 150.626 261.924 149.467C257.837 148.309 254.074 146.22 250.929 143.364C247.784 140.509 245.344 136.964 243.798 133.008C242.252 129.051 241.642 124.791 242.018 120.56C242.393 116.329 243.743 112.242 245.962 108.62C245.579 110.452 245.385 112.318 245.383 114.19C245.385 120.457 247.607 126.522 251.655 131.307C255.704 136.092 261.317 139.287 267.497 140.327C273.678 141.367 280.028 140.183 285.419 136.986C290.81 133.789 294.894 128.785 296.946 122.863V122.825Z" fill="black"/>
<path d="M241.882 123.071C241.895 130.151 244.646 136.951 249.558 142.049C255.699 136.956 259.71 129.747 260.801 121.844C261.891 113.941 259.983 105.915 255.451 99.3491C251.319 101.779 247.893 105.246 245.513 109.407C243.133 113.568 241.882 118.278 241.882 123.071Z" fill="#318CFF"/>
<path opacity="0.1" d="M241.882 123.071C241.895 130.151 244.646 136.951 249.558 142.049C255.699 136.956 259.71 129.747 260.801 121.844C261.891 113.941 259.983 105.915 255.451 99.3491C251.319 101.779 247.893 105.246 245.513 109.407C243.133 113.568 241.882 118.278 241.882 123.071Z" fill="black"/>
<path d="M280.027 113.934C277.38 113.848 275.596 115.347 274.657 118.412C275.098 118.213 275.576 118.106 276.061 118.099C277.01 118.099 277.465 118.65 277.351 119.741C277.13 120.771 276.69 121.742 276.061 122.587C275.264 123.85 274.666 124.485 274.268 124.485C273.869 124.485 273.319 123.536 272.854 121.572C272.711 121.003 272.455 119.542 272.085 117.207C271.743 115.037 270.829 114.022 269.343 114.161C268.259 114.468 267.277 115.058 266.496 115.869C265.547 116.695 264.655 117.53 263.716 118.355L264.617 119.513C265.064 119.125 265.566 118.805 266.107 118.564C266.762 118.564 267.379 119.589 267.948 121.648L269.485 127.284C270.257 129.347 271.206 130.375 272.332 130.368C274.135 130.368 276.33 128.683 278.917 125.311C281.447 122.085 282.744 119.554 282.808 117.72C282.909 115.265 281.982 114.003 280.027 113.934Z" fill="white"/>
<path d="M176.912 77.2019C198.23 77.2019 215.512 59.9197 215.512 38.601C215.512 17.2822 198.23 0 176.912 0C155.593 0 138.311 17.2822 138.311 38.601C138.311 59.9197 155.593 77.2019 176.912 77.2019Z" fill="#318CFF"/>
<path opacity="0.5" d="M215.503 38.3163V38.6199C215.5 44.5862 214.114 50.4705 211.454 55.8108C208.793 61.1512 204.932 65.8023 200.171 69.3989C195.411 72.9954 189.882 75.4396 184.018 76.5395C178.154 77.6394 172.115 77.365 166.375 75.738C160.635 74.1109 155.35 71.1754 150.935 67.162C146.521 63.1486 143.097 58.1665 140.932 52.607C138.767 47.0474 137.92 41.0616 138.458 35.1197C138.996 29.1778 140.904 23.4415 144.032 18.3611C143.485 20.9282 143.208 23.5457 143.207 26.1705C143.204 34.9615 146.318 43.4688 151.994 50.1814C157.671 56.894 165.543 61.3772 174.212 62.8348C182.881 64.2924 191.787 62.63 199.346 58.1428C206.906 53.6557 212.63 46.6343 215.503 38.3258V38.3163Z" fill="#318CFF"/>
<path opacity="0.1" d="M215.503 38.3163V38.6199C215.5 44.5862 214.114 50.4705 211.454 55.8108C208.793 61.1512 204.932 65.8023 200.171 69.3989C195.411 72.9954 189.882 75.4396 184.018 76.5395C178.154 77.6394 172.115 77.365 166.375 75.738C160.635 74.1109 155.35 71.1754 150.935 67.162C146.521 63.1486 143.097 58.1665 140.932 52.607C138.767 47.0474 137.92 41.0616 138.458 35.1197C138.996 29.1778 140.904 23.4415 144.032 18.3611C143.485 20.9282 143.208 23.5457 143.207 26.1705C143.204 34.9615 146.318 43.4688 151.994 50.1814C157.671 56.894 165.543 61.3772 174.212 62.8348C182.881 64.2924 191.787 62.63 199.346 58.1428C206.906 53.6557 212.63 46.6343 215.503 38.3258V38.3163Z" fill="black"/>
<path d="M209.392 59.4956C206.914 54.4934 202.816 50.4766 197.766 48.098C192.715 45.7195 187.009 45.1192 181.574 46.3946C176.139 47.67 171.296 50.7462 167.831 55.1231C164.365 59.5 162.483 64.9203 162.488 70.5027C162.489 71.8735 162.607 73.2416 162.839 74.5925C171.147 77.8532 180.329 78.1307 188.818 75.3776C197.308 72.6244 204.579 67.0113 209.392 59.4956Z" fill="#318CFF"/>
<path opacity="0.1" d="M209.392 59.4956C206.914 54.4934 202.816 50.4766 197.766 48.098C192.715 45.7195 187.009 45.1192 181.574 46.3946C176.139 47.67 171.296 50.7462 167.831 55.1231C164.365 59.5 162.483 64.9203 162.488 70.5027C162.489 71.8735 162.607 73.2416 162.839 74.5925C171.147 77.8532 180.329 78.1307 188.818 75.3776C197.308 72.6244 204.579 67.0113 209.392 59.4956Z" fill="black"/>
<path d="M173.884 43.298H179.483V29.2828H183.382L183.8 24.5953H179.483V21.9289C179.483 20.8187 179.701 20.3822 180.773 20.3822H183.8V15.5144H179.929C175.763 15.5144 173.884 17.3458 173.884 20.8567V24.5953H170.98V29.3398H173.884V43.298Z" fill="white"/>
<path d="M161.343 92.3C164.821 70.5872 150.038 50.1662 128.326 46.6884C106.613 43.2106 86.192 57.9929 82.7141 79.7057C79.2363 101.418 94.0187 121.839 115.731 125.317C137.444 128.795 157.865 114.013 161.343 92.3Z" fill="#318CFF"/>
<path opacity="0.7" d="M161.824 85.704V86.0076C161.847 92.1809 160.436 98.2752 157.701 103.81C154.966 109.344 150.984 114.168 146.066 117.901C141.149 121.633 135.432 124.172 129.366 125.318C123.3 126.463 117.05 126.184 111.111 124.502C105.171 122.819 99.7034 119.78 95.1388 115.624C90.5742 111.468 87.0376 106.308 84.8078 100.551C82.578 94.7948 81.7159 88.5989 82.2897 82.4523C82.8634 76.3057 84.8572 70.3764 88.1139 65.132C87.5484 67.7801 87.2622 70.4803 87.2599 73.1881C87.2572 82.2546 90.468 91.0286 96.322 97.9518C102.176 104.875 110.294 109.499 119.235 111.004C128.176 112.508 137.361 110.794 145.158 106.168C152.955 101.541 158.86 94.3007 161.824 85.7325V85.704Z" fill="#318CFF"/>
<path opacity="0.1" d="M161.824 85.704V86.0076C161.847 92.1809 160.436 98.2752 157.701 103.81C154.966 109.344 150.984 114.168 146.066 117.901C141.149 121.633 135.432 124.172 129.366 125.318C123.3 126.463 117.05 126.184 111.111 124.502C105.171 122.819 99.7034 119.78 95.1388 115.624C90.5742 111.468 87.0376 106.308 84.8078 100.551C82.578 94.7948 81.7159 88.5989 82.2897 82.4523C82.8634 76.3057 84.8572 70.3764 88.1139 65.132C87.5484 67.7801 87.2622 70.4803 87.2599 73.1881C87.2572 82.2546 90.468 91.0286 96.322 97.9518C102.176 104.875 110.294 109.499 119.235 111.004C128.176 112.508 137.361 110.794 145.158 106.168C152.955 101.541 158.86 94.3007 161.824 85.7325V85.704Z" fill="black"/>
<path d="M103.676 99.425C97.6838 99.4311 91.9176 101.714 87.5449 105.811C91.4623 112.677 97.3423 118.215 104.43 121.715C111.518 125.215 119.49 126.517 127.323 125.453C127.398 124.694 127.436 123.916 127.436 123.138C127.435 120.02 126.819 116.933 125.624 114.054C124.429 111.174 122.678 108.559 120.471 106.356C118.265 104.154 115.646 102.408 112.764 101.219C109.882 100.03 106.794 99.42 103.676 99.425Z" fill="#318CFF"/>
<path opacity="0.1" d="M103.676 99.425C97.6838 99.4311 91.9176 101.714 87.5449 105.811C91.4623 112.677 97.3423 118.215 104.43 121.715C111.518 125.215 119.49 126.517 127.323 125.453C127.398 124.694 127.436 123.916 127.436 123.138C127.435 120.02 126.819 116.933 125.624 114.054C124.429 111.174 122.678 108.559 120.471 106.356C118.265 104.154 115.646 102.408 112.764 101.219C109.882 100.03 106.794 99.42 103.676 99.425Z" fill="black"/>
<path d="M161.824 86.4631C157.484 86.7551 153.264 88.0056 149.466 90.1247C145.668 92.2437 142.387 95.1785 139.86 98.7178C137.332 102.257 135.621 106.313 134.85 110.593C134.078 114.873 134.265 119.271 135.397 123.47C143.05 120.732 149.683 115.72 154.406 109.106C159.13 102.491 161.718 94.5904 161.824 86.4631Z" fill="#318CFF"/>
<path opacity="0.1" d="M161.824 86.4631C157.484 86.7551 153.264 88.0056 149.466 90.1247C145.668 92.2437 142.387 95.1785 139.86 98.7178C137.332 102.257 135.621 106.313 134.85 110.593C134.078 114.873 134.265 119.271 135.397 123.47C143.05 120.732 149.683 115.72 154.406 109.106C159.13 102.491 161.718 94.5904 161.824 86.4631Z" fill="black"/>
<path d="M109.777 90.5244C111.983 91.9381 114.536 92.7182 117.155 92.7792C119.775 92.8401 122.361 92.1797 124.63 90.8702C126.9 89.5606 128.765 87.6522 130.023 85.3537C131.281 83.0553 131.883 80.4551 131.763 77.8377C132.744 77.1244 133.592 76.2444 134.268 75.2377C133.364 75.642 132.405 75.9075 131.422 76.0253C132.471 75.3993 133.254 74.41 133.623 73.245C132.638 73.8332 131.56 74.2473 130.435 74.4691C129.675 73.6746 128.675 73.151 127.589 72.9785C126.504 72.8061 125.391 72.9942 124.422 73.5141C123.454 74.034 122.682 74.857 122.225 75.8573C121.769 76.8575 121.653 77.9797 121.895 79.0523C119.897 78.9539 117.943 78.4358 116.159 77.5317C114.376 76.6276 112.802 75.3577 111.542 73.8049C110.901 74.9107 110.704 76.2189 110.991 77.4646C111.278 78.7102 112.028 79.8001 113.089 80.5136C112.29 80.4845 111.51 80.2667 110.812 79.8778C110.799 81.0487 111.195 82.1875 111.931 83.0983C112.667 84.0092 113.697 84.6353 114.844 84.869C114.105 85.0739 113.329 85.1032 112.577 84.9544C112.896 85.9545 113.521 86.8293 114.363 87.4557C115.206 88.0821 116.224 88.4286 117.274 88.4463C116.224 89.2716 115.021 89.8803 113.734 90.237C112.447 90.5938 111.102 90.6914 109.777 90.5244Z" fill="white"/>
<path d="M156.258 179.489C168.46 167.287 168.46 147.502 156.258 135.299C144.055 123.097 124.27 123.097 112.068 135.299C99.8649 147.502 99.8649 167.287 112.068 179.489C124.27 191.692 144.055 191.692 156.258 179.489Z" fill="#318CFF"/>
<path opacity="0.3" d="M138.538 126.459C138.363 127.774 138.274 129.099 138.272 130.425C138.268 134.932 139.28 139.382 141.231 143.445C143.183 147.507 146.025 151.078 149.545 153.891C147.838 155.972 146.557 158.369 145.777 160.945C144.996 163.521 144.73 166.226 144.994 168.904C145.259 171.583 146.048 174.183 147.317 176.557C148.587 178.93 150.311 181.031 152.392 182.738C157.45 179.097 161.303 174.026 163.456 168.178C165.609 162.329 165.964 155.97 164.474 149.919C162.985 143.867 159.719 138.4 155.097 134.219C150.475 130.039 144.708 127.336 138.538 126.459Z" fill="#318CFF"/>
<path opacity="0.1" d="M138.538 126.459C138.363 127.774 138.274 129.099 138.272 130.425C138.268 134.932 139.28 139.382 141.231 143.445C143.183 147.507 146.025 151.078 149.545 153.891C147.838 155.972 146.557 158.369 145.777 160.945C144.996 163.521 144.73 166.226 144.994 168.904C145.259 171.583 146.048 174.183 147.317 176.557C148.587 178.93 150.311 181.031 152.392 182.738C157.45 179.097 161.303 174.026 163.456 168.178C165.609 162.329 165.964 155.97 164.474 149.919C162.985 143.867 159.719 138.4 155.097 134.219C150.475 130.039 144.708 127.336 138.538 126.459Z" fill="black"/>
<path d="M165.401 157.156V157.393C165.392 162.218 164.266 166.976 162.11 171.293C159.954 175.611 156.828 179.37 152.976 182.276C149.124 185.183 144.651 187.158 139.908 188.047C135.165 188.935 130.281 188.713 125.638 187.398C120.995 186.083 116.72 183.71 113.147 180.466C109.575 177.222 106.803 173.194 105.048 168.699C103.292 164.204 102.602 159.364 103.031 154.558C103.46 149.751 104.996 145.109 107.519 140.996C105.863 148.51 107.148 156.373 111.111 162.969C115.074 169.564 121.413 174.391 128.825 176.457C136.237 178.523 144.159 177.67 150.962 174.075C157.765 170.48 162.932 164.415 165.401 157.127V157.156Z" fill="#318CFF"/>
<path d="M165.401 157.156V157.393C165.392 162.218 164.266 166.976 162.11 171.293C159.954 175.611 156.828 179.37 152.976 182.276C149.124 185.183 144.651 187.158 139.908 188.047C135.165 188.935 130.281 188.713 125.638 187.398C120.995 186.083 116.72 183.71 113.147 180.466C109.575 177.222 106.803 173.194 105.048 168.699C103.292 164.204 102.602 159.364 103.031 154.558C103.46 149.751 104.996 145.109 107.519 140.996C105.863 148.51 107.148 156.373 111.111 162.969C115.074 169.564 121.413 174.391 128.825 176.457C136.237 178.523 144.159 177.67 150.962 174.075C157.765 170.48 162.932 164.415 165.401 157.127V157.156Z" fill="#318CFF"/>
<g opacity="0.1">
<path d="M165.401 157.156V157.393C165.392 162.218 164.266 166.976 162.11 171.293C159.954 175.611 156.828 179.37 152.976 182.276C149.124 185.183 144.651 187.158 139.908 188.047C135.165 188.935 130.281 188.713 125.638 187.398C120.995 186.083 116.72 183.71 113.147 180.466C109.575 177.222 106.803 173.194 105.048 168.699C103.292 164.204 102.602 159.364 103.031 154.558C103.46 149.751 104.996 145.109 107.519 140.996C105.863 148.51 107.148 156.373 111.111 162.969C115.074 169.564 121.413 174.391 128.825 176.457C136.237 178.523 144.159 177.67 150.962 174.075C157.765 170.48 162.932 164.415 165.401 157.127V157.156Z" fill="black"/>
<path d="M165.401 157.156V157.393C165.392 162.218 164.266 166.976 162.11 171.293C159.954 175.611 156.828 179.37 152.976 182.276C149.124 185.183 144.651 187.158 139.908 188.047C135.165 188.935 130.281 188.713 125.638 187.398C120.995 186.083 116.72 183.71 113.147 180.466C109.575 177.222 106.803 173.194 105.048 168.699C103.292 164.204 102.602 159.364 103.031 154.558C103.46 149.751 104.996 145.109 107.519 140.996C105.863 148.51 107.148 156.373 111.111 162.969C115.074 169.564 121.413 174.391 128.825 176.457C136.237 178.523 144.159 177.67 150.962 174.075C157.765 170.48 162.932 164.415 165.401 157.127V157.156Z" fill="black"/>
</g>
<path d="M128.413 162.726C129.004 162.609 129.562 162.363 130.045 162.004C130.565 161.596 130.985 161.074 131.273 160.479C131.561 159.884 131.709 159.231 131.706 158.569C131.727 157.825 131.533 157.09 131.146 156.453C130.747 155.855 130.159 155.408 129.476 155.182C129.893 154.985 130.267 154.708 130.577 154.366C131.044 153.759 131.28 153.005 131.241 152.24C131.262 151.456 131.033 150.685 130.586 150.039C130.129 149.506 129.551 149.089 128.902 148.821C128.252 148.554 127.548 148.445 126.848 148.502H119.883V162.925H126.373C127.058 162.93 127.742 162.863 128.413 162.726ZM122.72 151.007H125.851C126.429 150.991 127.006 151.067 127.559 151.235C127.813 151.345 128.024 151.533 128.163 151.772C128.301 152.011 128.359 152.288 128.328 152.563C128.355 152.807 128.315 153.055 128.213 153.278C128.111 153.502 127.951 153.694 127.749 153.834C127.281 154.088 126.753 154.209 126.221 154.186H122.72V151.007ZM122.72 160.42V156.577H126.269C126.758 156.557 127.245 156.638 127.702 156.814C128.003 156.939 128.256 157.156 128.427 157.434C128.597 157.711 128.676 158.036 128.651 158.361C128.691 158.722 128.623 159.087 128.453 159.408C128.284 159.73 128.022 159.993 127.702 160.164C127.243 160.356 126.747 160.444 126.25 160.42H122.72Z" fill="white"/>
<path d="M134.145 161.976C135.214 162.85 136.56 163.314 137.941 163.285C138.681 163.328 139.421 163.211 140.112 162.943C140.803 162.674 141.428 162.26 141.945 161.729C142.485 161.224 142.848 160.559 142.979 159.831H140.133C139.94 160.223 139.635 160.549 139.256 160.767C138.878 160.985 138.443 161.085 138.007 161.056C137.466 161.073 136.932 160.931 136.47 160.648C136.105 160.401 135.811 160.064 135.614 159.67C135.418 159.276 135.327 158.838 135.35 158.399H143.122C143.144 157.692 143.112 156.985 143.027 156.283C142.915 155.495 142.626 154.742 142.182 154.081C141.73 153.389 141.088 152.842 140.332 152.506C139.542 152.162 138.688 151.991 137.827 152.003C137.127 151.979 136.429 152.098 135.777 152.353C135.124 152.607 134.531 152.992 134.031 153.483C133.516 154.058 133.121 154.731 132.87 155.461C132.619 156.191 132.517 156.964 132.57 157.734C132.496 158.514 132.599 159.301 132.872 160.036C133.145 160.77 133.58 161.433 134.145 161.976ZM136.138 154.888C136.358 154.678 136.619 154.515 136.905 154.411C137.191 154.306 137.495 154.262 137.798 154.28C138.403 154.26 138.994 154.463 139.459 154.85C139.69 155.067 139.875 155.328 140.002 155.618C140.129 155.909 140.196 156.222 140.199 156.539H135.398C135.454 155.921 135.714 155.34 136.138 154.888Z" fill="white"/>
<path d="M140.749 149.337H134.486V150.789H140.749V149.337Z" fill="white"/>
<path d="M220.542 142.476C238.171 142.476 252.463 128.185 252.463 110.555C252.463 92.9261 238.171 78.6347 220.542 78.6347C202.913 78.6347 188.621 92.9261 188.621 110.555C188.621 128.185 202.913 142.476 220.542 142.476Z" fill="#318CFF"/>
<path opacity="0.2" d="M252.453 110.318V110.555C252.451 115.49 251.305 120.356 249.105 124.773C246.906 129.19 243.712 133.037 239.775 136.011C235.838 138.986 231.265 141.007 226.415 141.917C221.566 142.826 216.571 142.599 211.824 141.253C207.077 139.907 202.706 137.478 199.056 134.159C195.405 130.839 192.574 126.718 190.785 122.12C188.995 117.521 188.296 112.571 188.742 107.657C189.188 102.743 190.767 97.9989 193.356 93.798C192.905 95.9226 192.676 98.0882 192.673 100.26C192.67 107.529 195.244 114.563 199.938 120.114C204.631 125.665 211.14 129.372 218.308 130.578C225.476 131.785 232.839 130.411 239.091 126.702C245.342 122.993 250.076 117.188 252.453 110.318Z" fill="black"/>
<path d="M193.109 94.2345C189.145 100.895 187.741 108.771 189.159 116.391C190.577 124.011 194.719 130.855 200.814 135.644C203.084 132.439 204.688 128.811 205.531 124.974C206.373 121.138 206.437 117.171 205.719 113.31C205 109.448 203.514 105.77 201.348 102.494C199.182 99.217 196.38 96.4085 193.109 94.2345Z" fill="#318CFF"/>
<path opacity="0.1" d="M193.109 94.2345C189.145 100.895 187.741 108.771 189.159 116.391C190.577 124.011 194.719 130.855 200.814 135.644C203.084 132.439 204.688 128.811 205.531 124.974C206.373 121.138 206.437 117.171 205.719 113.31C205 109.448 203.514 105.77 201.348 102.494C199.182 99.217 196.38 96.4085 193.109 94.2345Z" fill="#318CFF"/>
<g opacity="0.1">
<path d="M193.109 94.2345C189.145 100.895 187.741 108.771 189.159 116.391C190.577 124.011 194.719 130.855 200.814 135.644C203.084 132.439 204.688 128.811 205.531 124.974C206.373 121.138 206.437 117.171 205.719 113.31C205 109.448 203.514 105.77 201.348 102.494C199.182 99.217 196.38 96.4085 193.109 94.2345Z" fill="black"/>
<path opacity="0.1" d="M193.109 94.2345C189.145 100.895 187.741 108.771 189.159 116.391C190.577 124.011 194.719 130.855 200.814 135.644C203.084 132.439 204.688 128.811 205.531 124.974C206.373 121.138 206.437 117.171 205.719 113.31C205 109.448 203.514 105.77 201.348 102.494C199.182 99.217 196.38 96.4085 193.109 94.2345Z" fill="black"/>
</g>
<path d="M216.869 109.692C216.945 109.732 217.029 109.754 217.115 109.755C217.201 109.757 217.285 109.737 217.362 109.699C217.439 109.661 217.506 109.606 217.557 109.537C217.608 109.468 217.642 109.388 217.656 109.303C217.732 109.028 217.903 108.354 217.979 108.041C218.039 107.89 218.05 107.724 218.009 107.567C217.968 107.41 217.878 107.27 217.751 107.168C217.039 106.306 216.671 105.211 216.717 104.094C216.705 103.086 216.898 102.086 217.284 101.155C217.671 100.225 218.243 99.3826 218.966 98.6803C219.688 97.9779 220.547 97.4302 221.488 97.0704C222.429 96.7107 223.434 96.5465 224.441 96.5878C228.645 96.5878 230.96 99.1593 230.96 102.594C230.96 107.12 228.958 110.935 225.988 110.935C225.608 110.954 225.228 110.884 224.88 110.73C224.532 110.576 224.226 110.342 223.985 110.047C223.744 109.753 223.575 109.406 223.493 109.034C223.411 108.663 223.417 108.277 223.511 107.908C223.986 105.925 224.896 103.78 224.896 102.348C224.933 102.05 224.906 101.748 224.815 101.462C224.725 101.175 224.575 100.912 224.374 100.689C224.174 100.466 223.928 100.288 223.653 100.169C223.378 100.049 223.08 99.9893 222.78 99.9943C221.11 99.9943 219.763 101.731 219.763 104.056C219.752 104.908 219.923 105.752 220.266 106.532L218.245 115.072C217.889 117.038 217.873 119.05 218.197 121.022C218.204 121.062 218.222 121.099 218.249 121.129C218.277 121.159 218.312 121.18 218.351 121.19C218.391 121.2 218.432 121.198 218.47 121.185C218.509 121.172 218.542 121.148 218.567 121.117C219.814 119.588 220.778 117.85 221.414 115.983C221.604 115.29 222.515 111.675 222.515 111.675C222.934 112.292 223.501 112.794 224.164 113.135C224.827 113.476 225.565 113.647 226.31 113.63C231.358 113.63 234.774 109.037 234.774 102.888C234.774 98.2294 230.837 93.9024 224.849 93.9024C217.4 93.9024 213.643 99.2447 213.643 103.695C213.662 106.399 214.686 108.838 216.869 109.692Z" fill="white"/>
<path d="M253.729 181.235C264.483 170.481 264.483 153.045 253.729 142.292C242.975 131.538 225.54 131.538 214.786 142.292C204.032 153.045 204.032 170.481 214.786 181.235C225.54 191.988 242.975 191.988 253.729 181.235Z" fill="#318CFF"/>
<path d="M261.781 161.558V161.767C261.769 166.015 260.773 170.202 258.873 174.001C256.972 177.8 254.218 181.107 250.826 183.664C247.433 186.22 243.495 187.957 239.32 188.737C235.145 189.518 230.845 189.321 226.759 188.163C222.672 187.005 218.909 184.916 215.764 182.06C212.619 179.205 210.179 175.66 208.633 171.704C207.086 167.747 206.477 163.487 206.853 159.256C207.228 155.025 208.578 150.938 210.797 147.316C210.407 149.147 210.209 151.013 210.208 152.886C210.204 159.158 212.423 165.229 216.472 170.02C220.521 174.811 226.138 178.01 232.324 179.051C238.509 180.091 244.864 178.904 250.257 175.701C255.65 172.499 259.734 167.488 261.781 161.558Z" fill="#318CFF"/>
<path opacity="0.2" d="M261.781 161.558V161.767C261.769 166.015 260.773 170.202 258.873 174.001C256.972 177.8 254.218 181.107 250.826 183.664C247.433 186.22 243.495 187.957 239.32 188.737C235.145 189.518 230.845 189.321 226.759 188.163C222.672 187.005 218.909 184.916 215.764 182.06C212.619 179.205 210.179 175.66 208.633 171.704C207.086 167.747 206.477 163.487 206.853 159.256C207.228 155.025 208.578 150.938 210.797 147.316C210.407 149.147 210.209 151.013 210.208 152.886C210.204 159.158 212.423 165.229 216.472 170.02C220.521 174.811 226.138 178.01 232.324 179.051C238.509 180.091 244.864 178.904 250.257 175.701C255.65 172.499 259.734 167.488 261.781 161.558Z" fill="black"/>
<path d="M206.706 161.767C206.686 167.296 208.34 172.702 211.451 177.272C215.387 176.125 218.943 173.94 221.744 170.946C224.546 167.953 226.49 164.26 227.373 160.256C228.256 156.252 228.045 152.084 226.763 148.19C225.481 144.295 223.175 140.817 220.086 138.121C216 140.568 212.619 144.033 210.274 148.178C207.929 152.322 206.7 157.005 206.706 161.767Z" fill="#318CFF"/>
<path opacity="0.1" d="M206.706 161.767C206.686 167.296 208.34 172.702 211.451 177.272C215.387 176.125 218.943 173.94 221.744 170.946C224.546 167.953 226.49 164.26 227.373 160.256C228.256 156.252 228.045 152.084 226.763 148.19C225.481 144.295 223.175 140.817 220.086 138.121C216 140.568 212.619 144.033 210.274 148.178C207.929 152.322 206.7 157.005 206.706 161.767Z" fill="black"/>
<path d="M236.056 155.742H232.346V167.736H236.056V155.742Z" fill="white"/>
<path d="M234.177 154.176C234.615 154.18 235.045 154.053 235.411 153.813C235.777 153.572 236.063 153.228 236.233 152.824C236.404 152.421 236.45 151.976 236.367 151.546C236.284 151.115 236.075 150.72 235.766 150.409C235.458 150.098 235.064 149.885 234.635 149.798C234.205 149.711 233.76 149.754 233.355 149.921C232.95 150.088 232.603 150.371 232.359 150.735C232.116 151.099 231.985 151.527 231.985 151.965C231.985 152.548 232.216 153.108 232.626 153.522C233.037 153.936 233.594 154.171 234.177 154.176Z" fill="white"/>
<path d="M241.968 161.445C241.968 159.756 242.746 158.75 244.235 158.75C245.725 158.75 246.247 159.699 246.247 161.445V167.736H249.948V160.145C249.948 156.937 248.126 155.4 245.583 155.4C244.86 155.39 244.147 155.568 243.514 155.916C242.88 156.263 242.348 156.769 241.968 157.383V155.761H238.409V167.755H241.968V161.445Z" fill="white"/>
<path d="M202.797 173.771C214.63 173.771 224.223 164.178 224.223 152.345C224.223 140.511 214.63 130.919 202.797 130.919C190.964 130.919 181.371 140.511 181.371 152.345C181.371 164.178 190.964 173.771 202.797 173.771Z" fill="#318CFF"/>
<path d="M224.223 152.183V152.345C224.221 155.656 223.451 158.922 221.974 161.886C220.498 164.849 218.354 167.43 215.712 169.426C213.07 171.422 210.001 172.779 206.747 173.389C203.492 174 200.14 173.847 196.955 172.944C193.769 172.041 190.836 170.412 188.385 168.185C185.935 165.958 184.034 163.193 182.832 160.107C181.63 157.022 181.16 153.7 181.458 150.402C181.756 147.104 182.814 143.92 184.55 141.1C184.247 142.526 184.094 143.979 184.094 145.437C184.104 150.31 185.838 155.023 188.989 158.74C192.14 162.458 196.505 164.941 201.311 165.749C206.117 166.556 211.054 165.638 215.247 163.155C219.441 160.672 222.62 156.786 224.223 152.183Z" fill="#318CFF"/>
<path opacity="0.2" d="M224.223 152.183V152.345C224.221 155.656 223.451 158.922 221.974 161.886C220.498 164.849 218.354 167.43 215.712 169.426C213.07 171.422 210.001 172.779 206.747 173.389C203.492 174 200.14 173.847 196.955 172.944C193.769 172.041 190.836 170.412 188.385 168.185C185.935 165.958 184.034 163.193 182.832 160.107C181.63 157.022 181.16 153.7 181.458 150.402C181.756 147.104 182.814 143.92 184.55 141.1C184.247 142.526 184.094 143.979 184.094 145.437C184.104 150.31 185.838 155.023 188.989 158.74C192.14 162.458 196.505 164.941 201.311 165.749C206.117 166.556 211.054 165.638 215.247 163.155C219.441 160.672 222.62 156.786 224.223 152.183Z" fill="black"/>
<path d="M192.502 145.124L197.654 148.397L202.797 145.124L197.654 141.84L192.502 145.124Z" fill="white"/>
<path d="M202.788 145.124L207.941 148.397L213.093 145.124L207.941 141.84L202.788 145.124Z" fill="white"/>
<path d="M192.502 151.633L197.654 154.916L202.797 151.633L197.654 148.35L192.502 151.633Z" fill="white"/>
<path d="M207.941 148.35L202.788 151.633L207.941 154.916L213.093 151.633L207.941 148.35Z" fill="white"/>
<path d="M197.683 155.998L202.835 159.281L207.978 155.998L202.835 152.724L197.683 155.998Z" fill="white"/>
<path d="M190.798 141.294C202.271 129.821 202.271 111.22 190.798 99.7474C179.325 88.2747 160.724 88.2747 149.252 99.7474C137.779 111.22 137.779 129.821 149.252 141.294C160.724 152.766 179.325 152.766 190.798 141.294Z" fill="#318CFF"/>
<path opacity="0.7" d="M199.4 120.301V120.519C199.419 125.077 198.379 129.577 196.36 133.664C194.342 137.751 191.402 141.313 187.772 144.07C184.141 146.826 179.92 148.7 175.441 149.546C170.962 150.391 166.347 150.184 161.962 148.941C157.577 147.698 153.54 145.452 150.171 142.382C146.802 139.312 144.193 135.501 142.549 131.249C140.905 126.998 140.272 122.422 140.699 117.884C141.126 113.346 142.602 108.969 145.01 105.099C143.495 112.145 144.726 119.503 148.452 125.671C152.179 131.839 158.118 136.353 165.059 138.29C172 140.228 179.419 139.443 185.801 136.096C192.183 132.749 197.047 127.093 199.4 120.282V120.301Z" fill="#318CFF"/>
<g opacity="0.1">
<path opacity="0.7" d="M199.4 120.301V120.519C199.419 125.077 198.379 129.577 196.36 133.664C194.342 137.751 191.402 141.313 187.772 144.07C184.141 146.826 179.92 148.7 175.441 149.546C170.962 150.391 166.347 150.184 161.962 148.941C157.577 147.698 153.54 145.452 150.171 142.382C146.802 139.312 144.193 135.501 142.549 131.249C140.905 126.998 140.272 122.422 140.699 117.884C141.126 113.346 142.602 108.969 145.01 105.099C143.495 112.145 144.726 119.503 148.452 125.671C152.179 131.839 158.118 136.353 165.059 138.29C172 140.228 179.419 139.443 185.801 136.096C192.183 132.749 197.047 127.093 199.4 120.282V120.301Z" fill="black"/>
</g>
<path d="M170.686 105.517C168.027 105.509 165.426 106.291 163.211 107.763C160.996 109.235 159.268 111.33 158.246 113.785C157.223 116.239 156.951 118.942 157.465 121.551C157.98 124.16 159.256 126.558 161.134 128.441C163.011 130.324 165.406 131.607 168.013 132.128C170.62 132.65 173.324 132.386 175.781 131.37C178.239 130.354 180.339 128.632 181.817 126.422C183.296 124.212 184.085 121.612 184.085 118.953C184.085 115.396 182.674 111.984 180.163 109.466C177.651 106.947 174.243 105.527 170.686 105.517ZM176.863 124.969C176.81 125.065 176.737 125.149 176.649 125.216C176.562 125.282 176.461 125.33 176.354 125.356C176.247 125.382 176.136 125.385 176.028 125.366C175.92 125.347 175.816 125.305 175.725 125.244C172.565 123.29 168.608 122.891 163.902 123.963C163.689 124.013 163.466 123.978 163.278 123.867C163.091 123.755 162.954 123.576 162.896 123.366C162.846 123.152 162.88 122.927 162.992 122.738C163.103 122.549 163.283 122.41 163.494 122.35C168.608 121.212 173.039 121.686 176.531 123.831C176.632 123.879 176.722 123.948 176.794 124.033C176.866 124.119 176.92 124.218 176.951 124.326C176.983 124.433 176.991 124.546 176.976 124.657C176.961 124.768 176.922 124.874 176.863 124.969ZM178.477 121.278C178.414 121.4 178.326 121.507 178.218 121.591C178.11 121.676 177.984 121.736 177.851 121.768C177.717 121.799 177.579 121.802 177.444 121.774C177.31 121.747 177.183 121.691 177.072 121.61C175.057 120.481 172.837 119.763 170.542 119.499C168.246 119.235 165.922 119.43 163.702 120.073C163.572 120.121 163.433 120.142 163.294 120.135C163.155 120.127 163.019 120.092 162.895 120.03C162.77 119.969 162.659 119.882 162.569 119.777C162.479 119.671 162.411 119.548 162.37 119.415C162.328 119.282 162.315 119.143 162.329 119.004C162.344 118.866 162.386 118.732 162.454 118.611C162.522 118.49 162.614 118.383 162.724 118.299C162.834 118.214 162.96 118.153 163.095 118.118C165.609 117.402 168.24 117.193 170.835 117.504C173.43 117.815 175.938 118.64 178.211 119.931C178.419 120.07 178.564 120.285 178.613 120.531C178.663 120.776 178.614 121.031 178.477 121.24V121.278ZM178.609 117.482C174.311 114.93 167.128 114.636 163.029 115.936C162.874 115.986 162.711 116.006 162.549 115.993C162.387 115.981 162.229 115.936 162.084 115.863C161.939 115.789 161.81 115.688 161.704 115.564C161.599 115.441 161.518 115.298 161.468 115.143C161.417 114.989 161.398 114.826 161.41 114.664C161.423 114.502 161.467 114.344 161.541 114.199C161.614 114.054 161.716 113.925 161.839 113.819C161.962 113.713 162.106 113.633 162.26 113.582C167.004 112.169 174.89 112.444 179.862 115.395C180.152 115.567 180.364 115.846 180.453 116.172C180.541 116.498 180.5 116.845 180.336 117.141C180.129 117.383 179.845 117.549 179.532 117.611C179.219 117.673 178.894 117.627 178.609 117.482Z" fill="white"/>
<path d="M169.197 189.209C180.26 189.209 189.228 180.241 189.228 169.178C189.228 158.115 180.26 149.147 169.197 149.147C158.134 149.147 149.166 158.115 149.166 169.178C149.166 180.241 158.134 189.209 169.197 189.209Z" fill="#318CFF"/>
<path d="M189.228 169.026V169.178C189.228 172.275 188.51 175.329 187.13 178.102C185.75 180.874 183.746 183.289 181.275 185.156C178.805 187.023 175.935 188.292 172.891 188.863C169.847 189.434 166.713 189.292 163.733 188.447C160.754 187.603 158.011 186.079 155.72 183.995C153.429 181.911 151.652 179.325 150.529 176.439C149.406 173.553 148.968 170.446 149.248 167.362C149.529 164.278 150.52 161.301 152.146 158.664C151.863 159.996 151.719 161.354 151.719 162.716C151.726 167.272 153.346 171.678 156.291 175.155C159.236 178.631 163.316 180.952 167.809 181.708C172.302 182.464 176.917 181.605 180.838 179.284C184.758 176.963 187.731 173.329 189.228 169.026Z" fill="#318CFF"/>
<path opacity="0.2" d="M189.228 169.026V169.178C189.228 172.275 188.51 175.329 187.13 178.102C185.75 180.874 183.746 183.289 181.275 185.156C178.805 187.023 175.935 188.292 172.891 188.863C169.847 189.434 166.713 189.292 163.733 188.447C160.754 187.603 158.011 186.079 155.72 183.995C153.429 181.911 151.652 179.325 150.529 176.439C149.406 173.553 148.968 170.446 149.248 167.362C149.529 164.278 150.52 161.301 152.146 158.664C151.863 159.996 151.719 161.354 151.719 162.716C151.726 167.272 153.346 171.678 156.291 175.155C159.236 178.631 163.316 180.952 167.809 181.708C172.302 182.464 176.917 181.605 180.838 179.284C184.758 176.963 187.731 173.329 189.228 169.026Z" fill="#318CFF"/>
<g opacity="0.1">
<path d="M189.228 169.026V169.178C189.228 172.275 188.51 175.329 187.13 178.102C185.75 180.874 183.746 183.289 181.275 185.156C178.805 187.023 175.935 188.292 172.891 188.863C169.847 189.434 166.713 189.292 163.733 188.447C160.754 187.603 158.011 186.079 155.72 183.995C153.429 181.911 151.652 179.325 150.529 176.439C149.406 173.553 148.968 170.446 149.248 167.362C149.529 164.278 150.52 161.301 152.146 158.664C151.863 159.996 151.719 161.354 151.719 162.716C151.726 167.272 153.346 171.678 156.291 175.155C159.236 178.631 163.316 180.952 167.809 181.708C172.302 182.464 176.917 181.605 180.838 179.284C184.758 176.963 187.731 173.329 189.228 169.026Z" fill="black"/>
<path opacity="0.2" d="M189.228 169.026V169.178C189.228 172.275 188.51 175.329 187.13 178.102C185.75 180.874 183.746 183.289 181.275 185.156C178.805 187.023 175.935 188.292 172.891 188.863C169.847 189.434 166.713 189.292 163.733 188.447C160.754 187.603 158.011 186.079 155.72 183.995C153.429 181.911 151.652 179.325 150.529 176.439C149.406 173.553 148.968 170.446 149.248 167.362C149.529 164.278 150.52 161.301 152.146 158.664C151.863 159.996 151.719 161.354 151.719 162.716C151.726 167.272 153.346 171.678 156.291 175.155C159.236 178.631 163.316 180.952 167.809 181.708C172.302 182.464 176.917 181.605 180.838 179.284C184.758 176.963 187.731 173.329 189.228 169.026Z" fill="black"/>
</g>
<path d="M161.131 167.669C161.13 168.851 161.362 170.021 161.814 171.113C162.265 172.205 162.928 173.197 163.763 174.033C164.599 174.868 165.591 175.531 166.683 175.983C167.775 176.434 168.945 176.666 170.127 176.665C170.691 176.665 171.253 176.611 171.806 176.504C172.603 176.985 173.513 177.246 174.443 177.259C175.374 177.273 176.291 177.039 177.101 176.581C177.912 176.123 178.586 175.458 179.054 174.654C179.523 173.85 179.769 172.936 179.768 172.006C179.772 171.029 179.499 170.072 178.98 169.245C179.071 168.724 179.119 168.197 179.122 167.669C179.12 165.284 178.171 162.998 176.485 161.311C174.799 159.625 172.512 158.676 170.127 158.674C169.57 158.674 169.013 158.728 168.466 158.835C167.461 158.247 166.289 158.01 165.134 158.161C163.98 158.312 162.908 158.843 162.088 159.671C161.268 160.498 160.747 161.574 160.607 162.73C160.466 163.887 160.714 165.057 161.312 166.056C161.203 166.587 161.142 167.127 161.131 167.669ZM170.222 161.283C173.125 161.454 174.824 162.726 174.966 163.921C174.992 164.105 174.975 164.292 174.918 164.468C174.86 164.645 174.763 164.806 174.634 164.939C174.505 165.073 174.348 165.175 174.174 165.239C173.999 165.302 173.813 165.326 173.628 165.307C172.319 165.307 172.186 163.551 169.928 163.551C168.912 163.551 168.03 163.978 168.03 164.899C168.03 166.796 175.27 165.705 175.27 169.928C175.27 172.366 173.315 173.961 170.402 173.961C167.84 173.961 165.269 172.803 165.278 170.801C165.27 170.509 165.375 170.226 165.572 170.01C165.768 169.794 166.04 169.663 166.331 169.643C167.84 169.643 167.831 171.892 170.231 171.892C171.92 171.892 172.49 170.943 172.49 170.326C172.49 168.011 165.212 169.434 165.212 165.079C165.25 162.707 167.185 161.084 170.222 161.264V161.283Z" fill="white"/>
<path d="M122.907 131.44C125.884 118.687 117.959 105.935 105.205 102.958C92.452 99.9804 79.6999 107.906 76.7227 120.659C73.7455 133.412 81.6707 146.164 94.424 149.142C107.177 152.119 119.929 144.194 122.907 131.44Z" fill="#318CFF"/>
<path opacity="0.5" d="M123.527 125.918V126.098C123.519 129.765 122.661 133.379 121.022 136.658C119.382 139.938 117.004 142.792 114.075 144.998C111.147 147.203 107.747 148.7 104.142 149.371C100.538 150.041 96.8269 149.867 93.301 148.862C89.7752 147.857 86.5302 146.048 83.821 143.578C81.1118 141.107 79.0121 138.043 77.6866 134.624C76.3611 131.206 75.846 127.527 76.1817 123.876C76.5174 120.225 77.6948 116.702 79.6214 113.582C79.2887 115.161 79.1202 116.77 79.1184 118.384C79.1162 123.784 81.0282 129.01 84.5149 133.134C88.0016 137.258 92.8373 140.012 98.1627 140.908C103.488 141.803 108.959 140.782 113.603 138.026C118.246 135.269 121.762 130.956 123.527 125.852V125.918Z" fill="#318CFF"/>
<path opacity="0.1" d="M123.527 125.918V126.098C123.519 129.765 122.661 133.379 121.022 136.658C119.382 139.938 117.004 142.792 114.075 144.998C111.147 147.203 107.747 148.7 104.142 149.371C100.538 150.041 96.8269 149.867 93.301 148.862C89.7752 147.857 86.5302 146.048 83.821 143.578C81.1118 141.107 79.0121 138.043 77.6866 134.624C76.3611 131.206 75.846 127.527 76.1817 123.876C76.5174 120.225 77.6948 116.702 79.6214 113.582C79.2887 115.161 79.1202 116.77 79.1184 118.384C79.1162 123.784 81.0282 129.01 84.5149 133.134C88.0016 137.258 92.8373 140.012 98.1627 140.908C103.488 141.803 108.959 140.782 113.603 138.026C118.246 135.269 121.762 130.956 123.527 125.852V125.918Z" fill="black"/>
<path fill-rule="evenodd" clip-rule="evenodd" d="M108.895 127.674C108.709 127.576 108.512 127.502 108.307 127.455C107.342 127.126 106.499 126.515 105.887 125.7C105.545 125.262 105.27 124.776 105.071 124.258C105.021 124.162 104.995 124.057 104.995 123.949C104.995 123.842 105.021 123.736 105.071 123.641C105.289 123.39 105.576 123.208 105.897 123.119C106.304 123.001 106.685 122.804 107.016 122.54C107.086 122.488 107.142 122.42 107.178 122.341C107.179 122.312 107.179 122.284 107.178 122.255C107.196 122.21 107.206 122.162 107.206 122.113C107.206 122.064 107.196 122.016 107.178 121.971C107.088 121.808 106.948 121.678 106.779 121.601C106.677 121.544 106.565 121.508 106.449 121.497C106.333 121.486 106.216 121.498 106.105 121.534C105.91 121.607 105.71 121.667 105.508 121.714C105.284 121.777 105.048 121.777 104.824 121.714C104.828 121.667 104.828 121.62 104.824 121.572C104.824 121.164 104.824 120.737 104.824 120.301C104.881 119.622 104.881 118.939 104.824 118.26C104.584 117.102 103.904 116.081 102.927 115.414C102.238 114.915 101.429 114.61 100.583 114.531C100.305 114.517 100.026 114.517 99.7478 114.531C98.6025 114.511 97.4824 114.868 96.5595 115.547C95.8825 116.08 95.3506 116.775 95.0129 117.568C94.7509 118.365 94.6635 119.21 94.7566 120.044C94.7988 120.584 94.7988 121.127 94.7566 121.667C94.4903 121.719 94.2164 121.719 93.9501 121.667C93.7411 121.623 93.5352 121.566 93.3333 121.496C93.23 121.474 93.123 121.474 93.0198 121.497C92.9166 121.52 92.8196 121.565 92.7355 121.629C92.6455 121.676 92.5689 121.745 92.5125 121.83C92.4561 121.914 92.4219 122.012 92.4129 122.113C92.4451 122.243 92.5183 122.36 92.6216 122.445L92.8304 122.597C93.2255 122.825 93.6459 123.007 94.0829 123.138C94.2109 123.182 94.328 123.253 94.4262 123.347C94.5244 123.44 94.6015 123.553 94.6523 123.679C94.6814 124.011 94.6015 124.344 94.4245 124.628C93.9844 125.5 93.3318 126.247 92.5267 126.801C92.0983 127.093 91.6235 127.311 91.1224 127.446C90.9256 127.476 90.7468 127.577 90.6195 127.73C90.6236 127.749 90.6236 127.769 90.6195 127.787C90.5989 127.853 90.5951 127.924 90.6083 127.991C90.6216 128.059 90.6515 128.123 90.6954 128.176C90.7538 128.25 90.8285 128.308 90.9136 128.347C91.3209 128.557 91.7551 128.711 92.2041 128.803C92.4778 128.848 92.7475 128.914 93.0107 129.002C93.0107 129.002 93.0107 129.097 93.0961 129.22C93.1815 129.344 93.2005 129.723 93.2859 130.008C93.2992 130.047 93.3231 130.082 93.3548 130.109C93.3866 130.136 93.4251 130.153 93.4662 130.16C93.5643 130.195 93.6717 130.195 93.7698 130.16C94.4379 129.998 95.1316 129.972 95.8099 130.084C96.4852 130.344 97.1233 130.691 97.7077 131.118C98.1614 131.438 98.6919 131.631 99.2449 131.678C99.6778 131.707 100.112 131.707 100.545 131.678C100.906 131.639 101.253 131.519 101.56 131.327C102.201 130.908 102.863 130.521 103.543 130.169C103.803 130.1 104.072 130.068 104.34 130.074C104.899 130.055 105.457 130.084 106.011 130.16H106.067C106.142 130.145 106.209 130.105 106.257 130.046C106.274 130.032 106.288 130.014 106.297 129.995C106.307 129.975 106.313 129.954 106.314 129.932C106.314 129.846 106.314 129.875 106.314 129.932C106.319 129.916 106.319 129.9 106.314 129.884C106.372 129.592 106.481 129.313 106.637 129.059C106.738 128.984 106.862 128.947 106.988 128.955C107.443 128.88 107.888 128.756 108.316 128.584C108.527 128.517 108.714 128.392 108.857 128.224C108.887 128.181 108.908 128.132 108.918 128.08C108.929 128.029 108.928 127.976 108.918 127.924C108.907 127.873 108.886 127.824 108.856 127.781C108.826 127.738 108.788 127.701 108.743 127.674H108.895Z" fill="white"/>
<path d="M209.107 85.4383C212.714 72.261 204.956 58.6543 191.779 55.0469C178.601 51.4395 164.995 59.1975 161.387 72.3748C157.78 85.5522 165.538 99.1589 178.715 102.766C191.893 106.374 205.499 98.6157 209.107 85.4383Z" fill="#318CFF"/>
<path opacity="0.5" d="M209.97 78.7107V78.9004C209.965 82.7221 209.074 86.4904 207.367 89.9099C205.661 93.3294 203.185 96.307 200.135 98.6092C197.084 100.911 193.542 102.475 189.786 103.179C186.029 103.882 182.161 103.706 178.484 102.663C174.808 101.621 171.423 99.7404 168.594 97.17C165.766 94.5996 163.572 91.4089 162.184 87.8482C160.796 84.2875 160.252 80.4536 160.595 76.6474C160.937 72.8411 162.157 69.1659 164.158 65.9101C162.899 71.8365 163.945 78.0197 167.084 83.2021C170.222 88.3845 175.217 92.1767 181.052 93.8074C186.887 95.4381 193.124 94.7847 198.494 91.9803C203.864 89.1758 207.965 84.4309 209.961 78.7107H209.97Z" fill="#318CFF"/>
<path opacity="0.1" d="M209.97 78.7107V78.9004C209.965 82.7221 209.074 86.4904 207.367 89.9099C205.661 93.3294 203.185 96.307 200.135 98.6092C197.084 100.911 193.542 102.475 189.786 103.179C186.029 103.882 182.161 103.706 178.484 102.663C174.808 101.621 171.423 99.7404 168.594 97.17C165.766 94.5996 163.572 91.4089 162.184 87.8482C160.796 84.2875 160.252 80.4536 160.595 76.6474C160.937 72.8411 162.157 69.1659 164.158 65.9101C162.899 71.8365 163.945 78.0197 167.084 83.2021C170.222 88.3845 175.217 92.1767 181.052 93.8074C186.887 95.4381 193.124 94.7847 198.494 91.9803C203.864 89.1758 207.965 84.4309 209.961 78.7107H209.97Z" fill="#318CFF"/>
<g opacity="0.1">
<path opacity="0.5" d="M209.97 78.7107V78.9004C209.965 82.7221 209.074 86.4904 207.367 89.9099C205.661 93.3294 203.185 96.307 200.135 98.6092C197.084 100.911 193.542 102.475 189.786 103.179C186.029 103.882 182.161 103.706 178.484 102.663C174.808 101.621 171.423 99.7404 168.594 97.17C165.766 94.5996 163.572 91.4089 162.184 87.8482C160.796 84.2875 160.252 80.4536 160.595 76.6474C160.937 72.8411 162.157 69.1659 164.158 65.9101C162.899 71.8365 163.945 78.0197 167.084 83.2021C170.222 88.3845 175.217 92.1767 181.052 93.8074C186.887 95.4381 193.124 94.7847 198.494 91.9803C203.864 89.1758 207.965 84.4309 209.961 78.7107H209.97Z" fill="black"/>
<path opacity="0.1" d="M209.97 78.7107V78.9004C209.965 82.7221 209.074 86.4904 207.367 89.9099C205.661 93.3294 203.185 96.307 200.135 98.6092C197.084 100.911 193.542 102.475 189.786 103.179C186.029 103.882 182.161 103.706 178.484 102.663C174.808 101.621 171.423 99.7404 168.594 97.17C165.766 94.5996 163.572 91.4089 162.184 87.8482C160.796 84.2875 160.252 80.4536 160.595 76.6474C160.937 72.8411 162.157 69.1659 164.158 65.9101C162.899 71.8365 163.945 78.0197 167.084 83.2021C170.222 88.3845 175.217 92.1767 181.052 93.8074C186.887 95.4381 193.124 94.7847 198.494 91.9803C203.864 89.1758 207.965 84.4309 209.961 78.7107H209.97Z" fill="black"/>
</g>
<path fill-rule="evenodd" clip-rule="evenodd" d="M194.124 75.9684C194.042 73.7857 193.123 71.7186 191.556 70.1963C189.99 68.6741 187.897 67.8138 185.713 67.7943C183.529 67.7747 181.422 68.5974 179.828 70.0914C178.235 71.5853 177.279 73.6357 177.158 75.8165C177.158 75.9399 177.158 76.0632 177.158 76.1866C177.157 77.7192 177.577 79.2226 178.372 80.5325L176.845 85.0588L181.542 83.5595C182.801 84.2505 184.214 84.6128 185.65 84.6128C186.761 84.6165 187.861 84.4015 188.888 83.9801C189.915 83.5587 190.849 82.939 191.637 82.1566C192.425 81.3742 193.051 80.4442 193.479 79.4199C193.907 78.3956 194.13 77.2969 194.134 76.1866L194.124 75.9684ZM185.641 83.2653C184.244 83.2699 182.877 82.8605 181.713 82.0887L178.97 82.9712L179.862 80.3333C178.976 79.132 178.498 77.6791 178.496 76.1866C178.496 75.9494 178.496 75.7216 178.496 75.4939C178.671 73.7172 179.504 72.0703 180.833 70.8775C182.161 69.6848 183.888 69.0325 185.673 69.0492C187.459 69.0658 189.173 69.7502 190.479 70.9676C191.785 72.1849 192.587 73.8471 192.729 75.6268C192.729 75.8165 192.729 75.9968 192.729 76.1866C192.717 78.0618 191.966 79.8565 190.639 81.1816C189.312 82.5067 187.516 83.2554 185.641 83.2653Z" fill="white"/>
<path fill-rule="evenodd" clip-rule="evenodd" d="M189.532 77.8851C189.323 77.7807 188.298 77.2778 188.108 77.2114C187.919 77.145 187.776 77.107 187.634 77.3158C187.492 77.5245 187.093 77.9895 186.979 78.1223C186.865 78.2552 186.733 78.2741 186.524 78.1698C185.909 77.9342 185.342 77.5868 184.854 77.145C184.396 76.7336 184.006 76.2534 183.696 75.7216C183.673 75.6889 183.657 75.6519 183.649 75.6129C183.641 75.5739 183.641 75.5336 183.649 75.4946C183.657 75.4555 183.673 75.4185 183.696 75.3858C183.719 75.353 183.748 75.3252 183.781 75.3041C183.886 75.2092 183.99 75.0574 184.104 74.934L184.18 74.8391C184.227 74.7632 184.256 74.6873 184.303 74.5924C184.334 74.5373 184.35 74.4753 184.35 74.4121C184.35 74.349 184.334 74.287 184.303 74.2319C184.246 74.1275 183.829 73.1122 183.658 72.6947C183.487 72.2771 183.307 72.3531 183.184 72.3531H182.795C182.689 72.3565 182.585 72.3809 182.489 72.4249C182.393 72.4689 182.306 72.5316 182.235 72.6093C182 72.831 181.814 73.0989 181.688 73.3962C181.563 73.6934 181.5 74.0135 181.504 74.3362C181.509 74.5745 181.547 74.8109 181.618 75.0384C181.777 75.5566 182.027 76.0419 182.358 76.4712C183.224 77.825 184.454 78.9071 185.907 79.5931C188.032 80.4186 188.032 80.1435 188.412 80.1055C188.7 80.0566 188.975 79.9467 189.217 79.783C189.459 79.6194 189.664 79.4058 189.816 79.1566C189.944 78.8576 189.986 78.5293 189.94 78.2077C189.873 78.0369 189.778 77.9895 189.532 77.8851Z" fill="white"/>
<path d="M329.939 178.203C332.826 171.418 332.055 164.594 328.216 162.96C324.378 161.327 318.926 165.503 316.039 172.288C313.152 179.073 313.923 185.897 317.762 187.53C321.6 189.164 327.052 184.987 329.939 178.203Z" fill="#318CFF"/>
<path opacity="0.2" d="M329.939 178.203C332.826 171.418 332.055 164.594 328.216 162.96C324.378 161.327 318.926 165.503 316.039 172.288C313.152 179.073 313.923 185.897 317.762 187.53C321.6 189.164 327.052 184.987 329.939 178.203Z" fill="black"/>
<path d="M321.912 189.959L317.348 187.33L328.753 163.21L333.346 165.895L321.912 189.959Z" fill="#318CFF"/>
<path opacity="0.2" d="M321.912 189.959L317.348 187.33L328.753 163.21L333.346 165.895L321.912 189.959Z" fill="black"/>
<path d="M327.378 194.238L322.804 191.6L322.757 189.143H327.378V194.238Z" fill="#318CFF"/>
<path d="M327.378 194.238L322.804 191.6L322.757 189.143H327.378V194.238Z" fill="#318CFF"/>
<path d="M327.378 194.238L322.804 191.6L322.757 189.143H327.378V194.238Z" fill="#318CFF"/>
<path opacity="0.2" d="M327.378 194.238L322.804 191.6L322.757 189.143H327.378V194.238Z" fill="black"/>
<path d="M325.594 190.338L327.292 194.134C327.313 194.19 327.351 194.238 327.4 194.272C327.449 194.306 327.508 194.324 327.567 194.324C327.627 194.324 327.686 194.306 327.735 194.272C327.784 194.238 327.822 194.19 327.843 194.134L329.646 188.033V185.698L325.594 188.033V190.338Z" fill="#318CFF"/>
<path d="M320.973 187.663L322.671 191.458C322.692 191.514 322.73 191.562 322.779 191.596C322.828 191.63 322.887 191.648 322.946 191.648C323.006 191.648 323.064 191.63 323.114 191.596C323.163 191.562 323.2 191.514 323.222 191.458L325.015 185.366V183.032L320.973 185.366V187.663Z" fill="#318CFF"/>
<path opacity="0.2" d="M320.973 187.663L322.671 191.458C322.692 191.514 322.73 191.562 322.779 191.596C322.828 191.63 322.887 191.648 322.946 191.648C323.006 191.648 323.064 191.63 323.114 191.596C323.163 191.562 323.2 191.514 323.222 191.458L325.015 185.366V183.032L320.973 185.366V187.663Z" fill="black"/>
<path d="M336.316 172.898C336.316 179.303 332.426 186.742 327.615 189.513C322.804 192.284 318.923 189.342 318.923 182.937C318.923 176.532 322.813 169.102 327.615 166.322C332.416 163.542 336.316 166.493 336.316 172.898Z" fill="#318CFF"/>
<path d="M331.619 175.137C331.823 174.955 331.988 174.733 332.104 174.485C332.219 174.237 332.284 173.968 332.293 173.695C332.293 173.097 331.922 172.822 331.476 173.078L329.047 174.482C329.137 174.338 329.204 174.182 329.247 174.017L329.389 173.458C329.623 172.543 329.731 171.602 329.712 170.658C329.712 170.212 329.417 170.013 329.076 170.212C328.915 170.322 328.778 170.462 328.673 170.625C328.567 170.788 328.494 170.97 328.459 171.161L328.203 172.49C328.175 172.61 328.137 172.727 328.089 172.841L326.476 176.541C325.98 177.191 325.618 177.933 325.413 178.724V183.079C325.413 183.383 325.878 183.525 326.106 183.392L329.114 181.741L331.135 180.612C331.349 180.465 331.525 180.27 331.65 180.043C331.775 179.815 331.846 179.562 331.856 179.303C331.856 178.904 331.676 178.686 331.401 178.714C331.58 178.555 331.726 178.362 331.829 178.145C331.932 177.928 331.989 177.692 331.998 177.452C332.01 177.345 331.994 177.237 331.952 177.138C331.911 177.038 331.845 176.951 331.761 176.883C332.026 176.557 332.179 176.155 332.198 175.735C332.198 175.26 331.951 175.052 331.619 175.137Z" fill="white"/>
<path d="M322.425 186.144L324.323 184.987C324.406 184.914 324.47 184.823 324.511 184.721C324.553 184.619 324.569 184.508 324.56 184.398V178.971C324.56 178.743 324.389 178.639 324.218 178.733L322.396 179.901C322.226 179.995 322.283 180.261 322.283 180.489V185.907C322.321 186.135 322.254 186.239 322.425 186.144Z" fill="white"/>
<path d="M54.899 187.541C58.7375 185.907 59.5088 179.083 56.6218 172.298C53.7348 165.513 48.2828 161.337 44.4443 162.971C40.6058 164.604 39.8345 171.428 42.7215 178.213C45.6085 184.998 51.0605 189.174 54.899 187.541Z" fill="#318CFF"/>
<g opacity="0.2">
<path d="M54.899 187.541C58.7375 185.907 59.5088 179.083 56.6218 172.298C53.7348 165.514 48.2828 161.337 44.4443 162.971C40.6058 164.604 39.8345 171.428 42.7215 178.213C45.6085 184.998 51.0605 189.174 54.899 187.541Z" fill="black"/>
</g>
<path d="M50.7564 189.959L55.3206 187.33L43.9149 163.21L39.3223 165.895L50.7564 189.959Z" fill="#318CFF"/>
<path opacity="0.2" d="M50.7564 189.959L55.3206 187.33L43.9149 163.21L39.3223 165.895L50.7564 189.959Z" fill="black"/>
<path d="M45.291 194.238L49.8647 191.6L49.9121 189.143H45.291V194.238Z" fill="#318CFF"/>
<path d="M45.291 194.238L49.8647 191.6L49.9121 189.143H45.291V194.238Z" fill="#318CFF"/>
<path opacity="0.2" d="M45.291 194.238L49.8647 191.6L49.9121 189.143H45.291V194.238Z" fill="white"/>
<path d="M47.0752 190.338L45.3767 194.134C45.3556 194.19 45.3179 194.238 45.2688 194.272C45.2196 194.306 45.1613 194.324 45.1015 194.324C45.0418 194.324 44.9834 194.306 44.9343 194.272C44.8851 194.238 44.8475 194.19 44.8263 194.134L43.0234 188.033V185.698L47.0752 188.033V190.338Z" fill="#318CFF"/>
<path d="M51.6956 187.663L49.9971 191.458C49.976 191.514 49.9383 191.562 49.8892 191.596C49.84 191.63 49.7817 191.648 49.7219 191.648C49.6621 191.648 49.6038 191.63 49.5546 191.596C49.5055 191.562 49.4678 191.514 49.4467 191.458L47.6533 185.366V183.032L51.6956 185.366V187.663Z" fill="#318CFF"/>
<g opacity="0.2">
<path d="M51.6956 187.663L49.9971 191.458C49.976 191.514 49.9383 191.562 49.8892 191.596C49.84 191.63 49.7817 191.648 49.7219 191.648C49.6621 191.648 49.6038 191.63 49.5546 191.596C49.5055 191.562 49.4678 191.514 49.4467 191.458L47.6533 185.366V183.032L51.6956 185.366V187.663Z" fill="white"/>
</g>
<path d="M50.2884 190.236C54.1365 188.598 54.9106 181.759 52.0175 174.96C49.1244 168.16 43.6595 163.976 39.8114 165.613C35.9633 167.251 35.1891 174.09 38.0822 180.889C40.9754 187.688 46.4402 191.873 50.2884 190.236Z" fill="#318CFF"/>
<path d="M51.0028 181.248C51.0767 182.742 50.6345 184.216 49.7503 185.423C48.6495 186.733 46.9605 187.046 45.0058 185.945C42.8521 184.491 41.1962 182.411 40.2613 179.986C39.4785 178.217 39.0528 176.312 39.0088 174.378L51.0028 181.248Z" fill="#318CFF"/>
<path opacity="0.3" d="M51.0028 181.248C51.0767 182.742 50.6345 184.216 49.7503 185.423C48.6495 186.733 46.9605 187.046 45.0058 185.945C42.8521 184.491 41.1962 182.411 40.2613 179.986C39.4785 178.217 39.0528 176.312 39.0088 174.378L51.0028 181.248Z" fill="black"/>
<path d="M49.7506 185.423C48.6499 186.733 46.9609 187.046 45.0062 185.945C42.8525 184.491 41.1966 182.411 40.2617 179.986C41.4763 179.113 43.1084 179.103 45.0062 180.147C47.0393 181.44 48.6799 183.265 49.7506 185.423Z" fill="#318CFF"/>
<path opacity="0.2" d="M49.7506 185.423C48.6499 186.733 46.9609 187.046 45.0062 185.945C42.8525 184.491 41.1966 182.411 40.2617 179.986C41.4763 179.113 43.1084 179.103 45.0062 180.147C47.0393 181.44 48.6799 183.265 49.7506 185.423Z" fill="white"/>
<path d="M50.5763 178.515C50.4456 178.513 50.3203 178.463 50.2252 178.373L47.1318 175.441C47.0607 175.375 47.0103 175.289 46.9867 175.195C46.9631 175.1 46.9674 175.001 46.999 174.909C47.0337 174.819 47.093 174.74 47.1701 174.681C47.2471 174.623 47.339 174.587 47.4354 174.577L49.8172 174.359C49.9501 174.348 50.082 174.39 50.1848 174.475C50.2876 174.56 50.3531 174.682 50.3675 174.814C50.3741 174.881 50.3674 174.947 50.348 175.011C50.3286 175.074 50.2968 175.133 50.2545 175.185C50.2121 175.236 50.1601 175.278 50.1013 175.309C50.0425 175.34 49.9782 175.359 49.9121 175.365L48.6311 175.479L50.9179 177.642C50.9925 177.711 51.0446 177.8 51.0674 177.899C51.0902 177.998 51.0826 178.101 51.0457 178.196C51.0087 178.29 50.9442 178.371 50.8604 178.428C50.7767 178.485 50.6776 178.515 50.5763 178.515Z" fill="#318CFF"/>
<g opacity="0.2">
<path d="M50.5763 178.515C50.4456 178.513 50.3203 178.463 50.2252 178.373L47.1318 175.441C47.0607 175.375 47.0103 175.289 46.9867 175.195C46.9631 175.1 46.9674 175.001 46.999 174.909C47.0337 174.819 47.093 174.74 47.1701 174.681C47.2471 174.623 47.339 174.587 47.4354 174.577L49.8172 174.359C49.9501 174.348 50.082 174.39 50.1848 174.475C50.2876 174.56 50.3531 174.682 50.3675 174.814C50.3741 174.881 50.3674 174.947 50.348 175.011C50.3286 175.074 50.2968 175.133 50.2545 175.185C50.2121 175.236 50.1601 175.278 50.1013 175.309C50.0425 175.34 49.9782 175.359 49.9121 175.365L48.6311 175.479L50.9179 177.642C50.9925 177.711 51.0446 177.8 51.0674 177.899C51.0902 177.998 51.0826 178.101 51.0457 178.196C51.0087 178.29 50.9442 178.371 50.8604 178.428C50.7767 178.485 50.6776 178.515 50.5763 178.515Z" fill="black"/>
</g>
<path d="M42.6999 172.841H42.605L39.5022 172.196C39.4251 172.199 39.3483 172.185 39.2776 172.154C39.207 172.123 39.1444 172.076 39.0947 172.017C39.045 171.958 39.0096 171.888 38.9912 171.813C38.9727 171.739 38.9717 171.66 38.9883 171.585C39.0049 171.51 39.0386 171.439 39.0867 171.379C39.1349 171.319 39.1963 171.27 39.2662 171.238C39.336 171.205 39.4125 171.189 39.4896 171.19C39.5667 171.192 39.6424 171.211 39.7109 171.247L41.4284 171.607L39.9197 169.709C39.8354 169.605 39.796 169.471 39.8102 169.338C39.8245 169.204 39.8911 169.082 39.9956 168.998C40.1 168.913 40.2337 168.874 40.3671 168.888C40.5006 168.903 40.623 168.969 40.7073 169.074L43.0985 172.053C43.1568 172.138 43.188 172.239 43.188 172.343C43.188 172.446 43.1568 172.547 43.0985 172.632C43.0528 172.695 42.993 172.747 42.9238 172.783C42.8547 172.82 42.778 172.839 42.6999 172.841Z" fill="#318CFF"/>
<g opacity="0.2">
<path d="M42.6999 172.841H42.605L39.5022 172.196C39.4251 172.199 39.3483 172.185 39.2776 172.154C39.207 172.123 39.1444 172.076 39.0947 172.017C39.045 171.958 39.0096 171.888 38.9912 171.813C38.9727 171.739 38.9717 171.66 38.9883 171.585C39.0049 171.51 39.0386 171.439 39.0867 171.379C39.1349 171.319 39.1963 171.27 39.2662 171.238C39.336 171.205 39.4125 171.189 39.4896 171.19C39.5667 171.192 39.6424 171.211 39.7109 171.247L41.4284 171.607L39.9197 169.709C39.8354 169.605 39.796 169.471 39.8102 169.338C39.8245 169.204 39.8911 169.082 39.9956 168.998C40.1 168.913 40.2337 168.874 40.3671 168.888C40.5006 168.903 40.623 168.969 40.7073 169.074L43.0985 172.053C43.1568 172.138 43.188 172.239 43.188 172.343C43.188 172.446 43.1568 172.547 43.0985 172.632C43.0528 172.695 42.993 172.747 42.9238 172.783C42.8547 172.82 42.778 172.839 42.6999 172.841Z" fill="black"/>
</g>
<path d="M308.276 244.625C308.713 245.716 311.436 251.476 315.061 248.724C319.435 245.403 324.929 230.391 324.929 230.391L320.887 228.493L313.134 241.085L308.267 244.625" fill="#F28F8F"/>
<path d="M308.533 220.409C310.43 226.899 314.359 241.351 314.359 241.351C314.359 241.351 312.746 250.176 309.909 247.139C308.96 246.114 308.457 245.165 307.451 242.698C306.559 240.478 303.893 231.425 303.893 231.425C303.893 231.425 304.462 218.416 302.431 216.699C301.34 215.724 300.075 214.965 298.702 214.459C301.938 214.715 306.758 214.459 308.533 220.409Z" fill="#F28F8F"/>
<path d="M298.664 214.431C300.298 214.332 301.937 214.421 303.551 214.696C305.449 215.152 307.498 216.917 308.419 220.067C309.339 223.218 313.315 237.498 313.315 237.498C313.315 237.498 311.702 240.345 305.61 240.402L298.664 214.431Z" fill="#37474F"/>
<path d="M317.632 221.339C318.704 219.346 318.97 219.251 319.606 218.815C320.241 218.378 324.16 217.799 325.783 217.657C327.681 217.496 328.364 217.847 327.832 219.488C326.371 223.629 324.581 227.646 322.481 231.501C321.978 232.175 321.873 232.801 319.719 233.01C317.717 233.209 315.203 233.323 314.463 233.361C313.722 233.399 312.698 233.589 313.362 231.416C314.206 228.951 315.185 226.534 316.294 224.176C317.119 222.382 317.632 221.339 317.632 221.339Z" fill="#263238"/>
<path d="M324.929 230.391C325.726 226.861 328.07 223.607 326.751 222.411L326.039 223.967C326.039 223.967 321.646 225.02 319.53 224.859C317.414 224.698 315.668 224.195 315.089 224.603C313.856 225.476 313.505 229.167 317.034 230.515C320.033 231.653 324.929 230.391 324.929 230.391Z" fill="#F28F8F"/>
<path d="M296.415 209.924H292.714C291.067 209.925 289.436 209.601 287.914 208.972C286.393 208.343 285.01 207.42 283.845 206.256C282.68 205.091 281.756 203.709 281.125 202.188C280.494 200.666 280.17 199.036 280.17 197.389C280.17 193.571 281.686 189.91 284.386 187.21C287.086 184.511 290.747 182.994 294.565 182.994C298.382 182.994 302.044 184.511 304.743 187.21C307.443 189.91 308.959 193.571 308.959 197.389C308.959 199.036 308.635 200.666 308.004 202.188C307.374 203.709 306.45 205.091 305.285 206.256C304.12 207.42 302.737 208.343 301.215 208.972C299.693 209.601 298.062 209.925 296.415 209.924Z" fill="#263238"/>
<path d="M273.281 217.619C275.615 217.619 277.853 216.693 279.504 215.043C281.156 213.394 282.084 211.157 282.087 208.823V192.122C279.752 192.122 277.512 193.05 275.86 194.701C274.209 196.353 273.281 198.593 273.281 200.928V217.619Z" fill="#263238"/>
<path d="M296.776 341.858C296.741 342.558 296.919 343.253 297.288 343.85C298.22 345.403 299.321 346.848 300.571 348.158C302.327 350.056 304.955 352.276 306.843 353.928C307.887 354.876 307.925 356.224 306.435 356.708C303.641 357.388 300.692 356.978 298.189 355.56C296.292 354.554 293.654 349.866 292.088 349.202C290.304 348.395 289.298 347.987 288.691 347.162C288.224 346.697 287.933 346.084 287.867 345.428C287.801 344.772 287.965 344.114 288.33 343.566C289.175 342 290.437 339.58 290.959 339.846L290.798 340.349C291.206 341.63 294.697 343.12 296.491 342.759L296.776 341.858Z" fill="#263238"/>
<path d="M298.351 335.68C297.666 337.701 297.143 339.773 296.785 341.877C296.733 342.57 296.907 343.262 297.279 343.85C298.222 345.401 299.326 346.848 300.572 348.168C301.426 349.117 302.469 350.065 303.58 351.014C303.672 351.149 303.725 351.307 303.731 351.47C303.731 352.419 301.35 352.713 299.936 352.305C298.183 351.684 296.672 350.525 295.618 348.993C294.812 347.921 292.999 345.852 291.823 344.315C291.427 343.838 291.089 343.316 290.817 342.759C290.5 342.061 290.45 341.271 290.675 340.539L290.741 340.311C291.365 338.392 291.747 336.403 291.88 334.39" fill="#FFA8A7"/>
<path d="M281.821 343.993C282.117 345.796 282.266 347.621 282.267 349.449V353.491H288.255V346.602C288.271 346.6 288.288 346.595 288.302 346.587C288.317 346.579 288.33 346.568 288.34 346.555C288.34 346.555 288.445 345.207 288.606 343.082" fill="#FFA8A7"/>
<path d="M298.351 335.68C301.663 324.977 309.026 305.819 310.032 302.469C311.114 298.892 309.576 267.55 308.703 257.52L277.731 255.916C275.359 266.089 277.675 279.8 278.491 288.359C279.278 296.7 280.256 306.435 280.256 306.435C280.256 306.435 277.817 314.928 278.462 321.694C278.88 325.954 280.891 338.546 281.802 344.04C282.938 344.354 284.126 344.432 285.293 344.269C286.46 344.106 287.581 343.705 288.587 343.091C288.966 338.271 289.697 329.465 290.371 323.715C291.405 315.08 291.747 308.779 292.639 303.731C293.749 297.44 294.138 272.778 294.138 272.778L297.734 300.752C296.308 303.376 295.224 306.173 294.508 309.073C293.483 313.049 292.382 327.975 291.936 334.437C293.512 335.519 295.675 335.918 298.351 335.68Z" fill="#37474F"/>
<path d="M294.156 272.769C294.156 272.769 299.85 270.767 303.104 267.787C301.471 270.328 299.152 272.355 296.415 273.632L296.367 290.01L294.156 272.769Z" fill="#263238"/>
<path d="M289.592 214.725C289.592 214.725 281.119 215.674 280.104 216.158C285.266 221.851 282.087 230.391 282.087 230.391L284.668 243.676C281.28 248.012 278.377 251.428 277.561 256.59C281.195 262.995 301.482 264.077 308.959 259.304C308.305 250.375 305.6 244.008 306.113 241.322C309.671 230.363 309.908 228.38 309.263 225.931C307.479 219.052 300.467 214.393 298.73 214.393L289.592 214.725Z" fill="#455A64"/>
<path d="M264.826 244.615C264.238 243.068 266.724 238.703 268.508 235.79L275.767 239.368L273.281 243.903C274.722 248.138 276.473 252.261 278.519 256.239C278.871 256.852 279.44 257.312 280.113 257.529C281.598 258.138 282.988 258.956 284.241 259.959C285.389 260.708 286.233 260.756 286.138 261.097C286.042 261.477 285.805 261.806 285.476 262.019C285.147 262.232 284.75 262.313 284.364 262.245C283.505 262.115 282.665 261.886 281.859 261.562C282.732 262.85 283.809 263.988 285.047 264.931C287.894 267.104 288.359 268.726 283.937 269.808C281.176 270.491 278.557 269.296 275.027 263.678C274.012 262.056 272.683 259.674 271.611 257.501C269.125 252.386 266.202 248.173 264.826 244.615Z" fill="#FFA8A7"/>
<path d="M280.103 216.158C277.56 216.442 275.795 219.004 273.461 223.407C271.459 227.203 266.639 237.271 266.639 237.271C267.662 238.606 268.939 239.727 270.396 240.569C271.854 241.411 273.463 241.957 275.131 242.176L282.049 230.439C282.049 230.439 285.854 221.083 280.103 216.158Z" fill="#455A64"/>
<path d="M288.245 350.53V349.676C288.981 352.514 290.458 355.104 292.525 357.182C294.423 358.9 296.994 360.892 297.649 362.809C298.304 364.726 294.603 365.599 292.155 365.362C289.783 365.069 287.599 363.926 286.006 362.145C284.459 360.361 284.478 359.146 283.757 358.16C283.036 357.173 281.357 356.081 280.967 354.952C280.846 353.89 280.963 352.814 281.309 351.802C281.584 350.739 281.888 349.582 282.258 349.676V350.331C283.112 351.003 284.17 351.361 285.256 351.346C286.12 351.375 288.245 351.204 288.245 350.53Z" fill="#263238"/>
<path d="M282.248 350.331C283.102 351.003 284.16 351.361 285.247 351.347C286.12 351.347 288.245 351.204 288.245 350.53V349.676C288.981 352.514 290.458 355.104 292.525 357.182L293.967 358.454C294.973 359.573 294.688 360.551 292.325 360.76C289.963 360.968 287.884 359.535 286.091 357.334C284.298 355.133 282.248 350.331 282.248 350.331Z" fill="#FFA8A7"/>
<path d="M304.224 188.82C305.752 189.769 307.622 193.565 307.441 201.554C307.28 208.348 305.078 210.028 303.978 210.512C302.877 210.996 300.742 210.702 298.664 210.351V214.431C298.664 214.431 301.511 217.761 301.349 219.631C301.188 221.5 297.212 221.937 294.536 220.115C292.595 218.611 290.924 216.788 289.593 214.725L289.64 205.35C289.64 205.35 288.416 206.536 286.347 204.733C284.649 203.234 284.07 200.719 285.398 199.372C285.743 199.048 286.161 198.81 286.616 198.68C287.071 198.55 287.551 198.531 288.015 198.623C288.48 198.716 288.915 198.919 289.285 199.214C289.655 199.509 289.949 199.889 290.143 200.321C290.143 200.321 291.291 197.123 296.073 195.576C300.372 194.143 302.697 192.521 304.224 188.82Z" fill="#FFA8A7"/>
<path d="M299.85 199.846C299.856 199.958 299.839 200.071 299.801 200.176C299.764 200.282 299.705 200.379 299.63 200.463C299.555 200.546 299.464 200.614 299.362 200.662C299.261 200.71 299.151 200.737 299.039 200.743C298.927 200.749 298.814 200.732 298.709 200.694C298.603 200.657 298.506 200.598 298.422 200.523C298.339 200.448 298.272 200.357 298.223 200.255C298.175 200.154 298.148 200.044 298.142 199.932C298.13 199.816 298.142 199.699 298.177 199.588C298.211 199.477 298.268 199.374 298.343 199.285C298.419 199.197 298.511 199.124 298.615 199.072C298.719 199.02 298.833 198.99 298.949 198.983C299.065 198.98 299.18 199.001 299.288 199.043C299.396 199.085 299.495 199.148 299.578 199.228C299.662 199.308 299.729 199.404 299.776 199.51C299.822 199.616 299.848 199.73 299.85 199.846Z" fill="#263238"/>
<path d="M300.087 205.625L302.071 206.261C302.035 206.394 301.972 206.518 301.887 206.626C301.802 206.734 301.697 206.824 301.576 206.89C301.456 206.957 301.323 206.998 301.186 207.012C301.05 207.026 300.911 207.013 300.78 206.972C300.513 206.881 300.291 206.69 300.162 206.439C300.033 206.187 300.006 205.896 300.087 205.625Z" fill="#F28F8F"/>
<path d="M306.863 197.227L305.136 196.032C305.208 195.915 305.303 195.815 305.415 195.736C305.527 195.658 305.655 195.603 305.789 195.576C305.923 195.548 306.061 195.548 306.195 195.576C306.329 195.604 306.456 195.659 306.569 195.738C306.8 195.901 306.959 196.146 307.014 196.424C307.068 196.701 307.014 196.989 306.863 197.227Z" fill="#263238"/>
<path d="M297.373 197.854L299.1 196.658C299.028 196.542 298.933 196.441 298.821 196.363C298.708 196.284 298.581 196.23 298.447 196.202C298.313 196.175 298.174 196.175 298.04 196.202C297.906 196.23 297.779 196.285 297.667 196.364C297.436 196.527 297.277 196.773 297.222 197.05C297.167 197.327 297.221 197.615 297.373 197.854Z" fill="#263238"/>
<path d="M306.493 199.23C306.504 199.456 306.425 199.678 306.273 199.846C306.121 200.014 305.908 200.115 305.681 200.126C305.569 200.132 305.457 200.115 305.351 200.078C305.246 200.04 305.148 199.982 305.065 199.906C304.897 199.754 304.796 199.541 304.785 199.315C304.773 199.199 304.785 199.082 304.819 198.971C304.854 198.86 304.911 198.757 304.986 198.669C305.061 198.58 305.154 198.508 305.258 198.456C305.362 198.404 305.475 198.373 305.591 198.366C305.707 198.364 305.822 198.384 305.93 198.426C306.038 198.468 306.137 198.531 306.221 198.611C306.305 198.691 306.372 198.787 306.418 198.893C306.465 198.999 306.49 199.114 306.493 199.23Z" fill="#263238"/>
<path d="M302.431 198.746L302.563 203.879L305.277 203.044L302.431 198.746Z" fill="#F28F8F"/>
<path d="M298.664 210.37C296.481 210.085 292.022 208.794 291.291 207.02C291.57 207.92 292.12 208.712 292.866 209.288C294.204 210.436 298.664 211.736 298.664 211.736V210.37Z" fill="#F28F8F"/>
<path d="M283.178 236.075L289.175 246.636L284.668 243.742L283.178 236.075Z" fill="#37474F"/>
<path d="M69.9896 250.546C69.4867 251.817 66.3269 258.488 62.1233 255.29C57.0562 251.447 50.6797 234.035 50.6797 234.035L55.3577 231.862L64.3437 246.427L69.9896 250.536" fill="#F28F8F"/>
<path d="M69.6868 222.468C67.4474 229.993 62.9307 246.76 62.9307 246.76C62.9307 246.76 64.8285 256.979 68.0926 253.468C69.2123 252.273 69.7817 251.172 70.9393 248.316C71.9831 245.744 75.0765 235.25 75.0765 235.25C75.0765 235.25 74.4028 220.162 76.7655 218.169C78.0337 217.044 79.5012 216.165 81.0925 215.579C77.3349 215.864 71.7459 215.569 69.6868 222.468Z" fill="#F28F8F"/>
<path d="M59.1441 223.55C57.9011 221.234 57.588 221.13 56.8478 220.627C56.1077 220.124 51.572 219.441 49.6932 219.28C47.4728 219.09 46.6947 219.498 47.3115 221.405C48.6209 225.485 52.6253 234.139 53.5172 235.335C54.1055 236.113 54.2289 236.844 56.715 237.09C59.0398 237.318 61.9624 237.441 62.8164 237.489C63.6704 237.536 64.866 237.755 64.0974 235.231C63.1158 232.371 61.9786 229.568 60.6908 226.833C59.7799 224.755 59.1441 223.55 59.1441 223.55Z" fill="#263238"/>
<path d="M50.68 234.092C49.7311 230.002 47.0362 226.226 48.5734 224.84L49.3989 226.653C49.3989 226.653 54.485 227.867 56.9901 227.677C59.4952 227.488 61.4594 226.909 62.1331 227.383C63.5564 228.389 63.9739 232.678 59.8842 234.234C56.3638 235.506 50.68 234.092 50.68 234.092Z" fill="#F28F8F"/>
<path d="M81.4433 214.232C76.936 214.279 71.9543 215.921 70.2748 219.45C68.5953 222.98 64.6953 238.371 64.6953 238.371C66 239.577 67.5434 240.494 69.2255 241.065C70.9075 241.635 72.6907 241.846 74.4594 241.683L81.4433 214.232Z" fill="#37474F"/>
<path d="M100.99 344.315H94.7559V353.387H100.99V344.315Z" fill="#FFA8A7"/>
<path d="M79.0753 333.083L72.8447 333.297L73.1566 342.363L79.3871 342.149L79.0753 333.083Z" fill="#FFA8A7"/>
<path d="M100.582 255.727C100.582 261.676 101.351 300.173 101.351 300.173C101.493 301.881 103.097 305.041 102.755 311.616C102.281 320.555 101.512 345.368 101.512 345.368C101.512 345.368 98.5898 348.263 94.4621 345.368C94.4621 345.368 88.7687 311.645 87.706 302.792C86.7571 295.068 85.0775 274.078 85.0775 274.078L79.2988 298.749C79.2988 298.749 80.3141 304.557 80.5418 308.656C80.7696 312.755 79.4791 336.43 79.4791 336.43C78.4711 337.062 77.3148 337.419 76.1258 337.464C74.9368 337.508 73.7568 337.24 72.704 336.686C72.704 336.686 67.6938 302.099 67.0106 298.389C66.3274 294.679 71.3945 255.689 71.3945 255.689L100.582 255.727Z" fill="#37474F"/>
<path d="M91.1981 214.516H91.2835C93.9533 215.194 96.3193 216.746 98.0046 218.925C99.6899 221.104 100.597 223.784 100.583 226.539V255.727C96.2082 260.471 80.9785 262.691 71.4326 255.727V225.362C71.4326 220.504 74.1275 214.677 81.5763 214.241L91.1981 214.516Z" fill="#455A64"/>
<path d="M93.295 189.674C93.7956 189.613 94.3036 189.667 94.7804 189.831C95.2572 189.995 95.6903 190.266 96.0468 190.623C97.2234 191.828 96.9957 194.058 96.0468 199.163L92.3936 199.581L93.295 189.674Z" fill="#263238"/>
<path d="M72.0297 188.184C71.2467 188.188 70.4714 188.029 69.7523 187.719C68.6326 187.084 68.3385 188.355 68.9553 189.456C69.3545 190.256 69.9542 190.938 70.696 191.437C71.4377 191.936 72.2961 192.234 73.1873 192.303C73.1873 192.151 74.2311 189.456 74.2311 189.456L72.0297 188.184Z" fill="#263238"/>
<path d="M91.5865 199.638C92.1273 199.96 92.8959 198.916 93.5696 198.214C93.8321 197.914 94.1666 197.686 94.5417 197.552C94.9168 197.417 95.32 197.38 95.7132 197.445C96.1064 197.51 96.4766 197.673 96.7889 197.921C97.1013 198.168 97.3453 198.491 97.498 198.859C98.6083 201.194 96.5492 204.278 94.8222 204.818C91.8711 205.767 91.4251 203.87 91.4251 203.87L91.1974 214.545C90.5456 215.977 89.5478 217.225 88.2939 218.175C87.04 219.126 85.5693 219.75 84.0143 219.991C78.7764 220.703 79.8581 216.376 81.5756 214.298V211.053C80.2584 211.264 78.922 211.331 77.5903 211.252C75.4173 210.92 74.0414 209.202 73.3867 206.849C72.3239 203.054 71.9254 200.017 72.8174 192.616C73.7662 184.465 83.2552 184.379 88.4077 187.606C93.5601 190.832 91.5865 199.638 91.5865 199.638Z" fill="#FFA8A7"/>
<path d="M91.5866 200.548C91.8618 200.548 92.8961 198.831 93.5698 198.214C94.5187 197.37 93.2946 189.674 93.2946 189.674C93.2946 189.674 94.2435 186.752 92.3931 184.816C90.5428 182.88 86.975 183.212 84.356 183.117C81.1438 183.127 77.9633 182.482 75.0094 181.22C71.2898 179.606 71.0146 179.417 70.5496 181.049C70.0847 182.681 69.9234 186.41 72.1343 188.915L73.9846 189.598C73.9846 189.598 74.981 190.481 78.4444 190.898C81.6407 191.143 84.853 191.083 88.0377 190.718C89.0436 190.585 89.2618 191.553 89.8027 194.21C90.2771 196.573 90.6662 200.53 91.5866 200.548Z" fill="#263238"/>
<path d="M93.295 190.272L96.5687 188.517C96.4639 188.295 96.3153 188.098 96.132 187.935C95.9487 187.773 95.7344 187.65 95.5021 187.573C95.2697 187.495 95.0242 187.466 94.7802 187.486C94.5363 187.507 94.299 187.576 94.0826 187.691C93.6448 187.938 93.3187 188.343 93.172 188.824C93.0254 189.304 93.0694 189.823 93.295 190.272Z" fill="#263238"/>
<path d="M81.6046 210.986C81.6046 210.986 86.463 210.037 88.152 209.089C89.1523 208.568 89.9724 207.758 90.5053 206.764C90.2461 207.758 89.7912 208.69 89.1673 209.506C87.9243 211.091 81.5762 212.258 81.5762 212.258L81.6046 210.986Z" fill="#F28F8F"/>
<path d="M82.7523 198.423C82.7653 198.607 82.8317 198.784 82.9435 198.931C83.0553 199.078 83.2076 199.189 83.3818 199.251C83.5559 199.313 83.7442 199.322 83.9237 199.278C84.1032 199.235 84.266 199.139 84.3921 199.004C84.5183 198.869 84.6023 198.701 84.6338 198.519C84.6654 198.337 84.6431 198.149 84.5698 197.98C84.4964 197.81 84.3751 197.666 84.2208 197.564C84.0666 197.462 83.886 197.408 83.7012 197.408C83.5708 197.407 83.4417 197.434 83.3221 197.486C83.2024 197.537 83.0947 197.613 83.0056 197.709C82.9166 197.804 82.8481 197.917 82.8046 198.039C82.761 198.162 82.7432 198.293 82.7523 198.423Z" fill="#263238"/>
<path d="M83.7871 194.741L85.8652 195.899C86.0128 195.615 86.0469 195.285 85.9605 194.977C85.8742 194.668 85.6739 194.405 85.4002 194.238C85.2628 194.159 85.1103 194.109 84.9525 194.091C84.7947 194.073 84.6349 194.089 84.4833 194.136C84.3317 194.183 84.1916 194.261 84.0718 194.366C83.9519 194.47 83.855 194.598 83.7871 194.741Z" fill="#263238"/>
<path d="M82.0222 205.141L79.8018 205.976C79.8496 206.125 79.9273 206.263 80.03 206.382C80.1328 206.5 80.2585 206.596 80.3996 206.665C80.5407 206.733 80.6941 206.772 80.8507 206.779C81.0073 206.786 81.1637 206.762 81.3105 206.707C81.6096 206.59 81.8513 206.361 81.9842 206.068C82.1171 205.776 82.1307 205.443 82.0222 205.141Z" fill="#F28F8F"/>
<path d="M74.0797 195.557L75.9775 194.096C75.8888 193.967 75.7748 193.858 75.6423 193.774C75.5099 193.691 75.3618 193.636 75.2072 193.612C75.0526 193.588 74.8947 193.596 74.7432 193.635C74.5917 193.674 74.4499 193.744 74.3264 193.84C74.0715 194.039 73.9034 194.329 73.8575 194.649C73.8115 194.969 73.8911 195.295 74.0797 195.557Z" fill="#263238"/>
<path d="M74.6589 198.138C74.6589 198.39 74.7589 198.631 74.9369 198.809C75.1148 198.987 75.3562 199.087 75.6078 199.087C75.8595 199.087 76.1008 198.987 76.2788 198.809C76.4567 198.631 76.5567 198.39 76.5567 198.138C76.5645 198.009 76.5457 197.879 76.5015 197.758C76.4573 197.636 76.3887 197.524 76.2998 197.43C76.2109 197.336 76.1036 197.261 75.9846 197.21C75.8656 197.159 75.7374 197.132 75.6078 197.132C75.4783 197.132 75.3501 197.159 75.2311 197.21C75.1121 197.261 75.0048 197.336 74.9159 197.43C74.827 197.524 74.7584 197.636 74.7142 197.758C74.67 197.879 74.6512 198.009 74.6589 198.138Z" fill="#263238"/>
<path d="M79.6212 197.218L79.2986 203.073L76.2432 202.029L79.6212 197.218Z" fill="#F28F8F"/>
<path d="M94.7565 350.312V349.42C94.1587 349.686 92.7733 354.971 90.3062 357.22C88.342 359.014 85.6566 361.092 84.9734 363.084C84.2902 365.077 88.7121 366.311 90.5434 365.988C92.6784 365.608 96.3791 364.09 97.309 362.714C98.2389 361.338 98.6659 359.27 99.425 358.245C100.184 357.22 101.921 356.082 102.319 354.905C102.446 353.801 102.326 352.683 101.968 351.631C101.674 350.53 101.361 349.316 101.019 349.42V350.103C100.129 350.8 99.0275 351.171 97.8973 351.157C96.9579 351.195 94.747 351.014 94.7565 350.312Z" fill="#263238"/>
<path d="M73.0642 340.444C72.7321 340.444 72.4759 340.918 71.7547 341.687C70.6891 342.764 69.4512 343.655 68.092 344.325C65.7577 345.492 61.222 347.285 59.1724 348.215C57.8914 348.794 57.9483 350.341 59.2768 351.223C60.6052 352.106 63.803 352.741 67.646 351.878C69.7336 351.413 72.4664 349.477 74.1934 349.582C75.9204 349.686 79.1466 349.657 80.4181 348.785C81.6896 347.912 81.1772 346.033 80.8166 344.42C80.4561 342.806 79.8678 339.969 79.2794 340.093V340.643C78.5298 341.782 74.7153 342.247 73.0737 341.412L73.0642 340.444Z" fill="#263238"/>
<path d="M112.036 251.371C112.425 249.473 108.24 230.913 106.589 225.03L99.3111 233.57L103.79 251.912C102.953 257.041 101.732 262.101 100.137 267.047C99.8422 267.814 99.2791 268.448 98.552 268.831C96.6542 269.865 95.7907 271.004 94.2914 272.38C93.1148 273.452 92.1659 273.67 92.2798 274.05C92.4709 274.46 92.8082 274.785 93.2257 274.96C93.6432 275.136 94.1111 275.149 94.5382 274.999C95.4946 274.689 96.4117 274.268 97.271 273.746C96.514 275.384 95.4984 276.89 94.263 278.206C91.4163 281.223 91.1886 283.178 96.4454 283.577C99.7476 283.833 102.509 281.973 105.479 274.875C106.342 272.835 107.377 269.856 108.221 267.17C110.138 260.794 111.144 255.698 112.036 251.371Z" fill="#FFA8A7"/>
<path d="M93.1719 215.18C96.8726 216.395 104.217 217.021 106.589 225.03C108.961 233.039 110.148 238.248 110.148 238.248C108.753 240.146 103.192 242.262 100.583 241.465L93.1719 215.18Z" fill="#455A64"/>
<path d="M100.582 241.465L98.0391 232.469L100.582 245.127V241.465Z" fill="#37474F"/>
<path d="M85.0769 274.078C81.855 273.073 78.8917 271.376 76.3945 269.106C76.3945 269.106 78.0741 272.237 83.0368 275.15L81.139 291.092L85.0769 274.078Z" fill="#263238"/>
</svg>
