<svg width="348" height="326" viewBox="0 0 348 326" fill="none" xmlns="http://www.w3.org/2000/svg">
<path d="M174 325.175C270.098 325.175 348 280.196 348 224.712C348 169.227 270.098 124.248 174 124.248C77.9025 124.248 0 169.227 0 224.712C0 280.196 77.9025 325.175 174 325.175Z" fill="#FAFAFA"/>
<path d="M269.314 289.354C288.567 289.354 304.174 280.345 304.174 269.231C304.174 258.118 288.567 249.108 269.314 249.108C250.062 249.108 234.455 258.118 234.455 269.231C234.455 280.345 250.062 289.354 269.314 289.354Z" fill="#E0E0E0"/>
<path d="M42.6967 260.215L14.1136 243.714C12.5012 242.781 12.5012 241.277 14.1136 240.345L180.377 144.35C181.282 143.895 182.281 143.659 183.294 143.659C184.307 143.659 185.306 143.895 186.212 144.35L214.802 160.857C216.415 161.783 216.415 163.294 214.802 164.227L48.5391 260.215C47.634 260.674 46.6331 260.914 45.6179 260.914C44.6027 260.914 43.6018 260.674 42.6967 260.215Z" fill="#E0E0E0"/>
<path d="M61.8892 16.1199L55.4466 19.851C55.4466 19.5618 55.4972 19.2798 55.4972 18.9978V17.125C55.4972 13.7916 53.1617 12.4395 50.2694 14.1098C49.0299 14.8725 47.9694 15.8936 47.1602 17.1033C46.683 12.9095 43.4002 11.3187 39.4016 13.6543C35.0632 16.1489 31.5852 22.2082 31.5852 27.1974V29.9957C31.5538 31.1139 31.7788 32.2245 32.2432 33.2423L26.8708 36.3443C26.0293 36.8956 25.3291 37.637 24.8267 38.5087C24.3243 39.3803 24.0338 40.3578 23.9785 41.3624C23.9785 43.2134 25.28 43.9654 26.8708 43.0399L61.8892 22.8156C62.7311 22.2646 63.4316 21.5233 63.934 20.6516C64.4365 19.7799 64.7268 18.8022 64.7815 17.7975C64.7815 15.9464 63.5089 15.1944 61.8892 16.1199Z" fill="#EBEBEB"/>
<path d="M95.3821 31.6081L90.5013 34.4281C90.5299 34.2124 90.5444 33.995 90.5447 33.7773V32.3312C90.5447 29.8149 88.7804 28.7954 86.604 30.0535C85.6659 30.6257 84.864 31.3956 84.254 32.3095C83.8925 29.1497 81.4123 27.9711 78.3971 29.7137C75.1433 31.5937 72.4968 36.1707 72.4968 39.9307V42.0493C72.4762 42.8912 72.6468 43.7268 72.9958 44.4933L68.9466 46.836C68.3133 47.2533 67.787 47.8137 67.4102 48.4718C67.0334 49.13 66.8166 49.8675 66.7773 50.6249C66.7773 52.0204 67.7607 52.5844 68.9466 51.8903L95.3821 36.6262C96.0149 36.2085 96.5409 35.6481 96.9177 34.99C97.2944 34.3319 97.5115 33.5946 97.5513 32.8374C97.573 31.4924 96.5968 30.914 95.3821 31.6081Z" fill="#EBEBEB"/>
<path d="M145.446 230.807L170.03 216.599C172.568 215.153 173.834 213.215 173.834 211.299C173.834 209.383 173.834 207.886 173.834 207.886L148.338 193.504C147.627 193.039 147.034 192.414 146.61 191.677C146.185 190.941 145.94 190.115 145.894 189.267V158.97L102.973 183.771V214.068C103.02 214.917 103.265 215.742 103.69 216.478C104.114 217.214 104.706 217.84 105.417 218.305L127.109 230.807C132.163 233.728 140.377 233.728 145.446 230.807Z" fill="#263238"/>
<path d="M113.269 219.433V222.839L105.402 218.305C104.691 217.84 104.101 217.214 103.677 216.478C103.254 215.742 103.01 214.916 102.965 214.068V183.779L111.136 179.057C111.309 181.132 111.49 183.28 111.663 185.369L105.929 188.688V212.362C105.972 213.211 106.216 214.038 106.641 214.775C107.066 215.511 107.66 216.136 108.373 216.599L113.269 219.433Z" fill="black"/>
<path d="M105.932 212.369C105.977 213.218 106.223 214.043 106.647 214.78C107.072 215.516 107.664 216.142 108.376 216.606L127.096 227.387C132.157 230.316 140.379 230.316 145.448 227.387L170.032 213.186C175.093 210.294 175.093 205.521 170.032 202.593L151.297 191.798C150.584 191.334 149.991 190.709 149.567 189.972C149.142 189.236 148.897 188.409 148.853 187.56V163.894L105.939 188.696L105.932 212.369Z" fill="#37474F"/>
<path d="M156.279 194.683L151.297 191.79C150.584 191.327 149.991 190.702 149.566 189.965C149.142 189.229 148.897 188.402 148.853 187.553V163.894L105.932 188.696V212.369C105.977 213.218 106.223 214.043 106.647 214.78C107.072 215.516 107.664 216.142 108.376 216.606L113.271 219.426L156.279 194.683Z" fill="#263238"/>
<path d="M173.828 207.922V211.342C173.828 213.258 172.555 215.167 170.024 216.635L145.44 230.836C142.746 232.274 139.737 233.019 136.684 233.005V229.6C139.737 229.617 142.747 228.871 145.44 227.431L170.024 213.215C172.555 211.725 173.828 209.809 173.828 207.922Z" fill="#455A64"/>
<path d="M37.0132 241.791C37.9396 242.238 38.9583 242.462 39.9871 242.443C41.0159 242.424 42.0257 242.164 42.9351 241.682L208.924 145.846C209.815 145.268 210.557 144.487 211.088 143.567C211.62 142.647 211.926 141.614 211.982 140.553V5.8379C211.941 4.80743 211.657 3.80119 211.155 2.90054C210.652 1.9999 209.945 1.23013 209.09 0.653478C208.163 0.205739 207.145 -0.0177419 206.116 0.00109984C205.087 0.0199416 204.077 0.280577 203.168 0.761938L37.2012 96.569C36.311 97.1485 35.5702 97.9299 35.0387 98.8495C34.5073 99.7692 34.2003 100.801 34.1426 101.862V236.606C34.1817 237.635 34.4618 238.64 34.9604 239.54C35.459 240.441 36.1622 241.212 37.0132 241.791Z" fill="#455A64"/>
<path d="M42.9361 241.675L208.924 145.846C209.815 145.267 210.555 144.485 211.087 143.566C211.618 142.646 211.925 141.614 211.983 140.553V5.83784C211.983 3.88554 210.616 3.0974 208.924 4.07354L42.9434 99.9023C42.0532 100.482 41.3124 101.263 40.7809 102.183C40.2495 103.102 39.9424 104.135 39.8848 105.195V239.911C39.8848 241.863 41.2514 242.629 42.9361 241.675Z" fill="#318CFF"/>
<path d="M42.9361 241.675L208.924 145.846C209.815 145.267 210.555 144.485 211.087 143.566C211.618 142.646 211.925 141.614 211.983 140.553V5.83784C211.983 3.88554 210.616 3.0974 208.924 4.07354L42.9434 99.9023C42.0532 100.482 41.3124 101.263 40.7809 102.183C40.2495 103.102 39.9424 104.135 39.8848 105.195V239.911C39.8848 241.863 41.2514 242.629 42.9361 241.675Z" fill="#37474F"/>
<path d="M42.4884 245.167C41.6199 245.542 40.681 245.725 39.7354 245.705C38.7898 245.685 37.8595 245.463 37.0075 245.052C36.1515 244.474 35.4436 243.703 34.9411 242.801C34.4386 241.899 34.1557 240.892 34.1152 239.86V227.633L39.8492 230.952V243.179C39.8781 244.958 41.0061 245.76 42.4884 245.167Z" fill="#263238"/>
<path d="M39.877 230.952V243.172C39.877 245.124 41.2436 245.912 42.9283 244.936L208.924 149.107C209.815 148.527 210.556 147.745 211.088 146.824C211.619 145.903 211.926 144.869 211.982 143.807V131.566L39.877 230.952Z" fill="#37474F"/>
<path opacity="0.2" d="M39.8848 230.923V243.172C39.8848 245.124 41.2514 245.912 42.9361 244.936L208.924 149.107C209.816 148.527 210.557 147.745 211.089 146.824C211.62 145.903 211.926 144.869 211.983 143.807V131.566L39.8848 230.923Z" fill="black"/>
<path d="M45.6191 215.608V107.104C45.6539 106.467 45.8383 105.847 46.1574 105.294C46.4765 104.741 46.9213 104.272 47.4557 103.923L204.406 13.3073C205.425 12.7216 206.242 13.1988 206.242 14.363V122.874C206.208 123.512 206.023 124.132 205.704 124.685C205.385 125.237 204.94 125.707 204.406 126.056L47.4268 216.671C46.4362 217.257 45.6191 216.78 45.6191 215.608Z" fill="#318CFF"/>
<path opacity="0.3" d="M45.6191 215.608V107.104C45.6539 106.467 45.8383 105.847 46.1574 105.294C46.4765 104.741 46.9213 104.272 47.4557 103.923L204.406 13.3073C205.425 12.7216 206.242 13.1988 206.242 14.363V122.874C206.208 123.512 206.023 124.132 205.704 124.685C205.385 125.237 204.94 125.707 204.406 126.056L47.4268 216.671C46.4362 217.257 45.6191 216.78 45.6191 215.608Z" fill="black"/>
<path d="M125.929 185.145C125.091 185.687 124.391 186.42 123.889 187.283C123.386 188.146 123.094 189.116 123.037 190.113C123.037 191.942 124.324 192.687 125.929 191.769C126.769 191.227 127.469 190.495 127.971 189.632C128.474 188.769 128.765 187.799 128.822 186.801C128.8 184.972 127.513 184.227 125.929 185.145Z" fill="#455A64"/>
<path d="M40.7804 102.173C40.2358 103.091 39.9254 104.129 39.8765 105.195V230.952L34.1426 227.633V101.891C34.1844 100.823 34.4953 99.7835 35.0464 98.8683L40.7804 102.173Z" fill="#263238"/>
<path d="M235.099 5.20143C234.853 5.07723 234.577 5.02303 234.301 5.0447C234.026 5.06637 233.762 5.16309 233.538 5.32435L68.106 100.864C67.4776 101.267 66.9535 101.814 66.5765 102.458C66.1995 103.103 65.9803 103.828 65.9368 104.573V216.107C65.9112 216.469 65.9813 216.831 66.1399 217.157C66.2986 217.483 66.5402 217.762 66.8406 217.965C67.1877 218.153 69.0098 219.223 69.5738 219.52C69.7688 219.62 69.9869 219.666 70.2055 219.653C70.4242 219.64 70.6354 219.569 70.8175 219.448L236.271 123.872C236.9 123.469 237.424 122.923 237.801 122.278C238.178 121.633 238.397 120.908 238.44 120.163V8.08649C238.476 7.80727 238.433 7.52346 238.316 7.26765C238.198 7.01184 238.01 6.79441 237.775 6.64034C237.37 6.50296 235.49 5.46173 235.099 5.20143Z" fill="#318CFF"/>
<path d="M70.8469 102.419L236.271 6.90806C237.457 6.22838 238.441 6.78514 238.441 8.15175V120.228C238.398 120.974 238.179 121.698 237.802 122.343C237.425 122.988 236.9 123.534 236.271 123.937L70.8469 219.448C69.6611 220.128 68.6777 219.021 68.6777 217.655V106.128C68.7207 105.382 68.9396 104.657 69.3167 104.013C69.6937 103.368 70.2181 102.822 70.8469 102.419Z" fill="#FAFAFA"/>
<path d="M237.233 7.30571C237.631 7.30571 237.696 7.81186 237.696 8.11555V120.192C237.657 120.808 237.475 121.408 237.165 121.942C236.855 122.477 236.426 122.932 235.91 123.272L70.4854 218.819C70.383 218.889 70.2626 218.929 70.1383 218.934C69.7623 218.934 69.4153 218.334 69.4153 217.655V106.128C69.4542 105.51 69.6358 104.91 69.9457 104.374C70.2555 103.839 70.6853 103.382 71.2013 103.04L236.633 7.50094C236.813 7.3865 237.02 7.31936 237.233 7.30571ZM237.233 6.58263C236.893 6.5955 236.562 6.69506 236.271 6.87186L70.8469 102.419C70.2181 102.822 69.6937 103.368 69.3167 104.013C68.9396 104.657 68.7207 105.382 68.6777 106.128V217.655C68.6777 218.739 69.2779 219.657 70.1239 219.657C70.3796 219.655 70.6297 219.583 70.8469 219.448L236.271 123.872C236.9 123.469 237.425 122.923 237.802 122.278C238.179 121.633 238.398 120.908 238.441 120.163V8.08663C238.441 7.11048 237.956 6.55371 237.255 6.55371L237.233 6.58263Z" fill="#E0E0E0"/>
<path d="M66.863 217.965C67.0944 218.088 68.7647 219.043 69.495 219.455C69.2312 219.238 69.0223 218.962 68.8853 218.649C68.7484 218.336 68.6872 217.996 68.7069 217.655V113.135L65.9592 111.529V216.107C65.9365 216.469 66.0079 216.83 66.1663 217.155C66.3247 217.481 66.5647 217.76 66.863 217.965Z" fill="#F0F0F0"/>
<path d="M238.419 8.0938C238.419 6.74165 237.45 6.19212 236.25 6.87181L70.8469 102.419C70.2181 102.822 69.6937 103.368 69.3167 104.013C68.9396 104.657 68.7207 105.382 68.6777 106.128V113.134L238.419 15.1293V8.0938Z" fill="#318CFF"/>
<g opacity="0.4">
<path d="M236.272 6.90799L70.8472 102.419C70.2154 102.811 69.6951 103.358 69.3359 104.009L66.6172 102.433C66.9709 101.791 67.4838 101.251 68.1067 100.864L233.538 5.32447C233.761 5.16417 234.024 5.0674 234.298 5.04448C234.571 5.02156 234.846 5.07334 235.093 5.19431C235.476 5.43293 237.262 6.44523 237.71 6.68384C237.47 6.60274 237.214 6.58077 236.964 6.61979C236.713 6.65881 236.476 6.75767 236.272 6.90799Z" fill="white"/>
</g>
<path opacity="0.15" d="M65.957 111.537V104.573C65.984 103.805 66.2108 103.058 66.615 102.404L69.341 103.973C68.9482 104.615 68.7289 105.347 68.7047 106.099V113.106L65.957 111.537Z" fill="black"/>
<path d="M68.7065 113.135L68.6992 125.759L238.411 27.7687V15.1294L68.7065 113.135Z" fill="#EBEBEB"/>
<path d="M75.7709 112.202L86.7471 105.896V112.18L75.7637 118.521L75.7709 112.202Z" fill="#E0E0E0"/>
<path d="M89.459 104.298V106.786L94.9326 103.619V101.139L89.459 104.298Z" fill="#E0E0E0"/>
<path d="M89.459 108.138V110.625L94.9326 107.458V104.978L89.459 108.138Z" fill="#E0E0E0"/>
<path d="M97.6738 99.5552V102.043L103.147 98.8828V96.3954L97.6738 99.5552Z" fill="#E0E0E0"/>
<path d="M97.6738 103.395V105.882L103.147 102.722V100.235L97.6738 103.395Z" fill="#E0E0E0"/>
<path d="M105.879 94.8119V97.2993L111.353 94.1395V91.6521L105.879 94.8119Z" fill="#E0E0E0"/>
<path d="M105.879 98.6513V101.139L111.353 97.9788V95.4915L105.879 98.6513Z" fill="#E0E0E0"/>
<path d="M130.516 80.5891V83.0765L135.989 79.9167V77.4293L130.516 80.5891Z" fill="#E0E0E0"/>
<path d="M130.516 84.4357V86.9159L135.989 83.756V81.2687L130.516 84.4357Z" fill="#E0E0E0"/>
<path d="M138.729 75.853V78.3331L144.202 75.1733V72.6859L138.729 75.853Z" fill="#E0E0E0"/>
<path d="M138.729 79.6924V82.1726L144.202 79.0128V76.5254L138.729 79.6924Z" fill="#E0E0E0"/>
<path d="M146.936 71.1096L146.943 73.597L152.416 70.4372V67.9498L146.936 71.1096Z" fill="#E0E0E0"/>
<path d="M146.936 74.949L146.943 77.4364L152.416 74.2693V71.7892L146.936 74.949Z" fill="#E0E0E0"/>
<path d="M114.094 90.0758L127.782 82.1726V88.4923L114.094 96.3954V90.0758Z" fill="#E0E0E0"/>
<path d="M155.158 66.3663L166.134 60.0612V66.3519L155.15 72.6932L155.158 66.3663Z" fill="#E0E0E0"/>
<path d="M168.836 58.4632L168.843 60.9505L174.317 57.7907V55.3033L168.836 58.4632Z" fill="#E0E0E0"/>
<path d="M168.836 62.3025L168.843 64.7899L174.317 61.6301V59.1427L168.836 62.3025Z" fill="#E0E0E0"/>
<path d="M177.051 53.727V56.2144L182.524 53.0473V50.5599L177.051 53.727Z" fill="#E0E0E0"/>
<path d="M177.051 57.5665V60.0538L182.524 56.8868V54.3994L177.051 57.5665Z" fill="#E0E0E0"/>
<path d="M185.266 48.9836V51.471L190.739 48.3039V45.8165L185.266 48.9836Z" fill="#E0E0E0"/>
<path d="M185.266 52.823V55.3104L190.739 52.1433V49.6632L185.266 52.823Z" fill="#E0E0E0"/>
<path d="M209.9 34.7608V37.2482L215.374 34.0811V31.5938L209.9 34.7608Z" fill="#E0E0E0"/>
<path d="M209.9 38.6003V41.0876L215.374 37.9206V35.4404L209.9 38.6003Z" fill="#E0E0E0"/>
<path d="M218.115 30.0175V32.5049L223.589 29.345V26.8577L218.115 30.0175Z" fill="#E0E0E0"/>
<path d="M218.115 33.8568V36.3442L223.589 33.1844V30.697L218.115 33.8568Z" fill="#E0E0E0"/>
<path d="M226.322 25.2741V27.7614L231.803 24.6016V22.1143L226.322 25.2741Z" fill="#E0E0E0"/>
<path d="M226.322 29.1136V31.6009L231.803 28.4411V25.9537L226.322 29.1136Z" fill="#E0E0E0"/>
<path d="M193.479 44.2402L207.166 36.337V42.6639L193.479 50.5599V44.2402Z" fill="#E0E0E0"/>
<path d="M68.7047 113.135L65.957 111.529V124.176L68.6975 125.759L68.7047 113.135Z" fill="#E0E0E0"/>
<path d="M194.621 35.4405V35.9105C194.621 36.6336 195.142 36.9517 195.785 36.583L229.047 17.3854C229.386 17.1628 229.668 16.8635 229.87 16.5119C230.072 16.1602 230.189 15.7659 230.211 15.3608V14.8981C230.211 14.175 229.69 13.8496 229.047 14.2256L195.785 33.4232C195.446 33.6438 195.164 33.9416 194.961 34.2922C194.759 34.6428 194.642 35.0363 194.621 35.4405Z" fill="#F5F5F5"/>
<path d="M230.204 15.3608V14.8981C230.204 14.175 229.683 13.8496 229.04 14.2256L224.701 16.713V19.8728L229.04 17.3854C229.379 17.1628 229.661 16.8635 229.863 16.5119C230.065 16.1602 230.182 15.7659 230.204 15.3608Z" fill="#455A64"/>
<path d="M71.4395 127.328L235.685 32.5193V38.8245L85.12 125.759V207.937L71.4395 215.832V127.328Z" fill="#F0F0F0"/>
<path d="M85.1191 125.759L98.7997 117.863V124.169L85.1191 132.079V125.759Z" fill="#318CFF"/>
<path d="M85.1191 176.324L98.7997 168.428V174.733L85.1191 182.643V176.324Z" fill="#318CFF"/>
<path d="M85.1191 182.643L98.7997 174.747V181.053L85.1191 188.963V182.643Z" fill="#318CFF"/>
<path opacity="0.8" d="M85.1191 182.643L98.7997 174.747V181.053L85.1191 188.963V182.643Z" fill="white"/>
<path d="M167.23 128.912L180.911 121.016V127.321L167.23 135.232V128.912Z" fill="#318CFF"/>
<path opacity="0.3" d="M167.23 128.912L180.911 121.016V127.321L167.23 135.232V128.912Z" fill="black"/>
<path d="M167.23 135.232L180.911 127.336V133.641L167.23 141.551V135.232Z" fill="#318CFF"/>
<path opacity="0.4" d="M167.23 135.232L180.911 127.336V133.641L167.23 141.551V135.232Z" fill="black"/>
<path d="M167.23 141.559L180.911 133.663V139.968L167.23 147.878V141.559Z" fill="#318CFF"/>
<path opacity="0.5" d="M167.23 141.559L180.911 133.663V139.968L167.23 147.878V141.559Z" fill="black"/>
<path d="M167.23 147.878L180.911 139.982V146.287L167.23 154.198V147.878Z" fill="#318CFF"/>
<path opacity="0.3" d="M167.23 147.878L180.911 139.982V146.287L167.23 154.198V147.878Z" fill="black"/>
<path d="M153.559 86.2435L167.232 78.3475V109.953L153.559 117.863V86.2435Z" fill="#318CFF"/>
<path d="M153.559 124.176L167.232 116.28V160.525L153.559 168.435V124.176Z" fill="#318CFF"/>
<path d="M98.8008 155.781L112.474 147.885V154.191L98.8008 162.101V155.781Z" fill="#318CFF"/>
<path opacity="0.3" d="M98.8008 155.781L112.474 147.885V154.191L98.8008 162.101V155.781Z" fill="black"/>
<path d="M126.184 108.369L139.864 100.474V106.779L126.184 114.689V108.369Z" fill="#318CFF"/>
<path opacity="0.6" d="M126.184 108.369L139.864 100.474V106.779L126.184 114.689V108.369Z" fill="white"/>
<path d="M194.621 106.786L208.294 98.89V105.195L194.621 113.106V106.786Z" fill="#318CFF"/>
<path opacity="0.8" d="M194.621 106.786L208.294 98.89V105.195L194.621 113.106V106.786Z" fill="white"/>
<path d="M194.621 119.433L208.294 111.537V117.842L194.621 125.752V119.433Z" fill="#318CFF"/>
<path d="M71.2874 127.046L71.1211 127.14V216.425L235.844 121.305L236.018 121.211V31.9263L71.2874 127.046ZM235.36 114.516L222.344 122.028V116.482L235.36 108.977V114.516ZM71.7791 133.85L84.7944 126.338V131.884L71.7791 139.396V133.85ZM153.226 124.769V130.315L140.211 137.827V132.281L153.226 124.769ZM140.211 131.5V125.955L153.226 118.442V123.988L140.211 131.5ZM153.898 124.378L166.914 116.866V122.411L153.898 129.924V124.378ZM153.898 123.597V118.059L166.914 110.539V116.092L153.898 123.597ZM153.898 117.278V111.753L166.914 104.241V109.787L153.898 117.278ZM153.898 110.951V105.412L166.914 97.8921V103.438L153.898 110.951ZM153.226 111.341L140.211 118.854V113.308L153.226 105.795V111.341ZM153.226 112.122V117.668L140.211 125.181V119.635L153.226 112.122ZM139.538 125.571L126.523 133.084V127.538L139.538 120.025V125.571ZM139.538 126.345V131.891L126.523 139.404V133.858L139.538 126.345ZM139.538 132.672V138.218L126.523 145.731V140.185L139.538 132.672ZM139.538 138.992V144.537L126.523 152.05V146.504L139.538 138.992ZM140.211 138.601L153.226 131.088V136.634L140.211 144.147V138.601ZM153.226 137.415V142.961L140.211 150.474V144.928L153.226 137.415ZM153.898 137.025L166.914 129.512V135.058L153.898 142.571V137.025ZM153.898 136.244V130.698L166.914 123.185V128.731L153.898 136.244ZM167.586 122.802L180.601 115.289V120.835L167.586 128.348V122.802ZM167.586 122.021V116.475L180.601 108.962V114.508L167.586 122.021ZM167.586 115.701V110.155L180.601 102.643V108.189L167.586 115.701ZM167.586 109.375V103.8L180.601 96.2869V101.833L167.586 109.375ZM167.586 103.055V97.5089L180.601 89.9962V95.5349L167.586 103.055ZM167.586 96.728V91.182L180.601 83.6693V89.2153L167.586 96.728ZM166.914 97.1184L153.898 104.631V99.0852L166.914 91.5725V97.1184ZM153.226 105.022L140.211 112.534V106.988L153.226 99.4756V105.022ZM139.538 112.925L126.523 120.437V114.892L139.538 107.379V112.925ZM139.538 113.698V119.244L126.523 126.757V121.211L139.538 113.698ZM125.85 127.148L112.835 134.66V129.107L125.85 121.594V127.148ZM125.85 127.929V133.446L112.835 140.965V135.42L125.85 127.929ZM125.85 134.248V139.794L112.835 147.307V141.761L125.85 134.248ZM125.85 140.575V146.114L112.835 153.634V148.088L125.85 140.575ZM125.85 146.895V152.441L112.835 159.953V154.415L125.85 146.895ZM125.85 153.222V158.753L112.835 166.273V160.727L125.85 153.222ZM126.523 152.831L139.538 145.318V150.864L126.523 158.377V152.831ZM139.538 151.638V157.184L126.523 164.697V159.151L139.538 151.638ZM140.211 151.248L153.226 143.735V149.281L140.211 156.794V151.248ZM153.898 143.344L166.914 135.832V141.399L153.898 148.912V143.344ZM167.586 135.448L180.601 127.936V133.482L167.586 140.994V135.448ZM167.586 134.668V129.107L180.601 121.594V127.14L167.586 134.668ZM181.274 121.218L194.289 113.706V119.252L181.274 126.764V121.218ZM181.274 120.445V114.899L194.289 107.386V112.932L181.274 120.445ZM181.274 114.118V108.572L194.289 101.059V106.605L181.274 114.118ZM181.274 107.798V102.252L194.289 94.7395V100.285L181.274 107.798ZM181.274 101.471V95.9254L194.289 88.4126V93.9586L181.274 101.471ZM181.274 95.1517V89.6057L194.289 82.093V87.639L181.274 95.1517ZM181.274 88.8248V83.2788L194.289 75.7661V81.3121L181.274 88.8248ZM181.274 82.5051V76.9592L194.289 69.4465V74.9924L181.274 82.5051ZM180.601 82.8884L167.586 90.4083V84.8624L180.601 77.3496V82.8884ZM166.914 90.7843L153.898 98.297V92.7583L166.914 85.2384V90.7843ZM153.226 98.6875L140.211 106.2V100.654L153.226 93.1415V98.6875ZM139.538 106.591L126.523 114.103V108.557L139.538 101.045V106.591ZM125.85 114.501L112.835 122.014V116.468L125.85 108.955V114.501ZM125.85 115.282V120.821L112.835 128.341V122.795L125.85 115.282ZM112.163 128.724L99.1474 136.237V130.698L112.163 123.178V128.724ZM112.163 129.505V135.051L99.1474 142.564V137.018L112.163 129.505ZM112.163 135.824V141.399L99.1474 148.912V143.366L112.163 135.824ZM112.163 142.151V147.697L99.1474 155.21V149.664L112.163 142.151ZM112.163 148.471V154.017L99.1474 161.53V155.991L112.163 148.471ZM112.163 154.798V160.344L99.1474 167.857V162.311L112.163 154.798ZM112.163 161.118V166.663L99.1474 174.176V168.637L112.163 161.118ZM112.163 167.444V172.99L99.1474 180.503V174.957L112.163 167.444ZM112.835 167.054L125.85 159.541V165.087L112.835 172.6V167.054ZM125.85 165.868V171.414L112.835 178.927V173.381L125.85 165.868ZM126.523 165.478L139.538 157.965V163.511L126.523 171.024V165.478ZM140.211 157.574L153.226 150.062V155.608L140.211 163.12V157.574ZM153.898 149.671L166.914 142.159V147.705L153.898 155.217V149.671ZM167.586 141.768L180.601 134.255V139.801L167.586 147.314V141.768ZM181.274 133.865L194.289 126.352V131.898L181.274 139.411V133.865ZM181.274 133.091V127.545L194.289 120.033V125.579L181.274 133.091ZM194.933 119.642L207.948 112.129V117.675L194.933 125.188V119.642ZM194.933 118.861V113.315L207.948 105.803V111.348L194.933 118.861ZM194.933 112.542V106.996L207.948 99.4612V105.007L194.933 112.542ZM194.933 106.215V100.669L207.948 93.156V98.7381L194.933 106.215ZM194.933 99.895V94.3491L207.948 86.8363V92.3823L194.933 99.895ZM194.933 93.5682V88.0222L207.948 80.5095V86.0554L194.933 93.5682ZM194.933 87.2485V81.7025L207.948 74.1898V79.7358L194.933 87.2485ZM194.933 80.9216V75.3757L207.948 67.8629V73.4306L194.933 80.9216ZM194.933 74.602V69.0922L207.948 61.5794V67.1254L194.933 74.602ZM194.933 68.2751V62.7291L207.948 55.2164V60.7624L194.933 68.2751ZM194.26 68.6656L181.245 76.1783V70.6323L194.26 63.1196V68.6656ZM180.572 76.5687L167.557 84.0814V78.5355L180.572 71.0228V76.5687ZM166.885 84.4719L153.869 91.9846V86.4459L166.885 78.9332V84.4719ZM153.226 92.3751L140.211 99.8878V94.3418L153.226 86.8291V92.3751ZM139.538 100.278L126.523 107.791V102.245L139.538 94.7323V100.278ZM125.85 108.174L112.835 115.694V110.148L125.85 102.635V108.174ZM112.163 116.092L99.1474 123.605V118.066L112.163 110.546V116.092ZM112.163 116.873V122.419L99.1474 129.931V124.385L112.163 116.873ZM98.4749 130.322L85.4596 137.835V132.289L98.4749 124.776V130.322ZM98.4749 131.096V136.642L85.4596 144.154V138.608L98.4749 131.096ZM98.4749 137.422V142.968L85.4596 150.481V144.935L98.4749 137.422ZM98.4749 143.742V149.288L85.4596 156.801V151.255L98.4749 143.742ZM98.4749 150.069V155.615L85.4596 163.092V157.546L98.4749 150.069ZM98.4749 156.389V161.935L85.4596 169.447V163.887L98.4749 156.389ZM98.4749 162.716V168.261L85.4596 175.774V170.228L98.4749 162.716ZM98.4749 169.035V174.581L85.4596 182.094V176.548L98.4749 169.035ZM98.4749 175.362V180.908L85.4596 188.399V182.853L98.4749 175.362ZM98.4749 181.682V187.228L85.4596 194.74V189.194L98.4749 181.682ZM99.1474 181.298L112.163 173.779V179.324L99.1474 186.837V181.298ZM112.163 180.105V185.651L99.1474 193.164V187.604L112.163 180.105ZM112.835 179.715L125.85 172.202V177.748L112.835 185.261V179.715ZM126.523 171.768L139.538 164.256V169.802L126.523 177.314V171.768ZM140.211 163.865L153.226 156.352V161.898L140.211 169.411V163.865ZM153.898 155.969L166.914 148.449V153.995L153.898 161.508V155.969ZM167.586 148.066L180.601 140.553V146.099L167.586 153.612V148.066ZM181.274 140.163L194.289 132.65V138.196L181.274 145.709V140.163ZM194.933 132.289L207.948 124.769V130.315L194.933 137.827V132.289ZM194.933 131.508V125.962L207.948 118.449V123.995L194.933 131.508ZM208.671 118.066L221.686 110.546V116.092L208.671 123.605V118.066ZM208.671 117.285V111.753L221.686 104.241V109.787L208.671 117.285ZM208.671 110.958V105.419L221.686 97.8993V103.445L208.671 110.958ZM208.671 104.638V99.0924L221.686 91.5797V97.1257L208.671 104.638ZM208.671 98.3115V92.7728L221.686 85.2528V90.7843L208.671 98.3115ZM208.671 91.9918V86.4459L221.686 78.9332V84.4791L208.671 91.9918ZM208.671 85.665V80.1262L221.686 72.6063V78.1523L208.671 85.665ZM208.671 79.3453V73.7994L221.686 66.2866V71.8326L208.671 79.3453ZM208.671 73.0184V67.4797L221.686 59.9598V65.4768L208.671 73.0184ZM208.671 66.6988V61.1384L221.686 53.6257V59.1716L208.671 66.6988ZM208.671 60.3719V54.8332L221.686 47.3132V52.8592L208.671 60.3719ZM208.671 54.0523V48.5063L221.686 40.9936V46.5396L208.671 54.0523ZM207.991 54.4427L194.976 61.9554V56.4095L207.991 48.8968V54.4427ZM194.311 62.3459L181.296 69.8586V64.3127L194.311 56.7999V62.3459ZM180.623 70.2418L167.608 77.7618V72.2158L180.623 64.7031V70.2418ZM166.935 78.145L153.92 85.6577V80.119L166.935 72.6063V78.145ZM153.248 86.0482L140.232 93.5609V88.0222L153.248 80.5095V86.0482ZM139.56 93.9514L126.545 101.464V95.9254L139.56 88.4126V93.9514ZM125.872 101.855L112.857 109.367V103.8L125.872 96.2869V101.855ZM112.184 109.758L99.169 117.27V111.753L112.184 104.233V109.758ZM98.4749 117.661L85.4596 125.174V119.628L98.4749 112.115V117.661ZM98.4749 118.435V123.981L85.4596 131.493V125.947L98.4749 118.435ZM71.7791 140.177L84.7944 132.665V138.211L71.7791 145.723V140.177ZM71.7791 146.497L84.7944 138.984V144.53L71.7791 152.043V146.497ZM71.7791 152.824L84.7944 145.311V150.857L71.7791 158.37V152.824ZM71.7791 159.144L84.7944 151.631V157.177L71.7791 164.689V159.144ZM71.7791 165.47L84.7944 157.958V163.504L71.7791 171.016V165.47ZM71.7791 171.79L84.7944 164.277V169.823L71.7791 177.336V171.79ZM71.7791 178.117L84.7944 170.604V176.15L71.7791 183.663V178.117ZM71.7791 184.437L84.7944 176.924V182.47L71.7791 189.983V184.437ZM71.7791 190.763L84.7944 183.251V188.797L71.7791 196.309V190.763ZM71.7791 197.083L84.7944 189.57V195.116L71.7791 202.629V197.083ZM71.7791 203.41L84.7944 195.897V201.414L71.7791 208.927V203.41ZM85.4596 195.507L98.4749 187.994V193.54L85.4596 201.053V195.507ZM98.4749 194.314V199.838L85.4596 207.358V201.826L98.4749 194.314ZM99.1474 193.923L112.163 186.411V191.942L99.1474 199.455V193.923ZM112.835 186.027L125.85 178.515V184.061L112.835 191.573V186.027ZM126.523 178.124L139.538 170.611V176.107L126.523 183.62V178.124ZM140.211 170.221L153.226 162.708V168.233L140.211 175.745V170.221ZM153.898 162.318L166.914 154.805V160.329L153.898 167.842V162.318ZM167.586 154.415L180.601 146.902V152.426L167.586 159.939V154.415ZM181.274 146.511L194.289 138.999V144.523L181.274 152.036V146.511ZM194.933 138.608L207.948 131.096V136.62L194.933 144.133V138.608ZM208.671 130.712L221.686 123.192V128.717L208.671 136.229V130.712ZM208.671 129.931V124.385L221.686 116.873V122.419L208.671 129.931ZM235.367 108.196L222.352 115.709V110.163L235.367 102.65V108.196ZM235.367 101.869L222.352 109.382V103.836L235.367 96.3303V101.869ZM235.367 95.5494L222.337 103.077V97.5306L235.352 90.0179L235.367 95.5494ZM235.367 89.2225L222.352 96.7352V91.1892L235.367 83.6765V89.2225ZM235.367 82.9028L222.352 90.4156V84.8696L235.367 77.3569V82.9028ZM235.367 76.576L222.352 84.0887V78.5427L235.367 71.03V76.576ZM235.367 70.2563L222.337 77.769V72.2231L235.352 64.7104L235.367 70.2563ZM235.367 63.9294L222.352 71.4422V65.8962L235.367 58.3835V63.9294ZM235.367 57.6098L222.352 65.1225V59.5765L235.367 52.0638V57.6098ZM235.367 51.2829L222.352 58.7956V53.2497L235.367 45.7369V51.2829ZM235.367 44.9633L222.337 52.4615V46.93L235.352 39.4173L235.367 44.9633ZM235.367 38.6364L222.352 46.1491V40.6104L235.367 33.0976V38.6364ZM84.7872 120.018V125.564L71.7719 133.07V127.531L84.7872 120.018ZM71.7719 209.73L84.7872 202.217V207.741L71.7719 215.254V209.73ZM222.337 128.333V122.809L235.352 115.296V120.821L222.337 128.333Z" fill="#E0E0E0"/>
<path d="M180.912 70.4299L235.685 38.8317V70.4516L180.912 102.035V70.4299Z" fill="#FAFAFA"/>
<path d="M180.543 102.664V70.2202L180.724 70.119L236.039 38.2098V70.6613L180.543 102.664ZM181.266 70.6396V101.414L235.316 70.2419V39.4463L181.266 70.6396Z" fill="#E0E0E0"/>
<path d="M183.674 94.3997H183.588C183.519 94.3736 183.464 94.3222 183.433 94.2561C183.402 94.19 183.398 94.1145 183.421 94.0454L190.826 73.7994C190.84 73.763 190.862 73.7301 190.891 73.7029C190.919 73.6758 190.953 73.655 190.99 73.642C191.027 73.629 191.066 73.624 191.105 73.6275C191.144 73.6309 191.182 73.6427 191.216 73.662L199.22 78.4921L207.297 70.2636C207.346 70.2236 207.407 70.2018 207.471 70.2018C207.534 70.2018 207.595 70.2236 207.644 70.2636L215.598 75.4914L223.675 55.5924C223.689 55.558 223.711 55.5269 223.738 55.5011C223.766 55.4753 223.798 55.4553 223.833 55.4425C223.868 55.4296 223.906 55.4241 223.943 55.4262C223.981 55.4284 224.017 55.4382 224.051 55.455L232.258 59.6633C232.289 59.6795 232.317 59.7016 232.34 59.7285C232.362 59.7554 232.38 59.7866 232.39 59.8201C232.401 59.8537 232.405 59.8891 232.402 59.9242C232.399 59.9593 232.389 59.9935 232.373 60.0249C232.357 60.0562 232.335 60.084 232.308 60.1068C232.281 60.1296 232.25 60.1468 232.216 60.1576C232.183 60.1683 232.148 60.1724 232.112 60.1694C232.077 60.1665 232.043 60.1567 232.012 60.1406L224.058 56.0697L215.96 76.0047C215.944 76.0417 215.921 76.0746 215.89 76.1009C215.86 76.1273 215.825 76.1463 215.786 76.1566C215.751 76.1744 215.713 76.1836 215.674 76.1836C215.635 76.1836 215.597 76.1744 215.562 76.1566L207.536 70.8709L199.466 79.0923C199.423 79.1352 199.368 79.1628 199.307 79.1706C199.247 79.1785 199.186 79.1662 199.134 79.1357L191.23 74.4068L183.942 94.3129C183.909 94.3495 183.867 94.3768 183.82 94.3921C183.773 94.4073 183.723 94.4099 183.674 94.3997Z" fill="#455A64"/>
<path d="M191.078 72.9823C190.836 73.1406 190.635 73.3543 190.491 73.6058C190.348 73.8572 190.267 74.1393 190.254 74.4285C190.254 74.9563 190.623 75.1515 191.078 74.9057C191.32 74.747 191.521 74.5332 191.664 74.2818C191.808 74.0304 191.889 73.7486 191.903 73.4595C191.903 72.9317 191.534 72.7076 191.078 72.9823Z" fill="#318CFF"/>
<path d="M199.27 77.8703C199.028 78.0298 198.828 78.2439 198.685 78.4951C198.542 78.7463 198.46 79.0277 198.445 79.3165C198.445 79.8443 198.814 80.0395 199.27 79.7937C199.511 79.6342 199.711 79.4201 199.854 79.1689C199.997 78.9177 200.08 78.6363 200.094 78.3475C200.108 77.8269 199.74 77.61 199.27 77.8703Z" fill="#318CFF"/>
<path d="M207.492 69.4898C207.251 69.6493 207.051 69.8634 206.908 70.1146C206.764 70.3658 206.682 70.6472 206.668 70.936C206.668 71.4638 207.037 71.659 207.492 71.4132C207.734 71.2545 207.935 71.0407 208.078 70.7893C208.222 70.5379 208.303 70.2561 208.317 69.967C208.317 69.4464 207.948 69.2295 207.492 69.4898Z" fill="#318CFF"/>
<path d="M215.699 74.8767C215.457 75.0349 215.256 75.2486 215.112 75.5001C214.969 75.7516 214.888 76.0336 214.875 76.3228C214.875 76.8507 215.244 77.0459 215.699 76.8001C215.942 76.6418 216.143 76.4281 216.286 76.1766C216.43 75.9251 216.511 75.6431 216.524 75.3539C216.524 74.8767 216.155 74.6381 215.699 74.8767Z" fill="#318CFF"/>
<path d="M223.906 54.6959C223.664 54.8541 223.463 55.0679 223.319 55.3193C223.176 55.5708 223.095 55.8529 223.082 56.142C223.082 56.6699 223.451 56.8651 223.906 56.6193C224.148 56.4606 224.349 56.2468 224.492 55.9954C224.636 55.744 224.717 55.4622 224.731 55.1731C224.731 54.6308 224.362 54.4284 223.906 54.6959Z" fill="#318CFF"/>
<path d="M232.111 58.9041C231.869 59.0623 231.668 59.276 231.524 59.5275C231.381 59.779 231.3 60.061 231.287 60.3502C231.287 60.8781 231.656 61.0733 232.111 60.8274C232.354 60.6692 232.555 60.4555 232.698 60.204C232.842 59.9525 232.923 59.6705 232.936 59.3813C232.936 58.8535 232.567 58.6365 232.111 58.9041Z" fill="#318CFF"/>
<path d="M258.469 155.275L243.906 163.685L258.469 172.094L273.032 163.685L258.469 155.275Z" fill="#455A64"/>
<path d="M273.031 163.67V197.112L258.469 205.521V172.101L273.031 163.67Z" fill="#37474F"/>
<path d="M258.469 172.101V205.521L243.906 197.112V163.67L258.469 172.101Z" fill="#263238"/>
<path d="M239.309 180.843L224.746 189.252L239.309 197.662L253.871 189.252L239.309 180.843Z" fill="#318CFF"/>
<path opacity="0.3" d="M239.309 180.843L224.746 189.252L239.309 197.662L253.871 189.252L239.309 180.843Z" fill="white"/>
<path d="M253.869 189.231V208.175L239.307 216.585V197.662L253.869 189.231Z" fill="#318CFF"/>
<path d="M239.309 197.662V216.585L224.746 208.175V189.238L239.309 197.662Z" fill="#318CFF"/>
<path opacity="0.1" d="M239.309 197.662V216.585L224.746 208.175V189.238L239.309 197.662Z" fill="black"/>
<path d="M220.147 184.039L205.584 192.448L220.147 200.858L234.709 192.448L220.147 184.039Z" fill="#318CFF"/>
<path opacity="0.88" d="M220.147 184.039L205.584 192.448L220.147 200.858L234.709 192.448L220.147 184.039Z" fill="white"/>
<path d="M234.709 192.434V219.238L220.146 227.648V200.858L234.709 192.434Z" fill="#318CFF"/>
<path opacity="0.75" d="M234.709 192.434V219.238L220.146 227.648V200.858L234.709 192.434Z" fill="white"/>
<path d="M220.147 200.858V227.648L205.584 219.238V192.434L220.147 200.858Z" fill="#318CFF"/>
<path opacity="0.6" d="M220.147 200.858V227.648L205.584 219.238V192.434L220.147 200.858Z" fill="white"/>
<path d="M200.985 212.441L186.422 220.85L200.985 229.26L215.547 220.85L200.985 212.441Z" fill="#318CFF"/>
<path opacity="0.3" d="M200.985 212.441L186.422 220.85L200.985 229.26L215.547 220.85L200.985 212.441Z" fill="black"/>
<path d="M215.549 220.829V230.301L200.986 238.711V229.26L215.549 220.829Z" fill="#318CFF"/>
<path opacity="0.4" d="M215.549 220.829V230.301L200.986 238.711V229.26L215.549 220.829Z" fill="black"/>
<path d="M200.985 229.26V238.711L186.422 230.301V220.829L200.985 229.26Z" fill="#318CFF"/>
<path opacity="0.55" d="M200.985 229.26V238.711L186.422 230.301V220.829L200.985 229.26Z" fill="black"/>
<path d="M121.65 271.263V276.78L116.205 261.979V256.476L121.65 271.263Z" fill="#263238"/>
<path d="M121.656 271.27V276.78L144.115 268.985V263.476L121.656 271.27Z" fill="#37474F"/>
<path d="M116.205 256.469L121.657 271.27L144.116 263.476C137.948 258.096 127.225 255.406 116.205 256.469Z" fill="#455A64"/>
<path d="M92.741 272.275C92.7374 272.331 92.7374 272.386 92.741 272.442V272.275Z" fill="#318CFF"/>
<path d="M119.414 278.219L116.117 293.91C102.502 292.579 92.6607 285.696 92.7764 277.821V272.456C92.7764 280.265 102.588 287.084 116.124 288.4L118.409 277.619L119.414 278.219Z" fill="#318CFF"/>
<path opacity="0.4" d="M119.414 278.219L116.117 293.91C102.502 292.579 92.6607 285.696 92.7764 277.821V272.456C92.7764 280.265 102.588 287.084 116.124 288.4L118.409 277.619L119.414 278.219Z" fill="black"/>
<path d="M118.635 288.581V294.09C124.255 294.407 129.884 293.628 135.208 291.798C141.628 289.571 146.162 286.014 147.977 281.842C148.509 280.628 148.794 279.32 148.816 277.995C148.816 277.467 148.816 272.297 148.816 272.297C148.816 272.297 147.261 272.174 145.439 270.236L141.231 271.682L121.975 278.364L118.635 288.581Z" fill="#318CFF"/>
<path opacity="0.6" d="M118.635 288.581V294.09C124.255 294.407 129.884 293.628 135.208 291.798C141.628 289.571 146.162 286.014 147.977 281.842C148.509 280.628 148.794 279.32 148.816 277.995C148.816 277.467 148.816 272.297 148.816 272.297C148.816 272.297 147.261 272.174 145.439 270.236L141.231 271.682L121.975 278.364L118.635 288.581Z" fill="white"/>
<path d="M101.873 265.992L118.605 275.652V270.142L101.873 260.482V265.992Z" fill="#318CFF"/>
<path opacity="0.1" d="M101.873 265.992L118.605 275.652V270.142L101.873 260.482V265.992Z" fill="black"/>
<path d="M92.98 270.468C91.1506 279.08 101.447 286.968 116.118 288.4L119.452 272.709L100.088 261.531C96.0096 264.069 93.703 266.997 92.98 270.468Z" fill="#318CFF"/>
<path opacity="0.3" d="M92.98 270.468C91.1506 279.08 101.447 286.968 116.118 288.4L119.452 272.709L100.088 261.531C96.0096 264.069 93.703 266.997 92.98 270.468Z" fill="black"/>
<path d="M118.729 288.125L118.635 288.581C124.253 288.906 129.882 288.138 135.208 286.317C141.628 284.09 146.162 280.533 147.977 276.361C149.683 272.406 148.78 268.313 145.439 264.792L141.231 266.238L121.975 272.919L118.729 288.125Z" fill="#318CFF"/>
<path opacity="0.75" d="M118.729 288.125L118.635 288.581C124.253 288.906 129.882 288.138 135.208 286.317C141.628 284.09 146.162 280.533 147.977 276.361C149.683 272.406 148.78 268.313 145.439 264.792L141.231 266.238L121.975 272.919L118.729 288.125Z" fill="white"/>
<path d="M101.873 260.482L118.605 270.142L113.688 256.78C109.558 257.286 105.554 258.541 101.873 260.482Z" fill="#318CFF"/>
<path d="M119.415 278.219V272.709L116.074 288.4V293.91L119.415 278.219Z" fill="#318CFF"/>
<path opacity="0.55" d="M119.415 278.219V272.709L116.074 288.4V293.91L119.415 278.219Z" fill="black"/>
<path d="M140.76 248.204L137.115 250.308L140.76 252.413L144.404 250.308L140.76 248.204Z" fill="#318CFF"/>
<path opacity="0.3" d="M140.76 248.204L137.115 250.308L140.76 252.413L144.404 250.308L140.76 248.204Z" fill="black"/>
<path d="M144.404 250.308V252.42L140.76 254.524V252.413L144.404 250.308Z" fill="#318CFF"/>
<path opacity="0.4" d="M144.404 250.308V252.42L140.76 254.524V252.413L144.404 250.308Z" fill="black"/>
<path d="M140.76 252.413V254.524L137.115 252.42V250.308L140.76 252.413Z" fill="#318CFF"/>
<path opacity="0.55" d="M140.76 252.413V254.524L137.115 252.42V250.308L140.76 252.413Z" fill="black"/>
<path d="M146.329 246.57L159.836 238.776C160.27 238.545 160.752 238.421 161.244 238.412C161.735 238.403 162.221 238.51 162.663 238.725C163.386 239.159 163.386 239.889 162.569 240.359L149.062 248.154C148.628 248.382 148.146 248.506 147.655 248.515C147.164 248.523 146.678 248.417 146.235 248.204C145.483 247.771 145.519 247.04 146.329 246.57Z" fill="#E0E0E0"/>
<path d="M148.974 252.948L145.33 255.052L148.974 257.156L152.619 255.052L148.974 252.948Z" fill="#318CFF"/>
<path opacity="0.88" d="M148.974 252.948L145.33 255.052L148.974 257.156L152.619 255.052L148.974 252.948Z" fill="white"/>
<path d="M152.619 255.045V257.156L148.975 259.26V257.156L152.619 255.045Z" fill="#318CFF"/>
<path opacity="0.75" d="M152.619 255.045V257.156L148.975 259.26V257.156L152.619 255.045Z" fill="white"/>
<path d="M148.974 257.156V259.26L145.33 257.156V255.045L148.974 257.156Z" fill="#318CFF"/>
<path opacity="0.6" d="M148.974 257.156V259.26L145.33 257.156V255.045L148.974 257.156Z" fill="white"/>
<path d="M154.541 251.306L168.04 243.512C168.474 243.28 168.956 243.155 169.447 243.144C169.938 243.134 170.425 243.24 170.868 243.454C171.627 243.895 171.591 244.625 170.781 245.088L157.274 252.897C156.839 253.126 156.357 253.249 155.866 253.258C155.375 253.267 154.889 253.161 154.447 252.948C153.716 252.507 153.716 251.776 154.541 251.306Z" fill="#E0E0E0"/>
<path d="M157.181 257.691L153.537 259.795L157.189 261.899L160.833 259.795L157.181 257.691Z" fill="#318CFF"/>
<path opacity="0.3" d="M157.181 257.691L153.537 259.795L157.189 261.899L160.833 259.795L157.181 257.691Z" fill="white"/>
<path d="M160.832 259.788V261.899L157.188 264.004V261.899L160.832 259.788Z" fill="#318CFF"/>
<path d="M157.189 261.899V264.004L153.537 261.899V259.788L157.189 261.899Z" fill="#318CFF"/>
<path opacity="0.1" d="M157.189 261.899V264.004L153.537 261.899V259.788L157.189 261.899Z" fill="black"/>
<path d="M162.749 256.057L176.256 248.255C176.691 248.026 177.173 247.903 177.664 247.894C178.155 247.885 178.641 247.991 179.083 248.204C179.843 248.645 179.806 249.376 178.997 249.838L165.49 257.633C165.056 257.864 164.574 257.99 164.083 258C163.592 258.01 163.105 257.904 162.662 257.691C161.903 257.25 161.947 256.52 162.749 256.057Z" fill="#E0E0E0"/>
<path d="M165.394 262.427L161.75 264.531L165.394 266.635L169.039 264.531L165.394 262.427Z" fill="#455A64"/>
<path d="M169.039 264.531V266.643L165.395 268.747V266.635L169.039 264.531Z" fill="#37474F"/>
<path d="M165.394 266.635V268.747L161.75 266.643V264.531L165.394 266.635Z" fill="#263238"/>
<path d="M170.964 260.8L184.471 252.998C184.906 252.77 185.388 252.646 185.879 252.637C186.37 252.629 186.856 252.735 187.298 252.948C188.057 253.381 188.021 254.112 187.204 254.582L173.705 262.377C173.27 262.607 172.788 262.731 172.297 262.74C171.806 262.749 171.319 262.642 170.877 262.427C170.118 261.993 170.161 261.263 170.964 260.8Z" fill="#E0E0E0"/>
<path d="M279.697 148.254C284.708 148.254 287.087 149.7 288.895 154.458C290.702 159.216 295.482 170.257 295.576 173.526C295.677 176.917 284.73 187.199 285.149 187.025C285.265 186.967 281.816 180.792 281.816 180.792L287.962 173.265L284.441 163.048L279.697 148.254Z" fill="#FFA8A7"/>
<path d="M285.904 260.598C286.215 260.894 286.273 261.176 286.258 262.246C286.244 263.317 286.699 264.51 286.15 265.507C285.745 266.231 283.648 266.766 282.585 266.231C281.658 265.624 280.83 264.88 280.126 264.025C279.465 263.271 278.74 262.577 277.957 261.95C277.053 261.278 276.005 260.829 275.065 260.215C274.328 259.737 273.709 259.099 273.256 258.347C272.802 257.596 272.526 256.751 272.447 255.876C272.387 255.306 272.503 254.73 272.78 254.228C273.005 253.958 273.301 253.757 273.635 253.647C273.968 253.537 274.326 253.523 274.667 253.606C275.687 253.772 279.143 255.703 279.938 256.252C280.98 256.932 285.586 260.294 285.904 260.598Z" fill="#263238"/>
<path d="M280.827 256.173C280.79 256.939 277.558 255.146 276.235 255.319H276.199C274.962 255.912 275.989 257.64 277.132 258.523C278.274 259.405 282.02 262.138 282.02 262.138L282.786 257.706L280.827 256.173Z" fill="#FFA8A7"/>
<path d="M266.799 268.66C267.399 268.66 267.666 270.627 267.782 272.138C267.862 273.309 268.31 275.226 267.89 276.086C267.471 276.946 265.902 277.482 263.465 277.431C261.882 277.431 259.409 278.436 257.717 279.354C256.013 280.174 254.089 280.415 252.236 280.041C250.067 279.759 247.84 278.472 247.5 277.576C247.16 276.679 247.623 276.245 252.757 274.134C252.807 274.134 258.18 271.769 260.71 269.072L266.799 268.66Z" fill="#263238"/>
<path d="M252.778 274.134C252.055 274.423 251.455 274.683 250.913 274.915C250.775 275.399 250.963 276.173 253.234 276.549C256.69 277.127 266.857 269.47 266.857 269.47C266.857 269.47 265.41 269.875 265.128 269.043H260.71C258.18 271.769 252.778 274.112 252.778 274.134Z" fill="#FFA8A7"/>
<path d="M287.963 235.449C288.017 232.079 287.682 228.714 286.965 225.42C286.965 225.42 287.573 212.506 287.638 204.393C287.775 188.341 287.471 185.984 283.921 179.086C283.921 179.086 263.191 176.664 262.316 186.765C261.231 199.346 259.966 220.395 259.995 226.389C259.995 230.851 260.53 235.688 260.776 245.804C260.935 252.311 261.614 261.437 260.689 269.101C261.86 271.068 265.027 271.032 266.835 269.499C267.355 261.993 271.087 247.619 271.665 242.608C271.979 238.988 271.828 235.343 271.217 231.762C271.217 231.762 273.964 210.33 274.449 207.069C275.152 210.517 275.554 214.021 275.649 217.539C275.649 218.985 276.141 223.736 276.958 231.762C277.457 236.65 280.913 255.753 281.665 261.892C283.4 263.57 285.642 262.413 285.743 261.69C286.322 254.199 287.963 240.128 287.963 235.449Z" fill="#FFA8A7"/>
<path opacity="0.15" d="M274.471 207.047L276.3 196.642C279.421 196.16 282.292 194.654 284.464 192.362C284.464 192.362 283.364 196.519 277.956 197.936L275.787 207.336L275.425 215.919L274.471 207.047Z" fill="black"/>
<path d="M269.25 144.762L270.11 154.191L278.397 153.692L277.761 143.229L269.25 144.762Z" fill="#FFA8A7"/>
<path d="M285.88 181.595C284.93 179.086 283.719 176.684 282.265 174.429C285.808 163.019 286.943 159.18 286.256 154.299C285.815 151.197 283.364 148.095 280.356 148.261H278.086C277.956 150.431 271.947 150.525 269.669 149.035L267.565 149.093C266.083 149.621 261.057 157.047 260.479 161.927C260.023 165.912 263.154 169.368 263.154 169.368C263.166 171.06 263.067 172.75 262.858 174.429C262.858 174.429 262.858 184.082 262.858 188.891C262.858 188.891 264.022 192.593 276.184 191.436C287.03 190.409 287.261 186.714 287.261 186.714C287.002 184.96 286.539 183.242 285.88 181.595Z" fill="#318CFF"/>
<g opacity="0.3">
<path d="M285.88 181.595C284.93 179.086 283.719 176.684 282.265 174.429C285.808 163.019 286.943 159.18 286.256 154.299C285.815 151.197 283.364 148.095 280.356 148.261H278.086C277.956 150.431 271.947 150.525 269.669 149.035L267.565 149.093C266.083 149.621 261.057 157.047 260.479 161.927C260.023 165.912 263.154 169.368 263.154 169.368C263.166 171.06 263.067 172.75 262.858 174.429C262.858 174.429 262.858 184.082 262.858 188.891C262.858 188.891 264.022 192.593 276.184 191.436C287.03 190.409 287.261 186.714 287.261 186.714C287.002 184.96 286.539 183.242 285.88 181.595Z" fill="black"/>
</g>
<path d="M270.502 122.693C269.28 122.533 268.037 122.669 266.878 123.089C265.719 123.509 264.678 124.202 263.843 125.109C259.605 129.881 264.255 133.395 264.255 133.395L270.502 122.693Z" fill="#263238"/>
<path d="M263.132 134.393C263.132 134.393 261.289 137.162 261.527 137.459C261.955 137.743 262.43 137.948 262.93 138.066L263.132 134.393Z" fill="#F28F8F"/>
<path d="M268.758 125.622C266.972 126.54 263.885 128.232 263.075 134.798C262.243 141.544 263.74 143.887 264.658 144.776C265.273 145.376 268.476 145.601 270.147 145.087C272.243 144.444 276.777 142.195 278.903 138.739C281.412 134.653 281.947 129.194 279.069 127.046C275.02 124.046 270.27 124.848 268.758 125.622Z" fill="#FFA8A7"/>
<path d="M267.869 133.381C264.131 131.479 265.086 126.519 265.086 126.519C265.086 126.519 270.422 118.89 280.27 123.822C283.676 125.528 285.722 129.404 285.643 133.945C285.643 136.779 284.517 139.497 282.512 141.501C280.508 143.506 277.79 144.632 274.956 144.632C273.303 144.632 271.717 143.975 270.548 142.806C269.379 141.637 268.723 140.052 268.723 138.399V137.987L269.041 138.088C269.549 138.208 270.08 138.2 270.584 138.065C271.089 137.93 271.553 137.672 271.933 137.314C273.574 135.868 273.77 133.128 271.695 132.433C269.619 131.739 268.542 134.169 268.542 134.169L267.739 136.338C267.546 136.268 267.368 136.16 267.216 136.021C267.063 135.882 266.94 135.714 266.853 135.528C266.766 135.341 266.716 135.139 266.707 134.933C266.698 134.727 266.729 134.522 266.799 134.328C266.887 134.095 267.03 133.886 267.217 133.721C267.403 133.556 267.627 133.439 267.869 133.381Z" fill="#263238"/>
<path d="M245.273 134.899L227.5 143.8L235.859 167.886L252.46 158.948L245.273 134.899Z" fill="#318CFF"/>
<path d="M244.427 137.227L229.518 144.697L236.922 165.413L250.848 157.914L244.427 137.227Z" fill="#F5F5F5"/>
<path opacity="0.15" d="M241.275 139.396L241 138.673C240.848 138.268 239.612 138.493 238.238 139.172L235.613 140.467C234.247 141.146 233.256 142.028 233.408 142.441L233.683 143.164L241.275 139.396Z" fill="black"/>
<path d="M241.037 136.468C240.943 136.208 240.408 136.244 239.837 136.541L238.81 137.068C238.81 137.068 238.21 135.478 235.845 136.533C233.481 137.589 233.987 139.426 233.987 139.426L232.895 140.004C232.295 140.322 231.861 140.792 231.926 141.045L232.049 141.515L241.211 136.938L241.037 136.468Z" fill="#37474F"/>
<path d="M240.039 137.509C239.186 137.914 238.853 138.109 239.085 138.739C239.316 139.368 239.598 139.968 239.598 139.968L235.549 142C235.549 142 235.231 141.089 235.086 140.741C234.941 140.394 234.659 140.214 234.016 140.539L233.777 140.279L240.169 137.162L240.039 137.509Z" fill="#263238"/>
<path d="M241.44 139.44L241.172 138.717C241.02 138.312 239.784 138.529 238.41 139.208L235.785 140.51C234.411 141.19 233.428 142.072 233.58 142.477L233.847 143.2L241.44 139.44Z" fill="#37474F"/>
<path d="M267.543 149.093C264.745 149.05 263.053 149.295 259.235 154.964C255.417 160.633 248.331 171.045 247.507 172.426C246.35 174.306 246.061 177.192 247.03 178.934C247.904 180.575 249.452 181.147 253.855 176.468C257.109 173.005 263.978 163.807 263.978 163.807C263.978 163.807 269.293 153.894 267.543 149.093Z" fill="#FFA8A7"/>
<path d="M248.766 180.142C246.459 180.865 237.992 170.785 235.642 167.755C233.751 165.231 231.528 162.974 229.033 161.045C225.772 158.551 226.315 154.812 227.811 151.407C228.332 150.221 229.981 151.024 229.981 151.024L230.552 152.665L231.535 155.507C232.222 156.165 232.62 156.382 232.663 156.186C232.757 155.825 232.186 154.299 232.222 152.716C232.273 150.814 233.589 152.086 233.972 152.759C234.499 153.783 234.951 154.844 235.324 155.933C235.96 157.647 235.657 159.361 236.452 160.539C237.247 161.718 248.744 171.262 248.744 171.262L248.766 180.142Z" fill="#FFA8A7"/>
<path d="M282.295 174.429C282.295 174.429 274.19 179.216 262.837 174.429C261.825 180.384 261.137 186.39 260.777 192.419C260.372 200.098 259.482 216.577 259.482 216.577C259.482 216.577 262.83 220.489 274.79 219.694C286.287 218.971 288.311 215.934 288.311 215.934C288.311 215.934 288.311 201.132 288.398 194.661C288.478 186.389 287.321 181.891 282.295 174.429Z" fill="#318CFF"/>
<path opacity="0.5" d="M282.295 174.429C282.295 174.429 274.19 179.216 262.837 174.429C261.825 180.384 261.137 186.39 260.777 192.419C260.372 200.098 259.482 216.577 259.482 216.577C259.482 216.577 262.83 220.489 274.79 219.694C286.287 218.971 288.311 215.934 288.311 215.934C288.311 215.934 288.311 201.132 288.398 194.661C288.478 186.389 287.321 181.891 282.295 174.429Z" fill="black"/>
<path d="M286.038 130.763L287.94 129.028C287.685 128.753 287.344 128.572 286.973 128.516C286.602 128.459 286.223 128.529 285.897 128.715C285.571 128.901 285.318 129.192 285.178 129.54C285.039 129.888 285.021 130.273 285.127 130.633C284.896 130.633 284.657 130.597 284.404 130.597V145.839C284.404 147.942 285.237 149.96 286.721 151.451C288.205 152.941 290.219 153.783 292.322 153.793V138.507C292.315 136.693 291.687 134.937 290.545 133.528C289.402 132.12 287.812 131.144 286.038 130.763Z" fill="#263238"/>
</svg>
