<svg width="367" height="301" viewBox="0 0 367 301" fill="none" xmlns="http://www.w3.org/2000/svg">
<path d="M56.4048 273.079C127.294 310.11 242.219 310.11 313.108 273.079C383.997 236.049 383.988 176.006 313.108 138.975C242.227 101.944 127.294 101.944 56.4048 138.975C-14.4842 176.006 -14.4757 236.074 56.4048 273.079Z" fill="#F5F5F5"/>
<path d="M329.868 208.823C319.216 213.9 301.949 213.9 291.28 208.823C280.612 203.747 280.62 195.507 291.28 190.431C301.94 185.354 319.199 185.354 329.868 190.431C340.536 195.507 340.528 203.739 329.868 208.823Z" fill="#E0E0E0"/>
<path d="M102.97 114.567C89.4756 122.359 78.5449 141.302 78.5449 156.869C78.5449 172.436 89.4756 178.755 102.97 170.972C116.464 163.188 127.395 144.237 127.395 128.67C127.395 113.103 116.456 106.775 102.97 114.567ZM100.906 158.874C99.2412 159.923 97.337 160.532 95.3725 160.642C90.6347 160.642 90.1186 155.05 90.1186 152.647C90.1186 143.256 96.9884 131.369 105.119 126.674C106.779 125.622 108.681 125.013 110.643 124.906C115.39 124.906 115.897 130.498 115.897 132.901C115.855 142.283 108.994 154.178 100.906 158.874Z" fill="#455A64"/>
<path d="M111.278 124.956C111.054 124.926 110.828 124.909 110.601 124.906C109.413 124.946 108.242 125.207 107.149 125.675C107.257 126.435 107.311 127.201 107.31 127.968C107.31 137.351 100.44 149.246 92.3101 153.933C91.6459 154.319 90.9529 154.652 90.2373 154.931C90.3928 156.345 90.8924 157.698 91.6925 158.874C92.1082 159.443 92.6572 159.902 93.2914 160.21C93.9256 160.519 94.6257 160.667 95.3304 160.642C97.2957 160.536 99.2008 159.927 100.863 158.874C108.994 154.178 115.855 142.283 115.855 132.901C115.855 130.616 115.39 125.464 111.278 124.956Z" fill="#263238"/>
<path d="M120.204 112.841L108.089 105.844C103.648 103.247 97.5223 103.602 90.754 107.477C77.2175 115.269 66.3291 134.212 66.3291 149.779C66.3291 157.478 69.0026 162.901 73.3342 165.49L73.4527 165.574H73.5204L85.4663 172.469H85.5256C83.4468 171.174 81.7799 169.314 80.7201 167.106C79.7912 165.205 79.1714 163.169 78.8842 161.073C78.6636 159.651 78.5505 158.215 78.5458 156.776C78.5458 141.2 89.4765 122.257 102.971 114.474C104.219 113.758 105.52 113.139 106.862 112.621C108.821 111.823 110.895 111.34 113.005 111.191C115.508 110.994 118.014 111.536 120.213 112.748L120.204 112.841Z" fill="#37474F"/>
<path d="M100.568 53.915L89.1716 47.3329L72.0056 57.2399L32.166 198.722L43.5705 205.304L60.4996 195.524L100.568 53.915Z" fill="#37474F"/>
<path d="M60.5004 195.524L43.5713 205.304L83.4701 63.7882L100.568 53.915L60.5004 195.524Z" fill="#455A64"/>
<path d="M43.5705 205.304L83.4694 63.7882L72.0056 57.2399L32.166 198.722L43.5705 205.304Z" fill="#263238"/>
<path d="M36.6085 91.7665C23.1228 99.5584 12.1836 118.501 12.1836 134.068C12.1836 149.635 23.1397 155.963 36.6085 148.18C50.0773 140.396 61.0334 121.445 61.0334 105.878C61.0334 90.3113 50.145 83.983 36.6085 91.7665ZM34.5273 136.073C32.8635 137.124 30.959 137.733 28.9942 137.841C24.248 137.841 23.7404 132.249 23.7404 129.846C23.7404 120.464 30.6017 108.569 38.7321 103.873C40.3947 102.82 42.2998 102.211 44.2651 102.105C49.0029 102.105 49.519 107.697 49.519 110.1C49.519 119.482 42.6492 131.378 34.5273 136.073Z" fill="#455A64"/>
<path d="M44.9418 102.156C44.7174 102.126 44.4914 102.109 44.265 102.105C43.073 102.145 41.8992 102.409 40.8048 102.883C40.9126 103.64 40.9663 104.403 40.9655 105.168C40.9655 114.55 34.1042 126.445 25.9738 131.132C25.3141 131.515 24.627 131.849 23.918 132.131C24.0722 133.548 24.5751 134.906 25.3816 136.082C25.7983 136.65 26.3477 137.107 26.9818 137.414C27.616 137.72 28.3156 137.867 29.0195 137.841C30.9843 137.733 32.8889 137.124 34.5526 136.073C42.6745 131.378 49.5443 119.482 49.5443 110.1C49.5189 107.816 49.0451 102.663 44.9418 102.156Z" fill="#263238"/>
<path d="M53.8668 90.0406L41.7516 83.0439C37.3269 80.4635 31.2016 80.8188 24.4334 84.7359C10.8969 92.5194 0 111.462 0 127.038C0 134.736 2.68192 140.159 7.00514 142.748L7.12359 142.833H7.19127L19.1203 149.779H19.188C17.107 148.487 15.4371 146.63 14.3741 144.423C13.4463 142.52 12.8266 140.481 12.5382 138.383C12.3173 136.961 12.2041 135.524 12.1998 134.085C12.1998 118.51 23.139 99.5669 36.6247 91.7834C37.8747 91.0711 39.1755 90.4518 40.5164 89.9306C42.4784 89.1324 44.5543 88.6498 46.6671 88.5008C49.1676 88.3045 51.6707 88.8458 53.8668 90.0575V90.0406Z" fill="#37474F"/>
<path d="M227.346 249.306L235.341 264.408C241.705 263.399 247.841 261.271 253.463 258.122L234.131 253.781C232.16 254.907 229.825 248.875 227.346 249.306Z" fill="#318CFF"/>
<path opacity="0.2" d="M227.346 249.306L235.341 264.408C241.705 263.399 247.841 261.271 253.463 258.122L234.131 253.781C232.16 254.907 229.825 248.875 227.346 249.306Z" fill="black"/>
<path d="M210.958 240.38C214.824 238.147 220.121 237.275 225.129 237.732L229.401 213.197L225.129 205.583L203.081 208.477L179.393 243.164L180.129 244.221L206.237 246.116C206.66 244.018 208.183 241.996 210.958 240.38Z" fill="#318CFF"/>
<path opacity="0.7" d="M210.958 240.38C214.824 238.147 220.121 237.275 225.129 237.732L229.401 213.197L225.129 205.583L203.081 208.477L179.393 243.164L180.129 244.221L206.237 246.116C206.66 244.018 208.183 241.996 210.958 240.38Z" fill="black"/>
<path d="M229.4 196.522V192.19L225.128 207.74L225.136 212.072L229.4 196.522Z" fill="#318CFF"/>
<path opacity="0.7" d="M229.4 196.522V192.19L225.128 207.74L225.136 212.072L229.4 196.522Z" fill="black"/>
<path d="M210.958 210.389C214.824 208.163 220.12 207.284 225.129 207.74L229.401 192.19C205.56 190.016 183.174 199.399 179.401 213.164C179.291 213.553 179.172 214.086 179.104 214.475L206.245 216.125C206.66 214.026 208.183 211.996 210.958 210.389Z" fill="#318CFF"/>
<path opacity="0.6" d="M210.958 210.389C214.824 208.163 220.12 207.284 225.129 207.74L229.401 192.19C205.56 190.016 183.174 199.399 179.401 213.164C179.291 213.553 179.172 214.086 179.104 214.475L206.245 216.125C206.66 214.026 208.183 211.996 210.958 210.389Z" fill="black"/>
<path d="M206.245 233.815V216.125L179.104 214.475V232.165L206.245 233.815Z" fill="#318CFF"/>
<path opacity="0.8" d="M206.245 233.815V216.125L179.104 214.475V232.165L206.245 233.815Z" fill="black"/>
<path d="M234.155 214.72C237.438 216.624 239.028 219.12 238.935 221.607L266.254 221.886C266.643 209.153 251.186 198.519 229.4 196.505L225.128 212.055C228.291 212.296 231.368 213.204 234.155 214.72Z" fill="#318CFF"/>
<path opacity="0.8" d="M234.155 214.72C237.438 216.624 239.028 219.12 238.935 221.607L266.254 221.886C266.643 209.153 251.186 198.519 229.4 196.505L225.128 212.055C228.291 212.296 231.368 213.204 234.155 214.72Z" fill="white"/>
<path d="M238.936 221.607V240.448L266.254 240.727V221.886L238.936 221.607Z" fill="#318CFF"/>
<path opacity="0.6" d="M238.936 221.607V240.448L266.254 240.727V221.886L238.936 221.607Z" fill="white"/>
<path d="M238.945 221.607V240.304C238.945 237.885 237.354 235.456 234.156 233.604C231.618 232.132 228.437 238.079 225.138 237.775V212.072C232.6 212.707 239.08 216.472 238.945 221.607Z" fill="#318CFF"/>
<path opacity="0.6" d="M238.945 221.607V240.304C238.945 237.885 237.354 235.456 234.156 233.604C231.618 232.132 228.437 238.079 225.138 237.775V212.072C232.6 212.707 239.08 216.472 238.945 221.607Z" fill="white"/>
<path d="M238.953 230H206.161V252.047H238.953V230Z" fill="#E0E0E0"/>
<path d="M210.958 236.81C204.553 233.113 204.553 227.115 210.958 223.417C217.362 219.72 227.751 219.72 234.156 223.417C240.56 227.115 240.552 233.113 234.156 236.81C227.76 240.507 217.362 240.507 210.958 236.81Z" fill="#FAFAFA"/>
<path d="M238.936 240.448C238.852 242.808 237.244 251.971 234.156 253.765L253.488 258.105C261.948 253.232 266.077 247.605 266.28 240.71L238.936 240.448Z" fill="#37474F"/>
<path d="M266.254 226.015V240.727L253.462 258.122V243.418L266.254 226.015Z" fill="#37474F"/>
<path d="M238.936 225.736C238.852 228.096 237.244 230.439 234.156 232.242L253.488 243.401C261.948 238.528 266.077 232.901 266.28 226.006L238.936 225.736Z" fill="#455A64"/>
<path d="M253.463 243.418V258.122L234.131 246.962L234.156 232.242L253.463 243.418Z" fill="#263238"/>
<path d="M253.462 248.062L235.34 254.348V264.408L253.462 258.122V248.062Z" fill="#318CFF"/>
<path opacity="0.2" d="M253.462 248.062L235.34 254.348V264.408L253.462 258.122V248.062Z" fill="black"/>
<path d="M227.346 239.247L235.341 254.348C241.705 253.34 247.841 251.212 253.463 248.062L234.131 236.92C232.019 238.078 229.724 238.865 227.346 239.247Z" fill="#318CFF"/>
<path d="M227.337 239.247V243.832L235.34 264.408V254.348L227.337 239.247Z" fill="#318CFF"/>
<path opacity="0.4" d="M227.337 239.247V243.832L235.34 264.408V254.348L227.337 239.247Z" fill="black"/>
<path d="M214.824 252.149C211.203 250.05 205.763 248.874 206.245 246.142L178.859 233.003C178.859 233.003 178.859 239.517 178.859 240.423C178.919 253.113 195.585 264.052 217.997 265.406C223.796 265.805 229.622 265.481 235.34 264.441V257.073C229.731 258.02 219.257 254.687 214.824 252.149Z" fill="#318CFF"/>
<path opacity="0.5" d="M214.824 252.149C211.203 250.05 205.763 248.874 206.245 246.142L178.859 233.003C178.859 233.003 178.859 239.517 178.859 240.423C178.919 253.113 195.585 264.052 217.997 265.406C223.796 265.805 229.622 265.481 235.34 264.441V257.073C229.731 258.02 219.257 254.687 214.824 252.149Z" fill="black"/>
<path d="M210.958 239.577C207.337 237.487 205.763 234.653 206.246 231.92L179.105 230.27C176.567 244.128 193.995 256.548 218.022 258.003C223.821 258.398 229.647 258.074 235.366 257.039L227.371 241.937C221.736 242.918 215.391 242.14 210.958 239.577Z" fill="#318CFF"/>
<path opacity="0.3" d="M210.958 239.577C207.337 237.487 205.763 234.653 206.246 231.92L179.105 230.27C176.567 244.128 193.995 256.548 218.022 258.003C223.821 258.398 229.647 258.074 235.366 257.039L227.371 241.937C221.736 242.918 215.391 242.14 210.958 239.577Z" fill="black"/>
<path d="M111.904 201.387C112.61 196.143 112.3 190.811 110.99 185.684C109.586 180.092 106.76 176.2 103.418 174.153C100.077 172.106 93.9935 174.255 98.8498 180.794C103.706 187.334 108.638 195.659 109.163 201.945L111.904 201.387Z" fill="#37474F"/>
<path d="M110.965 201.996C110.909 201.995 110.854 201.983 110.804 201.96C110.753 201.938 110.707 201.906 110.668 201.866C110.63 201.826 110.599 201.779 110.579 201.727C110.559 201.675 110.549 201.62 110.55 201.564C110.787 189.999 105.364 178.366 100.398 175.693C100.298 175.64 100.223 175.55 100.19 175.442C100.157 175.334 100.167 175.217 100.22 175.118C100.273 175.018 100.363 174.943 100.471 174.91C100.579 174.876 100.696 174.887 100.795 174.94C106.015 177.732 111.675 189.72 111.43 201.581C111.431 201.64 111.418 201.699 111.394 201.753C111.371 201.807 111.335 201.855 111.291 201.894C111.247 201.933 111.195 201.963 111.139 201.98C111.083 201.998 111.023 202.003 110.965 201.996Z" fill="white"/>
<path d="M112.319 221.844C106.989 224.94 100.931 222.098 99.882 216.15C99.5182 214.077 99.1544 211.92 97.2339 210.744C95.6265 209.746 93.4606 209.619 92.0816 208.282C90.1188 206.37 91.2356 203.908 92.4708 201.971C93.6214 200.211 94.552 198.155 93.4691 196.141C92.8048 195.085 92.2788 193.948 91.9039 192.757C91.7216 192.163 91.6966 191.532 91.8316 190.925C91.9665 190.319 92.2568 189.758 92.6738 189.297C93.6891 188.333 95.2881 188.375 96.6502 188.705C98.8587 189.295 100.891 190.413 102.572 191.962C103.765 192.986 104.442 194.026 106.16 194.339C107.429 194.568 108.748 194.339 110.001 194.635C110.79 194.849 111.524 195.229 112.155 195.75C112.785 196.271 113.297 196.921 113.655 197.656C114.899 200.084 114.501 202.91 114.307 205.524C114.112 208.138 113.867 210.499 113.562 212.977C113.309 215.076 113.021 217.208 112.716 219.263C112.666 219.585 112.606 221.692 112.319 221.844Z" fill="#455A64"/>
<path d="M112.827 218.917C112.726 218.916 112.628 218.878 112.552 218.811C112.476 218.745 112.427 218.653 112.412 218.553C110.56 205.27 99.3751 192.91 95.2126 190.786C95.1632 190.76 95.1192 190.725 95.0834 190.683C95.0475 190.64 95.0203 190.591 95.0034 190.538C94.9865 190.485 94.9802 190.429 94.9849 190.374C94.9896 190.318 95.0052 190.264 95.0307 190.215C95.0563 190.166 95.0913 190.122 95.1338 190.086C95.1764 190.05 95.2256 190.023 95.2786 190.006C95.3316 189.989 95.3874 189.983 95.4429 189.987C95.4983 189.992 95.5523 190.007 95.6018 190.033C100.01 192.283 111.33 204.661 113.25 218.443C113.264 218.554 113.234 218.666 113.166 218.755C113.098 218.844 112.997 218.902 112.886 218.917H112.827Z" fill="white"/>
<path d="M96.2953 204.534C96.1831 204.556 96.0666 204.533 95.9714 204.47C95.8762 204.406 95.8101 204.308 95.7877 204.196C95.7652 204.083 95.7883 203.967 95.8518 203.872C95.9152 203.777 96.0139 203.71 96.1261 203.688C99.4814 202.388 103.094 201.889 106.676 202.233C106.731 202.237 106.785 202.252 106.835 202.278C106.884 202.303 106.928 202.338 106.963 202.381C106.999 202.423 107.025 202.473 107.041 202.526C107.057 202.579 107.063 202.635 107.057 202.69C107.052 202.745 107.035 202.799 107.009 202.849C106.983 202.898 106.947 202.942 106.904 202.977C106.86 203.012 106.81 203.039 106.757 203.055C106.703 203.071 106.647 203.076 106.591 203.07C103.141 202.773 99.6675 203.271 96.4391 204.526C96.3917 204.534 96.3434 204.537 96.2953 204.534Z" fill="white"/>
<path d="M113.503 224.974C112.751 224.467 112.129 223.79 111.688 222.998C111.247 222.206 110.999 221.32 110.965 220.414V92.5618C111.013 91.6275 111.282 90.7179 111.75 89.9077C112.218 89.0974 112.87 88.4094 113.655 87.9001L264.748 0.674299C265.548 0.250864 266.436 0.0203891 267.341 0.00129218C268.246 -0.0178047 269.142 0.175002 269.96 0.56431C270.712 1.06454 271.335 1.7367 271.776 2.52523C272.217 3.31376 272.465 4.196 272.498 5.09904V132.994C272.449 133.928 272.18 134.837 271.713 135.648C271.245 136.458 270.592 137.146 269.807 137.655L118.714 224.881C117.914 225.304 117.025 225.532 116.12 225.549C115.215 225.565 114.318 225.368 113.503 224.974Z" fill="#318CFF"/>
<path d="M126.126 98.1709L111.744 89.8798C111.258 90.6831 110.987 91.598 110.957 92.5364V220.414C110.931 221.329 111.153 222.233 111.6 223.032C112.046 223.831 112.7 224.494 113.492 224.952C114.284 225.41 115.186 225.645 116.101 225.632C117.016 225.62 117.91 225.36 118.69 224.881L126.101 220.6L126.126 98.1709Z" fill="#318CFF"/>
<path opacity="0.2" d="M126.126 98.1709L111.744 89.8798C111.258 90.6831 110.987 91.598 110.957 92.5364V220.414C110.931 221.329 111.153 222.233 111.6 223.032C112.046 223.831 112.7 224.494 113.492 224.952C114.284 225.41 115.186 225.645 116.101 225.632C117.016 225.62 117.91 225.36 118.69 224.881L126.101 220.6L126.126 98.1709Z" fill="black"/>
<path d="M118.714 90.8189L269.79 3.5508C271.279 2.70477 272.48 3.39005 272.48 5.09903V132.994C272.432 133.928 272.163 134.837 271.695 135.648C271.228 136.458 270.575 137.146 269.79 137.655L118.714 224.881C117.234 225.727 116.032 225.042 116.032 223.324V95.4806C116.08 94.547 116.347 93.638 116.814 92.8278C117.28 92.0175 117.931 91.3292 118.714 90.8189Z" fill="#318CFF"/>
<g opacity="0.5">
<path d="M118.714 90.8189L269.79 3.5508C271.279 2.70477 272.48 3.39005 272.48 5.09903V132.994C272.432 133.928 272.163 134.837 271.695 135.648C271.228 136.458 270.575 137.146 269.79 137.655L118.714 224.881C117.234 225.727 116.032 225.042 116.032 223.324V95.4806C116.08 94.547 116.347 93.638 116.814 92.8278C117.28 92.0175 117.931 91.3292 118.714 90.8189Z" fill="white"/>
</g>
<path opacity="0.4" d="M131.168 194.373C131.322 185.152 131.969 175.945 133.105 166.793C134.281 156.852 136.693 140.075 146.287 134.542C155.881 129.009 159.476 139.009 160.855 143.941C162.657 150.329 172.031 146.285 173.343 135.743C174.654 125.202 175.492 91.6565 186.727 85.1675C197.962 78.6784 201.6 94.2962 202.878 98.6532C205.416 107.215 212.776 104.855 215.187 99.1777C217.599 93.5009 224.155 92.1218 226.634 100.1C229.113 108.078 230.653 117.241 238.69 112.537C245.738 108.408 242.497 100.887 249.375 97.308C251.381 96.2759 255.374 96.8512 256.271 102.74C257.09 108.965 257.449 115.243 257.345 121.521L131.168 194.373Z" fill="white"/>
<path d="M131.168 194.999C131.004 194.997 130.847 194.93 130.731 194.813C130.616 194.696 130.551 194.538 130.551 194.373C130.706 185.121 131.352 175.883 132.488 166.699C133.436 158.688 135.661 139.931 145.974 133.975C149.028 132.215 151.786 131.818 154.18 132.791C157.37 134.085 159.747 137.672 161.456 143.789C161.964 145.583 163.148 146.513 164.781 146.386C168.064 146.132 171.93 142.063 172.725 135.684C172.937 133.992 173.14 131.674 173.368 128.992C174.621 114.499 176.753 90.2436 186.423 84.6429C189.392 82.9508 192.116 82.5617 194.536 83.5431C199.858 85.7005 202.15 93.78 203.242 97.6633C203.326 97.9764 203.403 98.2555 203.479 98.5094C204.418 101.716 206.152 103.586 208.36 103.679C210.788 103.839 213.394 101.843 214.612 98.9662C215.966 95.7767 218.606 93.8054 221.245 93.9408C223.885 94.0762 226.085 96.2589 227.227 99.9561C227.497 100.802 227.76 101.707 228.014 102.587C229.426 107.384 230.746 111.894 233.47 112.993C234.782 113.51 236.389 113.196 238.377 112.037C241.694 110.092 242.608 107.41 243.504 104.567C244.401 101.724 245.425 98.704 249.088 96.8004C249.76 96.4707 250.499 96.3035 251.247 96.3123C251.995 96.3211 252.731 96.5057 253.395 96.8511C254.68 97.5026 256.33 99.0508 256.88 102.689C257.704 108.951 258.066 115.265 257.963 121.581C257.964 121.663 257.949 121.744 257.917 121.82C257.885 121.896 257.838 121.964 257.778 122.021C257.718 122.077 257.648 122.121 257.57 122.148C257.493 122.176 257.411 122.187 257.329 122.181C257.164 122.177 257.008 122.108 256.894 121.989C256.78 121.87 256.717 121.711 256.719 121.547C256.827 115.305 256.471 109.064 255.653 102.875C255.18 99.753 253.86 98.4755 252.836 97.9594C252.348 97.7038 251.807 97.5661 251.256 97.5573C250.705 97.5484 250.16 97.6688 249.664 97.9087C246.449 99.6007 245.594 102.19 244.689 104.956C243.724 107.892 242.726 110.929 239.004 113.112C236.66 114.474 234.706 114.804 233.014 114.144C229.731 112.841 228.318 108.027 226.821 102.934C226.567 102.088 226.313 101.183 226.042 100.32C225.061 97.1557 223.284 95.286 221.186 95.176C219.088 95.066 216.888 96.7919 215.755 99.4569C214.316 102.841 211.254 105.091 208.284 104.922C206.677 104.829 203.766 103.916 202.286 98.8647C202.21 98.6194 202.133 98.3317 202.04 98.0187C201 94.33 198.825 86.6395 194.062 84.7106C192.023 83.8646 189.663 84.2284 187.04 85.7343C177.903 91.0135 175.763 115.802 174.612 129.119C174.375 131.809 174.172 134.136 173.961 135.887C173.115 142.901 168.656 147.385 164.874 147.672C162.649 147.841 160.923 146.53 160.263 144.17C158.664 138.493 156.524 135.176 153.707 134.017C151.693 133.171 149.299 133.569 146.592 135.126C136.82 140.769 134.646 159.094 133.723 166.919C132.594 176.047 131.95 185.228 131.794 194.424C131.782 194.581 131.71 194.728 131.594 194.834C131.478 194.941 131.326 195 131.168 194.999Z" fill="#F5F5F5"/>
<path d="M149.053 134.423C148.948 134.423 148.847 134.381 148.772 134.307C148.697 134.232 148.656 134.131 148.656 134.026V133.247C148.647 133.191 148.651 133.133 148.667 133.078C148.683 133.024 148.711 132.973 148.748 132.93C148.785 132.886 148.832 132.852 148.884 132.828C148.935 132.804 148.992 132.792 149.049 132.792C149.106 132.792 149.163 132.804 149.214 132.828C149.266 132.852 149.313 132.886 149.35 132.93C149.387 132.973 149.415 133.024 149.431 133.078C149.447 133.133 149.451 133.191 149.442 133.247V134.026C149.442 134.13 149.402 134.23 149.329 134.304C149.256 134.378 149.157 134.421 149.053 134.423Z" fill="#F5F5F5"/>
<path d="M149.053 181.37C149.001 181.37 148.949 181.359 148.901 181.339C148.853 181.319 148.809 181.29 148.772 181.253C148.735 181.216 148.706 181.172 148.686 181.124C148.666 181.076 148.656 181.024 148.656 180.972V179.39C148.669 179.296 148.717 179.209 148.789 179.147C148.861 179.084 148.954 179.05 149.049 179.05C149.144 179.05 149.237 179.084 149.309 179.147C149.381 179.209 149.429 179.296 149.442 179.39V180.955C149.445 181.008 149.436 181.061 149.418 181.11C149.399 181.16 149.371 181.206 149.335 181.244C149.299 181.283 149.255 181.314 149.207 181.335C149.158 181.357 149.106 181.369 149.053 181.37ZM149.053 178.239C148.948 178.239 148.847 178.197 148.772 178.123C148.697 178.048 148.656 177.947 148.656 177.842V176.277C148.669 176.182 148.717 176.096 148.789 176.033C148.861 175.971 148.954 175.937 149.049 175.937C149.144 175.937 149.237 175.971 149.309 176.033C149.381 176.096 149.429 176.182 149.442 176.277V177.842C149.442 177.946 149.402 178.046 149.329 178.12C149.256 178.194 149.157 178.237 149.053 178.239ZM149.053 175.109C149.001 175.109 148.949 175.099 148.901 175.079C148.853 175.059 148.809 175.029 148.772 174.993C148.735 174.956 148.706 174.912 148.686 174.864C148.666 174.815 148.656 174.764 148.656 174.711V173.155C148.647 173.098 148.651 173.041 148.667 172.986C148.683 172.931 148.711 172.88 148.748 172.837C148.785 172.794 148.832 172.759 148.884 172.735C148.935 172.711 148.992 172.699 149.049 172.699C149.106 172.699 149.163 172.711 149.214 172.735C149.266 172.759 149.313 172.794 149.35 172.837C149.387 172.88 149.415 172.931 149.431 172.986C149.447 173.041 149.451 173.098 149.442 173.155V174.711C149.442 174.815 149.402 174.915 149.329 174.99C149.256 175.064 149.157 175.107 149.053 175.109ZM149.053 171.979C148.949 171.979 148.849 171.938 148.775 171.865C148.701 171.792 148.658 171.694 148.656 171.59V170.024C148.647 169.968 148.651 169.91 148.667 169.855C148.683 169.801 148.711 169.75 148.748 169.707C148.785 169.663 148.832 169.629 148.884 169.605C148.935 169.581 148.992 169.569 149.049 169.569C149.106 169.569 149.163 169.581 149.214 169.605C149.266 169.629 149.313 169.663 149.35 169.707C149.387 169.75 149.415 169.801 149.431 169.855C149.447 169.91 149.451 169.968 149.442 170.024V171.59C149.44 171.692 149.399 171.79 149.326 171.862C149.254 171.935 149.156 171.977 149.053 171.979ZM149.053 168.848C148.949 168.848 148.849 168.808 148.775 168.735C148.701 168.662 148.658 168.563 148.656 168.459V166.894C148.647 166.838 148.651 166.78 148.667 166.725C148.683 166.67 148.711 166.619 148.748 166.576C148.785 166.533 148.832 166.498 148.884 166.475C148.935 166.451 148.992 166.439 149.049 166.439C149.106 166.439 149.163 166.451 149.214 166.475C149.266 166.498 149.313 166.533 149.35 166.576C149.387 166.619 149.415 166.67 149.431 166.725C149.447 166.78 149.451 166.838 149.442 166.894V168.459C149.44 168.562 149.399 168.659 149.326 168.732C149.254 168.805 149.156 168.846 149.053 168.848ZM149.053 165.718C148.949 165.718 148.849 165.677 148.775 165.605C148.701 165.532 148.658 165.433 148.656 165.329V163.764C148.647 163.707 148.651 163.65 148.667 163.595C148.683 163.54 148.711 163.489 148.748 163.446C148.785 163.403 148.832 163.368 148.884 163.344C148.935 163.321 148.992 163.308 149.049 163.308C149.106 163.308 149.163 163.321 149.214 163.344C149.266 163.368 149.313 163.403 149.35 163.446C149.387 163.489 149.415 163.54 149.431 163.595C149.447 163.65 149.451 163.707 149.442 163.764V165.329C149.44 165.431 149.399 165.529 149.326 165.602C149.254 165.674 149.156 165.716 149.053 165.718ZM149.053 162.588C148.949 162.588 148.849 162.547 148.775 162.474C148.701 162.402 148.658 162.303 148.656 162.199V160.633C148.647 160.577 148.651 160.519 148.667 160.464C148.683 160.41 148.711 160.359 148.748 160.316C148.785 160.272 148.832 160.238 148.884 160.214C148.935 160.19 148.992 160.178 149.049 160.178C149.106 160.178 149.163 160.19 149.214 160.214C149.266 160.238 149.313 160.272 149.35 160.316C149.387 160.359 149.415 160.41 149.431 160.464C149.447 160.519 149.451 160.577 149.442 160.633V162.199C149.44 162.301 149.399 162.399 149.326 162.471C149.254 162.544 149.156 162.586 149.053 162.588ZM149.053 159.457C149.001 159.459 148.95 159.449 148.902 159.43C148.854 159.411 148.81 159.383 148.773 159.346C148.736 159.31 148.706 159.267 148.686 159.219C148.666 159.171 148.656 159.12 148.656 159.068V157.503C148.647 157.447 148.651 157.389 148.667 157.334C148.683 157.279 148.711 157.229 148.748 157.185C148.785 157.142 148.832 157.107 148.884 157.084C148.935 157.06 148.992 157.048 149.049 157.048C149.106 157.048 149.163 157.06 149.214 157.084C149.266 157.107 149.313 157.142 149.35 157.185C149.387 157.229 149.415 157.279 149.431 157.334C149.447 157.389 149.451 157.447 149.442 157.503V159.085C149.438 159.185 149.395 159.28 149.323 159.349C149.25 159.419 149.154 159.458 149.053 159.457ZM149.053 156.327C149.001 156.328 148.95 156.319 148.902 156.3C148.854 156.281 148.81 156.252 148.773 156.216C148.736 156.18 148.706 156.137 148.686 156.089C148.666 156.041 148.656 155.99 148.656 155.938V154.373C148.647 154.316 148.651 154.259 148.667 154.204C148.683 154.149 148.711 154.098 148.748 154.055C148.785 154.012 148.832 153.977 148.884 153.953C148.935 153.93 148.992 153.917 149.049 153.917C149.106 153.917 149.163 153.93 149.214 153.953C149.266 153.977 149.313 154.012 149.35 154.055C149.387 154.098 149.415 154.149 149.431 154.204C149.447 154.259 149.451 154.316 149.442 154.373V155.938C149.442 155.989 149.432 156.04 149.413 156.087C149.393 156.134 149.365 156.177 149.328 156.213C149.292 156.249 149.249 156.278 149.202 156.297C149.155 156.317 149.104 156.327 149.053 156.327ZM149.053 153.197C149.001 153.198 148.95 153.189 148.902 153.17C148.854 153.151 148.81 153.122 148.773 153.086C148.736 153.05 148.706 153.006 148.686 152.959C148.666 152.911 148.656 152.859 148.656 152.808V151.242C148.669 151.148 148.717 151.062 148.789 150.999C148.861 150.937 148.954 150.903 149.049 150.903C149.144 150.903 149.237 150.937 149.309 150.999C149.381 151.062 149.429 151.148 149.442 151.242V152.808C149.434 152.905 149.389 152.995 149.317 153.061C149.245 153.127 149.151 153.163 149.053 153.163V153.197ZM149.053 150.075C148.948 150.075 148.847 150.033 148.772 149.958C148.697 149.884 148.656 149.783 148.656 149.677V148.087C148.669 147.992 148.717 147.906 148.789 147.844C148.861 147.781 148.954 147.747 149.049 147.747C149.144 147.747 149.237 147.781 149.309 147.844C149.381 147.906 149.429 147.992 149.442 148.087V149.652C149.446 149.706 149.438 149.759 149.42 149.81C149.403 149.861 149.375 149.907 149.338 149.947C149.302 149.986 149.258 150.018 149.209 150.04C149.16 150.062 149.107 150.074 149.053 150.075ZM149.053 146.945C148.948 146.945 148.847 146.903 148.772 146.828C148.697 146.754 148.656 146.652 148.656 146.547V144.982C148.669 144.887 148.717 144.801 148.789 144.739C148.861 144.676 148.954 144.642 149.049 144.642C149.144 144.642 149.237 144.676 149.309 144.739C149.381 144.801 149.429 144.887 149.442 144.982V146.547C149.442 146.651 149.402 146.751 149.329 146.825C149.256 146.9 149.157 146.942 149.053 146.945ZM149.053 143.814C148.948 143.814 148.847 143.772 148.772 143.698C148.697 143.623 148.656 143.522 148.656 143.417V141.852C148.669 141.757 148.717 141.671 148.789 141.608C148.861 141.546 148.954 141.512 149.049 141.512C149.144 141.512 149.237 141.546 149.309 141.608C149.381 141.671 149.429 141.757 149.442 141.852V143.417C149.448 143.472 149.443 143.527 149.426 143.58C149.409 143.633 149.381 143.681 149.345 143.722C149.308 143.764 149.263 143.797 149.213 143.82C149.163 143.843 149.108 143.856 149.053 143.857V143.814ZM149.053 140.684C148.948 140.684 148.847 140.642 148.772 140.568C148.697 140.493 148.656 140.392 148.656 140.286V138.721C148.669 138.627 148.717 138.541 148.789 138.478C148.861 138.416 148.954 138.381 149.049 138.381C149.144 138.381 149.237 138.416 149.309 138.478C149.381 138.541 149.429 138.627 149.442 138.721V140.286C149.442 140.39 149.402 140.49 149.329 140.565C149.256 140.639 149.157 140.682 149.053 140.684ZM149.053 137.554C148.948 137.554 148.847 137.512 148.772 137.437C148.697 137.363 148.656 137.262 148.656 137.156V135.591C148.669 135.496 148.717 135.41 148.789 135.348C148.861 135.285 148.954 135.251 149.049 135.251C149.144 135.251 149.237 135.285 149.309 135.348C149.381 135.41 149.429 135.496 149.442 135.591V137.156C149.442 137.26 149.402 137.36 149.329 137.434C149.256 137.509 149.157 137.551 149.053 137.554Z" fill="#F5F5F5"/>
<path d="M149.054 183.722C149.002 183.722 148.95 183.711 148.902 183.691C148.853 183.671 148.81 183.642 148.773 183.605C148.736 183.568 148.706 183.524 148.687 183.476C148.667 183.428 148.656 183.376 148.656 183.324V182.537C148.67 182.443 148.718 182.356 148.79 182.294C148.862 182.232 148.954 182.197 149.05 182.197C149.145 182.197 149.237 182.232 149.31 182.294C149.382 182.356 149.429 182.443 149.443 182.537V183.324C149.443 183.428 149.402 183.528 149.33 183.602C149.257 183.677 149.158 183.719 149.054 183.722Z" fill="#F5F5F5"/>
<path d="M189.645 85.2859C189.543 85.2837 189.445 85.242 189.373 85.1695C189.3 85.097 189.258 84.9992 189.256 84.8967V84.1099C189.248 84.0534 189.252 83.9958 189.268 83.9409C189.284 83.8861 189.311 83.8354 189.349 83.7921C189.386 83.7489 189.432 83.7143 189.484 83.6905C189.536 83.6667 189.592 83.6544 189.65 83.6544C189.707 83.6544 189.763 83.6667 189.815 83.6905C189.867 83.7143 189.913 83.7489 189.951 83.7921C189.988 83.8354 190.015 83.8861 190.031 83.9409C190.047 83.9958 190.051 84.0534 190.043 84.1099V84.8967C190.041 85.0007 189.998 85.0997 189.924 85.1724C189.849 85.2452 189.749 85.2859 189.645 85.2859Z" fill="#F5F5F5"/>
<path d="M189.645 158.671C189.541 158.668 189.442 158.626 189.37 158.551C189.297 158.477 189.256 158.377 189.256 158.273V156.682C189.248 156.626 189.252 156.568 189.268 156.514C189.284 156.459 189.311 156.408 189.349 156.365C189.386 156.321 189.432 156.287 189.484 156.263C189.536 156.239 189.592 156.227 189.65 156.227C189.707 156.227 189.763 156.239 189.815 156.263C189.867 156.287 189.913 156.321 189.951 156.365C189.988 156.408 190.015 156.459 190.031 156.514C190.047 156.568 190.051 156.626 190.043 156.682V158.239C190.048 158.294 190.041 158.35 190.023 158.402C190.005 158.454 189.977 158.502 189.939 158.542C189.902 158.583 189.856 158.615 189.806 158.637C189.755 158.66 189.701 158.671 189.645 158.671ZM189.645 155.481C189.541 155.479 189.442 155.436 189.37 155.362C189.297 155.287 189.256 155.187 189.256 155.083V153.484C189.27 153.39 189.317 153.304 189.39 153.241C189.462 153.179 189.554 153.145 189.65 153.145C189.745 153.145 189.837 153.179 189.91 153.241C189.982 153.304 190.029 153.39 190.043 153.484V155.083C190.043 155.136 190.033 155.187 190.013 155.236C189.993 155.284 189.963 155.328 189.927 155.365C189.89 155.402 189.846 155.431 189.798 155.451C189.749 155.471 189.698 155.481 189.645 155.481ZM189.645 152.283C189.542 152.283 189.443 152.242 189.37 152.169C189.297 152.096 189.256 151.997 189.256 151.894V150.295C189.27 150.201 189.317 150.114 189.39 150.052C189.462 149.989 189.554 149.955 189.65 149.955C189.745 149.955 189.837 149.989 189.91 150.052C189.982 150.114 190.029 150.201 190.043 150.295V151.894C190.048 151.949 190.041 152.004 190.023 152.055C190.005 152.107 189.976 152.155 189.939 152.194C189.901 152.234 189.856 152.266 189.805 152.287C189.755 152.308 189.7 152.318 189.645 152.317V152.283ZM189.645 149.094C189.543 149.091 189.445 149.05 189.373 148.977C189.3 148.905 189.258 148.807 189.256 148.704V147.105C189.27 147.011 189.317 146.925 189.39 146.862C189.462 146.8 189.554 146.766 189.65 146.766C189.745 146.766 189.837 146.8 189.91 146.862C189.982 146.925 190.029 147.011 190.043 147.105V148.704C190.041 148.808 189.998 148.907 189.924 148.98C189.849 149.053 189.749 149.094 189.645 149.094ZM189.645 145.904C189.543 145.902 189.445 145.86 189.373 145.788C189.3 145.715 189.258 145.617 189.256 145.515V143.916C189.27 143.821 189.317 143.735 189.39 143.673C189.462 143.61 189.554 143.576 189.65 143.576C189.745 143.576 189.837 143.61 189.91 143.673C189.982 143.735 190.029 143.821 190.043 143.916V145.549C190.033 145.647 189.986 145.737 189.913 145.803C189.839 145.869 189.744 145.905 189.645 145.904ZM189.645 142.714C189.543 142.712 189.445 142.671 189.373 142.598C189.3 142.526 189.258 142.428 189.256 142.325V140.726C189.27 140.632 189.317 140.546 189.39 140.483C189.462 140.421 189.554 140.387 189.65 140.387C189.745 140.387 189.837 140.421 189.91 140.483C189.982 140.546 190.029 140.632 190.043 140.726V142.325C190.041 142.429 189.998 142.528 189.924 142.601C189.849 142.674 189.749 142.715 189.645 142.714ZM189.645 139.525C189.541 139.523 189.442 139.48 189.37 139.406C189.297 139.331 189.256 139.231 189.256 139.127V137.537C189.248 137.48 189.252 137.423 189.268 137.368C189.284 137.313 189.311 137.262 189.349 137.219C189.386 137.176 189.432 137.141 189.484 137.117C189.536 137.094 189.592 137.081 189.65 137.081C189.707 137.081 189.763 137.094 189.815 137.117C189.867 137.141 189.913 137.176 189.951 137.219C189.988 137.262 190.015 137.313 190.031 137.368C190.047 137.423 190.051 137.48 190.043 137.537V139.127C190.043 139.18 190.033 139.231 190.013 139.279C189.993 139.328 189.963 139.372 189.927 139.408C189.89 139.445 189.846 139.475 189.798 139.495C189.749 139.515 189.698 139.525 189.645 139.525ZM189.645 136.335C189.541 136.333 189.442 136.29 189.37 136.216C189.297 136.142 189.256 136.042 189.256 135.938V134.347C189.248 134.291 189.252 134.233 189.268 134.178C189.284 134.123 189.311 134.073 189.349 134.029C189.386 133.986 189.432 133.952 189.484 133.928C189.536 133.904 189.592 133.892 189.65 133.892C189.707 133.892 189.763 133.904 189.815 133.928C189.867 133.952 189.913 133.986 189.951 134.029C189.988 134.073 190.015 134.123 190.031 134.178C190.047 134.233 190.051 134.291 190.043 134.347V135.938C190.043 135.99 190.033 136.042 190.013 136.09C189.993 136.138 189.963 136.182 189.927 136.219C189.89 136.256 189.846 136.285 189.798 136.305C189.749 136.325 189.698 136.335 189.645 136.335ZM189.645 133.146C189.541 133.144 189.442 133.101 189.37 133.026C189.297 132.952 189.256 132.852 189.256 132.748V131.166C189.248 131.11 189.252 131.052 189.268 130.997C189.284 130.942 189.311 130.892 189.349 130.848C189.386 130.805 189.432 130.771 189.484 130.747C189.536 130.723 189.592 130.711 189.65 130.711C189.707 130.711 189.763 130.723 189.815 130.747C189.867 130.771 189.913 130.805 189.951 130.848C189.988 130.892 190.015 130.942 190.031 130.997C190.047 131.052 190.051 131.11 190.043 131.166V132.757C190.041 132.861 189.998 132.96 189.924 133.032C189.849 133.105 189.749 133.146 189.645 133.146ZM189.645 129.956C189.541 129.954 189.442 129.911 189.37 129.837C189.297 129.763 189.256 129.663 189.256 129.559V127.968C189.248 127.912 189.252 127.854 189.268 127.799C189.284 127.744 189.311 127.694 189.349 127.65C189.386 127.607 189.432 127.573 189.484 127.549C189.536 127.525 189.592 127.513 189.65 127.513C189.707 127.513 189.763 127.525 189.815 127.549C189.867 127.573 189.913 127.607 189.951 127.65C189.988 127.694 190.015 127.744 190.031 127.799C190.047 127.854 190.051 127.912 190.043 127.968V129.559C190.043 129.611 190.033 129.663 190.013 129.711C189.993 129.759 189.963 129.803 189.927 129.84C189.89 129.877 189.846 129.906 189.798 129.926C189.749 129.946 189.698 129.956 189.645 129.956ZM189.645 126.767C189.541 126.765 189.442 126.722 189.37 126.647C189.297 126.573 189.256 126.473 189.256 126.369V124.779C189.248 124.722 189.252 124.664 189.268 124.61C189.284 124.555 189.311 124.504 189.349 124.461C189.386 124.418 189.432 124.383 189.484 124.359C189.536 124.335 189.592 124.323 189.65 124.323C189.707 124.323 189.763 124.335 189.815 124.359C189.867 124.383 189.913 124.418 189.951 124.461C189.988 124.504 190.015 124.555 190.031 124.61C190.047 124.664 190.051 124.722 190.043 124.779V126.369C190.043 126.421 190.033 126.473 190.013 126.521C189.993 126.57 189.963 126.613 189.927 126.65C189.89 126.687 189.846 126.717 189.798 126.737C189.749 126.757 189.698 126.767 189.645 126.767ZM189.645 123.569C189.542 123.569 189.443 123.528 189.37 123.455C189.297 123.382 189.256 123.283 189.256 123.18V121.581C189.27 121.486 189.317 121.4 189.39 121.338C189.462 121.275 189.554 121.241 189.65 121.241C189.745 121.241 189.837 121.275 189.91 121.338C189.982 121.4 190.029 121.486 190.043 121.581V123.18C190.039 123.281 189.995 123.377 189.92 123.447C189.846 123.517 189.747 123.554 189.645 123.552V123.569ZM189.645 120.379C189.542 120.379 189.443 120.338 189.37 120.265C189.297 120.192 189.256 120.093 189.256 119.99V118.391C189.27 118.297 189.317 118.21 189.39 118.148C189.462 118.086 189.554 118.051 189.65 118.051C189.745 118.051 189.837 118.086 189.91 118.148C189.982 118.21 190.029 118.297 190.043 118.391V119.99C190.043 120.042 190.033 120.093 190.013 120.141C189.993 120.189 189.963 120.232 189.926 120.268C189.889 120.305 189.845 120.333 189.797 120.352C189.749 120.371 189.697 120.38 189.645 120.379ZM189.645 117.19C189.543 117.188 189.445 117.146 189.373 117.073C189.3 117.001 189.258 116.903 189.256 116.801V115.202C189.27 115.107 189.317 115.021 189.39 114.958C189.462 114.896 189.554 114.862 189.65 114.862C189.745 114.862 189.837 114.896 189.91 114.958C189.982 115.021 190.029 115.107 190.043 115.202V116.784C190.044 116.837 190.035 116.889 190.015 116.938C189.996 116.988 189.967 117.032 189.93 117.07C189.893 117.108 189.848 117.138 189.8 117.159C189.751 117.179 189.698 117.19 189.645 117.19ZM189.645 114C189.543 113.998 189.445 113.956 189.373 113.884C189.3 113.811 189.258 113.714 189.256 113.611V112.012C189.27 111.918 189.317 111.831 189.39 111.769C189.462 111.707 189.554 111.672 189.65 111.672C189.745 111.672 189.837 111.707 189.91 111.769C189.982 111.831 190.029 111.918 190.043 112.012V113.611C190.041 113.715 189.998 113.814 189.924 113.887C189.849 113.959 189.749 114 189.645 114ZM189.645 110.811C189.543 110.808 189.445 110.767 189.373 110.694C189.3 110.622 189.258 110.524 189.256 110.421V108.822C189.27 108.728 189.317 108.642 189.39 108.579C189.462 108.517 189.554 108.483 189.65 108.483C189.745 108.483 189.837 108.517 189.91 108.579C189.982 108.642 190.029 108.728 190.043 108.822V110.421C190.041 110.525 189.998 110.624 189.924 110.697C189.849 110.77 189.749 110.811 189.645 110.811ZM189.645 107.621C189.541 107.619 189.442 107.576 189.37 107.502C189.297 107.427 189.256 107.327 189.256 107.223V105.633C189.248 105.576 189.252 105.519 189.268 105.464C189.284 105.409 189.311 105.358 189.349 105.315C189.386 105.272 189.432 105.237 189.484 105.214C189.536 105.19 189.592 105.177 189.65 105.177C189.707 105.177 189.763 105.19 189.815 105.214C189.867 105.237 189.913 105.272 189.951 105.315C189.988 105.358 190.015 105.409 190.031 105.464C190.047 105.519 190.051 105.576 190.043 105.633V107.223C190.043 107.276 190.033 107.327 190.013 107.376C189.993 107.424 189.963 107.468 189.927 107.505C189.89 107.542 189.846 107.571 189.798 107.591C189.749 107.611 189.698 107.621 189.645 107.621ZM189.645 104.432C189.541 104.429 189.442 104.386 189.37 104.312C189.297 104.238 189.256 104.138 189.256 104.034V102.443C189.248 102.387 189.252 102.329 189.268 102.274C189.284 102.22 189.311 102.169 189.349 102.126C189.386 102.082 189.432 102.048 189.484 102.024C189.536 102 189.592 101.988 189.65 101.988C189.707 101.988 189.763 102 189.815 102.024C189.867 102.048 189.913 102.082 189.951 102.126C189.988 102.169 190.015 102.22 190.031 102.274C190.047 102.329 190.051 102.387 190.043 102.443V104.034C190.043 104.086 190.033 104.138 190.013 104.186C189.993 104.234 189.963 104.278 189.927 104.315C189.89 104.352 189.846 104.381 189.798 104.401C189.749 104.421 189.698 104.432 189.645 104.432ZM189.645 101.242C189.541 101.24 189.442 101.197 189.37 101.123C189.297 101.048 189.256 100.948 189.256 100.844V99.2539C189.248 99.1974 189.252 99.1397 189.268 99.0849C189.284 99.0301 189.311 98.9793 189.349 98.9361C189.386 98.8929 189.432 98.8582 189.484 98.8344C189.536 98.8107 189.592 98.7984 189.65 98.7984C189.707 98.7984 189.763 98.8107 189.815 98.8344C189.867 98.8582 189.913 98.8929 189.951 98.9361C189.988 98.9793 190.015 99.0301 190.031 99.0849C190.047 99.1397 190.051 99.1974 190.043 99.2539V100.844C190.043 100.897 190.033 100.948 190.013 100.997C189.993 101.045 189.963 101.089 189.927 101.126C189.89 101.162 189.846 101.192 189.798 101.212C189.749 101.232 189.698 101.242 189.645 101.242ZM189.645 98.0525C189.541 98.0503 189.442 98.0074 189.37 97.9331C189.297 97.8588 189.256 97.7589 189.256 97.6549V96.0643C189.248 96.0078 189.252 95.9502 189.268 95.8954C189.284 95.8405 189.311 95.7898 189.349 95.7466C189.386 95.7033 189.432 95.6687 189.484 95.6449C189.536 95.6211 189.592 95.6088 189.65 95.6088C189.707 95.6088 189.763 95.6211 189.815 95.6449C189.867 95.6687 189.913 95.7033 189.951 95.7466C189.988 95.7898 190.015 95.8405 190.031 95.8954C190.047 95.9502 190.051 96.0078 190.043 96.0643V97.6549C190.043 97.7071 190.033 97.7588 190.013 97.807C189.993 97.8553 189.963 97.8991 189.927 97.936C189.89 97.9729 189.846 98.0022 189.798 98.0222C189.749 98.0422 189.698 98.0525 189.645 98.0525ZM189.645 94.863C189.541 94.8607 189.442 94.8179 189.37 94.7435C189.297 94.6692 189.256 94.5693 189.256 94.4653V92.8663C189.27 92.7719 189.317 92.6856 189.39 92.6232C189.462 92.5609 189.554 92.5265 189.65 92.5265C189.745 92.5265 189.837 92.5609 189.91 92.6232C189.982 92.6856 190.029 92.7719 190.043 92.8663V94.4653C190.043 94.5175 190.033 94.5693 190.013 94.6175C189.993 94.6657 189.963 94.7096 189.927 94.7465C189.89 94.7834 189.846 94.8127 189.798 94.8327C189.749 94.8527 189.698 94.863 189.645 94.863ZM189.645 91.665C189.542 91.665 189.443 91.624 189.37 91.551C189.297 91.478 189.256 91.379 189.256 91.2758V89.7106C189.27 89.6162 189.317 89.5299 189.39 89.4675C189.462 89.4052 189.554 89.3708 189.65 89.3708C189.745 89.3708 189.837 89.4052 189.91 89.4675C189.982 89.5299 190.029 89.6162 190.043 89.7106V91.3096C190.034 91.4083 189.989 91.5001 189.915 91.5661C189.841 91.6321 189.744 91.6675 189.645 91.665ZM189.645 88.4754C189.542 88.4754 189.443 88.4344 189.37 88.3614C189.297 88.2885 189.256 88.1895 189.256 88.0862V86.4872C189.27 86.3928 189.317 86.3065 189.39 86.2442C189.462 86.1818 189.554 86.1475 189.65 86.1475C189.745 86.1475 189.837 86.1818 189.91 86.2442C189.982 86.3065 190.029 86.3928 190.043 86.4872V88.0862C190.043 88.1381 190.033 88.1894 190.013 88.2372C189.993 88.2849 189.963 88.3282 189.926 88.3645C189.889 88.4007 189.845 88.4292 189.797 88.4483C189.749 88.4673 189.697 88.4765 189.645 88.4754Z" fill="#F5F5F5"/>
<path d="M189.645 161.048C189.543 161.046 189.445 161.004 189.373 160.932C189.3 160.859 189.258 160.761 189.256 160.659V159.872C189.248 159.815 189.252 159.758 189.268 159.703C189.284 159.648 189.311 159.597 189.349 159.554C189.386 159.511 189.432 159.476 189.484 159.453C189.536 159.429 189.592 159.417 189.65 159.417C189.707 159.417 189.763 159.429 189.815 159.453C189.867 159.476 189.913 159.511 189.951 159.554C189.988 159.597 190.015 159.648 190.031 159.703C190.047 159.758 190.051 159.815 190.043 159.872V160.659C190.041 160.763 189.998 160.862 189.924 160.934C189.849 161.007 189.749 161.048 189.645 161.048Z" fill="#F5F5F5"/>
<path d="M220.67 95.9882C220.566 95.986 220.467 95.9431 220.395 95.8688C220.322 95.7944 220.281 95.6945 220.281 95.5905V94.7868C220.295 94.6924 220.343 94.6061 220.415 94.5437C220.487 94.4813 220.579 94.447 220.675 94.447C220.77 94.447 220.862 94.4813 220.935 94.5437C221.007 94.6061 221.054 94.6924 221.068 94.7868V95.6328C221.058 95.7308 221.011 95.8214 220.938 95.887C220.864 95.9527 220.769 95.9887 220.67 95.9882Z" fill="#F5F5F5"/>
<path d="M220.67 140.879C220.567 140.876 220.469 140.835 220.397 140.762C220.324 140.69 220.283 140.592 220.281 140.489V138.882C220.294 138.788 220.342 138.701 220.414 138.639C220.486 138.577 220.579 138.542 220.674 138.542C220.769 138.542 220.862 138.577 220.934 138.639C221.006 138.701 221.054 138.788 221.067 138.882V140.473C221.069 140.525 221.059 140.578 221.04 140.627C221.02 140.676 220.991 140.721 220.954 140.759C220.917 140.797 220.873 140.827 220.824 140.848C220.775 140.868 220.723 140.879 220.67 140.879ZM220.67 137.672C220.567 137.67 220.469 137.628 220.397 137.556C220.324 137.483 220.283 137.385 220.281 137.283V135.676C220.294 135.581 220.342 135.495 220.414 135.432C220.486 135.37 220.579 135.336 220.674 135.336C220.769 135.336 220.862 135.37 220.934 135.432C221.006 135.495 221.054 135.581 221.067 135.676V137.283C221.065 137.387 221.022 137.486 220.948 137.559C220.874 137.631 220.774 137.672 220.67 137.672ZM220.67 134.466C220.567 134.464 220.469 134.422 220.397 134.349C220.324 134.277 220.283 134.179 220.281 134.077V132.469C220.294 132.375 220.342 132.288 220.414 132.226C220.486 132.164 220.579 132.129 220.674 132.129C220.769 132.129 220.862 132.164 220.934 132.226C221.006 132.288 221.054 132.375 221.067 132.469V134.077C221.065 134.18 221.022 134.279 220.948 134.352C220.874 134.425 220.774 134.466 220.67 134.466ZM220.67 131.259C220.567 131.257 220.469 131.215 220.397 131.143C220.324 131.07 220.283 130.973 220.281 130.87V129.263C220.294 129.168 220.342 129.082 220.414 129.02C220.486 128.957 220.579 128.923 220.674 128.923C220.769 128.923 220.862 128.957 220.934 129.02C221.006 129.082 221.054 129.168 221.067 129.263V130.87C221.065 130.974 221.022 131.073 220.948 131.146C220.874 131.219 220.774 131.259 220.67 131.259ZM220.67 128.053C220.567 128.051 220.469 128.009 220.397 127.936C220.324 127.864 220.283 127.766 220.281 127.664V126.09C220.294 125.996 220.342 125.909 220.414 125.847C220.486 125.785 220.579 125.75 220.674 125.75C220.769 125.75 220.862 125.785 220.934 125.847C221.006 125.909 221.054 125.996 221.067 126.09V127.697C221.057 127.795 221.01 127.886 220.937 127.952C220.864 128.017 220.768 128.053 220.67 128.053ZM220.67 124.846C220.567 124.844 220.469 124.802 220.397 124.73C220.324 124.657 220.283 124.56 220.281 124.457V122.85C220.294 122.755 220.342 122.669 220.414 122.607C220.486 122.544 220.579 122.51 220.674 122.51C220.769 122.51 220.862 122.544 220.934 122.607C221.006 122.669 221.054 122.755 221.067 122.85V124.457C221.065 124.561 221.022 124.66 220.948 124.733C220.874 124.806 220.774 124.846 220.67 124.846ZM220.67 121.64C220.567 121.638 220.469 121.596 220.397 121.523C220.324 121.451 220.283 121.353 220.281 121.251V119.643C220.294 119.549 220.342 119.463 220.414 119.4C220.486 119.338 220.579 119.303 220.674 119.303C220.769 119.303 220.862 119.338 220.934 119.4C221.006 119.463 221.054 119.549 221.067 119.643V121.251C221.065 121.355 221.022 121.454 220.948 121.526C220.874 121.599 220.774 121.64 220.67 121.64ZM220.67 118.433C220.567 118.431 220.469 118.39 220.397 118.317C220.324 118.244 220.283 118.147 220.281 118.044V116.437C220.294 116.342 220.342 116.256 220.414 116.194C220.486 116.131 220.579 116.097 220.674 116.097C220.769 116.097 220.862 116.131 220.934 116.194C221.006 116.256 221.054 116.342 221.067 116.437V118.044C221.072 118.099 221.065 118.155 221.047 118.207C221.03 118.259 221.001 118.307 220.964 118.348C220.926 118.388 220.881 118.42 220.83 118.443C220.78 118.465 220.725 118.476 220.67 118.476V118.433ZM220.67 115.227C220.567 115.225 220.469 115.183 220.397 115.111C220.324 115.038 220.283 114.94 220.281 114.838V113.23C220.294 113.136 220.342 113.05 220.414 112.987C220.486 112.925 220.579 112.891 220.674 112.891C220.769 112.891 220.862 112.925 220.934 112.987C221.006 113.05 221.054 113.136 221.067 113.23V114.838C221.065 114.942 221.022 115.041 220.948 115.113C220.874 115.186 220.774 115.227 220.67 115.227ZM220.67 112.02C220.567 112.018 220.469 111.977 220.397 111.904C220.324 111.832 220.283 111.734 220.281 111.631V110.015C220.294 109.921 220.342 109.835 220.414 109.772C220.486 109.71 220.579 109.676 220.674 109.676C220.769 109.676 220.862 109.71 220.934 109.772C221.006 109.835 221.054 109.921 221.067 110.015V111.623C221.067 111.675 221.057 111.727 221.037 111.775C221.017 111.823 220.988 111.867 220.951 111.904C220.914 111.941 220.87 111.97 220.822 111.99C220.774 112.01 220.722 112.02 220.67 112.02ZM220.67 108.814C220.567 108.812 220.469 108.77 220.397 108.698C220.324 108.625 220.283 108.527 220.281 108.425V106.817C220.294 106.723 220.342 106.637 220.414 106.574C220.486 106.512 220.579 106.478 220.674 106.478C220.769 106.478 220.862 106.512 220.934 106.574C221.006 106.637 221.054 106.723 221.067 106.817V108.425C221.065 108.529 221.022 108.628 220.948 108.701C220.874 108.773 220.774 108.814 220.67 108.814ZM220.67 105.608C220.566 105.605 220.467 105.562 220.394 105.488C220.321 105.414 220.281 105.314 220.281 105.21V103.611C220.272 103.554 220.276 103.497 220.292 103.442C220.308 103.387 220.336 103.336 220.373 103.293C220.41 103.25 220.457 103.215 220.509 103.191C220.56 103.168 220.617 103.155 220.674 103.155C220.731 103.155 220.788 103.168 220.839 103.191C220.891 103.215 220.938 103.25 220.975 103.293C221.012 103.336 221.04 103.387 221.056 103.442C221.072 103.497 221.076 103.554 221.067 103.611V105.21C221.067 105.315 221.026 105.417 220.951 105.491C220.876 105.566 220.775 105.608 220.67 105.608ZM220.67 102.401C220.566 102.399 220.467 102.356 220.394 102.282C220.321 102.207 220.281 102.107 220.281 102.003V100.404C220.272 100.348 220.276 100.29 220.292 100.236C220.308 100.181 220.336 100.13 220.373 100.087C220.41 100.043 220.457 100.009 220.509 99.985C220.56 99.9613 220.617 99.949 220.674 99.949C220.731 99.949 220.788 99.9613 220.839 99.985C220.891 100.009 220.938 100.043 220.975 100.087C221.012 100.13 221.04 100.181 221.056 100.236C221.072 100.29 221.076 100.348 221.067 100.404V102.003C221.067 102.109 221.026 102.21 220.951 102.285C220.876 102.359 220.775 102.401 220.67 102.401ZM220.67 99.1946C220.566 99.1924 220.467 99.1495 220.394 99.0752C220.321 99.0009 220.281 98.901 220.281 98.797V97.198C220.272 97.1415 220.276 97.0839 220.292 97.029C220.308 96.9742 220.336 96.9235 220.373 96.8802C220.41 96.837 220.457 96.8023 220.509 96.7786C220.56 96.7548 220.617 96.7425 220.674 96.7425C220.731 96.7425 220.788 96.7548 220.839 96.7786C220.891 96.8023 220.938 96.837 220.975 96.8802C221.012 96.9235 221.04 96.9742 221.056 97.029C221.072 97.0839 221.076 97.1415 221.067 97.198V98.797C221.067 98.9025 221.026 99.0036 220.951 99.0782C220.876 99.1527 220.775 99.1946 220.67 99.1946Z" fill="#F5F5F5"/>
<path d="M220.67 143.273C220.566 143.271 220.467 143.228 220.395 143.153C220.322 143.079 220.281 142.979 220.281 142.875V142.088C220.295 141.994 220.343 141.908 220.415 141.845C220.487 141.783 220.579 141.749 220.675 141.749C220.77 141.749 220.862 141.783 220.935 141.845C221.007 141.908 221.054 141.994 221.068 142.088V142.875C221.068 142.927 221.058 142.979 221.038 143.027C221.018 143.076 220.989 143.119 220.952 143.156C220.915 143.193 220.871 143.223 220.823 143.243C220.774 143.263 220.723 143.273 220.67 143.273Z" fill="#F5F5F5"/>
<path d="M251.237 98.0863C251.132 98.0863 251.031 98.0444 250.956 97.9699C250.882 97.8953 250.84 97.7942 250.84 97.6887V96.9019C250.854 96.8075 250.901 96.7212 250.973 96.6588C251.046 96.5964 251.138 96.5621 251.233 96.5621C251.329 96.5621 251.421 96.5964 251.493 96.6588C251.565 96.7212 251.613 96.8075 251.627 96.9019V97.6887C251.627 97.7927 251.586 97.8926 251.513 97.9669C251.44 98.0413 251.341 98.0841 251.237 98.0863Z" fill="#F5F5F5"/>
<path d="M251.238 123.205C251.132 123.205 251.031 123.163 250.957 123.089C250.882 123.014 250.84 122.913 250.84 122.807V121.242C250.832 121.186 250.836 121.128 250.852 121.073C250.868 121.018 250.895 120.968 250.933 120.924C250.97 120.881 251.016 120.847 251.068 120.823C251.12 120.799 251.176 120.787 251.234 120.787C251.291 120.787 251.347 120.799 251.399 120.823C251.451 120.847 251.497 120.881 251.534 120.924C251.572 120.968 251.599 121.018 251.615 121.073C251.631 121.128 251.635 121.186 251.627 121.242V122.807C251.627 122.911 251.586 123.011 251.514 123.086C251.441 123.16 251.342 123.203 251.238 123.205ZM251.238 120.066C251.132 120.066 251.031 120.024 250.957 119.95C250.882 119.875 250.84 119.774 250.84 119.669V118.103C250.832 118.047 250.836 117.989 250.852 117.934C250.868 117.88 250.895 117.829 250.933 117.786C250.97 117.742 251.016 117.708 251.068 117.684C251.12 117.66 251.176 117.648 251.234 117.648C251.291 117.648 251.347 117.66 251.399 117.684C251.451 117.708 251.497 117.742 251.534 117.786C251.572 117.829 251.599 117.88 251.615 117.934C251.631 117.989 251.635 118.047 251.627 118.103V119.669C251.627 119.773 251.586 119.873 251.514 119.947C251.441 120.021 251.342 120.064 251.238 120.066ZM251.238 116.927C251.132 116.927 251.031 116.886 250.957 116.811C250.882 116.736 250.84 116.635 250.84 116.53V114.965C250.832 114.908 250.836 114.851 250.852 114.796C250.868 114.741 250.895 114.69 250.933 114.647C250.97 114.604 251.016 114.569 251.068 114.545C251.12 114.521 251.176 114.509 251.234 114.509C251.291 114.509 251.347 114.521 251.399 114.545C251.451 114.569 251.497 114.604 251.534 114.647C251.572 114.69 251.599 114.741 251.615 114.796C251.631 114.851 251.635 114.908 251.627 114.965V116.53C251.627 116.634 251.586 116.734 251.514 116.808C251.441 116.882 251.342 116.925 251.238 116.927ZM251.238 113.789C251.132 113.789 251.031 113.747 250.957 113.672C250.882 113.598 250.84 113.497 250.84 113.391V111.817C250.854 111.723 250.901 111.637 250.974 111.574C251.046 111.512 251.138 111.478 251.234 111.478C251.329 111.478 251.421 111.512 251.493 111.574C251.566 111.637 251.613 111.723 251.627 111.817V113.4C251.625 113.502 251.583 113.6 251.511 113.672C251.438 113.745 251.34 113.787 251.238 113.789ZM251.238 110.641C251.186 110.643 251.134 110.633 251.086 110.614C251.038 110.595 250.994 110.567 250.957 110.531C250.92 110.494 250.891 110.451 250.871 110.403C250.85 110.355 250.84 110.304 250.84 110.252V108.679C250.854 108.584 250.901 108.498 250.974 108.436C251.046 108.373 251.138 108.339 251.234 108.339C251.329 108.339 251.421 108.373 251.493 108.436C251.566 108.498 251.613 108.584 251.627 108.679V110.252C251.627 110.356 251.586 110.454 251.513 110.527C251.44 110.6 251.341 110.641 251.238 110.641ZM251.238 107.503C251.134 107.503 251.034 107.462 250.96 107.389C250.885 107.316 250.842 107.218 250.84 107.114V105.54C250.854 105.445 250.901 105.359 250.974 105.297C251.046 105.234 251.138 105.2 251.234 105.2C251.329 105.2 251.421 105.234 251.493 105.297C251.566 105.359 251.613 105.445 251.627 105.54V107.114C251.619 107.212 251.574 107.303 251.502 107.37C251.43 107.437 251.336 107.476 251.238 107.477V107.503ZM251.238 104.364C251.134 104.364 251.034 104.323 250.96 104.25C250.885 104.178 250.842 104.079 250.84 103.975V102.401C250.854 102.307 250.901 102.22 250.974 102.158C251.046 102.096 251.138 102.061 251.234 102.061C251.329 102.061 251.421 102.096 251.493 102.158C251.566 102.22 251.613 102.307 251.627 102.401V103.975C251.625 104.077 251.583 104.175 251.511 104.248C251.438 104.32 251.34 104.362 251.238 104.364ZM251.238 101.225C251.134 101.225 251.034 101.184 250.96 101.112C250.885 101.039 250.842 100.94 250.84 100.836V99.2623C250.854 99.1679 250.901 99.0816 250.974 99.0193C251.046 98.9569 251.138 98.9225 251.234 98.9225C251.329 98.9225 251.421 98.9569 251.493 99.0193C251.566 99.0816 251.613 99.1679 251.627 99.2623V100.836C251.625 100.938 251.583 101.036 251.511 101.109C251.438 101.181 251.34 101.223 251.238 101.225Z" fill="#F5F5F5"/>
<path d="M251.238 125.557C251.186 125.558 251.134 125.549 251.086 125.53C251.038 125.511 250.994 125.482 250.957 125.446C250.92 125.41 250.891 125.366 250.871 125.319C250.85 125.271 250.84 125.22 250.84 125.168V124.398C250.832 124.341 250.836 124.284 250.852 124.229C250.868 124.174 250.895 124.123 250.933 124.08C250.97 124.037 251.016 124.002 251.068 123.978C251.12 123.955 251.176 123.942 251.234 123.942C251.291 123.942 251.347 123.955 251.399 123.978C251.451 124.002 251.497 124.037 251.534 124.08C251.572 124.123 251.599 124.174 251.615 124.229C251.631 124.284 251.635 124.341 251.627 124.398V125.185C251.623 125.285 251.58 125.38 251.507 125.449C251.435 125.518 251.338 125.557 251.238 125.557Z" fill="#F5F5F5"/>
<path d="M227.058 70.4634C227.058 69.6935 226.517 69.3805 225.848 69.7696L214.706 76.1741C214.353 76.4057 214.06 76.7171 213.85 77.0831C213.64 77.449 213.518 77.8593 213.496 78.2807V87.2994C213.496 88.0693 214.038 88.3823 214.706 87.9932L218.843 85.6073L220.577 88.6192C220.603 88.6623 220.641 88.6971 220.685 88.7195C220.73 88.7419 220.781 88.7509 220.831 88.7456C220.88 88.7402 220.928 88.7207 220.967 88.6893C221.006 88.6579 221.035 88.616 221.051 88.5685L222.887 83.2723L225.848 81.5802C226.202 81.3514 226.496 81.0419 226.706 80.6771C226.916 80.3123 227.037 79.9027 227.058 79.4821V70.4634Z" fill="#F5F5F5"/>
<path d="M217.362 79.9136C217.25 79.9224 217.138 79.9056 217.034 79.8645C216.93 79.8235 216.837 79.7593 216.761 79.6767C216.599 79.4672 216.521 79.2048 216.541 78.9407C216.542 78.5959 216.617 78.2554 216.761 77.9423C216.91 77.599 217.113 77.2819 217.362 77.0032C217.602 76.7207 217.888 76.4805 218.208 76.2926C218.463 76.1338 218.754 76.0434 219.054 76.0303C219.166 76.0238 219.278 76.0425 219.382 76.085C219.486 76.1274 219.579 76.1926 219.655 76.2757C219.82 76.4839 219.901 76.7465 219.883 77.0117C219.877 77.3541 219.8 77.6913 219.655 78.0016C219.501 78.3448 219.299 78.6639 219.054 78.9491C218.812 79.2247 218.526 79.459 218.208 79.6429C217.955 79.8069 217.663 79.9003 217.362 79.9136ZM217.091 84.4737C217.093 84.4204 217.108 84.3683 217.134 84.3214L221.973 74.4821L222.1 74.2621C222.152 74.2064 222.212 74.158 222.277 74.1183L223.267 73.5514C223.286 73.5435 223.306 73.5395 223.327 73.5395C223.347 73.5395 223.367 73.5435 223.386 73.5514C223.402 73.5555 223.417 73.5655 223.426 73.5796C223.435 73.5937 223.439 73.6108 223.436 73.6276C223.436 73.685 223.418 73.7408 223.386 73.7883L218.504 83.6361C218.504 83.7207 218.42 83.78 218.394 83.8223C218.349 83.8717 218.294 83.9119 218.233 83.9407L217.235 84.5245C217.15 84.6344 217.091 84.5752 217.091 84.4737ZM218.783 78.23C218.935 78.0106 219.02 77.7521 219.029 77.4855C219.043 77.3896 219.027 77.2915 218.983 77.205C218.939 77.1186 218.869 77.048 218.783 77.0032C218.68 76.9725 218.571 76.9664 218.466 76.9855C218.36 77.0047 218.26 77.0484 218.174 77.1132C217.926 77.2582 217.717 77.4615 217.565 77.7055C217.412 77.9305 217.327 78.1948 217.32 78.4669C217.306 78.5604 217.323 78.6557 217.367 78.7393C217.411 78.8229 217.48 78.8904 217.565 78.9322C217.668 78.9628 217.776 78.9696 217.881 78.952C217.987 78.9344 218.087 78.8929 218.174 78.8307C218.435 78.6869 218.656 78.4805 218.817 78.23H218.783ZM221.474 82.0202C221.36 82.0286 221.246 82.0109 221.141 81.9683C221.035 81.9258 220.941 81.8596 220.865 81.7749C220.699 81.57 220.617 81.31 220.636 81.0473C220.642 80.7076 220.72 80.3731 220.865 80.0659C221.017 79.7202 221.222 79.4005 221.474 79.1183C221.714 78.8379 222 78.6004 222.32 78.4161C222.573 78.2521 222.865 78.1587 223.166 78.1454C223.278 78.1395 223.391 78.1575 223.496 78.1984C223.601 78.2392 223.696 78.3019 223.775 78.3823C223.942 78.5898 224.023 78.8529 224.003 79.1183C223.999 79.4608 223.921 79.7983 223.775 80.1082C223.618 80.4517 223.413 80.7708 223.166 81.0557C222.923 81.3338 222.638 81.571 222.32 81.758C222.075 81.9104 221.796 82.0004 221.508 82.0202H221.474ZM222.92 80.3282C223.076 80.1075 223.161 79.8451 223.166 79.5752C223.166 79.3298 223.09 79.1776 222.92 79.1099C222.817 79.0784 222.708 79.072 222.603 79.0912C222.497 79.1103 222.397 79.1544 222.311 79.2199C222.061 79.3622 221.852 79.5661 221.702 79.8121C221.552 80.0321 221.467 80.2902 221.457 80.5566C221.457 80.8104 221.541 80.9711 221.702 81.0304C221.806 81.0574 221.914 81.0615 222.019 81.0425C222.124 81.0235 222.224 80.9818 222.311 80.9204C222.568 80.7821 222.788 80.585 222.954 80.3451L222.92 80.3282Z" fill="#318CFF"/>
<path opacity="0.4" d="M217.362 79.9136C217.25 79.9224 217.138 79.9056 217.034 79.8645C216.93 79.8235 216.837 79.7593 216.761 79.6767C216.599 79.4672 216.521 79.2048 216.541 78.9407C216.542 78.5959 216.617 78.2554 216.761 77.9423C216.91 77.599 217.113 77.2819 217.362 77.0032C217.602 76.7207 217.888 76.4805 218.208 76.2926C218.463 76.1338 218.754 76.0434 219.054 76.0303C219.166 76.0238 219.278 76.0425 219.382 76.085C219.486 76.1274 219.579 76.1926 219.655 76.2757C219.82 76.4839 219.901 76.7465 219.883 77.0117C219.877 77.3541 219.8 77.6913 219.655 78.0016C219.501 78.3448 219.299 78.6639 219.054 78.9491C218.812 79.2247 218.526 79.459 218.208 79.6429C217.955 79.8069 217.663 79.9003 217.362 79.9136ZM217.091 84.4737C217.093 84.4204 217.108 84.3683 217.134 84.3214L221.973 74.4821L222.1 74.2621C222.152 74.2064 222.212 74.158 222.277 74.1183L223.267 73.5514C223.286 73.5435 223.306 73.5395 223.327 73.5395C223.347 73.5395 223.367 73.5435 223.386 73.5514C223.402 73.5555 223.417 73.5655 223.426 73.5796C223.435 73.5937 223.439 73.6108 223.436 73.6276C223.436 73.685 223.418 73.7408 223.386 73.7883L218.504 83.6361C218.504 83.7207 218.42 83.78 218.394 83.8223C218.349 83.8717 218.294 83.9119 218.233 83.9407L217.235 84.5245C217.15 84.6344 217.091 84.5752 217.091 84.4737ZM218.783 78.23C218.935 78.0106 219.02 77.7521 219.029 77.4855C219.043 77.3896 219.027 77.2915 218.983 77.205C218.939 77.1186 218.869 77.048 218.783 77.0032C218.68 76.9725 218.571 76.9664 218.466 76.9855C218.36 77.0047 218.26 77.0484 218.174 77.1132C217.926 77.2582 217.717 77.4615 217.565 77.7055C217.412 77.9305 217.327 78.1948 217.32 78.4669C217.306 78.5604 217.323 78.6557 217.367 78.7393C217.411 78.8229 217.48 78.8904 217.565 78.9322C217.668 78.9628 217.776 78.9696 217.881 78.952C217.987 78.9344 218.087 78.8929 218.174 78.8307C218.435 78.6869 218.656 78.4805 218.817 78.23H218.783ZM221.474 82.0202C221.36 82.0286 221.246 82.0109 221.141 81.9683C221.035 81.9258 220.941 81.8596 220.865 81.7749C220.699 81.57 220.617 81.31 220.636 81.0473C220.642 80.7076 220.72 80.3731 220.865 80.0659C221.017 79.7202 221.222 79.4005 221.474 79.1183C221.714 78.8379 222 78.6004 222.32 78.4161C222.573 78.2521 222.865 78.1587 223.166 78.1454C223.278 78.1395 223.391 78.1575 223.496 78.1984C223.601 78.2392 223.696 78.3019 223.775 78.3823C223.942 78.5898 224.023 78.8529 224.003 79.1183C223.999 79.4608 223.921 79.7983 223.775 80.1082C223.618 80.4517 223.413 80.7708 223.166 81.0557C222.923 81.3338 222.638 81.571 222.32 81.758C222.075 81.9104 221.796 82.0004 221.508 82.0202H221.474ZM222.92 80.3282C223.076 80.1075 223.161 79.8451 223.166 79.5752C223.166 79.3298 223.09 79.1776 222.92 79.1099C222.817 79.0784 222.708 79.072 222.603 79.0912C222.497 79.1103 222.397 79.1544 222.311 79.2199C222.061 79.3622 221.852 79.5661 221.702 79.8121C221.552 80.0321 221.467 80.2902 221.457 80.5566C221.457 80.8104 221.541 80.9711 221.702 81.0304C221.806 81.0574 221.914 81.0615 222.019 81.0425C222.124 81.0235 222.224 80.9818 222.311 80.9204C222.568 80.7821 222.788 80.585 222.954 80.3451L222.92 80.3282Z" fill="black"/>
<path d="M257.143 72.0116C257.143 71.2417 256.601 70.9287 255.933 71.3094L244.791 77.7562C244.439 77.987 244.147 78.297 243.937 78.6614C243.726 79.0258 243.605 79.4344 243.581 79.8544V88.8646C243.581 89.6429 244.123 89.956 244.791 89.5668L248.962 87.1725L250.705 90.1844C250.724 90.2297 250.757 90.2682 250.798 90.2953C250.84 90.3223 250.888 90.3368 250.937 90.3368C250.987 90.3368 251.035 90.3223 251.076 90.2953C251.118 90.2682 251.15 90.2297 251.17 90.1844L253.006 84.8798L255.975 83.1877C256.327 82.9569 256.62 82.6469 256.83 82.2825C257.04 81.9181 257.162 81.5095 257.185 81.0896L257.143 72.0116Z" fill="#F5F5F5"/>
<path d="M247.447 81.4618C247.334 81.469 247.22 81.4507 247.115 81.4082C247.009 81.3658 246.915 81.3002 246.838 81.2165C246.678 81.0092 246.599 80.7502 246.618 80.4889C246.623 80.1447 246.698 79.805 246.838 79.4906C246.989 79.1443 247.195 78.8244 247.447 78.543C247.689 78.2649 247.975 78.0278 248.293 77.8408C248.547 77.6798 248.839 77.5893 249.139 77.5786C249.253 77.5702 249.367 77.5879 249.472 77.6304C249.578 77.673 249.672 77.7392 249.748 77.8239C249.916 78.031 249.998 78.2944 249.977 78.56C249.971 78.8996 249.893 79.2341 249.748 79.5413C249.596 79.887 249.39 80.2068 249.139 80.4889C248.899 80.7693 248.613 81.0068 248.293 81.1911C248.04 81.3551 247.748 81.4485 247.447 81.4618ZM247.168 86.0219C247.17 85.9648 247.188 85.9093 247.219 85.8612L252.058 76.0219C252.091 75.9435 252.133 75.8696 252.185 75.8019C252.231 75.7436 252.289 75.6947 252.354 75.6581L253.352 75.0828C253.403 75.0828 253.437 75.0405 253.471 75.0828C253.505 75.1251 253.513 75.0828 253.513 75.1589C253.514 75.2154 253.499 75.271 253.471 75.3197L248.606 85.2097C248.576 85.2753 248.539 85.3377 248.496 85.3959C248.454 85.4449 248.402 85.4851 248.344 85.5143L247.337 86.0981C247.269 86.1319 247.168 86.115 247.168 86.0219ZM248.86 79.7782C249.01 79.5582 249.095 79.3001 249.105 79.0337C249.12 78.9378 249.104 78.8398 249.06 78.7533C249.016 78.6668 248.946 78.5963 248.86 78.5515C248.757 78.5207 248.648 78.5147 248.542 78.5338C248.436 78.5529 248.337 78.5966 248.251 78.6615C248.005 78.8067 247.799 79.0101 247.65 79.2537C247.493 79.477 247.408 79.7424 247.405 80.0151C247.39 80.1088 247.406 80.2046 247.45 80.2885C247.494 80.3723 247.565 80.4397 247.65 80.4804C247.752 80.5111 247.859 80.5172 247.964 80.4981C248.068 80.4789 248.167 80.4352 248.251 80.3705C248.513 80.2328 248.735 80.0285 248.894 79.7782H248.86ZM251.55 83.5685C251.437 83.575 251.324 83.5564 251.218 83.514C251.113 83.4716 251.018 83.4064 250.941 83.3231C250.784 83.1144 250.706 82.8565 250.721 82.5955C250.727 82.2541 250.802 81.9175 250.941 81.6057C251.098 81.2622 251.303 80.943 251.55 80.6581C251.793 80.3825 252.079 80.1482 252.396 79.9644C252.65 79.8029 252.942 79.7097 253.242 79.6936C253.355 79.686 253.468 79.7033 253.573 79.7442C253.679 79.7852 253.774 79.8488 253.851 79.9305C254.018 80.135 254.099 80.3953 254.08 80.6581C254.076 81.0034 253.998 81.3438 253.851 81.6564C253.697 81.9984 253.492 82.315 253.242 82.5955C253.001 82.875 252.715 83.1124 252.396 83.2977C252.151 83.4522 251.873 83.5451 251.584 83.5685H251.55ZM253.005 81.8764C253.158 81.6513 253.244 81.387 253.251 81.115C253.263 81.0216 253.246 80.9267 253.202 80.8434C253.158 80.7602 253.089 80.6925 253.005 80.6496C252.9 80.6225 252.79 80.6191 252.683 80.6396C252.577 80.6601 252.476 80.7039 252.388 80.7681C252.142 80.9093 251.935 81.11 251.787 81.3518C251.631 81.5725 251.542 81.8344 251.533 82.1048C251.533 82.3586 251.618 82.5109 251.787 82.5786C251.889 82.6055 251.996 82.6095 252.1 82.5905C252.204 82.5715 252.302 82.5299 252.388 82.4686C252.647 82.3307 252.87 82.1336 253.039 81.8933L253.005 81.8764Z" fill="#318CFF"/>
<path opacity="0.4" d="M247.447 81.4618C247.334 81.469 247.22 81.4507 247.115 81.4082C247.009 81.3658 246.915 81.3002 246.838 81.2165C246.678 81.0092 246.599 80.7502 246.618 80.4889C246.623 80.1447 246.698 79.805 246.838 79.4906C246.989 79.1443 247.195 78.8244 247.447 78.543C247.689 78.2649 247.975 78.0278 248.293 77.8408C248.547 77.6798 248.839 77.5893 249.139 77.5786C249.253 77.5702 249.367 77.5879 249.472 77.6304C249.578 77.673 249.672 77.7392 249.748 77.8239C249.916 78.031 249.998 78.2944 249.977 78.56C249.971 78.8996 249.893 79.2341 249.748 79.5413C249.596 79.887 249.39 80.2068 249.139 80.4889C248.899 80.7693 248.613 81.0068 248.293 81.1911C248.04 81.3551 247.748 81.4485 247.447 81.4618ZM247.168 86.0219C247.17 85.9648 247.188 85.9093 247.219 85.8612L252.058 76.0219C252.091 75.9435 252.133 75.8696 252.185 75.8019C252.231 75.7436 252.289 75.6947 252.354 75.6581L253.352 75.0828C253.403 75.0828 253.437 75.0405 253.471 75.0828C253.505 75.1251 253.513 75.0828 253.513 75.1589C253.514 75.2154 253.499 75.271 253.471 75.3197L248.606 85.2097C248.576 85.2753 248.539 85.3377 248.496 85.3959C248.454 85.4449 248.402 85.4851 248.344 85.5143L247.337 86.0981C247.269 86.1319 247.168 86.115 247.168 86.0219ZM248.86 79.7782C249.01 79.5582 249.095 79.3001 249.105 79.0337C249.12 78.9378 249.104 78.8398 249.06 78.7533C249.016 78.6668 248.946 78.5963 248.86 78.5515C248.757 78.5207 248.648 78.5147 248.542 78.5338C248.436 78.5529 248.337 78.5966 248.251 78.6615C248.005 78.8067 247.799 79.0101 247.65 79.2537C247.493 79.477 247.408 79.7424 247.405 80.0151C247.39 80.1088 247.406 80.2046 247.45 80.2885C247.494 80.3723 247.565 80.4397 247.65 80.4804C247.752 80.5111 247.859 80.5172 247.964 80.4981C248.068 80.4789 248.167 80.4352 248.251 80.3705C248.513 80.2328 248.735 80.0285 248.894 79.7782H248.86ZM251.55 83.5685C251.437 83.575 251.324 83.5564 251.218 83.514C251.113 83.4716 251.018 83.4064 250.941 83.3231C250.784 83.1144 250.706 82.8565 250.721 82.5955C250.727 82.2541 250.802 81.9175 250.941 81.6057C251.098 81.2622 251.303 80.943 251.55 80.6581C251.793 80.3825 252.079 80.1482 252.396 79.9644C252.65 79.8029 252.942 79.7097 253.242 79.6936C253.355 79.686 253.468 79.7033 253.573 79.7442C253.679 79.7852 253.774 79.8488 253.851 79.9305C254.018 80.135 254.099 80.3953 254.08 80.6581C254.076 81.0034 253.998 81.3438 253.851 81.6564C253.697 81.9984 253.492 82.315 253.242 82.5955C253.001 82.875 252.715 83.1124 252.396 83.2977C252.151 83.4522 251.873 83.5451 251.584 83.5685H251.55ZM253.005 81.8764C253.158 81.6513 253.244 81.387 253.251 81.115C253.263 81.0216 253.246 80.9267 253.202 80.8434C253.158 80.7602 253.089 80.6925 253.005 80.6496C252.9 80.6225 252.79 80.6191 252.683 80.6396C252.577 80.6601 252.476 80.7039 252.388 80.7681C252.142 80.9093 251.935 81.11 251.787 81.3518C251.631 81.5725 251.542 81.8344 251.533 82.1048C251.533 82.3586 251.618 82.5109 251.787 82.5786C251.889 82.6055 251.996 82.6095 252.1 82.5905C252.204 82.5715 252.302 82.5299 252.388 82.4686C252.647 82.3307 252.87 82.1336 253.039 81.8933L253.005 81.8764Z" fill="black"/>
<path d="M195.424 59.9811C195.424 59.2112 194.883 58.8982 194.214 59.2873L183.072 65.7256C182.719 65.9573 182.426 66.2687 182.216 66.6346C182.006 67.0006 181.885 67.4108 181.862 67.8323V76.851C181.862 77.6208 182.404 77.9339 183.072 77.5447L187.201 75.1589L188.944 78.1623C188.963 78.2076 188.996 78.2461 189.037 78.2732C189.079 78.3003 189.127 78.3147 189.176 78.3147C189.226 78.3147 189.274 78.3003 189.315 78.2732C189.357 78.2461 189.389 78.2076 189.409 78.1623L191.245 72.8661L194.214 71.1741C194.568 70.9453 194.862 70.6357 195.072 70.2709C195.283 69.9061 195.403 69.4965 195.424 69.0759V59.9811Z" fill="#F5F5F5"/>
<path d="M185.72 69.4059C185.609 69.4134 185.497 69.396 185.393 69.3551C185.289 69.3141 185.196 69.2505 185.12 69.169C184.961 68.9577 184.883 68.6967 184.9 68.4329C184.905 68.0887 184.979 67.749 185.12 67.4346C185.271 67.093 185.474 66.7763 185.72 66.4955C185.963 66.2149 186.248 65.975 186.566 65.7848C186.822 65.6271 187.113 65.5368 187.412 65.5226C187.526 65.5142 187.64 65.5319 187.745 65.5745C187.851 65.617 187.946 65.6832 188.022 65.7679C188.187 65.9762 188.268 66.2387 188.25 66.504C188.244 66.8463 188.166 67.1836 188.022 67.4938C187.865 67.8373 187.66 68.1565 187.412 68.4414C187.17 68.717 186.884 68.9513 186.566 69.1351C186.314 69.2991 186.021 69.3926 185.72 69.4059ZM185.45 73.966C185.451 73.9112 185.468 73.8582 185.5 73.8137L190.34 63.9659C190.375 63.8885 190.417 63.8148 190.467 63.7459C190.513 63.6876 190.571 63.6388 190.636 63.6021L191.634 63.0352C191.653 63.0268 191.673 63.0225 191.693 63.0225C191.714 63.0225 191.734 63.0268 191.753 63.0352C191.753 63.0352 191.795 63.0352 191.795 63.1114C191.797 63.168 191.782 63.2239 191.753 63.2721L186.888 73.1622C186.858 73.2278 186.821 73.2902 186.778 73.3484C186.738 73.3998 186.685 73.4404 186.626 73.4668L185.619 74.0506C185.509 74.1098 185.45 74.0929 185.45 73.9913V73.966ZM187.142 67.7223C187.293 67.5028 187.379 67.2443 187.387 66.9778C187.402 66.8818 187.386 66.7838 187.342 66.6973C187.298 66.6108 187.228 66.5403 187.142 66.4955C187.039 66.4648 186.93 66.4587 186.824 66.4778C186.718 66.4969 186.618 66.5407 186.533 66.6055C186.287 66.751 186.081 66.9543 185.932 67.1977C185.775 67.421 185.69 67.6864 185.687 67.9591C185.687 68.2045 185.763 68.3568 185.932 68.4245C186.034 68.4552 186.141 68.4612 186.245 68.4421C186.35 68.423 186.448 68.3792 186.533 68.3145C186.805 68.1782 187.036 67.9706 187.201 67.7138L187.142 67.7223ZM189.832 71.5125C189.719 71.5209 189.605 71.5031 189.499 71.4606C189.393 71.4181 189.299 71.3519 189.223 71.2671C189.064 71.0591 188.986 70.8007 189.003 70.5395C189.01 70.201 189.085 69.8673 189.223 69.5581C189.375 69.2124 189.581 68.8927 189.832 68.6106C190.072 68.3302 190.358 68.0927 190.678 67.9084C190.931 67.7444 191.223 67.6509 191.524 67.6377C191.637 67.6317 191.749 67.6498 191.854 67.6906C191.959 67.7315 192.054 67.7942 192.133 67.8745C192.297 68.0833 192.376 68.3463 192.353 68.6106C192.352 68.9525 192.277 69.2901 192.133 69.6004C191.977 69.9439 191.772 70.2631 191.524 70.548C191.281 70.8257 190.996 71.0627 190.678 71.2502C190.435 71.4116 190.156 71.5104 189.866 71.5379L189.832 71.5125ZM191.287 69.8204C191.439 69.598 191.524 69.3367 191.533 69.0675C191.546 68.9739 191.529 68.8786 191.485 68.795C191.441 68.7115 191.372 68.644 191.287 68.6021C191.183 68.5707 191.073 68.5642 190.965 68.5833C190.858 68.6024 190.757 68.6466 190.67 68.7121C190.423 68.8556 190.216 69.0594 190.069 69.3043C189.913 69.5219 189.824 69.781 189.815 70.0488C189.815 70.3026 189.9 70.4634 190.069 70.5226C190.171 70.5495 190.278 70.5536 190.382 70.5346C190.485 70.5155 190.584 70.4739 190.67 70.4126C190.926 70.2819 191.149 70.0937 191.321 69.8627L191.287 69.8204Z" fill="#318CFF"/>
<path opacity="0.4" d="M185.72 69.4059C185.609 69.4134 185.497 69.396 185.393 69.3551C185.289 69.3141 185.196 69.2505 185.12 69.169C184.961 68.9577 184.883 68.6967 184.9 68.4329C184.905 68.0887 184.979 67.749 185.12 67.4346C185.271 67.093 185.474 66.7763 185.72 66.4955C185.963 66.2149 186.248 65.975 186.566 65.7848C186.822 65.6271 187.113 65.5368 187.412 65.5226C187.526 65.5142 187.64 65.5319 187.745 65.5745C187.851 65.617 187.946 65.6832 188.022 65.7679C188.187 65.9762 188.268 66.2387 188.25 66.504C188.244 66.8463 188.166 67.1836 188.022 67.4938C187.865 67.8373 187.66 68.1565 187.412 68.4414C187.17 68.717 186.884 68.9513 186.566 69.1351C186.314 69.2991 186.021 69.3926 185.72 69.4059ZM185.45 73.966C185.451 73.9112 185.468 73.8582 185.5 73.8137L190.34 63.9659C190.375 63.8885 190.417 63.8148 190.467 63.7459C190.513 63.6876 190.571 63.6388 190.636 63.6021L191.634 63.0352C191.653 63.0268 191.673 63.0225 191.693 63.0225C191.714 63.0225 191.734 63.0268 191.753 63.0352C191.753 63.0352 191.795 63.0352 191.795 63.1114C191.797 63.168 191.782 63.2239 191.753 63.2721L186.888 73.1622C186.858 73.2278 186.821 73.2902 186.778 73.3484C186.738 73.3998 186.685 73.4404 186.626 73.4668L185.619 74.0506C185.509 74.1098 185.45 74.0929 185.45 73.9913V73.966ZM187.142 67.7223C187.293 67.5028 187.379 67.2443 187.387 66.9778C187.402 66.8818 187.386 66.7838 187.342 66.6973C187.298 66.6108 187.228 66.5403 187.142 66.4955C187.039 66.4648 186.93 66.4587 186.824 66.4778C186.718 66.4969 186.618 66.5407 186.533 66.6055C186.287 66.751 186.081 66.9543 185.932 67.1977C185.775 67.421 185.69 67.6864 185.687 67.9591C185.687 68.2045 185.763 68.3568 185.932 68.4245C186.034 68.4552 186.141 68.4612 186.245 68.4421C186.35 68.423 186.448 68.3792 186.533 68.3145C186.805 68.1782 187.036 67.9706 187.201 67.7138L187.142 67.7223ZM189.832 71.5125C189.719 71.5209 189.605 71.5031 189.499 71.4606C189.393 71.4181 189.299 71.3519 189.223 71.2671C189.064 71.0591 188.986 70.8007 189.003 70.5395C189.01 70.201 189.085 69.8673 189.223 69.5581C189.375 69.2124 189.581 68.8927 189.832 68.6106C190.072 68.3302 190.358 68.0927 190.678 67.9084C190.931 67.7444 191.223 67.6509 191.524 67.6377C191.637 67.6317 191.749 67.6498 191.854 67.6906C191.959 67.7315 192.054 67.7942 192.133 67.8745C192.297 68.0833 192.376 68.3463 192.353 68.6106C192.352 68.9525 192.277 69.2901 192.133 69.6004C191.977 69.9439 191.772 70.2631 191.524 70.548C191.281 70.8257 190.996 71.0627 190.678 71.2502C190.435 71.4116 190.156 71.5104 189.866 71.5379L189.832 71.5125ZM191.287 69.8204C191.439 69.598 191.524 69.3367 191.533 69.0675C191.546 68.9739 191.529 68.8786 191.485 68.795C191.441 68.7115 191.372 68.644 191.287 68.6021C191.183 68.5707 191.073 68.5642 190.965 68.5833C190.858 68.6024 190.757 68.6466 190.67 68.7121C190.423 68.8556 190.216 69.0594 190.069 69.3043C189.913 69.5219 189.824 69.781 189.815 70.0488C189.815 70.3026 189.9 70.4634 190.069 70.5226C190.171 70.5495 190.278 70.5536 190.382 70.5346C190.485 70.5155 190.584 70.4739 190.67 70.4126C190.926 70.2819 191.149 70.0937 191.321 69.8627L191.287 69.8204Z" fill="black"/>
<path d="M154.976 108.002C154.976 107.232 154.434 106.919 153.766 107.3L142.624 113.746C142.271 113.978 141.978 114.289 141.768 114.655C141.557 115.021 141.436 115.432 141.414 115.853V124.863C141.414 125.642 141.956 125.955 142.624 125.565L146.761 123.18L148.495 126.183C148.52 126.226 148.557 126.262 148.602 126.285C148.646 126.308 148.696 126.317 148.746 126.313C148.795 126.309 148.843 126.29 148.883 126.259C148.922 126.229 148.952 126.188 148.969 126.141L150.805 120.836L153.766 119.144C154.119 118.914 154.412 118.604 154.622 118.24C154.832 117.875 154.954 117.466 154.976 117.046V108.002Z" fill="#F5F5F5"/>
<path d="M145.281 117.452C145.168 117.461 145.055 117.444 144.951 117.401C144.847 117.358 144.754 117.292 144.68 117.207C144.516 117.001 144.437 116.741 144.46 116.479C144.461 116.134 144.536 115.794 144.68 115.481C144.83 115.136 145.033 114.816 145.281 114.533C145.522 114.254 145.807 114.016 146.127 113.831C146.38 113.67 146.672 113.579 146.973 113.569C147.086 113.56 147.2 113.578 147.306 113.621C147.411 113.663 147.506 113.729 147.582 113.814C147.749 114.022 147.83 114.285 147.81 114.55C147.805 114.89 147.727 115.224 147.582 115.531C147.427 115.879 147.222 116.201 146.973 116.488C146.73 116.763 146.444 116.997 146.127 117.181C145.873 117.343 145.581 117.436 145.281 117.452ZM145.01 122.012C145.013 121.956 145.027 121.902 145.052 121.851L149.891 112.012C149.924 111.934 149.967 111.86 150.018 111.792C150.067 111.736 150.124 111.687 150.188 111.648L151.186 111.073C151.224 111.059 151.266 111.059 151.304 111.073C151.321 111.077 151.335 111.087 151.344 111.101C151.354 111.115 151.358 111.132 151.355 111.149C151.353 111.206 151.335 111.262 151.304 111.31L146.448 121.2C146.406 121.285 146.363 121.344 146.338 121.386C146.29 121.433 146.236 121.473 146.177 121.504L145.171 122.088C145.061 122.122 145.01 122.114 145.01 122.012ZM146.702 115.768C146.85 115.548 146.932 115.29 146.939 115.024C146.939 114.77 146.863 114.609 146.702 114.542C146.599 114.511 146.49 114.505 146.384 114.524C146.278 114.543 146.179 114.587 146.093 114.652C145.843 114.794 145.633 114.998 145.484 115.244C145.331 115.469 145.245 115.733 145.238 116.005C145.225 116.099 145.241 116.194 145.286 116.278C145.33 116.361 145.399 116.429 145.484 116.471C145.587 116.501 145.695 116.507 145.801 116.488C145.907 116.469 146.007 116.425 146.093 116.361C146.353 116.22 146.574 116.016 146.736 115.768H146.702ZM149.392 119.559C149.279 119.565 149.166 119.547 149.06 119.504C148.955 119.462 148.86 119.397 148.783 119.313C148.619 119.108 148.538 118.848 148.555 118.586C148.56 118.246 148.638 117.911 148.783 117.604C148.937 117.257 149.143 116.935 149.392 116.648C149.636 116.374 149.922 116.14 150.238 115.955C150.492 115.793 150.784 115.7 151.084 115.684C151.197 115.676 151.31 115.693 151.415 115.734C151.521 115.775 151.616 115.839 151.693 115.921C151.861 116.128 151.943 116.391 151.922 116.657C151.917 116.999 151.839 117.337 151.693 117.647C151.539 117.989 151.334 118.305 151.084 118.586C150.846 118.868 150.559 119.105 150.238 119.288C149.995 119.446 149.716 119.539 149.426 119.559H149.392ZM150.839 117.867C150.992 117.641 151.077 117.377 151.084 117.105C151.096 117.012 151.079 116.917 151.035 116.834C150.991 116.75 150.923 116.683 150.839 116.64C150.734 116.613 150.624 116.609 150.517 116.63C150.41 116.65 150.309 116.694 150.221 116.758C149.978 116.903 149.772 117.103 149.621 117.342C149.468 117.564 149.382 117.825 149.375 118.095C149.375 118.349 149.451 118.501 149.621 118.569C149.723 118.596 149.829 118.6 149.933 118.581C150.037 118.562 150.135 118.52 150.221 118.459C150.481 118.321 150.704 118.124 150.873 117.883L150.839 117.867Z" fill="#318CFF"/>
<path opacity="0.4" d="M145.281 117.452C145.168 117.461 145.055 117.444 144.951 117.401C144.847 117.358 144.754 117.292 144.68 117.207C144.516 117.001 144.437 116.741 144.46 116.479C144.461 116.134 144.536 115.794 144.68 115.481C144.83 115.136 145.033 114.816 145.281 114.533C145.522 114.254 145.807 114.016 146.127 113.831C146.38 113.67 146.672 113.579 146.973 113.569C147.086 113.56 147.2 113.578 147.306 113.621C147.411 113.663 147.506 113.729 147.582 113.814C147.749 114.022 147.83 114.285 147.81 114.55C147.805 114.89 147.727 115.224 147.582 115.531C147.427 115.879 147.222 116.201 146.973 116.488C146.73 116.763 146.444 116.997 146.127 117.181C145.873 117.343 145.581 117.436 145.281 117.452ZM145.01 122.012C145.013 121.956 145.027 121.902 145.052 121.851L149.891 112.012C149.924 111.934 149.967 111.86 150.018 111.792C150.067 111.736 150.124 111.687 150.188 111.648L151.186 111.073C151.224 111.059 151.266 111.059 151.304 111.073C151.321 111.077 151.335 111.087 151.344 111.101C151.354 111.115 151.358 111.132 151.355 111.149C151.353 111.206 151.335 111.262 151.304 111.31L146.448 121.2C146.406 121.285 146.363 121.344 146.338 121.386C146.29 121.433 146.236 121.473 146.177 121.504L145.171 122.088C145.061 122.122 145.01 122.114 145.01 122.012ZM146.702 115.768C146.85 115.548 146.932 115.29 146.939 115.024C146.939 114.77 146.863 114.609 146.702 114.542C146.599 114.511 146.49 114.505 146.384 114.524C146.278 114.543 146.179 114.587 146.093 114.652C145.843 114.794 145.633 114.998 145.484 115.244C145.331 115.469 145.245 115.733 145.238 116.005C145.225 116.099 145.241 116.194 145.286 116.278C145.33 116.361 145.399 116.429 145.484 116.471C145.587 116.501 145.695 116.507 145.801 116.488C145.907 116.469 146.007 116.425 146.093 116.361C146.353 116.22 146.574 116.016 146.736 115.768H146.702ZM149.392 119.559C149.279 119.565 149.166 119.547 149.06 119.504C148.955 119.462 148.86 119.397 148.783 119.313C148.619 119.108 148.538 118.848 148.555 118.586C148.56 118.246 148.638 117.911 148.783 117.604C148.937 117.257 149.143 116.935 149.392 116.648C149.636 116.374 149.922 116.14 150.238 115.955C150.492 115.793 150.784 115.7 151.084 115.684C151.197 115.676 151.31 115.693 151.415 115.734C151.521 115.775 151.616 115.839 151.693 115.921C151.861 116.128 151.943 116.391 151.922 116.657C151.917 116.999 151.839 117.337 151.693 117.647C151.539 117.989 151.334 118.305 151.084 118.586C150.846 118.868 150.559 119.105 150.238 119.288C149.995 119.446 149.716 119.539 149.426 119.559H149.392ZM150.839 117.867C150.992 117.641 151.077 117.377 151.084 117.105C151.096 117.012 151.079 116.917 151.035 116.834C150.991 116.75 150.923 116.683 150.839 116.64C150.734 116.613 150.624 116.609 150.517 116.63C150.41 116.65 150.309 116.694 150.221 116.758C149.978 116.903 149.772 117.103 149.621 117.342C149.468 117.564 149.382 117.825 149.375 118.095C149.375 118.349 149.451 118.501 149.621 118.569C149.723 118.596 149.829 118.6 149.933 118.581C150.037 118.562 150.135 118.52 150.221 118.459C150.481 118.321 150.704 118.124 150.873 117.883L150.839 117.867Z" fill="black"/>
<path d="M144.967 192.233L153.131 187.52C154.324 186.835 155.28 187.131 155.28 188.18C155.192 188.835 154.952 189.46 154.579 190.005C154.205 190.55 153.71 191 153.131 191.319L144.976 196.031C143.783 196.717 142.818 196.421 142.818 195.371C142.91 194.718 143.152 194.095 143.525 193.55C143.898 193.006 144.391 192.555 144.967 192.233Z" fill="#F5F5F5"/>
<path d="M185.569 168.789L193.733 164.077C194.917 163.391 195.882 163.688 195.882 164.737C195.79 165.39 195.548 166.013 195.175 166.558C194.803 167.102 194.309 167.553 193.733 167.875L185.569 172.622C184.384 173.307 183.42 173.011 183.42 171.962C183.508 171.303 183.748 170.673 184.121 170.123C184.494 169.572 184.99 169.116 185.569 168.789Z" fill="#F5F5F5"/>
<path d="M216.592 150.904L224.756 146.192C225.941 145.506 226.905 145.802 226.905 146.852C226.813 147.505 226.571 148.128 226.199 148.673C225.826 149.217 225.332 149.668 224.756 149.99L216.592 154.703C215.408 155.388 214.443 155.1 214.443 154.051C214.535 153.397 214.776 152.772 215.149 152.226C215.522 151.68 216.016 151.228 216.592 150.904Z" fill="#F5F5F5"/>
<path d="M247.151 133.239L255.315 128.527C256.508 127.841 257.472 128.129 257.464 129.178C257.377 129.834 257.137 130.461 256.764 131.007C256.391 131.554 255.895 132.005 255.315 132.325L247.159 137.038C245.966 137.723 245.002 137.427 245.002 136.378C245.094 135.724 245.336 135.101 245.709 134.557C246.081 134.012 246.575 133.561 247.151 133.239Z" fill="#F5F5F5"/>
<path d="M303.953 86.8933C301.864 86.741 298.962 86.7326 296.094 91.4196C293.226 96.1066 285.434 109 285.434 109L290.51 112.435L299.393 99.956C299.393 99.956 300.239 89.9813 301.88 88.5854C303.522 87.1894 303.953 86.8933 303.953 86.8933Z" fill="#F28F8F"/>
<path d="M310.993 181.267L306.228 182.81L308.471 189.74L313.236 188.198L310.993 181.267Z" fill="#FFA8A7"/>
<path d="M307.516 186.725C307.545 187.293 307.401 187.857 307.101 188.341C306.343 189.602 305.449 190.776 304.436 191.844C303.006 193.375 300.866 195.228 299.36 196.522C298.514 197.267 298.472 198.392 299.69 198.781C301.958 199.338 304.352 199.005 306.382 197.85C307.905 197.004 310.071 193.265 311.331 192.69C312.787 192.038 313.607 191.708 314.098 190.997C314.469 190.616 314.701 190.12 314.754 189.59C314.808 189.06 314.681 188.527 314.394 188.079C313.709 186.801 312.702 184.838 312.254 185.058L312.38 185.456C312.05 186.497 309.216 187.706 307.761 187.419L307.516 186.725Z" fill="#263238"/>
<path d="M312.363 185.498C311.017 185.084 310.611 185.794 309.156 185.498L307.515 186.725C307.549 187.294 307.404 187.859 307.1 188.341C306.342 189.602 305.448 190.776 304.435 191.844C303.733 192.588 302.87 193.4 301.999 194.195C301.296 195.295 303.64 195.617 304.934 195.245C306.355 194.736 307.58 193.795 308.437 192.554C309.376 191.319 311.931 188.451 312.312 187.478C312.586 186.85 312.604 186.14 312.363 185.498Z" fill="#FFA8A7"/>
<path d="M328.369 115.43C327.676 110.354 326.119 104.432 324.072 95.3198C323.335 92.0287 322.379 89.0592 320.027 88.1454C320.027 88.1454 313.572 90.802 313.572 95.5736C313.572 100.345 318.792 102.79 318.792 102.79L321.77 113.061L326.491 118.789C327.174 118.575 327.749 118.108 328.099 117.483C328.448 116.858 328.545 116.124 328.369 115.43Z" fill="#FFA8A7"/>
<path d="M318.285 192.571H313.42V199.652H318.285V192.571Z" fill="#FFA8A7"/>
<path d="M321.948 120.388C323.877 128.645 321.999 139.787 321.339 146.733C320.696 153.501 319.901 161.412 319.901 161.412C319.901 161.412 321.974 168.561 321.872 174.102C321.771 179.957 318.344 194.052 318.344 194.052C317.6 194.531 316.734 194.786 315.849 194.786C314.963 194.786 314.097 194.531 313.353 194.052C313.353 194.052 312.507 182.207 311.661 175.507C310.815 168.485 310.544 163.375 309.825 159.271C308.92 154.195 307.405 132.554 307.405 132.554L304.799 154.009C306.362 156.579 307.58 159.344 308.42 162.232C309.486 166.386 311.805 182.876 311.805 182.876C310.354 184.175 308.489 184.916 306.542 184.965C306.542 184.965 296.119 160.202 294.698 157.732C293.175 155.1 292.947 126.285 295.375 119.068L321.948 120.388Z" fill="#455A64"/>
<path d="M313.04 87.0033C313.04 87.0033 319.199 87.7732 320.028 88.1455C313.573 92.6887 318.793 102.79 318.793 102.79L315.671 111.394L321.94 120.362C320.138 122.444 308.674 129.669 296.373 121.75C296.622 117.572 297.105 113.411 297.82 109.288C296.043 100.827 295.857 98.1287 296.373 96.1405C297.82 90.5482 301.128 86.978 304.926 86.7664L313.04 87.0033Z" fill="#318CFF"/>
<path opacity="0.7" d="M313.04 87.0033C313.04 87.0033 319.199 87.7732 320.028 88.1455C313.573 92.6887 318.793 102.79 318.793 102.79L315.671 111.394L321.94 120.362C320.138 122.444 308.674 129.669 296.373 121.75C296.622 117.572 297.105 113.411 297.82 109.288C296.043 100.827 295.857 98.1287 296.373 96.1405C297.82 90.5482 301.128 86.978 304.926 86.7664L313.04 87.0033Z" fill="white"/>
<path d="M281.838 102.139L302.819 107.672L309.012 133.713L289.063 127.917L281.838 102.139Z" fill="#318CFF"/>
<path d="M290.984 119.372C290.789 119.905 289.647 121.378 287.202 121.268L286.897 120.185L290.984 119.372Z" fill="#318CFF"/>
<path opacity="0.2" d="M290.984 119.372C290.789 119.905 289.647 121.378 287.202 121.268L286.897 120.185L290.984 119.372Z" fill="black"/>
<path d="M295.679 120.168C295.763 120.862 297.193 122.147 299.604 122.951C302.354 123.873 306.559 123.383 306.559 123.383L306.186 122.088L295.679 120.168Z" fill="#318CFF"/>
<path opacity="0.2" d="M295.679 120.168C295.763 120.862 297.193 122.147 299.604 122.951C302.354 123.873 306.559 123.383 306.559 123.383L306.186 122.088L295.679 120.168Z" fill="black"/>
<path d="M287.98 105.912L287.811 105.117C287.709 104.668 288.944 104.652 290.56 105.066L293.648 105.87C295.264 106.293 296.652 106.987 296.745 107.427L296.922 108.23L287.98 105.912Z" fill="#318CFF"/>
<path opacity="0.3" d="M287.98 105.912L287.811 105.117C287.709 104.668 288.944 104.652 290.56 105.066L293.648 105.87C295.264 106.293 296.652 106.987 296.745 107.427L296.922 108.23L287.98 105.912Z" fill="black"/>
<path d="M286.525 102.892C286.466 102.621 286.965 102.545 287.642 102.731L288.869 103.069C288.869 103.069 288.497 101.377 291.221 101.944C291.944 102.046 292.629 102.333 293.209 102.777C293.789 103.222 294.244 103.81 294.529 104.482L295.832 104.855C296.559 105.058 297.211 105.447 297.295 105.701L297.448 106.2L286.644 103.357C286.644 103.357 286.584 103.171 286.525 102.892Z" fill="#455A64"/>
<path d="M288.014 103.755C289.004 104 289.419 104.127 289.562 104.812C289.706 105.498 289.799 106.157 289.799 106.157L294.588 107.427C294.588 107.427 294.359 106.437 294.283 106.056C294.207 105.675 294.368 105.438 295.129 105.641L295.197 105.337L287.701 103.425L288.014 103.755Z" fill="#455A64"/>
<path d="M287.879 105.988C287.879 105.988 287.803 105.633 287.701 105.142C287.6 104.652 288.835 104.685 290.451 105.142L293.547 105.946C295.163 106.369 296.542 107.063 296.644 107.503L296.813 108.306L287.879 105.988Z" fill="#455A64"/>
<path d="M326.492 118.789L321.771 113.061C321.771 113.061 311.145 117.52 309.47 117.647C307.795 117.773 306.5 116.132 305.857 114.499C305.214 112.867 303.945 113.07 303.945 113.07C303.945 113.07 304.444 115.142 304.597 115.811C304.749 116.479 300.916 117.012 298.674 116.259C296.432 115.506 293.243 116.598 295.239 119.643C297.236 122.689 301.094 123.027 303.784 123.027C304.916 123.019 306.046 122.943 307.168 122.799C308.015 122.689 308.861 122.596 309.783 122.537C315.273 122.114 323.988 119.567 326.492 118.789Z" fill="#FFA8A7"/>
<path d="M283.97 109.753L284.901 113.078C285.087 113.713 287.523 114.88 289.063 115.303C290.603 115.726 292.295 116.225 291.601 118.383C290.924 120.371 288.386 120.828 287.092 120.768C285.797 120.709 284.038 119.482 283.335 117.486C282.489 114.948 282.929 112.24 282.574 110.718C282.219 109.195 283.2 108.873 283.97 109.753Z" fill="#FFA8A7"/>
<path d="M313.421 197.258V196.556C312.819 198.858 311.62 200.959 309.944 202.647C308.404 204.052 306.314 205.668 305.781 207.224C305.248 208.781 308.252 209.492 310.24 209.297C312.164 209.054 313.936 208.126 315.231 206.683C316.492 205.236 316.466 204.246 317.059 203.451C317.651 202.656 319.005 201.759 319.326 200.837C319.421 199.981 319.326 199.114 319.047 198.299C318.818 197.453 318.573 196.497 318.285 196.607V197.14C317.593 197.691 316.734 197.99 315.849 197.986C315.138 197.943 313.412 197.8 313.421 197.258Z" fill="#263238"/>
<path d="M318.286 197.089C317.931 197.478 317.753 196.522 316.653 196.556C315.942 196.556 314.749 197.097 314.749 196.556H313.421C312.82 198.858 311.62 200.959 309.944 202.647C309.572 202.986 309.174 203.333 308.768 203.688C307.922 204.602 308.184 205.38 310.105 205.558C312.025 205.735 313.709 204.568 315.181 202.783C316.409 200.997 317.45 199.089 318.286 197.089Z" fill="#FFA8A7"/>
<path d="M308.826 82.8409H307.676C304.736 82.8409 301.917 81.6732 299.839 79.5947C297.76 77.5163 296.593 74.6973 296.593 71.7579V70.6327C296.593 68.1353 297.585 65.7402 299.351 63.9743C301.116 62.2084 303.512 61.2163 306.009 61.2163H310.544C313.041 61.2163 315.436 62.2084 317.202 63.9743C318.968 65.7402 319.96 68.1353 319.96 70.6327V71.6987C319.96 74.6523 318.787 77.4851 316.699 79.5744C314.612 81.6637 311.78 82.8386 308.826 82.8409Z" fill="#263238"/>
<path d="M300.434 65.9456C299.199 66.6732 297.676 69.7781 297.828 76.2841C297.955 81.8002 299.74 83.1623 300.637 83.56C301.534 83.9576 303.268 83.7123 304.952 83.4331V86.7411C304.952 86.7411 302.625 89.4484 302.777 90.9712C302.93 92.4941 306.161 92.8494 308.31 91.3604C309.884 90.1421 311.24 88.666 312.32 86.9949L312.278 79.3806C312.278 79.3806 313.268 80.3451 314.952 78.873C316.339 77.6631 316.804 75.6158 315.722 74.5244C315.442 74.2631 315.104 74.072 314.737 73.967C314.369 73.862 313.981 73.846 313.606 73.9204C313.231 73.9948 312.878 74.1574 312.578 74.3948C312.278 74.6323 312.039 74.9377 311.881 75.2858C309.671 75.1961 307.519 74.5564 305.62 73.4245C304.23 72.6711 303.037 71.6019 302.136 70.3028C301.235 69.0038 300.652 67.5113 300.434 65.9456Z" fill="#FFA8A7"/>
<path d="M303.953 74.9051C303.946 74.9974 303.958 75.0901 303.987 75.1779C304.016 75.2658 304.062 75.347 304.122 75.417C304.183 75.487 304.257 75.5443 304.339 75.5857C304.422 75.627 304.512 75.6516 304.605 75.6581C304.794 75.6626 304.977 75.5923 305.115 75.4625C305.253 75.3326 305.334 75.1536 305.341 74.9643C305.348 74.7803 305.283 74.6007 305.158 74.4651C305.097 74.3979 305.022 74.3436 304.94 74.3051C304.857 74.2666 304.768 74.2448 304.677 74.241C304.493 74.2331 304.313 74.2987 304.177 74.4232C304.042 74.5478 303.961 74.7211 303.953 74.9051Z" fill="#263238"/>
<path d="M303.801 79.5583L302.193 80.0743C302.256 80.2878 302.401 80.4679 302.596 80.5756C302.79 80.6833 303.02 80.7099 303.234 80.6496C303.345 80.618 303.448 80.5642 303.537 80.4913C303.626 80.4185 303.699 80.3282 303.753 80.2261C303.806 80.1239 303.837 80.012 303.846 79.8971C303.854 79.7823 303.839 79.667 303.801 79.5583Z" fill="#F28F8F"/>
<path d="M298.302 72.79L299.707 71.8171C299.583 71.6316 299.39 71.5027 299.172 71.4583C298.953 71.4139 298.726 71.4577 298.539 71.5802C298.442 71.6417 298.357 71.7225 298.292 71.8177C298.227 71.9129 298.182 72.0205 298.159 72.1339C298.137 72.2472 298.138 72.3639 298.163 72.4768C298.188 72.5896 298.235 72.6962 298.302 72.79Z" fill="#263238"/>
<path d="M298.623 74.3974C298.622 74.5335 298.66 74.6671 298.734 74.7814C298.808 74.8957 298.914 74.9858 299.038 75.0405C299.163 75.0951 299.301 75.1119 299.435 75.0887C299.569 75.0655 299.693 75.0034 299.792 74.9101C299.891 74.8168 299.961 74.6964 299.992 74.5639C300.023 74.4315 300.015 74.2927 299.968 74.1651C299.921 74.0374 299.837 73.9263 299.727 73.8458C299.618 73.7653 299.487 73.7188 299.351 73.7122C299.258 73.7088 299.165 73.7239 299.078 73.7566C298.991 73.7893 298.911 73.839 298.844 73.9027C298.776 73.9665 298.722 74.0431 298.684 74.128C298.646 74.2129 298.625 74.3045 298.623 74.3974Z" fill="#263238"/>
<path d="M301.898 74.0083L301.788 78.1792L299.588 77.4939L301.898 74.0083Z" fill="#F28F8F"/>
<path d="M304.952 83.4331C306.729 83.1962 310.375 82.1471 310.942 80.7089C310.716 81.4402 310.27 82.084 309.665 82.5532C308.573 83.4838 304.952 84.5329 304.952 84.5329V83.4331Z" fill="#F28F8F"/>
<path d="M317.515 106.31L312.659 112.892L315.671 111.394L317.515 106.31Z" fill="#318CFF"/>
<path opacity="0.3" d="M317.515 106.31L312.659 112.892L315.671 111.394L317.515 106.31Z" fill="white"/>
</svg>
