<svg width="106" height="127" viewBox="0 0 106 127" fill="none" xmlns="http://www.w3.org/2000/svg">
<path d="M100.83 103.271C99.765 100.253 72.8469 85.1602 72.8469 85.1602L53.3807 82.939V82.8521L53.0003 82.8953L52.6199 82.8521V82.939L33.1537 85.1602C33.1537 85.1602 6.23558 100.253 5.17094 103.271C4.1063 106.289 0 126.886 0 126.886H52.6199H53.3801H106C106 126.886 101.894 106.29 100.83 103.271Z" fill="#303030"/>
<path d="M77.002 85.9936C77.002 85.9936 72.6583 78.0066 70.6961 75.7645C68.7345 73.5224 64.9513 73.6624 64.9513 73.6624L53.3209 73.4318V73.3819L52.0597 73.4072L50.7984 73.3819V73.4318L39.1681 73.6624C39.1681 73.6624 35.3848 73.5224 33.4232 75.7645C31.4616 78.0066 27.1179 85.9936 27.1179 85.9936C27.1179 85.9936 24.035 110.094 25.2963 109.955C26.5576 109.815 35.8052 102.528 38.7482 101.968C40.822 101.572 51.2786 109.334 52.0597 108.8C52.8407 109.334 63.2973 101.572 65.3717 101.968C68.3141 102.528 77.5624 109.815 78.8237 109.955C80.085 110.094 77.002 85.9936 77.002 85.9936Z" fill="#1A6DF6" stroke="#303030" stroke-miterlimit="10"/>
<path d="M66.583 61.6123L53.1014 60.7714C53.1014 60.7714 53.0607 63.1627 53.0058 66.9238C52.951 63.1627 52.9103 60.7714 52.9103 60.7714L39.4281 61.6123C39.4281 61.6123 37.2661 80.3887 37.7747 84.5924C38.3357 89.2289 40.6142 94.0416 42.2725 98.2829C43.4191 101.214 44.628 104.122 45.9652 106.954C47.1673 109.501 48.3601 112.737 50.6725 114.315C53.7696 116.428 57.1491 113.15 58.7076 110.304C60.4041 107.205 61.5057 103.814 62.8435 100.527C64.8507 95.5945 67.2413 90.2615 68.187 84.9148C68.2061 84.8082 68.2234 84.7003 68.2363 84.5924C68.7455 80.3887 66.583 61.6123 66.583 61.6123Z" fill="white" stroke="#303030" stroke-miterlimit="10"/>
<path d="M53.3204 73.3825L42.5649 61.4169L39.4277 61.6123C39.4277 61.6123 37.6448 77.0961 37.6985 83.0894L54.6526 75.3626L53.3204 73.3825Z" fill="#303030"/>
<path d="M67.9917 25.0649C60.1694 19.852 46.1669 19.8625 38.363 25.0655C34.7819 27.4531 35.1802 33.8193 35.1802 33.8193C35.1802 33.8193 36.9704 62.2682 37.9654 63.6614C38.9604 65.054 46.5201 74.8022 48.5119 75.5993C50.7466 76.4913 55.5896 76.5012 57.8471 75.5987C59.8365 74.8028 67.3968 65.0546 68.3912 63.662C69.3856 62.2694 71.1764 33.82 71.1764 33.82C71.1764 33.82 71.5734 27.4525 67.9917 25.0649Z" fill="white" stroke="#303030" stroke-miterlimit="10"/>
<path d="M73.0783 13.1295C73.0783 13.1295 75.0399 11.5883 73.4987 9.90657C71.9575 8.22484 68.4541 8.64527 68.4541 8.64527C68.4541 8.64527 66.7724 4.30163 63.6901 2.05953C60.6071 -0.182567 63.4096 4.44157 63.4096 4.44157C63.4096 4.44157 55.2827 0.0979214 50.6585 0.938785C46.0344 1.77965 51.079 3.18089 51.079 3.18089C51.079 3.18089 32.3025 3.74126 28.6592 12.1487C25.0159 20.5561 31.3217 26.0211 32.4425 28.8235C33.5632 31.626 33.7038 40.4538 33.7038 40.4538L36.2257 43.5368L36.0414 42.1263C36.0414 42.1263 37.3465 39.8935 37.3465 38.9127C37.3465 37.9319 36.7861 35.4099 36.7861 33.3077C36.7861 32.4385 37.4889 30.922 38.6614 29.3925C39.2859 29.7211 40.0947 30.0632 41.1304 30.3653C44.4932 31.3461 47.2957 30.7858 46.5954 29.9449C45.8944 29.104 45.1941 27.2824 45.1941 27.2824C45.1941 27.2824 47.4362 29.5245 51.7799 29.6644C56.1235 29.8043 55.9836 28.9635 54.1619 27.2824C53.2982 26.4853 52.659 25.5303 52.3107 24.5674C58.6412 24.9379 66.6041 26.214 67.8938 27.7022C69.7154 29.8037 68.4541 33.5876 68.5941 35.8291C68.734 38.0712 70.6124 42.1257 70.6124 42.1257C70.6124 42.1257 72.5179 33.5876 72.5179 31.9059C72.5179 30.2242 75.0399 26.3009 76.8615 21.8168C78.6832 17.3332 73.0783 13.1295 73.0783 13.1295Z" fill="#303030"/>
<path d="M35.8116 42.1257C35.8116 42.1257 33.3901 37.9966 31.9975 43.7661C30.6049 49.5356 36.5822 53.1087 36.5822 53.1087L35.8116 42.1257Z" fill="white" stroke="#303030" stroke-miterlimit="10"/>
<path d="M70.6124 42.1257C70.6124 42.1257 73.0339 37.9966 74.4265 43.7661C75.8191 49.5356 69.8418 53.1087 69.8418 53.1087L70.6124 42.1257Z" fill="white" stroke="#303030" stroke-miterlimit="10"/>
<path d="M41.5918 45.7869C41.5918 45.7869 43.5189 43.4745 47.2763 45.3055" stroke="black" stroke-miterlimit="10" stroke-linecap="round" stroke-linejoin="round"/>
<path d="M65.0028 45.7869C65.0028 45.7869 63.0757 43.4745 59.3184 45.3055" stroke="black" stroke-miterlimit="10" stroke-linecap="round" stroke-linejoin="round"/>
<path d="M48.8174 54.6505L48.6417 55.4994C48.4105 56.6164 49.0911 57.7224 50.1952 58.0102C51.6081 58.3789 53.4317 58.7629 54.4057 58.6008C55.1128 58.4831 55.9154 58.2531 56.6188 58.0219C57.6674 57.6773 58.2937 56.6065 58.062 55.5271L57.8739 54.6505" fill="white"/>
<path d="M48.8174 54.6505L48.6417 55.4994C48.4105 56.6164 49.0911 57.7224 50.1952 58.0102C51.6081 58.3789 53.4317 58.7629 54.4057 58.6008C55.1128 58.4831 55.9154 58.2531 56.6188 58.0219C57.6674 57.6773 58.2937 56.6065 58.062 55.5271L57.8739 54.6505" stroke="#303030" stroke-miterlimit="10"/>
<path d="M55.2721 40.6807C55.2721 40.6807 61.9195 38.2721 70.2054 40.5845C70.2054 40.5845 72.688 41.1628 71.6504 41.6442C70.6129 42.1257 70.6129 42.1257 70.6129 42.1257C70.6129 42.1257 70.3016 48.4846 68.4713 49.8334C66.641 51.1822 62.7868 51.2784 59.8007 50.7008C56.8139 50.1225 55.658 47.5216 55.0797 45.4984C54.5015 43.4751 54.1162 40.8742 54.1162 40.8742L55.2721 40.6807Z" stroke="black" stroke-width="2" stroke-miterlimit="10" stroke-linecap="round" stroke-linejoin="round"/>
<path d="M51.3828 40.6807C51.3828 40.6807 44.7354 38.2721 36.4495 40.5845C36.4495 40.5845 33.967 41.1628 35.0045 41.6442C36.042 42.1257 36.042 42.1257 36.042 42.1257C36.042 42.1257 36.3533 48.4846 38.1836 49.8334C40.0139 51.1822 43.8681 51.2784 46.8542 50.7008C49.841 50.1225 50.9969 47.5216 51.5752 45.4984C52.1534 43.4751 52.5387 40.8742 52.5387 40.8742L51.3828 40.6807Z" stroke="black" stroke-width="2" stroke-miterlimit="10" stroke-linecap="round" stroke-linejoin="round"/>
<path d="M52.5381 40.8737H54.115" stroke="black" stroke-width="2" stroke-miterlimit="10" stroke-linecap="round" stroke-linejoin="round"/>
<path d="M38.9902 39.1395C38.9902 39.1395 44.1926 36.8271 49.8771 39.0433" stroke="black" stroke-width="2" stroke-miterlimit="10" stroke-linecap="round" stroke-linejoin="round"/>
<path d="M56.7168 39.1395C56.7168 39.1395 61.9192 36.8271 67.6036 39.0433" stroke="black" stroke-width="2" stroke-miterlimit="10" stroke-linecap="round" stroke-linejoin="round"/>
<path d="M46.0225 62.3582C46.0225 62.3582 48.7201 64.9597 53.3449 65.0559C57.9696 65.152 60.5705 62.7435 60.5705 62.7435" stroke="black" stroke-miterlimit="10" stroke-linecap="round" stroke-linejoin="round"/>
<path d="M65.9053 61.7695C66.0034 61.309 66.0779 60.9594 66.1193 60.7696C66.3547 59.6975 66.0447 58.6514 65.3104 58.0392C64.6668 57.5041 63.7865 57.3488 62.8322 57.6046C61.5944 57.9363 57.3155 58.009 55.7712 58.009C55.7354 58.009 55.7003 58.0109 55.6652 58.0146L53.4983 58.242L51.3314 58.0146C51.2963 58.0109 51.2611 58.009 51.2254 58.009C49.6817 58.009 45.4028 57.9363 44.1643 57.6046C43.21 57.3488 42.3291 57.5041 41.6861 58.0398C40.9519 58.6514 40.6418 59.6975 40.8773 60.7696C40.9186 60.9594 40.9932 61.3083 41.0912 61.7682C41.7256 64.7482 42.3938 67.8207 42.9166 69.9149C45.1642 72.6039 47.5235 75.2029 48.5117 75.5981C50.7464 76.4901 55.5893 76.5 57.8469 75.5975C58.9682 75.1487 61.8588 71.8568 64.3463 68.8194C64.8197 66.8221 65.3746 64.2643 65.9053 61.7695ZM61.6646 71.6718C61.1838 72.6939 58.9522 74.5815 55.0111 75.2985C54.8853 75.3213 54.7664 75.3429 54.6529 75.3626L54.4224 67.2542C54.4094 66.7986 53.9995 66.4343 53.4983 66.4343C52.9971 66.4343 52.5865 66.798 52.5736 67.2542L52.343 75.3626C52.2296 75.3429 52.1106 75.3213 51.9848 75.2985C48.045 74.5815 45.8128 72.6933 45.3319 71.6718C44.877 70.7052 43.3944 63.7379 42.9067 61.4483C42.8075 60.9835 42.7329 60.6321 42.6903 60.4404C42.5862 59.9651 42.6866 59.4885 42.9345 59.282C42.9739 59.2493 43.0713 59.168 43.2926 59.168C43.3857 59.168 43.5004 59.1821 43.6428 59.2204C45.3159 59.6679 50.3691 59.6913 51.1723 59.6926L53.3922 59.9256C53.4625 59.933 53.534 59.933 53.6043 59.9256L55.8242 59.6926C56.6281 59.6913 61.6813 59.6679 63.3538 59.2204C63.8334 59.0903 64.0054 59.2339 64.0615 59.2814C64.3093 59.4879 64.4098 59.9638 64.305 60.4397C64.2624 60.6315 64.1879 60.9841 64.0886 61.4495C63.6022 63.7385 62.1202 70.7052 61.6646 71.6718Z" fill="#303030"/>
</svg>
