<svg width="128" height="118" viewBox="0 0 128 118" fill="none" xmlns="http://www.w3.org/2000/svg">
<path d="M122.467 91.8799C121.67 89.9661 78.2881 68.2756 78.2881 68.2756L64.0002 68.6915L49.7123 68.2756C49.7123 68.2756 6.33076 89.9661 5.53315 91.8799C4.73554 93.7938 0.457031 116.665 0.457031 116.665H61.8609H66.1394H127.543C127.543 116.665 123.265 93.7938 122.467 91.8799Z" fill="#303030"/>
<path d="M93.1262 85.6601L89.5782 73.9723C83.0672 70.6873 78.2037 68.2756 78.2037 68.2756L64.0191 68.6855L49.8346 68.2756C49.8346 68.2756 44.9711 70.6873 38.4601 73.9723L34.9121 85.6601L47.1339 91.7209L36.842 98.8981L48.1501 116.666H62.0845H63.0545H64.9845H65.9545H79.8889L91.1969 98.8981L80.9051 91.7209L93.1262 85.6601Z" fill="#434343"/>
<path d="M81.1108 69.6924C79.3378 68.8002 78.288 68.2756 78.288 68.2756L64.0002 68.6915L49.7123 68.2756C49.7123 68.2756 48.6738 68.7949 46.9189 69.6777C48.9247 77.9261 55.7946 107.033 58.066 116.665H61.8609H66.1394H71.8588L81.1108 69.6924Z" fill="white" stroke="#303030" stroke-miterlimit="10"/>
<path d="M66.6516 94.5914L72.5528 83.9059L63.7651 76.7086L56.4443 84.2245L62.0263 94.4318L57.847 115.733C57.9242 116.06 57.998 116.372 58.0671 116.665H61.8619H66.1404H71.8599L72.1557 115.164L66.6516 94.5914Z" fill="#1A6DF6" stroke="#303030" stroke-miterlimit="10"/>
<path d="M64.0987 79.2799L76.7599 91.7827L81.1108 69.6924C79.3378 68.8002 78.288 68.2756 78.288 68.2756L64.0002 68.6915L49.7123 68.2756C49.7123 68.2756 48.6738 68.7949 46.9189 69.6777C47.8655 73.5698 49.8947 82.1054 52.0132 91.0481L64.0987 79.2799Z" fill="white" stroke="#303030" stroke-miterlimit="10"/>
<path d="M83.436 28.3757C83.436 28.3757 87.5059 25.742 88.4638 30.5304C89.4218 35.3187 82.2393 44.8954 82.2393 44.8954L83.436 28.3757Z" fill="white" stroke="#303030" stroke-miterlimit="10"/>
<path d="M42.8072 28.3757C42.8072 28.3757 38.7373 25.742 37.7794 30.5304C36.8214 35.3187 44.0039 44.8954 44.0039 44.8954L42.8072 28.3757Z" fill="white" stroke="#303030" stroke-miterlimit="10"/>
<path d="M83.0565 47.2896C81.839 36.755 86.7085 24.3058 82.0825 11.6165C78.3903 1.48771 68.1917 0.349336 64.2245 0.521067C63.6134 0.547229 63.0002 0.547229 62.3891 0.521067C58.4225 0.349336 48.224 1.48771 44.5311 11.6165C39.9051 24.3058 44.7746 36.755 43.5571 47.2896C42.3395 57.8235 37.4707 67.4002 50.6175 73.865C54.6223 75.8345 58.87 76.5912 62.8493 76.7079V76.7321C63.0002 76.7314 63.1552 76.7227 63.3068 76.72C63.4584 76.7227 63.6133 76.7314 63.7643 76.7321V76.7079C67.7429 76.5905 71.9906 75.8338 75.9961 73.865C89.1429 67.4009 84.2734 57.8242 83.0565 47.2896Z" fill="white" stroke="#303030" stroke-miterlimit="10"/>
<path d="M82.0825 11.6165C78.3903 1.48772 68.1917 0.349345 64.2245 0.521076C63.6134 0.547238 63.0002 0.547238 62.3891 0.521076C58.4225 0.348674 48.224 1.48772 44.5311 11.6165C42.6515 16.7718 42.3395 21.8882 42.5502 26.8523L42.8077 28.3757C42.8077 28.3757 43.0418 27.299 44.3419 25.1725C45.642 23.0453 45.8781 19.3826 44.5781 16.9013C43.7335 15.2886 44.3352 12.9836 44.8605 11.5628C45.921 9.81065 47.3653 7.99205 49.0545 7.33061C52.6434 5.92524 58.5607 9.85492 63.1632 10.4996V10.5204C63.184 10.5177 63.2055 10.5123 63.2256 10.5096C63.2464 10.5123 63.2679 10.5177 63.288 10.5204V10.4996C67.8905 9.85425 73.8079 5.92524 77.3968 7.33061C79.6575 8.2161 81.4794 11.1731 82.5299 13.2708C82.7922 14.4829 82.8633 15.8427 82.3086 16.9019C81.0085 19.3833 81.2453 23.0467 82.5447 25.1732C83.8447 27.3004 83.9628 29.1907 83.9628 29.1907L84.0373 27.3587C84.2915 22.2356 84.0259 16.9475 82.0825 11.6165Z" fill="#303030"/>
<path d="M49.8145 29.6623C49.8145 29.6623 52.2959 26.9448 56.5496 28.9533" stroke="black" stroke-miterlimit="10" stroke-linecap="round" stroke-linejoin="round"/>
<path d="M69.5479 29.1901C69.5479 29.1901 73.8016 27.2997 76.6378 29.5449" stroke="black" stroke-miterlimit="10" stroke-linecap="round" stroke-linejoin="round"/>
<path d="M47.6875 26.3538C47.6875 26.3538 51.2321 22.5724 58.204 25.2906" stroke="black" stroke-width="2" stroke-miterlimit="10" stroke-linecap="round" stroke-linejoin="round"/>
<path d="M79.1181 26.3538C79.1181 26.3538 75.5734 22.5724 68.6016 25.2906" stroke="black" stroke-width="2" stroke-miterlimit="10" stroke-linecap="round" stroke-linejoin="round"/>
<path d="M83.3725 34.389C81.6002 54.5949 63.2853 42.7783 63.2853 42.7783C63.2853 42.7783 53.714 49.2772 48.6332 45.9687C43.5524 42.6602 43.3156 34.1528 43.3156 34.1528L43.1552 34.4654C43.598 38.9573 44.0219 43.264 43.5571 47.2903C42.3395 57.8242 37.4707 67.4009 50.6175 73.8656C54.6223 75.8352 58.87 76.5919 62.8493 76.7086V76.7327C63.0002 76.7321 63.1552 76.7234 63.3068 76.7207C63.459 76.7234 63.6133 76.7321 63.7643 76.7327V76.7086C67.7429 76.5912 71.9906 75.8345 75.9961 73.8656C89.1429 67.4016 84.2734 57.8249 83.0565 47.2903C82.5896 43.2485 83.0183 38.9244 83.4631 34.4145L83.3725 34.389Z" fill="#303030"/>
<path d="M68.1291 36.8704L63.4615 37.3372L58.7939 36.8704L45.0869 50.5773C45.0869 50.5773 51.231 51.1683 56.7848 49.0411C61.663 47.1729 63.167 45.7615 63.4608 45.4455C63.7546 45.7615 65.2586 47.1729 70.1369 49.0411C75.6906 51.1683 81.8347 50.5773 81.8347 50.5773L68.1291 36.8704Z" fill="#444444"/>
<path d="M57.7316 33.5618C57.7316 33.5618 56.0774 34.8619 57.1406 36.6342C58.2039 38.4065 60.8033 39.7066 62.9305 39.7066C65.0577 39.7066 69.3114 37.8162 69.3114 36.0439C69.3114 34.2716 67.8933 33.2076 67.8933 33.2076" fill="white"/>
<path d="M57.7316 33.5618C57.7316 33.5618 56.0774 34.8619 57.1406 36.6342C58.2039 38.4065 60.8033 39.7066 62.9305 39.7066C65.0577 39.7066 69.3114 37.8162 69.3114 36.0439C69.3114 34.2716 67.8933 33.2076 67.8933 33.2076" stroke="#303030" stroke-miterlimit="10"/>
</svg>
