<svg width="120" height="128" viewBox="0 0 120 128" fill="none" xmlns="http://www.w3.org/2000/svg">
<path d="M39.2946 72.637L58.681 75.2985L85.0116 72.046C85.0116 72.046 91.9494 60.3813 87.9054 51.3468C83.8615 42.3124 78.357 26.2116 71.9911 23.5509C65.6252 20.8895 42.7667 35.0837 37.8477 46.9116C32.9287 58.7395 39.2946 72.637 39.2946 72.637Z" fill="#303030"/>
<path d="M39.9754 46.0721C39.9754 46.0721 37.5941 39.6557 34.9955 42.3106C32.3976 44.9656 34.7789 51.8246 36.5114 54.0377C38.243 56.25 41.2748 56.9139 41.2748 56.9139L39.9754 46.0721Z" fill="white" stroke="#303030" stroke-miterlimit="10"/>
<path d="M78.8802 46.0721C78.8802 46.0721 81.2615 39.6557 83.8602 42.3106C86.458 44.9656 84.0767 51.8246 82.3443 54.0377C80.6126 56.25 77.6475 56.6926 77.6475 56.6926L78.8802 46.0721Z" fill="white" stroke="#303030" stroke-miterlimit="10"/>
<path d="M111.851 108.247C104.273 100.724 77.2101 93.2007 77.2101 93.2007L58.807 86.6532L42.79 93.2007C42.79 93.2007 15.7271 100.724 8.14926 108.247C0.571465 115.77 1.00456 126.833 1.00456 126.833H58.807H61.193H118.995C118.995 126.833 119.429 115.77 111.851 108.247Z" fill="#1A6DF6" stroke="#303030" stroke-miterlimit="10"/>
<path d="M48.2032 66.8704C48.2032 66.8704 49.7191 76.8269 46.6873 86.7835C43.6564 96.74 46.0377 107.803 47.1204 109.795C48.2032 111.787 58.5994 122.576 58.5994 122.576C58.5994 122.576 72.4509 107.583 73.1006 104.706C73.7502 101.829 73.1006 91.2089 70.9358 86.7835C68.7711 82.3581 68.5545 70.6318 68.5545 70.6318L48.2032 66.8704Z" fill="white" stroke="#303030" stroke-miterlimit="10"/>
<path d="M45.9902 89.5268L61.3231 78.3621L51.0167 67.3908L48.2031 66.8711C48.2031 66.8711 49.7182 76.8277 46.6872 86.7842C46.4121 87.6916 46.1819 88.608 45.9902 89.5268Z" fill="#303030"/>
<path d="M60.7582 13.5744C55.4542 13.463 49.8912 14.7712 46.5306 17.4359C40.2321 22.4294 38.0096 31.6507 38.8927 39.4343C38.8935 39.4417 40.6251 54.7023 41.4905 58.463C42.3567 62.2244 50.3131 73.9966 52.3158 76.3851C56.0758 80.8687 62.5372 80.9572 66.3718 76.3851C68.3745 73.9974 76.3309 62.2244 77.1971 58.463C78.0633 54.7015 79.795 39.4343 79.795 39.4343C80.0212 34.5408 79.2696 29.281 77.5275 24.7244C76.205 21.2646 74.1196 17.9949 70.9299 16.0695C68.2959 14.4785 64.5952 13.6548 60.7582 13.5744Z" fill="white" stroke="#303030" stroke-miterlimit="10"/>
<path d="M54.3223 64.9221C54.3223 64.9221 58.9565 69.0262 65.0898 65.3221" stroke="black" stroke-miterlimit="10" stroke-linecap="round" stroke-linejoin="round"/>
<path d="M47.1201 47.6213C47.1201 47.6213 51.0173 44.0811 54.6979 47.4" stroke="black" stroke-miterlimit="10" stroke-linecap="round" stroke-linejoin="round"/>
<path d="M64.4404 47.6213C64.4404 47.6213 68.3376 44.0811 72.0182 47.4" stroke="black" stroke-miterlimit="10" stroke-linecap="round" stroke-linejoin="round"/>
<path d="M44.0889 42.9747C44.0889 42.9747 49.2854 36.5583 55.5638 40.9837" stroke="black" stroke-miterlimit="10" stroke-linecap="round" stroke-linejoin="round"/>
<path d="M75.266 42.9747C75.266 42.9747 70.0703 36.5583 63.791 40.9837" stroke="black" stroke-miterlimit="10" stroke-linecap="round" stroke-linejoin="round"/>
<path d="M56.2139 60.2327C56.2139 60.2327 58.8117 63.3302 64.2248 60.2327" stroke="black" stroke-miterlimit="10" stroke-linecap="round" stroke-linejoin="round"/>
<path d="M39.7591 58.0205C39.7591 58.0205 49.0686 40.0984 61.6263 32.3541C74.1833 24.6098 71.3689 25.9377 71.3689 25.9377C71.3689 25.9377 74.6829 33.2393 76.7819 39.6557C78.8809 46.0721 80.8956 58.4631 80.8956 65.5434C80.8956 72.6238 79.8129 78.3762 79.8129 78.3762C79.8129 78.3762 81.1122 76.6066 86.5245 73.9508C90.5379 71.982 97.434 71.2738 98.4943 65.9148C99.1175 62.7639 98.6274 59.4844 98.8087 56.3008C98.9811 53.2631 98.9074 50.091 96.9167 47.6205C93.8857 43.859 88.9057 38.991 88.9057 33.0172C88.9057 27.0434 91.287 24.1664 87.3899 19.0779C83.4927 13.9885 79.5955 14.6525 78.5135 13.3254C77.4308 11.9975 82.1942 2.70491 58.5954 0.93524C34.9965 -0.835252 27.2022 20.8484 26.5525 26.3803C25.9028 31.9123 28.2842 35.4525 24.387 42.3115C21.0528 48.1795 15.27 56.5361 17.3602 63.7238C19.3982 70.7328 30.9742 77.2951 37.6722 78.2582C38.1237 78.323 43.6282 78.2803 43.6563 78.3771C43.6563 78.3771 39.7591 65.1016 39.7591 61.5615C39.7591 58.0205 39.7591 58.0205 39.7591 58.0205Z" fill="#303030"/>
<path d="M47.7705 83.023C47.7705 83.023 43.2237 81.9164 42.3583 84.1295C41.4921 86.3418 33.9142 97.6263 33.9142 97.6263C33.9142 97.6263 34.3474 105.371 32.6149 110.017C30.8833 114.664 30.4502 116.434 31.5321 116.434C32.6141 116.434 42.3575 108.247 43.0071 107.141C43.6568 106.034 44.7396 104.265 45.3884 105.149C46.0381 106.034 47.1209 109.796 47.1209 109.796C47.1209 109.796 49.9353 104.485 47.7705 98.9541C45.605 93.4222 46.4712 85.6779 47.7705 83.023Z" fill="white" stroke="#303030" stroke-miterlimit="10" stroke-linecap="round" stroke-linejoin="round"/>
<path d="M69.637 83.023C69.637 83.023 75.0613 81.9164 75.9275 84.1295C76.7937 86.3418 84.3715 97.6263 84.3715 97.6263C84.3715 97.6263 83.9384 105.371 85.6708 110.017C87.4033 114.664 87.8356 116.434 86.7536 116.434C85.6716 116.434 75.9283 108.247 75.2786 107.141C74.629 106.034 73.547 104.265 72.8973 105.149C72.2477 106.034 69.2039 110.341 69.2039 110.341C69.2039 110.341 68.3505 104.486 70.516 98.9541C72.68 93.4222 70.9363 85.6779 69.637 83.023Z" fill="white" stroke="#303030" stroke-miterlimit="10" stroke-linecap="round" stroke-linejoin="round"/>
</svg>
