<svg width="117" height="117" viewBox="0 0 117 117" fill="none" xmlns="http://www.w3.org/2000/svg">
<path d="M27.3209 16.3563C27.3209 16.3563 23.3484 31.0538 19.5745 49.9224C15.8006 68.7911 30.4988 83.4886 40.4298 83.8859L43.6077 69.7837L43.8064 58.6607C43.8064 58.6607 39.6352 47.7371 37.2519 37.4088C34.8687 27.0805 34.6701 16.3556 34.6701 16.3556C34.6701 16.3556 33.478 9.20586 27.3209 16.3563Z" fill="#303030"/>
<path d="M42.4152 57.8675C42.4152 57.8675 40.628 80.1128 37.4501 85.0779C34.2722 90.0438 19.7734 92.8243 11.6297 97.1935C3.48666 101.563 1.5 115.665 1.5 115.665H104.98C104.98 115.665 106.768 101.563 99.8167 95.0082C92.8656 88.4537 78.9621 91.6316 73.9962 81.1046C69.0311 70.5776 68.2365 56.6748 68.2365 56.6748L42.4152 57.8675Z" fill="white" stroke="#303030" stroke-miterlimit="10"/>
<path d="M55.2167 70.9205L42.4786 57.8646L42.4154 57.8675C42.4154 57.8675 41.1778 73.2463 38.9336 81.2827L55.2167 70.9205Z" fill="#303030"/>
<path d="M104.98 115.666C104.98 115.666 106.768 101.563 99.8167 95.0089C92.8649 88.4545 78.9621 91.6324 73.9962 81.1054C72.9095 78.8009 72.0221 76.3352 71.2995 73.8887C58.248 83.3267 46.6049 79.689 40.1078 76.0365C39.3794 79.9759 38.4898 83.4533 37.4501 85.0779C34.2722 90.043 19.7734 92.8236 11.6297 97.1935C3.48666 101.563 1.5 115.665 1.5 115.665L104.98 115.666Z" fill="#1A6DF6" stroke="#303030" stroke-miterlimit="10"/>
<path d="M54.1328 13.6C49.267 13.5 44.1635 14.6743 41.0806 17.0664C35.3024 21.5488 33.2635 29.8265 34.0736 36.8136C34.0743 36.8202 35.6629 50.5192 36.4569 53.895C37.2515 57.2716 44.5505 67.839 46.3878 69.9831C49.8372 74.0079 58.1635 74.0874 61.6813 69.9831C63.5186 67.8398 70.2217 57.2716 71.0163 53.895C71.811 50.5185 71.5969 36.8136 71.5969 36.8136C71.8044 32.4202 71.1149 27.6993 69.5168 23.609C68.3034 20.5033 66.3904 17.5682 63.4641 15.8398C61.0478 14.4116 57.6521 13.6729 54.1328 13.6Z" fill="white" stroke="#303030" stroke-miterlimit="10"/>
<path d="M48.2275 59.6931C48.2275 59.6931 52.4789 63.3772 58.1056 60.0521" stroke="black" stroke-miterlimit="10" stroke-linecap="round" stroke-linejoin="round"/>
<path d="M41.6211 41.3821C41.6211 41.3821 45.1963 38.2042 48.5729 41.1835" stroke="black" stroke-miterlimit="10" stroke-linecap="round" stroke-linejoin="round"/>
<path d="M57.5107 41.3821C57.5107 41.3821 61.086 38.2042 64.4625 41.1835" stroke="black" stroke-miterlimit="10" stroke-linecap="round" stroke-linejoin="round"/>
<path d="M38.8408 37.2109C38.8408 37.2109 43.608 31.4511 49.3678 35.4237" stroke="black" stroke-miterlimit="10" stroke-linecap="round" stroke-linejoin="round"/>
<path d="M67.442 37.2109C67.442 37.2109 62.6756 31.4511 56.915 35.4237" stroke="black" stroke-miterlimit="10" stroke-linecap="round" stroke-linejoin="round"/>
<path d="M49.9629 55.4836C49.9629 55.4836 52.3462 58.2641 57.312 55.4836" stroke="black" stroke-miterlimit="10" stroke-linecap="round" stroke-linejoin="round"/>
<path d="M34.471 39.7928C34.471 39.7928 30.1011 33.0397 29.3072 39.1968C28.5126 45.3539 36.259 52.3057 36.259 52.3057L34.471 39.7928Z" fill="white" stroke="#303030" stroke-miterlimit="10"/>
<path d="M52.5445 2.05541C52.5445 2.05541 46.586 12.7811 48.1746 16.555C49.7631 20.3288 53.1397 25.294 60.6875 29.8625C68.2352 34.4303 68.8305 46.7453 68.2352 56.6755C67.6392 66.6066 59.8935 79.7154 59.0989 95.8036C58.3042 111.892 75.187 115.07 80.5495 113.48C85.9119 111.891 88.2959 108.515 88.2959 108.515C88.2959 108.515 85.3167 108.912 84.3234 107.72C83.3301 106.528 82.9327 104.741 82.9327 104.741C82.9327 104.741 88.4938 105.735 91.6717 102.358C94.8496 98.9815 100.411 101.166 102.199 106.728C103.986 112.289 105.575 114.474 105.575 114.474C105.575 114.474 116.5 110.899 116.5 100.372C116.5 89.8451 113.52 78.7229 106.171 72.3671C98.8222 66.0113 93.4597 60.8475 91.0765 50.5192C88.6932 40.1908 93.6584 23.7054 79.7556 9.20659C65.852 -5.29295 52.5445 2.05541 52.5445 2.05541Z" fill="#303030"/>
<path d="M48.9698 12.5824C48.9698 12.5824 44.2026 23.9033 40.2308 28.6705C36.259 33.4377 34.471 39.7935 34.471 39.7935C34.471 39.7935 28.1152 35.821 26.1293 24.8974C24.1434 13.9738 32.0878 -0.724392 52.5457 2.05617L48.9698 12.5824Z" fill="#303030"/>
</svg>
