<svg width="211" height="112" viewBox="0 0 211 112" fill="none" xmlns="http://www.w3.org/2000/svg">
<path d="M186.874 64.5397C185.089 51.0832 177.017 38.7966 165.893 32.603C154.77 26.4094 140.889 26.4708 129.813 32.7633C122.924 13.1099 103.869 -0.670557 84.5462 0.0252004C65.224 0.720958 47.049 15.8435 41.3705 35.9488C29.189 35.1917 17.7568 47.6693 18.4887 60.9211C9.23353 56.3765 -1.90718 68.1515 0.277709 78.9408C2.46259 89.7285 14.3603 95.9051 24.2205 93.2721C48.9141 113.096 83.6936 116.87 111.498 102.742C133.607 118.65 167.475 109.428 180.092 84.0669C178.427 87.4144 204.826 92.8355 209.931 80.6018C215.712 66.748 196.596 58.4126 186.874 64.5397Z" fill="#57AFFF"/>
<path d="M0.27734 78.9409C2.46223 89.7285 14.36 95.9051 24.2202 93.2721C48.9138 113.094 83.6933 116.87 111.498 102.742C133.607 118.65 167.474 109.428 180.092 84.067C178.425 87.4144 204.826 92.8355 209.931 80.6018C215.711 66.748 196.594 58.4126 186.873 64.5397C185.088 51.0833 177.016 38.7967 165.893 32.603C162.769 30.8637 159.424 29.6358 155.99 28.8821C159.699 33.9605 162.779 39.5504 164.04 45.8344C165.775 54.4768 163.239 64.6591 156.251 69.1849C151.378 72.3414 145.356 72.2885 139.692 71.9986C133.026 71.6576 125.076 70.1791 122.438 63.5097C121.545 61.2502 121.448 58.7298 121.045 56.31C119.004 44.0762 107.879 34.455 96.4656 35.0501C102.359 35.8141 106.2 43.2355 105.003 49.5587C103.805 55.8819 98.7461 60.7011 93.1538 62.8651C87.563 65.0291 81.4708 64.966 75.5446 64.6164C65.6217 64.0315 54.6628 62.0977 48.4577 53.6514C43.6114 59.3147 34.9565 60.5237 28.952 56.3765C26.0069 54.3421 23.9412 51.1788 22.7829 47.6369C22.6889 47.347 22.6261 46.9275 22.5807 46.4346C19.8065 50.645 18.2 55.7165 18.4868 60.9211C9.23471 56.3765 -1.90598 68.1532 0.27734 78.9409Z" fill="#57AFFF"/>
<path d="M180.093 84.067C178.427 87.4144 204.827 92.8355 209.932 80.6018C215.713 66.748 196.596 58.4126 186.875 64.5397C191.387 63.9292 196.357 63.8166 200.828 64.7256C203.315 65.232 206.072 66.2467 207.095 68.7637C207.509 69.7835 207.577 70.9328 207.522 72.0464C207.337 75.7929 205.697 79.5633 202.795 81.5892C200.234 83.378 197.047 83.656 194.006 83.7992C189.909 83.9936 184.19 84.1744 180.093 84.067Z" fill="#57AFFF"/>
<path d="M180.094 84.067C167.477 109.428 133.609 118.65 111.5 102.742C83.6956 116.868 48.9145 113.094 24.2225 93.2721C14.3623 95.9051 2.46298 89.7302 0.279662 78.9409C-1.90522 68.1532 9.23548 56.3765 18.4907 60.9211C11.8216 61.5895 7.35781 70.2763 9.34521 77.2339C11.3326 84.1931 19.7979 87.8646 25.6409 84.3023C24.2068 80.3665 23.4984 76.1186 23.5705 71.8861C26.1535 78.02 33.2818 79.9521 39.4806 80.1346C45.4648 80.3102 51.4724 79.5479 57.2591 77.8819C55.8202 85.8183 49.1794 92.2864 41.7705 92.9651C52.5272 99.5356 65.2996 100.925 77.6346 100.804C85.94 100.723 94.5652 99.9176 101.772 95.4242C108.979 90.9307 114.35 81.8364 112.624 72.9962C118.682 78.8931 120.403 89.4284 116.583 97.2352C126.519 103.04 138.506 103.968 149.483 101.154C160.46 98.3402 171.453 91.9522 180.094 84.067Z" fill="#57AFFF"/>
</svg>
